# File produced by Open Asset Import Library (http://www.assimp.sf.net)
# (assimp v3.1.0)

mtllib Phalax.obj.mtl

# 114 vertex positions
v  0.00458029 4.6768e-05 -0.00417175
v  0.012931 0.000365051 -0.00528357
v  0.0134123 -0.00489632 -0.00451648
v  0.00486484 -0.00481142 -0.00321875
v  0.0160632 -0.00299536 -0.0037417
v  0.0152531 0.000376999 -0.0042312
v  0.0171768 0.000416229 -0.000445007
v  0.0176815 -0.00412547 -0.000938904
v  -0.00125824 0.000204819 -0.000373352
v  -0.00039093 -0.000423477 0.00713452
v  0.000255341 0.00345294 0.00681335
v  0.00295029 0.00685022 0.00121021
v  0.0179381 0.000364914 0.00213983
v  0.0175347 0.00487608 -0.00071698
v  0.0179386 0.00566426 0.0019295
v  0.0170327 0.00388379 0.00820276
v  0.0173067 1.2421e-05 0.00910199
v  0.0181991 0.000309219 0.00296875
v  0.0180161 0.0081385 0.00251141
v  0.00331354 0.00338528 0.00679102
v  0.00449802 0.00712964 0.00183197
v  0.00282929 -0.000106079 0.00714288
v  0.000381104 -0.00425623 0.00662335
v  0.00286856 -0.00705542 0.000353027
v  0.00472873 -0.00701314 0.00148328
v  0.00342682 -0.00355821 0.00661987
v  0.00605216 -0.0057636 -0.00114203
v  0.0109477 -0.00573033 -0.00244226
v  0.0170977 -0.00637015 -0.00185962
v  0.0154741 -0.00544456 -0.00207849
v  0.0182676 -0.00727983 0.00213129
v  0.0172238 -0.00693648 0.00206635
v  0.0171584 -0.00382538 0.00801276
v  0.0151658 -0.0037334 0.00790808
v  0.015246 5.2902e-05 0.00898956
v  0.0169894 0.00743173 0.00242053
v  0.0150417 0.00387471 0.00809564
v  0.0168742 0.00732944 -0.00152191
v  0.0152859 0.00608955 -0.00179419
v  0.0132412 0.00559515 -0.00425781
v  0.0107523 0.00624518 -0.00214703
v  0.00470651 0.00489421 -0.00297949
v  0.00585934 0.00605475 -0.000850647
v  0.0110537 -0.00650371 -0.00273096
v  0.0060148 -0.0065069 -0.00151465
v  0.0157983 -0.00591742 -0.00268182
v  0.0159532 0.00374577 -0.00357556
v  0.0181151 -0.00516066 0.00166266
v  0.000154144 -0.00525031 -6.189e-05
v  0.00232193 -0.00474016 0.000890198
v  0.00151889 -0.00479289 0.00249811
v  -0.00194046 -0.00476999 0.000918518
v  -0.00191205 -0.00472035 -0.00107642
v  -0.000334381 -0.00466451 -0.00229736
v  0.00312497 -0.00468741 -0.000717773
v  -0.00177765 -0.00332883 0.0037898
v  -0.00323956 -0.00332307 0.00258911
v  -0.00402243 -0.00327025 -7.2083e-05
v  -0.00316409 -0.00319124 -0.00270929
v  -0.000743683 -0.00311836 -0.00406354
v  0.00201917 -0.00307947 -0.00381268
v  0.00400775 -0.00311986 -0.00249744
v  0.000586914 -0.00334451 0.00435211
v  -0.00410504 -0.00117337 0.0032851
v  -0.00228207 -0.00118054 0.00478229
v  -0.00509805 -0.00113684 0.00114563
v  -0.00506448 -0.00107816 -0.00121234
v  -0.00401096 -0.00100897 -0.0033219
v  -0.00214612 -0.000942963 -0.00476508
v  0.000160645 -0.000893234 -0.00525617
v  0.00245248 -0.000869598 -0.00469775
v  0.00437491 0.000296249 -0.00325977
v  0.000109222 1.6113e-05 0.00528149
v  -0.0041445 0.00124521 0.00334473
v  -0.00232153 0.00123805 0.00484192
v  -0.00513751 0.00128175 0.00120526
v  -0.00510394 0.00134044 -0.00115277
v  -0.00405042 0.00140962 -0.00326227
v  -0.00218558 0.00147562 -0.00470544
v  0.000121185 0.00152536 -0.00519653
v  0.00241303 0.00154898 -0.00463818
v  -0.00335013 0.00345366 0.00275617
v  -0.00188821 0.00344792 0.00395685
v  -0.004133 0.0035065 9.4971e-05
v  -0.00327466 0.00358551 -0.00254224
v  -0.000854248 0.00365839 -0.00389648
v  0.0019086 0.00369727 -0.00364563
v  0.00389719 0.00365689 -0.00233038
v  0.000476379 0.00343222 0.00451917
v  -0.00210022 0.00502269 0.00115991
v  -0.00207181 0.00507233 -0.000835022
v  -0.000494141 0.00512817 -0.00205597
v  0.00296521 0.00510526 -0.000476379
v  0.00135913 0.00499979 0.0027395
v  -2.3193e-05 0.00561874 0.000206055
v  0.00216217 0.00505252 0.00113159
v  0.00447311 0.00792798 0.00206592
v  0.00333844 0.00367886 0.00756946
v  0.0100611 0.00408548 0.00719421
v  0.0104023 0.00712238 0.00146039
v  0.00285226 -0.000126678 0.0079939
v  0.0100903 3.098e-06 0.00751935
v  0.00346191 -0.00388881 0.00738287
v  0.00473007 -0.00782242 0.00167767
v  0.0106293 -0.00679511 0.00111725
v  0.0101939 -0.00405708 0.00699347
v  0.00579749 0.00681387 -0.00118622
v  0.0108328 0.00703488 -0.00239722
v  0.0143982 0.0043047 0.00837653
v  0.0169403 0.00819788 0.00236151
v  0.0146019 0.000102646 0.00933881
v  0.0171997 -0.00769997 0.0019696
v  0.0145346 -0.00405985 0.00817035
v  0.0155941 0.00660188 -0.00237317

# 128 UV coordinates
vt 0.054962 0.679534 0
vt 0.007349 0.516592 0
vt 0.109247 0.482258 0
vt 0.151163 0.652842 0
vt 0.399777 0.11286 0
vt 0.46697 0.094838 0
vt 0.468414 0.180495 0
vt 0.375886 0.175568 0
vt 0.472909 0.863867 0
vt 0.462701 0.729703 0
vt 0.541893 0.729099 0
vt 0.622078 0.861803 0
vt 0.4682 0.234464 0
vt 0.558501 0.176262 0
vt 0.575109 0.22946 0
vt 0.545604 0.362086 0
vt 0.464782 0.37237 0
vt 0.467375 0.251692 0
vt 0.625571 0.24029 0
vt 0.680073 0.67947 0
vt 0.542188 0.664904 0
vt 0.672613 0.647984 0
vt 0.466383 0.671466 0
vt 0.383459 0.732016 0
vt 0.241472 0.687551 0
vt 0.258689 0.649042 0
vt 0.390033 0.666604 0
vt 0.193094 0.625597 0
vt 0.158272 0.525341 0
vt 0.156642 0.394849 0
vt 0.15252 0.42975 0
vt 0.23893 0.357871 0
vt 0.241697 0.378616 0
vt 0.384015 0.362247 0
vt 0.384538 0.405512 0
vt 0.466056 0.407477 0
vt 0.695586 0.35499 0
vt 0.691018 0.378031 0
vt 0.547496 0.404549 0
vt 0.800474 0.413115 0
vt 0.776179 0.4295 0
vt 0.822374 0.48383 0
vt 0.773063 0.525915 0
vt 0.781264 0.654997 0
vt 0.737871 0.626056 0
vt 0.171314 0.52061 0
vt 0.200814 0.61577 0
vt 0.157061 0.432066 0
vt 0.467341 0.043413 0
vt 0.359088 0.061234 0
vt 0.575594 0.062295 0
vt 0.606981 0.15607 0
vt 0.534028 0.113308 0
vt 0.313444 0.239686 0
vt 0.331294 0.154692 0
vt 0.356374 0.228787 0
vt 0.877428 0.684267 0
vt 0.92335 0.520839 0
vt 0.316283 0.877281 0
vt 0.579969 0.962303 0
vt 0.472366 0.989387 0
vt 0.362383 0.970888 0
vt 0.669779 0.200867 0
vt 0.623444 0.203369 0
vt 0.642338 0.12292 0
vt 0.70554 0.162232 0
vt 0.71281 0.20076 0
vt 0.70789 0.238773 0
vt 0.647268 0.282828 0
vt 0.728591 0.093363 0
vt 0.741112 0.119872 0
vt 0.750174 0.16748 0
vt 0.755029 0.21633 0
vt 0.746156 0.264296 0
vt 0.73212 0.308076 0
vt 0.709215 0.345508 0
vt 0.702035 0.057575 0
vt 0.786612 0.103315 0
vt 0.782486 0.065867 0
vt 0.78932 0.141054 0
vt 0.791303 0.180075 0
vt 0.793013 0.2182 0
vt 0.791958 0.256004 0
vt 0.790879 0.294808 0
vt 0.788121 0.333702 0
vt 0.818539 0.381984 0
vt 0.80986 0.015451 0
vt 0.833612 0.102929 0
vt 0.838263 0.065589 0
vt 0.830832 0.140578 0
vt 0.830162 0.179317 0
vt 0.830158 0.217269 0
vt 0.834047 0.254735 0
vt 0.838574 0.293184 0
vt 0.845401 0.331371 0
vt 0.879337 0.117552 0
vt 0.89286 0.091866 0
vt 0.870691 0.164689 0
vt 0.867762 0.21339 0
vt 0.88035 0.260091 0
vt 0.899367 0.301587 0
vt 0.925028 0.336252 0
vt 0.918831 0.056724 0
vt 0.91493 0.158424 0
vt 0.908543 0.195998 0
vt 0.915887 0.232552 0
vt 0.982 0.266344 0
vt 0.979849 0.124192 0
vt 0.95004 0.194179 0
vt 0.995471 0.194996 0
vt 0.667746 0.637488 0
vt 0.536109 0.649166 0
vt 0.551587 0.513495 0
vt 0.683922 0.519953 0
vt 0.466201 0.65745 0
vt 0.465905 0.513406 0
vt 0.395886 0.650271 0
vt 0.263705 0.638161 0
vt 0.247968 0.520242 0
vt 0.380341 0.514224 0
vt 0.730517 0.615947 0
vt 0.760172 0.520975 0
vt 0.548988 0.421582 0
vt 0.690753 0.386956 0
vt 0.467148 0.418326 0
vt 0.241971 0.38721 0
vt 0.385022 0.422107 0
vt 0.771744 0.431343 0

# 114 vertex normals
vn -0.401479 0.0244155 -0.915543
vn 0.101781 0.0272535 -0.994433
vn 0.135443 -0.598263 -0.78977
vn -0.285325 -0.559785 -0.777966
vn 0.680304 -0.043002 -0.731668
vn 0.627597 0.0298787 -0.777965
vn 0.943556 0.0214243 -0.33052
vn 0.912769 -0.0113833 -0.408317
vn -0.912299 0.0345163 -0.408067
vn -0.704509 -0.0286268 0.709118
vn -0.564088 0.548766 0.616977
vn -0.46286 0.874507 -0.144907
vn 0.974439 0.0206003 -0.223704
vn 0.909945 0.0571943 -0.410765
vn 0.971706 0.0251787 -0.234847
vn 0.48272 0.480462 0.732214
vn 0.586666 -0.0144352 0.8097
vn 0.999646 0.0173352 -0.0202032
vn 0.52331 0.836984 0.160012
vn -0.807984 0.414811 0.418442
vn -0.811198 0.556211 -0.180521
vn -0.693627 -0.0239881 0.719935
vn -0.530064 -0.621226 0.577157
vn -0.382862 -0.890639 -0.245313
vn -0.748331 -0.640537 -0.172373
vn -0.77498 -0.461453 0.431819
vn -0.316884 -0.5998 -0.734727
vn -0.163918 -0.364246 -0.916764
vn 0.409749 -0.754096 -0.513269
vn 0.345231 -0.536585 -0.769995
vn 0.577812 -0.811158 0.0903048
vn 0.458305 -0.834363 0.306259
vn 0.503475 -0.515682 0.693243
vn 0.35176 -0.473561 0.807468
vn 0.229592 -0.0250561 0.972964
vn 0.363238 0.836743 0.40978
vn 0.34957 0.434903 0.829856
vn 0.325615 0.819516 -0.47156
vn 0.276073 0.579462 -0.766817
vn 0.100623 0.639229 -0.762405
vn -0.197124 0.37789 -0.904622
vn -0.338918 0.575566 -0.744216
vn -0.409261 0.575408 -0.708104
vn -0.0816703 -0.402092 -0.91195
vn -0.500603 -0.417743 -0.758214
vn 0.511377 -0.295333 -0.807015
vn 0.679359 0.0942134 -0.727733
vn 0.971132 0.0126654 -0.238205
vn 0.00183103 -0.999653 -0.0262765
vn 0.0838046 -0.996468 0.00543204
vn -0.0857287 -0.936703 0.339468
vn -0.363205 -0.913672 0.182442
vn -0.392542 -0.887875 -0.239975
vn -0.0543539 -0.887463 -0.457664
vn 0.219251 -0.912466 -0.345448
vn -0.317642 -0.637419 0.701997
vn -0.623458 -0.648301 0.437043
vn -0.771406 -0.635779 -0.0267957
vn -0.58705 -0.628618 -0.510109
vn -0.157875 -0.614961 -0.772592
vn 0.315449 -0.596351 -0.738145
vn 0.483488 -0.580418 -0.655251
vn -0.137581 -0.627114 0.766681
vn -0.774847 -0.258587 0.57684
vn -0.397659 -0.242227 0.884982
vn -0.947329 -0.252336 0.197218
vn -0.94115 -0.241559 -0.236401
vn -0.744685 -0.244485 -0.621024
vn -0.406117 -0.216777 -0.887737
vn 0.0180673 -0.20762 -0.978043
vn 0.414727 -0.202465 -0.887136
vn 0.624537 0.0263993 -0.780549
vn -0.146582 -0.0297254 0.988752
vn -0.782398 0.20445 0.588263
vn -0.401475 0.186531 0.896674
vn -0.954886 0.211315 0.20866
vn -0.948721 0.222088 -0.224957
vn -0.752761 0.25035 -0.608832
vn -0.413692 0.246872 -0.876307
vn 0.0104983 0.256028 -0.966612
vn 0.410336 0.260729 -0.873868
vn -0.643925 0.605318 0.467921
vn -0.328851 0.59471 0.733605
vn -0.791738 0.610849 0.00390613
vn -0.607635 0.633515 -0.478997
vn -0.178475 0.64679 -0.741491
vn 0.302259 0.645688 -0.701233
vn 0.483147 0.621704 -0.616485
vn -0.138069 0.577024 0.804972
vn -0.40343 0.883462 0.2382
vn -0.421477 0.885344 -0.196272
vn -0.0823111 0.899292 -0.429534
vn 0.221902 0.940832 -0.256113
vn -0.0598781 0.922255 0.381916
vn -0.028718 0.999238 0.026429
vn 0.196667 0.9718 0.130104
vn -0.605032 0.792722 0.0743434
vn -0.60166 0.441341 0.665751
vn -0.110938 0.564941 0.81764
vn -0.0361958 0.986441 0.160074
vn -0.688103 -0.0290841 0.72503
vn -0.134071 -0.0274066 0.990593
vn -0.586389 -0.493001 0.642727
vn -0.578793 -0.814735 0.0347305
vn -0.00152601 -0.993478 0.114018
vn -0.0866443 -0.608311 0.788955
vn -0.514552 0.43804 -0.737128
vn -0.0954653 0.443632 -0.89111
vn 0.14942 0.517262 0.842683
vn 0.613863 0.760782 0.210674
vn 0.0950043 -0.014985 0.995364
vn 0.629973 -0.75565 0.179238
vn 0.148231 -0.54388 0.825968
vn 0.500851 0.351246 -0.791059

# Mesh '' with 158 faces
g 
usemtl DefaultMaterial
f  1/1/1 2/2/2 3/3/3
f  1/1/1 3/3/3 4/4/4
f  5/5/5 6/6/6 7/7/7
f  5/5/5 7/7/7 8/8/8
f  9/9/9 10/10/10 11/11/11
f  9/9/9 11/11/11 12/12/12
f  13/13/13 7/7/7 14/14/14
f  13/13/13 14/14/14 15/15/15
f  16/16/16 17/17/17 18/18/18
f  16/16/16 18/18/18 19/19/19
f  12/20/12 11/11/11 20/21/20
f  12/20/12 20/21/20 21/22/21
f  10/10/10 22/23/22 20/21/20
f  10/10/10 20/21/20 11/11/11
f  23/24/23 24/25/24 25/26/25
f  23/24/23 25/26/25 26/27/26
f  24/25/24 4/4/4 27/28/27
f  24/25/24 27/28/27 25/26/25
f  4/4/4 3/3/3 28/29/28
f  4/4/4 28/29/28 27/28/27
f  3/3/3 29/30/29 30/31/30
f  3/3/3 30/31/30 28/29/28
f  29/30/29 31/32/31 32/33/32
f  29/30/29 32/33/32 30/31/30
f  31/32/31 33/34/33 34/35/34
f  31/32/31 34/35/34 32/33/32
f  17/17/17 35/36/35 34/35/34
f  17/17/17 34/35/34 33/34/33
f  16/16/16 19/37/19 36/38/36
f  16/16/16 36/38/36 37/39/37
f  19/37/19 38/40/38 39/41/39
f  19/37/19 39/41/39 36/38/36
f  39/41/39 38/40/38 40/42/40
f  39/41/39 40/42/40 41/43/41
f  40/42/40 42/44/42 43/45/43
f  40/42/40 43/45/43 41/43/41
f  42/44/42 12/20/12 21/22/21
f  42/44/42 21/22/21 43/45/43
f  27/28/27 28/29/28 44/46/44
f  27/28/27 44/46/44 45/47/45
f  28/29/28 30/31/30 46/48/46
f  28/29/28 46/48/46 44/46/44
f  2/49/2 6/6/6 5/5/5
f  2/49/2 5/5/5 3/50/3
f  40/51/40 38/52/38 14/14/14
f  40/51/40 14/14/14 47/53/47
f  38/52/38 19/19/19 15/15/15
f  38/52/38 15/15/15 14/14/14
f  18/18/18 13/13/13 15/15/15
f  18/18/18 15/15/15 19/19/19
f  31/54/31 29/55/29 8/8/8
f  31/54/31 8/8/8 48/56/48
f  29/55/29 3/50/3 5/5/5
f  29/55/29 5/5/5 8/8/8
f  1/57/1 42/44/42 40/42/40
f  1/57/1 40/42/40 2/58/2
f  47/53/47 14/14/14 7/7/7
f  47/53/47 7/7/7 6/6/6
f  23/24/23 10/10/10 9/9/9
f  23/24/23 9/9/9 24/59/24
f  13/13/13 48/56/48 8/8/8
f  13/13/13 8/8/8 7/7/7
f  33/34/33 31/54/31 18/18/18
f  33/34/33 18/18/18 17/17/17
f  10/10/10 23/24/23 26/27/26
f  10/10/10 26/27/26 22/23/22
f  16/16/16 37/39/37 35/36/35
f  16/16/16 35/36/35 17/17/17
f  2/49/2 40/51/40 47/53/47
f  2/49/2 47/53/47 6/6/6
f  18/18/18 31/54/31 48/56/48
f  18/18/18 48/56/48 13/13/13
f  42/60/42 1/61/1 9/9/9
f  42/60/42 9/9/9 12/12/12
f  9/9/9 1/61/1 4/62/4
f  9/9/9 4/62/4 24/59/24
f  49/63/49 50/64/50 51/65/51
f  49/63/49 51/65/51 52/66/52
f  49/63/49 52/66/52 53/67/53
f  49/63/49 53/67/53 54/68/54
f  55/69/55 50/64/50 49/63/49
f  55/69/55 49/63/49 54/68/54
f  51/65/51 56/70/56 52/66/52
f  52/66/52 57/71/57 58/72/58
f  52/66/52 58/72/58 53/67/53
f  53/67/53 58/72/58 59/73/59
f  59/73/59 60/74/60 54/68/54
f  59/73/59 54/68/54 53/67/53
f  54/68/54 61/75/61 55/69/55
f  55/69/55 61/75/61 62/76/62
f  51/65/51 63/77/63 56/70/56
f  64/78/64 57/71/57 56/70/56
f  64/78/64 56/70/56 65/79/65
f  66/80/66 58/72/58 57/71/57
f  66/80/66 57/71/57 64/78/64
f  58/72/58 66/80/66 67/81/67
f  68/82/68 59/73/59 58/72/58
f  68/82/68 58/72/58 67/81/67
f  69/83/69 60/74/60 59/73/59
f  69/83/69 59/73/59 68/82/68
f  60/74/60 69/83/69 70/84/70
f  70/84/70 71/85/71 61/75/61
f  70/84/70 61/75/61 60/74/60
f  71/85/71 72/86/72 62/76/62
f  71/85/71 62/76/62 61/75/61
f  65/79/65 56/70/56 63/77/63
f  65/79/65 63/77/63 73/87/73
f  74/88/74 64/78/64 65/79/65
f  74/88/74 65/79/65 75/89/75
f  76/90/76 66/80/66 64/78/64
f  76/90/76 64/78/64 74/88/74
f  77/91/77 67/81/67 66/80/66
f  77/91/77 66/80/66 76/90/76
f  78/92/78 68/82/68 67/81/67
f  78/92/78 67/81/67 77/91/77
f  79/93/79 69/83/69 68/82/68
f  79/93/79 68/82/68 78/92/78
f  80/94/80 70/84/70 69/83/69
f  80/94/80 69/83/69 79/93/79
f  81/95/81 71/85/71 70/84/70
f  81/95/81 70/84/70 80/94/80
f  71/85/71 81/95/81 72/86/72
f  73/87/73 75/89/75 65/79/65
f  82/96/82 74/88/74 75/89/75
f  82/96/82 75/89/75 83/97/83
f  82/96/82 84/98/84 76/90/76
f  82/96/82 76/90/76 74/88/74
f  76/90/76 84/98/84 77/91/77
f  85/99/85 78/92/78 77/91/77
f  85/99/85 77/91/77 84/98/84
f  85/99/85 86/100/86 79/93/79
f  85/99/85 79/93/79 78/92/78
f  79/93/79 86/100/86 80/94/80
f  87/101/87 81/95/81 80/94/80
f  87/101/87 80/94/80 86/100/86
f  88/102/88 72/86/72 81/95/81
f  88/102/88 81/95/81 87/101/87
f  89/103/89 83/97/83 75/89/75
f  89/103/89 75/89/75 73/87/73
f  83/97/83 90/104/90 82/96/82
f  82/96/82 90/104/90 84/98/84
f  84/98/84 90/104/90 91/105/91
f  84/98/84 91/105/91 85/99/85
f  92/106/92 86/100/86 85/99/85
f  92/106/92 85/99/85 91/105/91
f  86/100/86 92/106/92 87/101/87
f  87/101/87 93/107/93 88/102/88
f  89/103/89 94/108/94 83/97/83
f  95/109/95 90/104/90 94/108/94
f  95/109/95 91/105/91 90/104/90
f  95/109/95 92/106/92 91/105/91
f  95/109/95 93/107/93 92/106/92
f  95/109/95 96/110/96 93/107/93
f  95/109/95 94/108/94 96/110/96
f  56/70/56 57/71/57 52/66/52
f  83/97/83 94/108/94 90/104/90
f  92/106/92 93/107/93 87/101/87
f  54/68/54 60/74/60 61/75/61

# Mesh '' with 52 faces
g 
usemtl DefaultMaterial
f  97/111/97 98/112/98 99/113/99
f  97/111/97 99/113/99 100/114/100
f  98/112/98 101/115/101 102/116/102
f  98/112/98 102/116/102 99/113/99
f  103/117/103 104/118/104 105/119/105
f  103/117/103 105/119/105 106/120/106
f  104/118/104 45/47/45 44/46/44
f  104/118/104 44/46/44 105/119/105
f  107/121/107 97/111/97 100/114/100
f  107/121/107 100/114/100 108/122/108
f  100/114/100 99/113/99 109/123/109
f  100/114/100 109/123/109 110/124/110
f  99/113/99 102/116/102 111/125/111
f  99/113/99 111/125/111 109/123/109
f  106/120/106 105/119/105 112/126/112
f  106/120/106 112/126/112 113/127/113
f  105/119/105 44/46/44 46/48/46
f  105/119/105 46/48/46 112/126/112
f  108/122/108 100/114/100 110/124/110
f  108/122/108 110/124/110 114/128/114
f  98/112/98 97/111/97 21/22/21
f  98/112/98 21/22/21 20/21/20
f  20/21/20 22/23/22 101/115/101
f  20/21/20 101/115/101 98/112/98
f  26/27/26 25/26/25 104/118/104
f  26/27/26 104/118/104 103/117/103
f  25/26/25 27/28/27 45/47/45
f  25/26/25 45/47/45 104/118/104
f  30/31/30 32/33/32 112/126/112
f  30/31/30 112/126/112 46/48/46
f  32/33/32 34/35/34 113/127/113
f  32/33/32 113/127/113 112/126/112
f  34/35/34 35/36/35 111/125/111
f  34/35/34 111/125/111 113/127/113
f  37/39/37 36/38/36 110/124/110
f  37/39/37 110/124/110 109/123/109
f  36/38/36 39/41/39 114/128/114
f  36/38/36 114/128/114 110/124/110
f  39/41/39 41/43/41 108/122/108
f  39/41/39 108/122/108 114/128/114
f  41/43/41 43/45/43 107/121/107
f  41/43/41 107/121/107 108/122/108
f  97/111/97 107/121/107 43/45/43
f  97/111/97 43/45/43 21/22/21
f  103/117/103 106/120/106 102/116/102
f  103/117/103 102/116/102 101/115/101
f  106/120/106 113/127/113 111/125/111
f  106/120/106 111/125/111 102/116/102
f  26/27/26 103/117/103 101/115/101
f  26/27/26 101/115/101 22/23/22
f  37/39/37 109/123/109 111/125/111
f  37/39/37 111/125/111 35/36/35

