# File produced by Open Asset Import Library (http://www.assimp.sf.net)
# (assimp v3.1.0)

mtllib WheelB.obj.mtl

# 88 vertex positions
v  0 -0.0715333 -7.6e-08
v  0 -0.0644492 0.031037
v  -0.0188662 -0.0644492 0.0236573
v  -0.030259 -0.0644492 -7.6e-08
v  -0.0188662 -0.0644492 -0.0236575
v  0 -0.0644492 -0.0310372
v  0.0188662 -0.0644492 -0.0236575
v  0.030259 -0.0644492 -6.1e-08
v  0.0188661 -0.0644492 0.0236573
v  -0.0242658 -0.0446002 0.0503884
v  0 -0.0446002 0.0559269
v  -0.0437255 -0.0446002 0.0348698
v  -0.0545248 -0.0446002 0.0124448
v  -0.0545248 -0.0446002 -0.012445
v  -0.0437255 -0.0446002 -0.03487
v  -0.0242658 -0.0446002 -0.0503885
v  0 -0.0446002 -0.0559271
v  0.0242658 -0.0446002 -0.0503885
v  0.0437255 -0.0446002 -0.03487
v  0.0545248 -0.0446002 -0.012445
v  0.0545248 -0.0446002 0.0124449
v  0.0437254 -0.0446002 0.0348699
v  0.0242657 -0.0446002 0.0503884
v  -0.029439 -0.0213971 0.0611306
v  0 -0.0213971 0.0678498
v  -0.0530472 -0.0213971 0.0423037
v  -0.0661488 -0.0213971 0.0150979
v  -0.0661488 -0.0213971 -0.0150981
v  -0.0530472 -0.0213971 -0.0423038
v  -0.029439 -0.0213971 -0.0611307
v  0 -0.0213971 -0.06785
v  0.029439 -0.0213971 -0.0611307
v  0.0530472 -0.0213971 -0.0423038
v  0.0661488 -0.0213971 -0.0150981
v  0.0661488 -0.0213971 0.015098
v  0.0530472 -0.0213971 0.0423037
v  0.0294389 -0.0213971 0.0611306
v  0 3.1e-08 0.0710892
v  -0.0308445 3.1e-08 0.0640491
v  -0.0555798 3.1e-08 0.0443234
v  -0.0693069 3.1e-08 0.0158188
v  -0.0693069 4.6e-08 -0.0158189
v  -0.0555798 4.6e-08 -0.0443235
v  -0.0308445 4.6e-08 -0.0640493
v  0 4.6e-08 -0.0710893
v  0.0308445 4.6e-08 -0.0640493
v  0.0555799 4.6e-08 -0.0443235
v  0.0693069 4.6e-08 -0.0158189
v  0.0693069 3.1e-08 0.0158188
v  0.0555798 3.1e-08 0.0443234
v  0.0308444 3.1e-08 0.0640492
v  -0.0242658 0.0446003 0.0503884
v  -0.029439 0.0213972 0.0611306
v  0 0.0213972 0.0678498
v  0 0.0446003 0.0559269
v  -0.0437255 0.0446003 0.0348698
v  -0.0530472 0.0213972 0.0423037
v  -0.0545248 0.0446003 0.0124448
v  -0.0661488 0.0213972 0.015098
v  -0.0545248 0.0446003 -0.012445
v  -0.0661488 0.0213972 -0.0150981
v  -0.0437255 0.0446003 -0.03487
v  -0.0530472 0.0213972 -0.0423038
v  -0.0242658 0.0446003 -0.0503885
v  -0.029439 0.0213972 -0.0611307
v  0 0.0446003 -0.055927
v  0 0.0213972 -0.06785
v  0.0242658 0.0446003 -0.0503885
v  0.029439 0.0213972 -0.0611307
v  0.0437255 0.0446003 -0.0348699
v  0.0530472 0.0213972 -0.0423038
v  0.0545248 0.0446003 -0.012445
v  0.0661488 0.0213972 -0.0150981
v  0.0545248 0.0446003 0.0124449
v  0.0661488 0.0213972 0.015098
v  0.0437254 0.0446003 0.0348699
v  0.0530472 0.0213972 0.0423037
v  0.0242657 0.0446003 0.0503884
v  0.0294389 0.0213972 0.0611306
v  -0.0188662 0.0644493 0.0236573
v  0 0.0644493 0.031037
v  -0.0302589 0.0644493 -7.6e-08
v  -0.0188662 0.0644493 -0.0236575
v  0 0.0644493 -0.0310372
v  0.0188662 0.0644493 -0.0236575
v  0.0302589 0.0644493 -5.3e-08
v  0.0188661 0.0644493 0.0236573
v  0 0.0715333 -7.6e-08

# 109 UV coordinates
vt 0.785612 0.140521 0
vt 0.84612 0.20585 0
vt 0.79155 0.229321 0
vt 0.741309 0.151425 0
vt 0.697372 0.23342 0
vt 0.646487 0.152015 0
vt 0.591719 0.230588 0
vt 0.547253 0.146612 0
vt 0.500499 0.231827 0
vt 0.453745 0.146612 0
vt 0.409281 0.230588 0
vt 0.354513 0.152015 0
vt 0.303631 0.23342 0
vt 0.259695 0.151425 0
vt 0.209456 0.229321 0
vt 0.215395 0.140522 0
vt 0.154887 0.205851 0
vt 0.865389 0.305784 0
vt 0.920722 0.272603 0
vt 0.804377 0.320303 0
vt 0.742748 0.32381 0
vt 0.682283 0.324488 0
vt 0.62206 0.322961 0
vt 0.562124 0.321092 0
vt 0.500499 0.319345 0
vt 0.438874 0.321092 0
vt 0.37894 0.322962 0
vt 0.31872 0.324488 0
vt 0.258257 0.32381 0
vt 0.196629 0.320303 0
vt 0.13562 0.305785 0
vt 0.080286 0.272604 0
vt 0.895935 0.380944 0
vt 0.97011 0.358651 0
vt 0.824158 0.390693 0
vt 0.755203 0.393438 0
vt 0.689202 0.394253 0
vt 0.625258 0.393224 0
vt 0.562539 0.39211 0
vt 0.500499 0.3913 0
vt 0.43846 0.39211 0
vt 0.375742 0.393224 0
vt 0.3118 0.394253 0
vt 0.245803 0.393438 0
vt 0.176849 0.390694 0
vt 0.105074 0.380946 0
vt 0.030899 0.358653 0
vt 0.985956 0.449432 0
vt 0.905161 0.449523 0
vt 0.829859 0.449579 0
vt 0.758635 0.449351 0
vt 0.690966 0.45028 0
vt 0.626055 0.450118 0
vt 0.562856 0.450103 0
vt 0.500499 0.450104 0
vt 0.438143 0.450103 0
vt 0.374946 0.450118 0
vt 0.310037 0.45028 0
vt 0.24237 0.449351 0
vt 0.171149 0.44958 0
vt 0.095848 0.449525 0
vt 0.015054 0.449434 0
vt 0.865694 0.593383 0
vt 0.896087 0.518133 0
vt 0.970306 0.540255 0
vt 0.921102 0.626428 0
vt 0.804656 0.579011 0
vt 0.82432 0.508517 0
vt 0.743067 0.57568 0
vt 0.755614 0.505635 0
vt 0.682573 0.575376 0
vt 0.689591 0.505973 0
vt 0.622247 0.577101 0
vt 0.625382 0.506948 0
vt 0.562222 0.579039 0
vt 0.562586 0.508073 0
vt 0.5005 0.580808 0
vt 0.500499 0.508893 0
vt 0.438778 0.579039 0
vt 0.438413 0.508073 0
vt 0.378754 0.577101 0
vt 0.375619 0.506949 0
vt 0.31843 0.575376 0
vt 0.311411 0.505974 0
vt 0.257939 0.57568 0
vt 0.245392 0.505635 0
vt 0.196352 0.579012 0
vt 0.176687 0.508518 0
vt 0.135316 0.593385 0
vt 0.104923 0.518135 0
vt 0.079908 0.62643 0
vt 0.030705 0.540257 0
vt 0.792023 0.670057 0
vt 0.846654 0.693376 0
vt 0.697794 0.6663 0
vt 0.59195 0.669453 0
vt 0.5005 0.668278 0
vt 0.409052 0.669453 0
vt 0.30321 0.6663 0
vt 0.208986 0.670058 0
vt 0.154356 0.693378 0
vt 0.78631 0.758873 0
vt 0.742022 0.748135 0
vt 0.647029 0.747859 0
vt 0.547423 0.753459 0
vt 0.453577 0.753459 0
vt 0.353973 0.747859 0
vt 0.258986 0.748136 0
vt 0.214702 0.758873 0

# 88 vertex normals
vn 0 -1 0
vn 0 -0.888748 0.458397
vn -0.293078 -0.893608 0.339956
vn -0.446273 -0.894897 0
vn -0.293078 -0.893608 -0.339956
vn 0 -0.888748 -0.458397
vn 0.293078 -0.893608 -0.339956
vn 0.446273 -0.894897 0
vn 0.293078 -0.893608 0.339956
vn -0.341605 -0.622965 0.703719
vn 0 -0.630343 0.776317
vn -0.611144 -0.630433 0.4786
vn -0.755228 -0.630435 0.179392
vn -0.755228 -0.630435 -0.179392
vn -0.611144 -0.630433 -0.4786
vn -0.341605 -0.622965 -0.703719
vn 0 -0.630343 -0.776317
vn 0.341605 -0.622965 -0.703719
vn 0.611144 -0.630433 -0.4786
vn 0.755228 -0.630435 -0.179392
vn 0.755228 -0.630435 0.179392
vn 0.611144 -0.630433 0.4786
vn 0.341605 -0.622965 0.703719
vn -0.413782 -0.300891 0.859214
vn 0 -0.300888 0.95366
vn -0.745589 -0.300891 0.59461
vn -0.929749 -0.300893 0.212203
vn -0.929749 -0.300893 -0.212203
vn -0.745589 -0.300891 -0.59461
vn -0.413782 -0.300891 -0.859214
vn 0 -0.300888 -0.95366
vn 0.413782 -0.300891 -0.859214
vn 0.745603 -0.300884 -0.594596
vn 0.929749 -0.300893 -0.212203
vn 0.929749 -0.300893 0.212203
vn 0.745589 -0.300891 0.59461
vn 0.413782 -0.300891 0.859214
vn 0 0 1
vn -0.433883 0 0.900969
vn -0.781841 0 0.623478
vn -0.97493 0 0.222514
vn -0.97493 0 -0.222514
vn -0.781841 0 -0.623478
vn -0.433883 0 -0.900969
vn 0 0 -1
vn 0.433883 0 -0.900969
vn 0.781841 0 -0.623478
vn 0.97493 0 -0.222514
vn 0.97493 0 0.222514
vn 0.781841 0 0.623478
vn 0.433883 0 0.900969
vn -0.341605 0.622965 0.703719
vn -0.413782 0.300891 0.859214
vn 0 0.300888 0.95366
vn 0 0.630343 0.776317
vn -0.611144 0.630433 0.4786
vn -0.745589 0.300891 0.59461
vn -0.755228 0.630435 0.179392
vn -0.929749 0.300893 0.212203
vn -0.755228 0.630435 -0.179392
vn -0.929749 0.300893 -0.212203
vn -0.611144 0.630433 -0.4786
vn -0.745589 0.300891 -0.59461
vn -0.341605 0.622965 -0.703719
vn -0.413782 0.300891 -0.859214
vn 0 0.630343 -0.776317
vn 0 0.300888 -0.95366
vn 0.341605 0.622965 -0.703719
vn 0.413782 0.300891 -0.859214
vn 0.611144 0.630433 -0.4786
vn 0.745589 0.300891 -0.59461
vn 0.755228 0.630435 -0.179392
vn 0.929749 0.300893 -0.212203
vn 0.755228 0.630435 0.179392
vn 0.929749 0.300893 0.212203
vn 0.611144 0.630433 0.4786
vn 0.745589 0.300891 0.59461
vn 0.341605 0.622965 0.703719
vn 0.413782 0.300891 0.859214
vn -0.293078 0.893608 0.339956
vn 0 0.888748 0.458397
vn -0.446273 0.894897 0
vn -0.293078 0.893608 -0.339956
vn 0 0.888748 -0.458397
vn 0.293078 0.893608 -0.339956
vn 0.446273 0.894897 0
vn 0.293078 0.893608 0.339956
vn 0 1 0

# Mesh '' with 172 faces
g 
usemtl DefaultMaterial
f  1/1/1 2/2/2 3/3/3
f  1/4/1 3/3/3 4/5/4
f  1/6/1 4/5/4 5/7/5
f  1/8/1 5/7/5 6/9/6
f  1/10/1 6/9/6 7/11/7
f  1/12/1 7/11/7 8/13/8
f  1/14/1 8/13/8 9/15/9
f  1/16/1 9/15/9 2/17/2
f  10/18/10 3/3/3 2/2/2
f  10/18/10 2/2/2 11/19/11
f  3/3/3 10/18/10 12/20/12
f  13/21/13 4/5/4 3/3/3
f  13/21/13 3/3/3 12/20/12
f  4/5/4 13/21/13 14/22/14
f  15/23/15 5/7/5 4/5/4
f  15/23/15 4/5/4 14/22/14
f  5/7/5 15/23/15 16/24/16
f  17/25/17 6/9/6 5/7/5
f  17/25/17 5/7/5 16/24/16
f  18/26/18 7/11/7 6/9/6
f  18/26/18 6/9/6 17/25/17
f  7/11/7 18/26/18 19/27/19
f  20/28/20 8/13/8 7/11/7
f  20/28/20 7/11/7 19/27/19
f  8/13/8 20/28/20 21/29/21
f  22/30/22 9/15/9 8/13/8
f  22/30/22 8/13/8 21/29/21
f  9/15/9 22/30/22 23/31/23
f  11/32/11 2/17/2 9/15/9
f  11/32/11 9/15/9 23/31/23
f  24/33/24 10/18/10 11/19/11
f  24/33/24 11/19/11 25/34/25
f  26/35/26 12/20/12 10/18/10
f  26/35/26 10/18/10 24/33/24
f  27/36/27 13/21/13 12/20/12
f  27/36/27 12/20/12 26/35/26
f  28/37/28 14/22/14 13/21/13
f  28/37/28 13/21/13 27/36/27
f  29/38/29 15/23/15 14/22/14
f  29/38/29 14/22/14 28/37/28
f  30/39/30 16/24/16 15/23/15
f  30/39/30 15/23/15 29/38/29
f  31/40/31 17/25/17 16/24/16
f  31/40/31 16/24/16 30/39/30
f  32/41/32 18/26/18 17/25/17
f  32/41/32 17/25/17 31/40/31
f  33/42/33 19/27/19 18/26/18
f  33/42/33 18/26/18 32/41/32
f  34/43/34 20/28/20 19/27/19
f  34/43/34 19/27/19 33/42/33
f  35/44/35 21/29/21 20/28/20
f  35/44/35 20/28/20 34/43/34
f  36/45/36 22/30/22 21/29/21
f  36/45/36 21/29/21 35/44/35
f  37/46/37 23/31/23 22/30/22
f  37/46/37 22/30/22 36/45/36
f  25/47/25 11/32/11 23/31/23
f  25/47/25 23/31/23 37/46/37
f  38/48/38 39/49/39 24/33/24
f  38/48/38 24/33/24 25/34/25
f  39/49/39 40/50/40 26/35/26
f  39/49/39 26/35/26 24/33/24
f  40/50/40 41/51/41 27/36/27
f  40/50/40 27/36/27 26/35/26
f  41/51/41 42/52/42 28/37/28
f  41/51/41 28/37/28 27/36/27
f  42/52/42 43/53/43 29/38/29
f  42/52/42 29/38/29 28/37/28
f  43/53/43 44/54/44 30/39/30
f  43/53/43 30/39/30 29/38/29
f  44/54/44 45/55/45 31/40/31
f  44/54/44 31/40/31 30/39/30
f  45/55/45 46/56/46 32/41/32
f  45/55/45 32/41/32 31/40/31
f  46/56/46 47/57/47 33/42/33
f  46/56/46 33/42/33 32/41/32
f  47/57/47 48/58/48 34/43/34
f  47/57/47 34/43/34 33/42/33
f  48/58/48 49/59/49 35/44/35
f  48/58/48 35/44/35 34/43/34
f  49/59/49 50/60/50 36/45/36
f  49/59/49 36/45/36 35/44/35
f  50/60/50 51/61/51 37/46/37
f  50/60/50 37/46/37 36/45/36
f  51/61/51 38/62/38 25/47/25
f  51/61/51 25/47/25 37/46/37
f  52/63/52 53/64/53 54/65/54
f  52/63/52 54/65/54 55/66/55
f  56/67/56 57/68/57 53/64/53
f  56/67/56 53/64/53 52/63/52
f  58/69/58 59/70/59 57/68/57
f  58/69/58 57/68/57 56/67/56
f  60/71/60 61/72/61 59/70/59
f  60/71/60 59/70/59 58/69/58
f  62/73/62 63/74/63 61/72/61
f  62/73/62 61/72/61 60/71/60
f  64/75/64 65/76/65 63/74/63
f  64/75/64 63/74/63 62/73/62
f  66/77/66 67/78/67 65/76/65
f  66/77/66 65/76/65 64/75/64
f  68/79/68 69/80/69 67/78/67
f  68/79/68 67/78/67 66/77/66
f  70/81/70 71/82/71 69/80/69
f  70/81/70 69/80/69 68/79/68
f  72/83/72 73/84/73 71/82/71
f  72/83/72 71/82/71 70/81/70
f  74/85/74 75/86/75 73/84/73
f  74/85/74 73/84/73 72/83/72
f  76/87/76 77/88/77 75/86/75
f  76/87/76 75/86/75 74/85/74
f  78/89/78 79/90/79 77/88/77
f  78/89/78 77/88/77 76/87/76
f  55/91/55 54/92/54 79/90/79
f  55/91/55 79/90/79 78/89/78
f  80/93/80 52/63/52 55/66/55
f  80/93/80 55/66/55 81/94/81
f  52/63/52 80/93/80 56/67/56
f  82/95/82 58/69/58 56/67/56
f  82/95/82 56/67/56 80/93/80
f  58/69/58 82/95/82 60/71/60
f  83/96/83 62/73/62 60/71/60
f  83/96/83 60/71/60 82/95/82
f  62/73/62 83/96/83 64/75/64
f  84/97/84 66/77/66 64/75/64
f  84/97/84 64/75/64 83/96/83
f  85/98/85 68/79/68 66/77/66
f  85/98/85 66/77/66 84/97/84
f  68/79/68 85/98/85 70/81/70
f  86/99/86 72/83/72 70/81/70
f  86/99/86 70/81/70 85/98/85
f  72/83/72 86/99/86 74/85/74
f  87/100/87 76/87/76 74/85/74
f  87/100/87 74/85/74 86/99/86
f  76/87/76 87/100/87 78/89/78
f  81/101/81 55/91/55 78/89/78
f  81/101/81 78/89/78 87/100/87
f  88/102/88 80/93/80 81/94/81
f  88/103/88 82/95/82 80/93/80
f  88/104/88 83/96/83 82/95/82
f  88/105/88 84/97/84 83/96/83
f  88/106/88 85/98/85 84/97/84
f  88/107/88 86/99/86 85/98/85
f  88/108/88 87/100/87 86/99/86
f  88/109/88 81/101/81 87/100/87
f  54/65/54 53/64/53 39/49/39
f  54/65/54 39/49/39 38/48/38
f  53/64/53 57/68/57 40/50/40
f  53/64/53 40/50/40 39/49/39
f  57/68/57 59/70/59 41/51/41
f  57/68/57 41/51/41 40/50/40
f  59/70/59 61/72/61 42/52/42
f  59/70/59 42/52/42 41/51/41
f  61/72/61 63/74/63 43/53/43
f  61/72/61 43/53/43 42/52/42
f  63/74/63 65/76/65 44/54/44
f  63/74/63 44/54/44 43/53/43
f  65/76/65 67/78/67 45/55/45
f  65/76/65 45/55/45 44/54/44
f  67/78/67 69/80/69 46/56/46
f  67/78/67 46/56/46 45/55/45
f  69/80/69 71/82/71 47/57/47
f  69/80/69 47/57/47 46/56/46
f  71/82/71 73/84/73 48/58/48
f  71/82/71 48/58/48 47/57/47
f  73/84/73 75/86/75 49/59/49
f  73/84/73 49/59/49 48/58/48
f  75/86/75 77/88/77 50/60/50
f  75/86/75 50/60/50 49/59/49
f  77/88/77 79/90/79 51/61/51
f  77/88/77 51/61/51 50/60/50
f  79/90/79 54/92/54 38/62/38
f  79/90/79 38/62/38 51/61/51

