# File produced by Open Asset Import Library (http://www.assimp.sf.net)
# (assimp v3.1.0)

mtllib RShoulderPitch.obj.mtl

# 98 vertex positions
v  0 0 0.0412239
v  -8e-09 0.015802 0.0380859
v  -0.011771 0.011771 0.0380859
v  -0.015802 0 0.0380859
v  -0.011771 -0.011771 0.0380859
v  0 -0.015802 0.0380859
v  0.011771 -0.011771 0.0380859
v  0.015802 1.5e-08 0.0380859
v  0.011771 0.011771 0.0380859
v  0 0.0312624 0.0298251
v  -0.0119636 0.0288827 0.0298251
v  -0.0221058 0.0221058 0.0298251
v  -0.0288827 0.0119636 0.0298251
v  -0.0312624 0 0.0298251
v  -0.0288827 -0.0119636 0.0298251
v  -0.0221059 -0.0221058 0.0298251
v  -0.0119636 -0.0288827 0.0298251
v  0 -0.0312624 0.0298251
v  0.0119636 -0.0288827 0.0298251
v  0.0221059 -0.0221058 0.0298251
v  0.0288827 -0.0119636 0.0298251
v  0.0312624 1.5e-08 0.0298251
v  0.0288827 0.0119636 0.0298251
v  0.0221058 0.0221059 0.0298251
v  0.0119636 0.0288827 0.0298251
v  -0.0153796 0.0371296 0.0166467
v  0 0.0401888 0.0166467
v  -0.0284177 0.0284177 0.0166467
v  -0.0371296 0.0153796 0.0166467
v  -0.0401888 0 0.0166467
v  -0.0371296 -0.0153796 0.0166467
v  -0.0284178 -0.0284177 0.0166467
v  -0.0153796 -0.0371296 0.0166467
v  0 -0.0401888 0.0166467
v  0.0153796 -0.0371296 0.0166467
v  0.0284178 -0.0284177 0.0166467
v  0.0371296 -0.0153795 0.0166467
v  0.0401888 3.1e-08 0.0166467
v  0.0371296 0.0153796 0.0166467
v  0.0284177 0.0284178 0.0166467
v  0.0153795 0.0371296 0.0166467
v  -0.0166467 0.0401888 0
v  0 0.0435 0
v  -0.0307591 0.0307591 0
v  -0.0401888 0.0166467 0
v  -0.0435 0 0
v  -0.0401888 -0.0166467 0
v  -0.0307592 -0.0307591 0
v  -0.0166467 -0.0401888 0
v  0 -0.0435 0
v  0.0166467 -0.0401888 0
v  0.0307592 -0.0307591 0
v  0.0401888 -0.0166467 0
v  0.0435 3.1e-08 0
v  0.0401887 0.0166468 0
v  0.0307591 0.0307592 0
v  0.0166467 0.0401888 0
v  -0.0153796 0.0371296 -0.0166467
v  0 0.0401888 -0.0166467
v  -0.0284177 0.0284177 -0.0166467
v  -0.0371296 0.0153796 -0.0166467
v  -0.0401888 0 -0.0166467
v  -0.0371296 -0.0153796 -0.0166467
v  -0.0284178 -0.0284177 -0.0166467
v  -0.0153796 -0.0371296 -0.0166467
v  0 -0.0401888 -0.0166467
v  0.0153796 -0.0371296 -0.0166467
v  0.0284178 -0.0284177 -0.0166467
v  0.0371296 -0.0153795 -0.0166467
v  0.0401888 3.1e-08 -0.0166467
v  0.0371296 0.0153796 -0.0166467
v  0.0284177 0.0284178 -0.0166467
v  0.0153795 0.0371296 -0.0166467
v  -0.0111395 0.0284209 -0.0303678
v  0 0.0306367 -0.0303678
v  -0.0217212 0.0217212 -0.0303678
v  -0.0284209 0.0111395 -0.0303678
v  -0.0306367 0 -0.0303678
v  -0.0284209 -0.0111395 -0.0303678
v  -0.0217212 -0.0217212 -0.0303678
v  -0.0111395 -0.0284209 -0.0303678
v  0 -0.0306367 -0.0303678
v  0.0111395 -0.0284209 -0.0303678
v  0.0217212 -0.0217212 -0.0303678
v  0.0284209 -0.0111395 -0.0303678
v  0.0306367 1.5e-08 -0.0303678
v  0.0284209 0.0111395 -0.0303678
v  0.0217212 0.0217212 -0.0303678
v  0.0111395 0.0284209 -0.0303678
v  -8e-09 0.015802 -0.0380859
v  -0.011771 0.011771 -0.0380859
v  -0.015802 0 -0.0380859
v  -0.011771 -0.011771 -0.0380859
v  0 -0.015802 -0.0380859
v  0.011771 -0.011771 -0.0380859
v  0.015802 1.5e-08 -0.0380859
v  0.011771 0.011771 -0.0380859
v  0 0 -0.0412239

# 119 UV coordinates
vt 0.0625 1 0
vt 0.03125 0.875 0
vt 0.125 0.875 0
vt 0.125 1 0
vt 0.25 0.875 0
vt 0.3125 1 0
vt 0.375 0.875 0
vt 0.375 1 0
vt 0.5 0.875 0
vt 0.5625 1 0
vt 0.625 0.875 0
vt 0.625 1 0
vt 0.75 0.875 0
vt 0.8125 1 0
vt 0.875 0.875 0
vt 0.875 1 0
vt 0.96875 0.875 0
vt 0 0.75 0
vt 0.0625 0.75 0
vt 0.125 0.75 0
vt 0.1875 0.75 0
vt 0.25 0.75 0
vt 0.3125 0.75 0
vt 0.375 0.75 0
vt 0.4375 0.75 0
vt 0.5 0.75 0
vt 0.5625 0.75 0
vt 0.625 0.75 0
vt 0.6875 0.75 0
vt 0.75 0.75 0
vt 0.8125 0.75 0
vt 0.875 0.75 0
vt 0.9375 0.75 0
vt 1 0.75 0
vt 0.0625 0.625 0
vt 0 0.625 0
vt 0.125 0.625 0
vt 0.1875 0.625 0
vt 0.25 0.625 0
vt 0.3125 0.625 0
vt 0.375 0.625 0
vt 0.4375 0.625 0
vt 0.5 0.625 0
vt 0.5625 0.625 0
vt 0.625 0.625 0
vt 0.6875 0.625 0
vt 0.75 0.625 0
vt 0.8125 0.625 0
vt 0.875 0.625 0
vt 0.9375 0.625 0
vt 1 0.625 0
vt 0.0625 0.5 0
vt 0 0.5 0
vt 0.125 0.5 0
vt 0.1875 0.5 0
vt 0.25 0.5 0
vt 0.3125 0.5 0
vt 0.375 0.5 0
vt 0.4375 0.5 0
vt 0.5 0.5 0
vt 0.5625 0.5 0
vt 0.625 0.5 0
vt 0.6875 0.5 0
vt 0.75 0.5 0
vt 0.8125 0.5 0
vt 0.875 0.5 0
vt 0.9375 0.5 0
vt 1 0.5 0
vt 0.0625 0.375 0
vt 0 0.375 0
vt 0.125 0.375 0
vt 0.1875 0.375 0
vt 0.25 0.375 0
vt 0.3125 0.375 0
vt 0.375 0.375 0
vt 0.4375 0.375 0
vt 0.5 0.375 0
vt 0.5625 0.375 0
vt 0.625 0.375 0
vt 0.6875 0.375 0
vt 0.75 0.375 0
vt 0.8125 0.375 0
vt 0.875 0.375 0
vt 0.9375 0.375 0
vt 1 0.375 0
vt 0.0625 0.25 0
vt 0 0.25 0
vt 0.125 0.25 0
vt 0.1875 0.25 0
vt 0.25 0.25 0
vt 0.3125 0.25 0
vt 0.375 0.25 0
vt 0.4375 0.25 0
vt 0.5 0.25 0
vt 0.5625 0.25 0
vt 0.625 0.25 0
vt 0.6875 0.25 0
vt 0.75 0.25 0
vt 0.8125 0.25 0
vt 0.875 0.25 0
vt 0.9375 0.25 0
vt 1 0.25 0
vt 0.03125 0.125 0
vt 0.125 0.125 0
vt 0.25 0.125 0
vt 0.375 0.125 0
vt 0.5 0.125 0
vt 0.625 0.125 0
vt 0.75 0.125 0
vt 0.875 0.125 0
vt 0.96875 0.125 0
vt 0.0625 0 0
vt 0.125 0 0
vt 0.3125 0 0
vt 0.375 0 0
vt 0.5625 0 0
vt 0.625 0 0
vt 0.8125 0 0
vt 0.875 0 0

# 98 vertex normals
vn 0 0 1
vn 0 0.347766 0.937581
vn -0.253031 0.253031 0.933783
vn -0.347766 0 0.937581
vn -0.253031 -0.253031 0.933783
vn 0 -0.347766 0.937581
vn 0.253031 -0.253031 0.933783
vn 0.347766 0 0.937581
vn 0.253031 0.253031 0.933783
vn 0 0.685043 0.728503
vn -0.254589 0.635924 0.72855
vn -0.479703 0.479703 0.734691
vn -0.635924 0.254589 0.72855
vn -0.685043 0 0.728503
vn -0.635924 -0.254589 0.72855
vn -0.479703 -0.479703 0.734691
vn -0.254589 -0.635924 0.72855
vn 0 -0.685043 0.728503
vn 0.254589 -0.635924 0.72855
vn 0.479703 -0.479703 0.734691
vn 0.635924 -0.254589 0.72855
vn 0.685043 0 0.728503
vn 0.635924 0.254589 0.72855
vn 0.479703 0.479703 0.734691
vn 0.254589 0.635924 0.72855
vn -0.354423 0.855675 0.3771
vn 0 0.926173 0.377098
vn -0.654905 0.654905 0.377092
vn -0.855675 0.354423 0.3771
vn -0.926173 0 0.377098
vn -0.855675 -0.354423 0.3771
vn -0.654905 -0.654905 0.377092
vn -0.354423 -0.855675 0.3771
vn 0 -0.926173 0.377098
vn 0.354423 -0.855675 0.3771
vn 0.654905 -0.654905 0.377092
vn 0.855675 -0.354423 0.3771
vn 0.926173 0 0.377098
vn 0.855675 0.354423 0.3771
vn 0.654905 0.654905 0.377092
vn 0.354423 0.855675 0.3771
vn -0.382682 0.92388 0
vn 0 1 0
vn -0.707107 0.707107 0
vn -0.92388 0.382682 0
vn -1 0 0
vn -0.92388 -0.382682 0
vn -0.707107 -0.707107 0
vn -0.382682 -0.92388 0
vn 0 -1 0
vn 0.382682 -0.92388 0
vn 0.707107 -0.707107 0
vn 0.92388 -0.382682 0
vn 1 0 0
vn 0.92388 0.382682 0
vn 0.707107 0.707107 0
vn 0.382682 0.92388 0
vn -0.353047 0.853532 -0.383199
vn 0 0.923906 -0.382619
vn -0.652745 0.652745 -0.384512
vn -0.853532 0.353047 -0.383199
vn -0.923906 0 -0.382619
vn -0.853532 -0.353047 -0.383199
vn -0.652745 -0.652745 -0.384512
vn -0.353047 -0.853532 -0.383199
vn 0 -0.923906 -0.382619
vn 0.353047 -0.853532 -0.383199
vn 0.652745 -0.652745 -0.384512
vn 0.853532 -0.353047 -0.383199
vn 0.923906 0 -0.382619
vn 0.853532 0.353047 -0.383199
vn 0.652745 0.652745 -0.384512
vn 0.353047 0.853532 -0.383199
vn -0.245193 0.629371 -0.737409
vn 0 0.676454 -0.736485
vn -0.473935 0.473935 -0.74214
vn -0.629371 0.245193 -0.737409
vn -0.676454 0 -0.736485
vn -0.629371 -0.245193 -0.737409
vn -0.473935 -0.473935 -0.74214
vn -0.245193 -0.629371 -0.737409
vn 0 -0.676454 -0.736485
vn 0.245193 -0.629371 -0.737409
vn 0.473935 -0.473935 -0.74214
vn 0.629371 -0.245193 -0.737409
vn 0.676454 0 -0.736485
vn 0.629371 0.245193 -0.737409
vn 0.473935 0.473935 -0.74214
vn 0.245193 0.629371 -0.737409
vn 0 0.343191 -0.939266
vn -0.248759 0.248759 -0.936076
vn -0.343191 0 -0.939266
vn -0.248759 -0.248759 -0.936076
vn 0 -0.343191 -0.939266
vn 0.248759 -0.248759 -0.936076
vn 0.343191 0 -0.939266
vn 0.248759 0.248759 -0.936076
vn 0 0 -1

# Mesh '' with 192 faces
g 
usemtl DefaultMaterial
f  1/1/1 2/2/2 3/3/3
f  1/4/1 3/3/3 4/5/4
f  1/6/1 4/5/4 5/7/5
f  1/8/1 5/7/5 6/9/6
f  1/10/1 6/9/6 7/11/7
f  1/12/1 7/11/7 8/13/8
f  1/14/1 8/13/8 9/15/9
f  1/16/1 9/15/9 2/17/2
f  2/2/2 10/18/10 11/19/11
f  12/20/12 3/3/3 2/2/2
f  12/20/12 2/2/2 11/19/11
f  13/21/13 4/5/4 3/3/3
f  13/21/13 3/3/3 12/20/12
f  4/5/4 13/21/13 14/22/14
f  4/5/4 14/22/14 15/23/15
f  16/24/16 5/7/5 4/5/4
f  16/24/16 4/5/4 15/23/15
f  17/25/17 6/9/6 5/7/5
f  17/25/17 5/7/5 16/24/16
f  6/9/6 17/25/17 18/26/18
f  6/9/6 18/26/18 19/27/19
f  20/28/20 7/11/7 6/9/6
f  20/28/20 6/9/6 19/27/19
f  21/29/21 8/13/8 7/11/7
f  21/29/21 7/11/7 20/28/20
f  8/13/8 21/29/21 22/30/22
f  8/13/8 22/30/22 23/31/23
f  24/32/24 9/15/9 8/13/8
f  24/32/24 8/13/8 23/31/23
f  25/33/25 2/17/2 9/15/9
f  25/33/25 9/15/9 24/32/24
f  2/17/2 25/33/25 10/34/10
f  26/35/26 11/19/11 10/18/10
f  26/35/26 10/18/10 27/36/27
f  28/37/28 12/20/12 11/19/11
f  28/37/28 11/19/11 26/35/26
f  29/38/29 13/21/13 12/20/12
f  29/38/29 12/20/12 28/37/28
f  30/39/30 14/22/14 13/21/13
f  30/39/30 13/21/13 29/38/29
f  31/40/31 15/23/15 14/22/14
f  31/40/31 14/22/14 30/39/30
f  32/41/32 16/24/16 15/23/15
f  32/41/32 15/23/15 31/40/31
f  33/42/33 17/25/17 16/24/16
f  33/42/33 16/24/16 32/41/32
f  34/43/34 18/26/18 17/25/17
f  34/43/34 17/25/17 33/42/33
f  35/44/35 19/27/19 18/26/18
f  35/44/35 18/26/18 34/43/34
f  36/45/36 20/28/20 19/27/19
f  36/45/36 19/27/19 35/44/35
f  37/46/37 21/29/21 20/28/20
f  37/46/37 20/28/20 36/45/36
f  38/47/38 22/30/22 21/29/21
f  38/47/38 21/29/21 37/46/37
f  39/48/39 23/31/23 22/30/22
f  39/48/39 22/30/22 38/47/38
f  40/49/40 24/32/24 23/31/23
f  40/49/40 23/31/23 39/48/39
f  41/50/41 25/33/25 24/32/24
f  41/50/41 24/32/24 40/49/40
f  27/51/27 10/34/10 25/33/25
f  27/51/27 25/33/25 41/50/41
f  42/52/42 26/35/26 27/36/27
f  42/52/42 27/36/27 43/53/43
f  44/54/44 28/37/28 26/35/26
f  44/54/44 26/35/26 42/52/42
f  45/55/45 29/38/29 28/37/28
f  45/55/45 28/37/28 44/54/44
f  46/56/46 30/39/30 29/38/29
f  46/56/46 29/38/29 45/55/45
f  47/57/47 31/40/31 30/39/30
f  47/57/47 30/39/30 46/56/46
f  48/58/48 32/41/32 31/40/31
f  48/58/48 31/40/31 47/57/47
f  49/59/49 33/42/33 32/41/32
f  49/59/49 32/41/32 48/58/48
f  50/60/50 34/43/34 33/42/33
f  50/60/50 33/42/33 49/59/49
f  51/61/51 35/44/35 34/43/34
f  51/61/51 34/43/34 50/60/50
f  52/62/52 36/45/36 35/44/35
f  52/62/52 35/44/35 51/61/51
f  53/63/53 37/46/37 36/45/36
f  53/63/53 36/45/36 52/62/52
f  54/64/54 38/47/38 37/46/37
f  54/64/54 37/46/37 53/63/53
f  55/65/55 39/48/39 38/47/38
f  55/65/55 38/47/38 54/64/54
f  56/66/56 40/49/40 39/48/39
f  56/66/56 39/48/39 55/65/55
f  57/67/57 41/50/41 40/49/40
f  57/67/57 40/49/40 56/66/56
f  43/68/43 27/51/27 41/50/41
f  43/68/43 41/50/41 57/67/57
f  58/69/58 42/52/42 43/53/43
f  58/69/58 43/53/43 59/70/59
f  60/71/60 44/54/44 42/52/42
f  60/71/60 42/52/42 58/69/58
f  61/72/61 45/55/45 44/54/44
f  61/72/61 44/54/44 60/71/60
f  62/73/62 46/56/46 45/55/45
f  62/73/62 45/55/45 61/72/61
f  63/74/63 47/57/47 46/56/46
f  63/74/63 46/56/46 62/73/62
f  64/75/64 48/58/48 47/57/47
f  64/75/64 47/57/47 63/74/63
f  65/76/65 49/59/49 48/58/48
f  65/76/65 48/58/48 64/75/64
f  66/77/66 50/60/50 49/59/49
f  66/77/66 49/59/49 65/76/65
f  67/78/67 51/61/51 50/60/50
f  67/78/67 50/60/50 66/77/66
f  68/79/68 52/62/52 51/61/51
f  68/79/68 51/61/51 67/78/67
f  69/80/69 53/63/53 52/62/52
f  69/80/69 52/62/52 68/79/68
f  70/81/70 54/64/54 53/63/53
f  70/81/70 53/63/53 69/80/69
f  71/82/71 55/65/55 54/64/54
f  71/82/71 54/64/54 70/81/70
f  72/83/72 56/66/56 55/65/55
f  72/83/72 55/65/55 71/82/71
f  73/84/73 57/67/57 56/66/56
f  73/84/73 56/66/56 72/83/72
f  59/85/59 43/68/43 57/67/57
f  59/85/59 57/67/57 73/84/73
f  74/86/74 58/69/58 59/70/59
f  74/86/74 59/70/59 75/87/75
f  76/88/76 60/71/60 58/69/58
f  76/88/76 58/69/58 74/86/74
f  77/89/77 61/72/61 60/71/60
f  77/89/77 60/71/60 76/88/76
f  78/90/78 62/73/62 61/72/61
f  78/90/78 61/72/61 77/89/77
f  79/91/79 63/74/63 62/73/62
f  79/91/79 62/73/62 78/90/78
f  80/92/80 64/75/64 63/74/63
f  80/92/80 63/74/63 79/91/79
f  81/93/81 65/76/65 64/75/64
f  81/93/81 64/75/64 80/92/80
f  82/94/82 66/77/66 65/76/65
f  82/94/82 65/76/65 81/93/81
f  83/95/83 67/78/67 66/77/66
f  83/95/83 66/77/66 82/94/82
f  84/96/84 68/79/68 67/78/67
f  84/96/84 67/78/67 83/95/83
f  85/97/85 69/80/69 68/79/68
f  85/97/85 68/79/68 84/96/84
f  86/98/86 70/81/70 69/80/69
f  86/98/86 69/80/69 85/97/85
f  87/99/87 71/82/71 70/81/70
f  87/99/87 70/81/70 86/98/86
f  88/100/88 72/83/72 71/82/71
f  88/100/88 71/82/71 87/99/87
f  89/101/89 73/84/73 72/83/72
f  89/101/89 72/83/72 88/100/88
f  75/102/75 59/85/59 73/84/73
f  75/102/75 73/84/73 89/101/89
f  75/87/75 90/103/90 74/86/74
f  91/104/91 76/88/76 74/86/74
f  91/104/91 74/86/74 90/103/90
f  92/105/92 77/89/77 76/88/76
f  92/105/92 76/88/76 91/104/91
f  77/89/77 92/105/92 78/90/78
f  78/90/78 92/105/92 79/91/79
f  93/106/93 80/92/80 79/91/79
f  93/106/93 79/91/79 92/105/92
f  94/107/94 81/93/81 80/92/80
f  94/107/94 80/92/80 93/106/93
f  81/93/81 94/107/94 82/94/82
f  82/94/82 94/107/94 83/95/83
f  95/108/95 84/96/84 83/95/83
f  95/108/95 83/95/83 94/107/94
f  96/109/96 85/97/85 84/96/84
f  96/109/96 84/96/84 95/108/95
f  85/97/85 96/109/96 86/98/86
f  86/98/86 96/109/96 87/99/87
f  97/110/97 88/100/88 87/99/87
f  97/110/97 87/99/87 96/109/96
f  90/111/90 89/101/89 88/100/88
f  90/111/90 88/100/88 97/110/97
f  89/101/89 90/111/90 75/102/75
f  98/112/98 91/104/91 90/103/90
f  98/113/98 92/105/92 91/104/91
f  98/114/98 93/106/93 92/105/92
f  98/115/98 94/107/94 93/106/93
f  98/116/98 95/108/95 94/107/94
f  98/117/98 96/109/96 95/108/95
f  98/118/98 97/110/97 96/109/96
f  98/119/98 90/111/90 97/110/97

