# Blender 3.1.2
# www.blender.org
v -0.056000 -0.035680 -0.020601
v -0.055700 -0.026676 -0.031791
v -0.055700 -0.035940 -0.020750
v -0.055700 -0.040870 0.007206
v -0.055700 -0.040870 -0.007206
v -0.017200 -0.045000 -0.000000
v -0.055700 0.035940 0.020750
v -0.017200 0.042798 0.013906
v -0.055700 0.040870 0.007206
v 0.008375 -0.014506 0.062200
v 0.028100 -0.036406 0.026451
v 0.056700 -0.026812 0.022498
v 0.056700 -0.032889 0.011971
v 0.028100 -0.042798 0.013906
v -0.017200 -0.042798 0.013906
v 0.000000 -0.016750 0.062200
v -0.017200 -0.036406 0.026451
v 0.008226 0.014245 0.062500
v 0.014245 0.008226 0.062500
v 0.056700 0.017500 0.030311
v -0.056000 0.000000 -0.041200
v -0.055700 -0.000000 -0.041500
v -0.055700 -0.014194 -0.038997
v 0.069500 -0.016546 -0.020314
v 0.056700 -0.026812 -0.022498
v 0.056700 -0.017500 -0.030311
v -0.056000 -0.040574 -0.007155
v 0.028100 0.045000 -0.000000
v 0.028100 0.042798 -0.013906
v -0.017200 0.042798 -0.013906
v -0.017200 0.045000 -0.000000
v -0.055700 0.040870 -0.007206
v 0.056700 -0.017500 0.030311
v 0.000000 -0.016450 0.062500
v -0.008375 -0.014506 0.062200
v -0.055700 0.000000 0.041500
v -0.055700 -0.014194 0.038997
v -0.014245 -0.008226 0.062500
v -0.056000 0.000000 0.041200
v -0.055700 0.014194 0.038997
v -0.016450 -0.000000 0.062500
v -0.008375 0.014506 0.062200
v -0.000000 0.016750 0.062200
v -0.000000 0.016450 0.062500
v -0.008226 0.014245 0.062500
v -0.017200 0.036406 0.026451
v -0.056000 -0.014092 -0.038715
v -0.056000 0.040574 -0.007155
v -0.055700 0.035940 -0.020750
v -0.017200 0.036406 -0.026451
v -0.017200 -0.042798 -0.013906
v -0.017200 -0.036406 -0.026451
v -0.055700 -0.035940 0.020750
v -0.055700 -0.026676 0.031791
v -0.056000 -0.040574 0.007155
v -0.056000 0.040574 0.007155
v -0.056000 0.035680 0.020601
v 0.056700 0.035000 0.000000
v 0.056700 0.026812 -0.022498
v 0.007500 0.012991 -0.064200
v 0.028100 0.036406 -0.026451
v 0.056700 0.017500 -0.030311
v 0.069500 -0.005563 0.025602
v 0.056700 -0.006078 0.034468
v 0.069200 -0.009886 0.024587
v -0.008226 -0.014245 0.062500
v -0.056000 -0.014092 0.038715
v -0.056000 -0.026483 0.031561
v -0.055700 0.026676 0.031791
v -0.056000 0.026483 0.031561
v -0.056000 0.014092 0.038715
v -0.014245 0.008226 0.062500
v 0.008375 0.014506 0.062200
v 0.016450 0.000000 0.062500
v 0.056700 0.006078 0.034468
v 0.014245 -0.008226 0.062500
v -0.007350 -0.012731 -0.064500
v -0.056000 -0.026483 -0.031561
v -0.056000 0.035680 -0.020601
v -0.055700 0.026676 -0.031791
v -0.056000 0.026483 -0.031561
v 0.069500 -0.020653 -0.016120
v 0.069200 -0.018932 -0.018543
v 0.069500 -0.023722 -0.011123
v 0.028100 -0.045000 -0.000000
v 0.056700 -0.035000 0.000000
v 0.069500 -0.025481 0.006095
v 0.069200 -0.026499 0.000276
v 0.028100 -0.042798 -0.013906
v 0.000000 -0.015000 -0.064200
v 0.028100 -0.036406 -0.026451
v -0.056000 -0.035680 0.020601
v 0.069500 -0.006094 -0.025481
v 0.069200 -0.010395 -0.024376
v 0.056700 -0.006078 -0.034468
v 0.069500 -0.016120 0.020654
v 0.069200 -0.018542 0.018932
v 0.069500 -0.020314 0.016547
v 0.069500 -0.023485 0.011614
v 0.012731 0.007350 -0.064500
v 0.056700 0.006078 -0.034468
v 0.014700 0.000000 -0.064500
v 0.069500 0.005563 -0.025602
v 0.069200 -0.000276 -0.026499
v 0.007350 -0.012731 -0.064500
v 0.012731 -0.007350 -0.064500
v -0.000000 0.015000 -0.064200
v 0.007350 0.012731 -0.064500
v 0.069500 0.026199 -0.000273
v 0.069500 0.025481 -0.006095
v 0.069200 0.026499 -0.000276
v 0.069500 -0.011123 0.023722
v 0.069500 0.011614 0.023485
v 0.069500 0.016546 0.020314
v 0.056700 0.032889 0.011971
v 0.069500 0.023722 0.011123
v 0.069200 0.024587 0.009886
v 0.069200 0.000276 0.026499
v 0.069500 0.006094 0.025481
v 0.069200 0.010395 0.024376
v 0.008226 -0.014245 0.062500
v -0.055700 0.014194 -0.038997
v -0.014700 -0.000000 -0.064500
v -0.012731 -0.007350 -0.064500
v 0.069500 -0.026199 0.000273
v 0.069500 -0.025602 -0.005563
v 0.069200 -0.024587 -0.009886
v 0.007500 -0.012991 -0.064200
v 0.000000 -0.014700 -0.064500
v -0.007500 -0.012991 -0.064200
v 0.069500 -0.011614 -0.023485
v 0.069200 -0.024376 0.010395
v 0.069500 0.016120 -0.020654
v 0.069500 0.011123 -0.023722
v 0.069200 0.009886 -0.024587
v 0.069500 -0.000273 -0.026199
v -0.007500 0.012991 -0.064200
v 0.069500 0.023485 -0.011614
v 0.069200 0.024376 -0.010395
v 0.069500 0.020314 -0.016547
v 0.056700 0.032889 -0.011971
v 0.069500 0.020653 0.016120
v 0.069200 0.018932 0.018543
v 0.069500 0.025602 0.005563
v 0.028100 0.042798 0.013906
v 0.069500 0.000273 0.026199
v -0.056000 0.014092 -0.038715
v 0.056700 -0.032889 -0.011971
v 0.069200 0.018542 -0.018932
v -0.007350 0.012731 -0.064500
v 0.028100 0.036406 0.026451
v -0.012731 0.007350 -0.064500
v -0.000000 0.014700 -0.064500
v 0.056700 0.026812 0.022498
vn -0.7017 -0.5458 -0.4580
vn -0.1067 -0.9943 -0.0000
vn -0.1060 0.9344 0.3401
vn 0.3255 -0.7157 0.6180
vn 0.3384 -0.8149 0.4705
vn 0.3214 -0.8437 0.4299
vn -0.0765 -0.9848 0.1560
vn -0.0000 -0.8763 0.4818
vn 0.2086 -0.7785 0.5920
vn 0.4671 0.4672 0.7507
vn -0.7017 -0.1237 -0.7017
vn 0.5427 -0.5399 -0.6434
vn -0.7021 -0.6691 -0.2436
vn -0.7014 -0.6698 -0.2438
vn -0.0000 0.9877 -0.1564
vn -0.1067 0.9943 -0.0000
vn -0.0765 0.9848 0.1560
vn -0.0765 0.9848 -0.1560
vn 0.4221 -0.5827 0.6944
vn 0.1861 -0.6947 0.6947
vn -0.1861 -0.6948 0.6947
vn -0.4706 -0.1532 0.8689
vn -0.7017 -0.1237 0.7017
vn -0.7017 0.1237 0.7017
vn -0.4680 -0.1255 0.8748
vn -0.2026 0.7561 0.6223
vn -0.1859 0.6937 0.6958
vn -0.1861 0.6947 0.6947
vn -0.0778 0.8883 0.4526
vn -0.0861 0.8550 0.5115
vn -0.7020 -0.1237 -0.7014
vn -0.7015 -0.3564 -0.6172
vn -0.7014 0.6698 -0.2438
vn -0.1060 0.9344 -0.3401
vn -0.0778 0.8883 -0.4526
vn -0.1060 -0.9344 -0.3401
vn -0.0778 -0.8883 -0.4526
vn -0.0765 -0.9848 -0.1560
vn -0.0861 -0.8550 0.5115
vn -0.0778 -0.8883 0.4526
vn -0.1060 -0.9344 0.3401
vn -0.2026 -0.7561 0.6223
vn -0.2112 -0.7488 0.6283
vn -0.7014 -0.6698 0.2438
vn -0.7014 0.6698 0.2438
vn -0.7021 0.6691 0.2436
vn 0.3264 0.9336 -0.1479
vn 0.3252 0.7138 -0.6202
vn 0.4244 0.5820 -0.6936
vn 0.5608 -0.2260 0.7965
vn 0.5382 -0.2883 0.7920
vn -0.1859 -0.6937 0.6958
vn -0.4058 -0.4059 0.8189
vn -0.2870 -0.6476 0.7059
vn -0.3945 -0.4595 0.7958
vn -0.7020 -0.1237 0.7014
vn -0.7020 -0.3561 0.6167
vn -0.7015 -0.3564 0.6172
vn -0.3945 0.4595 0.7958
vn -0.2870 0.6476 0.7059
vn -0.2112 0.7488 0.6283
vn -0.7018 0.5457 0.4579
vn -0.7017 0.5458 0.4580
vn -0.7020 0.1237 0.7014
vn -0.7020 0.3561 0.6167
vn -0.7015 0.3564 0.6172
vn -0.4058 0.4059 0.8189
vn -0.4706 0.1532 0.8689
vn -0.4680 0.1255 0.8748
vn 0.4299 0.5646 0.7045
vn 0.1859 0.6937 0.6958
vn 0.1861 0.6948 0.6947
vn 0.5502 0.1475 0.8219
vn 0.5377 0.2884 0.7923
vn 0.5377 -0.2884 0.7923
vn 0.5502 -0.1475 0.8219
vn -0.4040 -0.4574 -0.7922
vn -0.7018 -0.5457 -0.4579
vn -0.7020 -0.3561 -0.6167
vn -0.7021 0.6691 -0.2436
vn -0.7017 0.5458 -0.4580
vn -0.7018 0.5457 -0.4579
vn 0.8404 -0.3872 -0.3793
vn 0.5445 -0.5430 -0.6392
vn 0.5668 -0.6368 -0.5227
vn 0.5570 -0.7078 -0.4345
vn 0.3264 -0.9336 0.1479
vn 0.3328 -0.9287 0.1637
vn 0.5448 -0.8258 0.1456
vn 0.5569 -0.8226 0.1151
vn 0.3264 -0.9336 -0.1479
vn -0.0000 -0.8699 -0.4933
vn -0.0874 -0.8489 -0.5212
vn -0.7018 -0.5457 0.4579
vn -0.7017 -0.5458 0.4580
vn -0.7021 -0.6691 0.2436
vn 0.5572 -0.2429 -0.7941
vn 0.8404 -0.3793 0.3872
vn 0.5668 -0.6258 0.5359
vn 0.5413 -0.5405 0.6441
vn 0.5467 -0.5289 0.6491
vn 0.5451 -0.7260 0.4192
vn 0.5614 -0.6961 0.4475
vn 0.5606 0.1502 -0.8144
vn 0.5693 0.0987 -0.8162
vn 0.5696 0.0960 -0.8163
vn 0.5709 -0.1128 -0.8133
vn 0.5685 -0.1038 -0.8161
vn 0.4711 -0.4711 -0.7457
vn 0.5606 -0.1502 -0.8144
vn 0.5422 -0.2977 -0.7857
vn 0.5493 -0.2635 -0.7930
vn -0.0000 0.8699 -0.4933
vn 0.2080 0.7763 -0.5950
vn -0.0874 0.8489 -0.5212
vn 0.4711 0.4711 -0.7457
vn 0.4335 0.5623 -0.7042
vn 0.7049 0.7040 -0.0868
vn 0.5569 0.8226 -0.1151
vn 0.8159 -0.1853 0.5477
vn 0.5731 -0.4288 0.6984
vn 0.5653 -0.3763 0.7340
vn 0.5719 0.4436 0.6900
vn 0.5546 0.7390 0.3824
vn 0.5709 0.1128 0.8133
vn 0.5617 0.0788 0.8236
vn 0.5694 -0.0961 0.8164
vn 0.5625 -0.0735 0.8236
vn 0.8159 0.1966 0.5438
vn 0.5572 0.2429 0.7941
vn 0.5666 0.3908 0.7255
vn 0.5394 0.2880 0.7913
vn 0.4299 -0.5646 0.7046
vn 0.4671 -0.4672 0.7507
vn 0.1859 -0.6937 0.6958
vn -0.7017 0.1237 -0.7017
vn -0.4851 -0.1300 -0.8647
vn -0.4865 -0.1517 -0.8604
vn -0.4147 -0.4147 -0.8100
vn 0.7049 -0.7040 0.0868
vn 0.5612 -0.8220 -0.0974
vn 0.7049 -0.7056 -0.0721
vn 0.8159 -0.5477 -0.1853
vn 0.1861 -0.6945 -0.6950
vn 0.1862 -0.6947 -0.6947
vn 0.2080 -0.7763 -0.5950
vn 0.3252 -0.7138 -0.6202
vn 0.4335 -0.5623 -0.7042
vn 0.4244 -0.5820 -0.6936
vn -0.1861 -0.6945 -0.6950
vn -0.1862 -0.6947 -0.6947
vn -0.2024 -0.7553 -0.6234
vn -0.2099 -0.7490 -0.6285
vn -0.2909 -0.6462 -0.7056
vn 0.8159 -0.1966 -0.5438
vn 0.5719 -0.4436 -0.6900
vn 0.5666 -0.3908 -0.7255
vn 0.8159 -0.5437 0.1966
vn 0.5668 -0.7875 0.2419
vn 0.5497 -0.7330 0.4006
vn 0.5731 0.4288 -0.6984
vn 0.8159 0.1853 -0.5477
vn 0.5608 0.2260 -0.7965
vn 0.5653 0.3763 -0.7340
vn 0.5418 0.2989 -0.7855
vn 0.5502 0.2561 -0.7948
vn 0.7049 0.0721 -0.7056
vn 0.7049 -0.0868 -0.7040
vn -0.2099 0.7490 -0.6285
vn -0.2024 0.7553 -0.6234
vn 0.8159 0.5437 -0.1966
vn 0.5614 0.6961 -0.4475
vn 0.5448 0.8258 -0.1456
vn 0.5668 0.7875 -0.2419
vn 0.3328 0.9287 -0.1637
vn 0.5451 0.7260 -0.4192
vn 0.5497 0.7330 -0.4006
vn 0.3214 0.8437 -0.4299
vn 0.3384 0.8149 -0.4705
vn 0.8404 0.3872 0.3793
vn 0.8159 0.5477 0.1853
vn 0.7049 0.7056 0.0721
vn 0.5648 0.7938 0.2256
vn 0.5612 0.8220 0.0974
vn 0.5436 0.8266 0.1458
vn 0.3264 0.9336 0.1479
vn 0.3328 0.9287 0.1637
vn -0.0000 0.9877 0.1564
vn 0.7049 0.0868 0.7040
vn 0.7049 -0.0721 0.7056
vn -0.7020 0.1237 -0.7014
vn -0.7020 0.3561 -0.6167
vn -0.7015 0.3564 -0.6172
vn 0.5648 -0.7938 -0.2256
vn 0.5436 -0.8266 -0.1458
vn 0.5546 -0.7390 -0.3824
vn 0.5470 -0.7250 -0.4186
vn 0.3328 -0.9287 -0.1637
vn 0.3214 -0.8437 -0.4299
vn 0.3384 -0.8149 -0.4705
vn 0.8404 0.3793 -0.3872
vn 0.5668 0.6258 -0.5359
vn 0.5413 0.5405 -0.6441
vn 0.5467 0.5289 -0.6491
vn -0.4040 0.4574 -0.7922
vn -0.2909 0.6462 -0.7056
vn 0.3214 0.8437 0.4299
vn 0.2086 0.7785 0.5920
vn -0.0000 0.8763 0.4818
vn -0.4147 0.4147 -0.8100
vn -0.4851 0.1300 -0.8647
vn -0.4865 0.1517 -0.8604
vn 0.1862 0.6947 -0.6947
vn 0.1861 0.6945 -0.6950
vn -0.1862 0.6947 -0.6947
vn -0.1861 0.6945 -0.6950
vn 0.3384 0.8149 0.4705
vn 0.4221 0.5827 0.6944
vn 0.3255 0.7156 0.6180
vn 0.5427 0.5399 0.6434
vn 0.5445 0.5430 0.6392
vn 0.5668 0.6368 0.5227
vn 0.5570 0.7078 0.4345
vn 0.5470 0.7250 0.4186
vn -0.0000 -0.8910 0.4540
vn -0.7019 -0.7123 -0.0000
vn -0.0000 0.8910 -0.4540
vn -0.0000 -0.9877 0.1564
vn -0.0000 -0.9877 -0.1564
vn -0.0000 -0.8910 -0.4540
vn -0.7019 0.7123 -0.0000
vn -0.0000 -0.0000 1.0000
vn 1.0000 -0.0000 -0.0000
vn -1.0000 -0.0000 -0.0000
vn -0.0000 0.8910 0.4540
vn -0.0000 -0.0000 -1.0000
s 0
f 1//1 2//1 3//1
f 4//2 5//2 6//2
f 7//3 8//3 9//3
f 10//4 11//4 12//4
f 13//5 12//5 11//5
f 13//6 11//6 14//6
f 15//7 4//7 6//7
f 11//8 16//8 17//8
f 10//9 16//9 11//9
f 18//10 19//10 20//10
f 21//11 22//11 23//11
f 24//12 25//12 26//12
f 3//13 27//13 1//13
f 5//14 27//14 3//14
f 28//15 29//15 30//15
f 31//16 32//16 9//16
f 8//17 31//17 9//17
f 32//18 31//18 30//18
f 30//15 31//15 28//15
f 33//19 10//19 12//19
f 10//20 34//20 16//20
f 34//21 35//21 16//21
f 36//22 37//22 38//22
f 39//23 37//23 36//23
f 36//24 40//24 39//24
f 41//25 36//25 38//25
f 7//26 42//26 43//26
f 44//27 42//27 45//27
f 43//28 42//28 44//28
f 7//29 46//29 8//29
f 43//30 46//30 7//30
f 23//31 47//31 21//31
f 2//32 47//32 23//32
f 48//33 32//33 49//33
f 30//34 49//34 32//34
f 30//35 50//35 49//35
f 3//36 51//36 5//36
f 52//37 51//37 3//37
f 5//38 51//38 6//38
f 16//39 53//39 17//39
f 15//40 17//40 53//40
f 15//41 53//41 4//41
f 35//42 53//42 16//42
f 54//43 53//43 35//43
f 4//44 53//44 55//44
f 9//45 56//45 7//45
f 56//46 57//46 7//46
f 58//47 29//47 28//47
f 59//48 60//48 61//48
f 62//49 60//49 59//49
f 63//50 64//50 65//50
f 33//51 65//51 64//51
f 34//52 66//52 35//52
f 37//53 66//53 38//53
f 54//54 35//54 66//54
f 54//55 66//55 37//55
f 37//56 39//56 67//56
f 54//57 67//57 68//57
f 37//58 67//58 54//58
f 40//59 45//59 69//59
f 42//60 69//60 45//60
f 7//61 69//61 42//61
f 70//62 69//62 57//62
f 57//63 69//63 7//63
f 40//64 71//64 39//64
f 69//65 70//65 71//65
f 69//66 71//66 40//66
f 40//67 72//67 45//67
f 72//68 40//68 36//68
f 41//69 72//69 36//69
f 20//70 73//70 18//70
f 44//71 18//71 73//71
f 44//72 73//72 43//72
f 74//73 75//73 19//73
f 19//74 75//74 20//74
f 76//75 33//75 64//75
f 74//76 76//76 64//76
f 23//77 77//77 2//77
f 1//78 78//78 2//78
f 2//79 78//79 47//79
f 49//80 79//80 48//80
f 79//81 49//81 80//81
f 81//82 79//82 80//82
f 82//83 83//83 24//83
f 83//84 25//84 24//84
f 25//85 83//85 82//85
f 82//86 84//86 25//86
f 85//87 86//87 14//87
f 13//88 14//88 86//88
f 87//89 13//89 86//89
f 88//90 87//90 86//90
f 89//91 86//91 85//91
f 90//92 91//92 52//92
f 52//93 3//93 90//93
f 54//94 68//94 92//94
f 54//95 92//95 53//95
f 53//96 92//96 55//96
f 93//97 94//97 95//97
f 96//98 97//98 98//98
f 98//99 97//99 12//99
f 12//100 97//100 33//100
f 33//101 97//101 96//101
f 13//102 99//102 12//102
f 99//103 98//103 12//103
f 100//104 101//104 102//104
f 102//105 101//105 103//105
f 103//106 104//106 102//106
f 95//107 104//107 93//107
f 102//108 104//108 95//108
f 105//109 106//109 26//109
f 106//110 102//110 95//110
f 26//111 106//111 94//111
f 94//112 106//112 95//112
f 61//113 107//113 50//113
f 60//114 107//114 61//114
f 49//115 50//115 107//115
f 62//116 100//116 108//116
f 108//117 60//117 62//117
f 109//118 110//118 111//118
f 110//119 58//119 111//119
f 65//120 112//120 63//120
f 33//121 96//121 112//121
f 33//122 112//122 65//122
f 113//123 114//123 20//123
f 115//124 116//124 117//124
f 75//125 118//125 119//125
f 74//126 118//126 75//126
f 63//127 118//127 64//127
f 64//128 118//128 74//128
f 113//129 120//129 119//129
f 75//130 119//130 120//130
f 120//131 113//131 20//131
f 75//132 120//132 20//132
f 33//133 121//133 10//133
f 76//134 121//134 33//134
f 121//135 34//135 10//135
f 21//136 122//136 22//136
f 123//137 124//137 22//137
f 23//138 22//138 124//138
f 77//139 23//139 124//139
f 88//140 125//140 87//140
f 86//141 126//141 88//141
f 88//142 126//142 125//142
f 84//143 126//143 127//143
f 105//144 128//144 129//144
f 129//145 128//145 90//145
f 90//146 128//146 91//146
f 91//147 128//147 25//147
f 105//148 26//148 128//148
f 25//149 128//149 26//149
f 77//150 129//150 130//150
f 90//151 130//151 129//151
f 90//152 3//152 130//152
f 2//153 130//153 3//153
f 77//154 130//154 2//154
f 131//155 94//155 93//155
f 131//156 24//156 26//156
f 94//157 131//157 26//157
f 99//158 132//158 87//158
f 87//159 132//159 13//159
f 13//160 132//160 99//160
f 62//161 133//161 134//161
f 103//162 135//162 134//162
f 101//163 135//163 103//163
f 134//164 135//164 62//164
f 62//165 135//165 100//165
f 101//166 100//166 135//166
f 136//167 104//167 103//167
f 104//168 136//168 93//168
f 49//169 137//169 80//169
f 107//170 137//170 49//170
f 110//171 138//171 139//171
f 59//172 138//172 140//172
f 110//173 141//173 58//173
f 139//174 141//174 110//174
f 58//175 141//175 29//175
f 59//176 141//176 138//176
f 138//177 141//177 139//177
f 29//178 141//178 61//178
f 59//179 61//179 141//179
f 114//180 142//180 143//180
f 116//181 144//181 117//181
f 144//182 109//182 111//182
f 115//183 117//183 144//183
f 58//184 144//184 111//184
f 115//185 144//185 58//185
f 58//186 28//186 145//186
f 115//187 58//187 145//187
f 31//188 145//188 28//188
f 145//188 31//188 8//188
f 118//189 146//189 119//189
f 118//190 63//190 146//190
f 122//191 21//191 147//191
f 81//192 80//192 147//192
f 122//193 147//193 80//193
f 126//194 148//194 127//194
f 126//195 86//195 148//195
f 84//196 127//196 148//196
f 84//197 148//197 25//197
f 86//198 89//198 148//198
f 91//199 148//199 89//199
f 148//200 91//200 25//200
f 133//201 149//201 140//201
f 140//202 149//202 59//202
f 149//203 62//203 59//203
f 62//204 149//204 133//204
f 80//205 150//205 122//205
f 137//206 150//206 80//206
f 145//207 151//207 115//207
f 73//208 151//208 43//208
f 46//209 43//209 151//209
f 150//210 152//210 122//210
f 152//211 123//211 22//211
f 122//212 152//212 22//212
f 107//213 60//213 153//213
f 108//214 153//214 60//214
f 137//215 107//215 153//215
f 150//216 137//216 153//216
f 151//217 154//217 115//217
f 73//218 20//218 154//218
f 154//219 151//219 73//219
f 114//220 154//220 20//220
f 143//221 154//221 114//221
f 143//222 142//222 154//222
f 116//223 154//223 142//223
f 115//224 154//224 116//224
f 11//225 17//225 15//225
f 11//225 15//225 14//225
f 5//226 4//226 27//226
f 55//226 27//226 4//226
f 30//227 29//227 50//227
f 29//227 61//227 50//227
f 15//228 85//228 14//228
f 15//228 6//228 85//228
f 85//229 6//229 51//229
f 85//229 51//229 89//229
f 51//230 91//230 89//230
f 91//230 51//230 52//230
f 32//231 56//231 9//231
f 48//231 56//231 32//231
f 121//232 72//232 41//232
f 121//232 41//232 38//232
f 121//232 19//232 18//232
f 44//232 121//232 18//232
f 121//232 66//232 34//232
f 19//232 121//232 74//232
f 44//232 45//232 121//232
f 66//232 121//232 38//232
f 72//232 121//232 45//232
f 76//232 74//232 121//232
f 146//233 131//233 93//233
f 136//233 146//233 93//233
f 112//233 146//233 63//233
f 114//233 113//233 146//233
f 126//233 146//233 125//233
f 99//233 146//233 98//233
f 144//233 116//233 146//233
f 82//233 146//233 84//233
f 24//233 146//233 82//233
f 133//233 146//233 134//233
f 98//233 146//233 96//233
f 113//233 119//233 146//233
f 142//233 146//233 116//233
f 99//233 87//233 146//233
f 134//233 146//233 103//233
f 146//233 110//233 109//233
f 112//233 96//233 146//233
f 114//233 146//233 142//233
f 146//233 138//233 110//233
f 125//233 146//233 87//233
f 146//233 126//233 84//233
f 131//233 146//233 24//233
f 140//233 146//233 133//233
f 146//233 136//233 103//233
f 138//233 146//233 140//233
f 144//233 146//233 109//233
f 67//234 39//234 147//234
f 78//234 147//234 47//234
f 47//234 147//234 21//234
f 27//234 55//234 147//234
f 79//234 81//234 147//234
f 27//234 147//234 1//234
f 57//234 147//234 70//234
f 56//234 147//234 57//234
f 71//234 147//234 39//234
f 92//234 147//234 55//234
f 56//234 48//234 147//234
f 67//234 147//234 68//234
f 71//234 70//234 147//234
f 78//234 1//234 147//234
f 79//234 147//234 48//234
f 92//234 68//234 147//234
f 151//235 145//235 8//235
f 46//235 151//235 8//235
f 105//236 129//236 153//236
f 102//236 153//236 100//236
f 106//236 153//236 102//236
f 124//236 153//236 77//236
f 77//236 153//236 129//236
f 106//236 105//236 153//236
f 108//236 100//236 153//236
f 124//236 123//236 153//236
f 152//236 150//236 153//236
f 152//236 153//236 123//236
