# Blender 3.1.2
# www.blender.org
v 0.058700 -0.005942 -0.071000
v 0.057400 0.013649 -0.071000
v 0.059000 0.000000 0.086021
v -0.057400 0.013649 -0.071000
v -0.058700 -0.005942 -0.071000
v -0.059000 0.000000 0.086021
v -0.018232 0.056112 0.086021
v 0.000000 0.059000 0.086021
v 0.000000 0.059000 -0.071000
v 0.053500 -0.080000 -0.079500
v 0.058810 -0.004736 0.086039
v 0.053500 -0.080000 0.094500
v 0.057969 -0.004210 -0.073121
v 0.053500 0.000000 -0.079500
v 0.053500 0.000000 0.094500
v 0.048214 -0.019480 0.099500
v -0.008284 0.057616 0.088052
v -0.053500 -0.080000 0.094500
v 0.044099 -0.027556 0.099500
v -0.058952 -0.002380 0.086025
v -0.058823 -0.004564 0.086037
v -0.056112 0.018232 0.086021
v -0.055850 0.016399 0.088052
v 0.058948 -0.002485 0.086025
v 0.050274 0.018298 0.094500
v 0.018232 0.056112 0.086021
v 0.019360 0.055733 -0.071000
v 0.058208 0.000000 0.088052
v 0.046332 -0.023608 0.099500
v -0.049455 0.016069 0.099500
v -0.047732 0.034679 0.086021
v -0.038118 0.043991 0.088052
v -0.034679 0.047732 0.086021
v -0.048968 0.031470 0.088052
v -0.045913 0.024413 0.099500
v 0.049742 0.031729 -0.071000
v 0.048463 0.032085 -0.073121
v 0.036577 0.046294 -0.071000
v 0.050274 0.018298 -0.079500
v 0.040984 0.034388 -0.079500
v 0.047732 0.034679 0.086021
v 0.008284 0.057616 0.088052
v 0.034679 0.047732 0.086021
v 0.038118 0.043991 0.088052
v 0.056225 0.014726 -0.073121
v 0.026750 0.046332 -0.079500
v 0.035513 0.046010 -0.073121
v 0.058178 -0.002289 0.088040
v 0.056112 0.018232 0.086021
v 0.055850 0.016399 0.088052
v -0.047866 0.020318 0.099500
v -0.058208 -0.000000 0.088052
v -0.040984 0.034388 0.094500
v -0.026750 0.046332 0.094500
v -0.024181 0.052948 0.088052
v 0.018761 0.055010 -0.073121
v 0.009291 0.052687 -0.079500
v 0.048968 0.031470 0.088052
v -0.053500 0.000000 0.094500
v -0.058178 -0.002290 0.088040
v -0.009291 0.052687 0.094500
v 0.009291 0.052687 0.094500
v 0.026750 0.046332 0.094500
v -0.036577 0.046294 -0.071000
v 0.040984 0.034388 0.094500
v 0.024181 0.052948 0.088052
v 0.000001 0.058121 -0.073121
v -0.009291 0.052687 -0.079500
v -0.019360 0.055733 -0.071000
v -0.053500 -0.080000 -0.079500
v -0.018759 0.055011 -0.073121
v -0.026750 0.046332 -0.079500
v -0.048461 0.032088 -0.073121
v -0.040984 0.034388 -0.079500
v -0.050274 0.018298 -0.079500
v -0.057969 -0.004207 -0.073121
v -0.053500 0.000000 -0.079500
v -0.035511 0.046012 -0.073121
v -0.056224 0.014728 -0.073121
v -0.049742 0.031729 -0.071000
v 0.021274 0.016967 -0.089500
v 0.026529 0.006054 -0.089500
v -0.026529 -0.006054 -0.089500
v -0.052000 -0.087000 -0.079500
v 0.026529 -0.006054 -0.089500
v 0.052000 -0.087000 -0.079500
v 0.021274 -0.016967 -0.089500
v -0.026529 0.006054 -0.089500
v -0.021274 -0.016967 -0.089500
v -0.011807 -0.024516 -0.089500
v -0.000000 -0.027211 -0.089500
v -0.021274 0.016967 -0.089500
v 0.011807 -0.024516 -0.089500
v -0.011807 0.024516 -0.089500
v 0.000000 0.027211 -0.089500
v 0.011807 0.024516 -0.089500
v -0.052000 -0.087000 -0.072500
v 0.052000 -0.087000 -0.072500
vn 0.9978 0.0662 -0.0044
vn -0.9978 0.0662 -0.0044
vn -0.1564 0.9877 -0.0000
vn 0.9975 -0.0704 -0.0000
vn 0.9975 -0.0700 -0.0002
vn 0.9583 0.0636 -0.2785
vn 0.9383 -0.0263 -0.3450
vn 0.8190 -0.0000 -0.5738
vn 0.6872 -0.0000 0.7265
vn -0.1563 0.9871 0.0352
vn -0.0000 -0.0949 0.9955
vn -0.9998 -0.0202 -0.0011
vn -0.9983 -0.0589 -0.0003
vn -0.9924 -0.0579 0.1082
vn -0.9877 0.1564 0.0035
vn -0.9539 0.1511 0.2595
vn 0.9944 -0.0605 0.0863
vn 0.9998 -0.0211 -0.0011
vn 0.9981 -0.0612 -0.0002
vn 0.4955 0.0874 0.8642
vn 0.1564 0.9877 -0.0000
vn 0.1664 0.9861 -0.0012
vn 0.8076 -0.0000 0.5897
vn 0.1500 -0.0684 0.9863
vn 0.1266 -0.0716 0.9894
vn -0.0238 -0.0510 0.9984
vn -0.7032 0.7032 0.1048
vn -0.8776 0.4472 0.1728
vn -0.6465 0.5602 0.5178
vn -0.6551 0.5677 0.4986
vn 0.7035 0.6359 -0.3175
vn 0.6648 0.3838 -0.6409
vn 0.7419 0.6706 -0.0031
vn -0.0000 0.8263 0.5633
vn 0.1563 0.9871 0.0352
vn 0.4807 0.8769 -0.0022
vn 0.4540 0.8910 0.0011
vn 0.7071 0.7071 0.0021
vn 0.7032 0.7032 0.1048
vn 0.7609 0.1342 -0.6348
vn 0.8889 0.0819 -0.4507
vn 0.8398 0.0773 -0.5373
vn 0.7748 0.3464 -0.5289
vn 0.8791 0.3723 -0.2978
vn 0.8223 0.3677 -0.4343
vn 0.4911 0.5853 -0.6451
vn 0.6657 0.6191 -0.4167
vn 0.6244 0.5807 -0.5224
vn 0.4525 0.8254 -0.3374
vn 0.9329 -0.0263 0.3592
vn 0.8834 -0.0142 0.4685
vn 0.9333 -0.0191 0.3586
vn 0.9316 -0.0143 0.3633
vn 0.9877 0.1564 0.0035
vn 0.9208 0.3900 -0.0038
vn 0.8910 0.4540 0.0029
vn 0.7688 0.1356 0.6250
vn 0.8022 0.1153 0.5857
vn 0.9234 0.1328 0.3601
vn 0.9539 0.1511 0.2595
vn -0.8265 0.3090 0.4706
vn -0.8053 0.3841 0.4516
vn -0.8162 0.3726 0.4416
vn -0.8161 0.3727 0.4416
vn -0.9234 0.1328 0.3601
vn -0.8647 0.1243 0.4866
vn -0.5372 0.5748 0.6172
vn -0.4885 0.5822 0.6499
vn -0.4791 0.5709 0.6668
vn -0.4565 0.7104 0.5356
vn -0.4538 0.7061 0.5436
vn -0.4532 0.8895 0.0585
vn -0.2341 0.7972 0.5565
vn 0.2606 0.7160 -0.6477
vn 0.4342 0.8081 -0.3981
vn 0.4048 0.7535 -0.5181
vn 0.1554 0.9208 -0.3577
vn 0.8776 0.4472 0.1728
vn 0.8161 0.3727 0.4417
vn 0.7577 0.3460 0.5534
vn 0.6551 0.5677 0.4986
vn -0.7774 -0.0000 0.6290
vn -0.8076 -0.0000 0.5897
vn -0.8075 0.0198 0.5896
vn -0.9327 -0.0262 0.3597
vn -0.8833 -0.0142 0.4685
vn -0.9330 -0.0182 0.3595
vn -0.9316 -0.0143 0.3633
vn -0.2320 0.7900 0.5676
vn -0.2635 0.7239 0.6377
vn -0.1147 0.3152 0.9421
vn -0.0000 0.1741 0.9847
vn 0.0416 0.0892 0.9951
vn 0.0374 0.1028 0.9940
vn -0.7071 0.7071 0.0021
vn 0.2036 0.1175 0.9720
vn 0.0870 0.1036 0.9908
vn 0.6612 0.3817 0.6458
vn 0.6367 0.5517 0.5386
vn 0.4885 0.5822 0.6499
vn 0.4565 0.7104 0.5356
vn 0.4538 0.7061 0.5436
vn 0.4532 0.8895 0.0585
vn 0.2635 0.7239 0.6377
vn 0.2320 0.7900 0.5676
vn 0.2341 0.7972 0.5565
vn -0.0000 0.7612 -0.6485
vn 0.1515 0.9132 -0.3782
vn 0.1402 0.8451 -0.5159
vn -0.1664 0.9861 -0.0012
vn -0.4540 0.8910 0.0011
vn -0.4807 0.8769 -0.0022
vn -0.9975 -0.0704 -0.0000
vn -0.9975 -0.0700 -0.0002
vn -0.2606 0.7160 -0.6477
vn -0.1401 0.8451 -0.5159
vn -0.1514 0.9132 -0.3784
vn -0.1554 0.9209 -0.3576
vn -0.6648 0.3838 -0.6409
vn -0.8190 -0.0000 -0.5738
vn -0.9383 -0.0263 -0.3449
vn -0.9584 0.0636 -0.2783
vn -0.4048 0.7535 -0.5181
vn -0.4911 0.5853 -0.6451
vn -0.4526 0.8255 -0.3373
vn -0.4341 0.8081 -0.3982
vn -0.6656 0.6190 -0.4169
vn -0.6244 0.5807 -0.5224
vn -0.7748 0.3465 -0.5289
vn -0.7609 0.1342 -0.6348
vn -0.8889 0.0819 -0.4508
vn -0.8398 0.0774 -0.5373
vn -0.9208 0.3900 -0.0038
vn -0.8791 0.3723 -0.2976
vn -0.8222 0.3677 -0.4344
vn -0.8910 0.4540 0.0029
vn -0.7419 0.6706 -0.0031
vn -0.7035 0.6359 -0.3173
vn 0.2306 0.2749 -0.9334
vn 0.3132 0.1808 -0.9323
vn 0.3594 0.0634 -0.9310
vn 0.3160 0.1522 -0.9365
vn -0.2272 -0.0487 -0.9726
vn 0.2272 -0.0487 -0.9726
vn 0.1529 -0.0736 -0.9855
vn -0.3594 0.0634 -0.9310
vn -0.1529 -0.0736 -0.9855
vn -0.0836 -0.1048 -0.9910
vn -0.0000 -0.1650 -0.9863
vn -0.0315 -0.1381 -0.9899
vn -0.3132 0.1808 -0.9323
vn -0.3160 0.1522 -0.9365
vn -0.2306 0.2749 -0.9334
vn 0.0836 -0.1048 -0.9910
vn 0.0315 -0.1381 -0.9899
vn -0.1244 0.3418 -0.9315
vn -0.2210 0.2772 -0.9350
vn -0.0000 0.3654 -0.9309
vn -0.0775 0.3397 -0.9373
vn 0.1244 0.3418 -0.9315
vn 0.0775 0.3397 -0.9373
vn 0.2210 0.2772 -0.9350
vn -0.0000 -0.9991 0.0419
vn -0.0000 -1.0000 -0.0000
vn 0.9778 -0.2095 -0.0000
vn -0.0000 -0.0000 1.0000
vn -0.0000 0.7945 0.6073
vn -0.9778 -0.2095 -0.0000
vn 0.3476 -0.0000 -0.9376
vn -0.3476 -0.0000 -0.9376
vn -0.0000 -0.0000 -1.0000
s 0
f 1//1 2//1 3//1
f 4//2 5//2 6//2
f 7//3 8//3 9//3
f 10//4 11//4 12//4
f 11//5 10//5 1//5
f 13//6 2//6 1//6
f 13//7 1//7 10//7
f 13//8 10//8 14//8
f 15//9 16//9 12//9
f 17//10 8//10 7//10
f 18//11 12//11 19//11
f 20//12 6//12 5//12
f 20//13 5//13 21//13
f 20//14 21//14 18//14
f 22//15 4//15 6//15
f 23//16 22//16 6//16
f 24//17 12//17 11//17
f 24//18 1//18 3//18
f 24//19 11//19 1//19
f 25//20 16//20 15//20
f 26//21 9//21 8//21
f 26//22 27//22 9//22
f 28//23 15//23 12//23
f 29//24 12//24 16//24
f 29//25 19//25 12//25
f 19//26 30//26 18//26
f 31//27 32//27 33//27
f 34//28 31//28 22//28
f 34//29 35//29 32//29
f 34//30 32//30 31//30
f 36//31 37//31 38//31
f 37//32 39//32 40//32
f 41//33 36//33 38//33
f 17//34 42//34 8//34
f 42//35 26//35 8//35
f 43//36 38//36 27//36
f 26//37 43//37 27//37
f 43//38 41//38 38//38
f 43//39 44//39 41//39
f 14//40 39//40 45//40
f 13//41 45//41 2//41
f 45//42 13//42 14//42
f 39//43 37//43 45//43
f 45//44 36//44 2//44
f 45//45 37//45 36//45
f 46//46 47//46 40//46
f 37//47 47//47 38//47
f 47//48 37//48 40//48
f 47//49 27//49 38//49
f 24//50 48//50 12//50
f 48//51 28//51 12//51
f 48//52 24//52 3//52
f 3//53 28//53 48//53
f 49//54 3//54 2//54
f 49//55 2//55 36//55
f 36//56 41//56 49//56
f 50//57 25//57 15//57
f 50//58 15//58 28//58
f 50//59 28//59 3//59
f 49//60 50//60 3//60
f 23//61 30//61 51//61
f 35//62 34//62 51//62
f 51//63 22//63 23//63
f 51//64 34//64 22//64
f 52//65 23//65 6//65
f 52//66 30//66 23//66
f 35//67 53//67 32//67
f 53//68 54//68 32//68
f 53//69 35//69 54//69
f 55//70 33//70 32//70
f 54//71 55//71 32//71
f 33//72 55//72 7//72
f 55//73 17//73 7//73
f 56//74 46//74 57//74
f 27//75 47//75 56//75
f 56//76 47//76 46//76
f 56//77 9//77 27//77
f 58//78 49//78 41//78
f 58//79 50//79 49//79
f 25//80 50//80 58//80
f 58//81 41//81 44//81
f 59//82 18//82 30//82
f 59//83 52//83 18//83
f 52//84 59//84 30//84
f 60//85 20//85 18//85
f 18//86 52//86 60//86
f 60//87 6//87 20//87
f 60//88 52//88 6//88
f 17//89 55//89 61//89
f 61//90 55//90 54//90
f 61//91 54//91 35//91
f 62//92 61//92 35//92
f 63//93 35//93 16//93
f 63//94 62//94 35//94
f 64//95 31//95 33//95
f 16//96 25//96 65//96
f 65//97 63//97 16//97
f 58//98 65//98 25//98
f 65//99 58//99 44//99
f 44//100 63//100 65//100
f 44//101 43//101 66//101
f 66//102 63//102 44//102
f 66//103 43//103 26//103
f 63//104 66//104 62//104
f 42//105 62//105 66//105
f 26//106 42//106 66//106
f 67//107 57//107 68//107
f 67//108 9//108 56//108
f 67//109 56//109 57//109
f 69//110 7//110 9//110
f 69//111 33//111 7//111
f 69//112 64//112 33//112
f 18//113 21//113 70//113
f 21//114 5//114 70//114
f 71//115 68//115 72//115
f 71//116 67//116 68//116
f 71//117 9//117 67//117
f 71//118 69//118 9//118
f 73//119 74//119 75//119
f 70//120 76//120 77//120
f 76//121 70//121 5//121
f 76//122 5//122 4//122
f 78//123 71//123 72//123
f 72//124 74//124 78//124
f 64//125 69//125 78//125
f 69//126 71//126 78//126
f 78//127 73//127 64//127
f 73//128 78//128 74//128
f 79//129 73//129 75//129
f 79//130 75//130 77//130
f 79//131 76//131 4//131
f 76//132 79//132 77//132
f 4//133 22//133 80//133
f 80//134 79//134 4//134
f 79//135 80//135 73//135
f 22//136 31//136 80//136
f 31//137 64//137 80//137
f 64//138 73//138 80//138
f 81//139 46//139 40//139
f 81//140 40//140 39//140
f 82//141 39//141 14//141
f 82//142 81//142 39//142
f 70//143 83//143 84//143
f 85//144 10//144 86//144
f 87//145 85//145 86//145
f 88//146 77//146 75//146
f 83//147 89//147 84//147
f 89//148 90//148 84//148
f 91//149 86//149 84//149
f 90//150 91//150 84//150
f 74//151 92//151 75//151
f 92//152 88//152 75//152
f 92//153 74//153 72//153
f 93//154 87//154 86//154
f 91//155 93//155 86//155
f 72//156 68//156 94//156
f 94//157 92//157 72//157
f 95//158 68//158 57//158
f 95//159 94//159 68//159
f 96//160 57//160 46//160
f 96//161 95//161 57//161
f 46//162 81//162 96//162
f 97//163 12//163 18//163
f 12//163 97//163 98//163
f 97//164 86//164 98//164
f 86//164 97//164 84//164
f 86//165 12//165 98//165
f 86//165 10//165 12//165
f 29//166 51//166 19//166
f 16//166 35//166 51//166
f 51//166 29//166 16//166
f 51//166 30//166 19//166
f 61//167 62//167 42//167
f 61//167 42//167 17//167
f 70//168 97//168 18//168
f 97//168 70//168 84//168
f 85//169 82//169 14//169
f 85//169 14//169 10//169
f 88//170 83//170 70//170
f 88//170 70//170 77//170
f 81//171 82//171 96//171
f 96//171 91//171 90//171
f 96//171 85//171 87//171
f 82//171 85//171 96//171
f 90//171 89//171 96//171
f 83//171 88//171 96//171
f 96//171 89//171 83//171
f 88//171 92//171 96//171
f 96//171 93//171 91//171
f 87//171 93//171 96//171
f 96//171 92//171 94//171
f 96//171 94//171 95//171
