# Blender 3.1.2
# www.blender.org
v 0.031838 -0.054566 0.218000
v 0.031174 -0.125590 0.413254
v -0.020071 -0.061336 0.217933
v -0.022212 0.058923 0.250806
v -0.064145 -0.011803 0.451586
v -0.019046 0.003860 0.453579
v -0.016977 -0.127732 0.406514
v 0.067355 -0.106108 0.394298
v -0.064161 -0.112819 0.404998
v 0.023666 0.058532 0.248206
v 0.008913 0.062776 0.218320
v -0.063883 -0.011424 0.217940
v -0.063250 0.021068 0.321553
v -0.038205 0.051547 0.218083
v -0.075613 -0.037213 0.431821
v 0.039739 -0.001432 0.451051
v -0.017320 -0.058416 0.483512
v 0.046238 0.042962 0.217962
v 0.063729 0.020250 0.324118
v 0.063544 -0.012089 0.217756
v -0.076239 -0.080643 0.415652
v -0.016120 -0.113454 0.453251
v 0.063756 -0.006486 0.440995
v -0.064427 -0.086069 0.460003
v 0.037886 -0.105980 0.453465
v 0.064628 -0.105937 0.436097
v 0.069824 -0.031253 0.457944
v 0.062015 -0.063130 0.468901
vn 0.1221 -0.9329 -0.3389
vn -0.3274 0.9106 0.2524
vn 0.0883 -0.9391 -0.3321
vn 0.3114 -0.8934 -0.3239
vn -0.2768 -0.9078 -0.3151
vn 0.0160 0.9910 0.1328
vn -0.9200 0.3754 -0.1121
vn -0.9896 0.1389 -0.0375
vn 0.0776 0.4336 0.8977
vn 0.9498 0.2989 -0.0925
vn -0.9982 0.0333 -0.0507
vn 0.0979 0.9564 0.2750
vn 0.0230 0.9649 0.2617
vn -0.4311 0.8755 0.2183
vn 0.0017 -0.9564 0.2921
vn 0.7586 -0.5681 -0.3189
vn 0.4538 0.8687 0.1986
vn -0.1506 -0.4788 0.8649
vn 0.0629 -0.4798 0.8751
vn 0.1229 -0.8999 0.4184
vn 0.9541 -0.1433 0.2630
vn 0.4658 -0.5202 0.7159
vn 0.1899 0.3355 0.9227
vn 0.6234 0.7793 0.0640
vn 0.9997 0.0237 -0.0089
vn 0.9990 0.0043 -0.0438
vn 0.9584 0.2782 0.0634
vn -0.2300 0.9674 -0.1057
vn 0.2981 0.9215 0.2488
vn -0.1856 0.4215 0.8876
vn -0.4907 0.1000 0.8656
vn -0.9310 0.3553 0.0834
vn -0.9402 -0.2988 -0.1634
vn 0.4881 -0.8721 0.0354
vn 0.2543 -0.8853 0.3893
vn 0.1422 -0.4054 0.9030
vn 0.0852 0.3052 0.9485
vn 0.4655 0.8788 -0.1050
vn 0.4154 0.5808 0.7001
vn -0.5769 0.8108 0.0992
vn -0.8923 0.0542 0.4481
vn -0.9657 -0.0783 0.2476
vn -0.7074 -0.6209 -0.3376
vn 0.9940 -0.0882 0.0652
vn -0.8968 -0.3995 0.1900
vn -0.2973 -0.9116 0.2839
vn -0.4099 -0.8210 0.3973
vn 0.0011 0.0011 -1.0000
vn -0.0014 0.0033 -1.0000
vn -0.0015 -0.0047 -1.0000
vn -0.0045 0.0096 -0.9999
vn 0.0050 0.0002 -1.0000
s 0
f 1//1 2//1 3//1
f 4//2 5//2 6//2
f 2//3 7//3 3//3
f 1//4 8//4 2//4
f 3//5 7//5 9//5
f 4//6 10//6 11//6
f 12//7 13//7 14//7
f 12//8 15//8 13//8
f 16//9 6//9 17//9
f 18//10 19//10 20//10
f 12//11 21//11 15//11
f 10//12 6//12 16//12
f 10//13 4//13 6//13
f 13//14 5//14 4//14
f 2//15 22//15 7//15
f 20//16 8//16 1//16
f 10//17 23//17 19//17
f 22//18 17//18 24//18
f 17//19 22//19 25//19
f 2//20 25//20 22//20
f 26//21 27//21 28//21
f 28//22 25//22 26//22
f 28//23 16//23 17//23
f 10//24 19//24 18//24
f 20//25 19//25 8//25
f 8//26 19//26 27//26
f 19//27 23//27 27//27
f 14//28 4//28 11//28
f 16//29 23//29 10//29
f 5//30 17//30 6//30
f 24//31 17//31 5//31
f 5//32 13//32 15//32
f 21//33 12//33 9//33
f 26//34 2//34 8//34
f 26//35 25//35 2//35
f 25//36 28//36 17//36
f 28//37 27//37 16//37
f 11//38 10//38 18//38
f 27//39 23//39 16//39
f 4//40 14//40 13//40
f 24//41 5//41 15//41
f 15//42 21//42 24//42
f 9//43 12//43 3//43
f 27//44 26//44 8//44
f 9//45 24//45 21//45
f 7//46 22//46 9//46
f 22//47 24//47 9//47
f 3//48 12//48 1//48
f 20//49 12//49 18//49
f 1//50 12//50 20//50
f 18//51 12//51 11//51
f 11//52 12//52 14//52
