# Blender 3.1.2
# www.blender.org
v -0.181000 -0.000000 -0.062500
v -0.120397 0.034217 -0.074648
v -0.125025 -0.029825 -0.073362
v -0.116717 -0.027858 -0.074717
v -0.042847 0.059962 0.024994
v -0.087339 0.066323 0.013192
v -0.106756 0.068456 0.012160
v -0.103222 -0.029366 -0.075294
v -0.110163 -0.027745 -0.075257
v -0.108641 0.033235 -0.075585
v -0.101965 -0.027712 -0.075308
v 0.015251 -0.031502 -0.074000
v 0.027052 -0.022208 -0.074000
v -0.125863 0.068308 -0.011217
v -0.125875 0.063252 -0.033811
v -0.181000 0.061551 -0.010852
v -0.106653 0.063934 -0.033865
v -0.181000 0.061551 0.010852
v -0.125856 0.068316 0.011881
v 0.019907 0.034117 -0.069500
v 0.003775 0.039319 -0.069500
v -0.041835 0.062812 -0.003450
v -0.041690 0.062996 0.003114
v -0.115353 0.037220 -0.074236
v -0.161000 -0.061551 -0.010853
v -0.181000 -0.054127 -0.031249
v -0.161000 -0.054127 -0.031250
v -0.181000 -0.021375 -0.058731
v -0.115744 0.033117 -0.075096
v -0.112986 -0.032600 -0.073305
v -0.114135 -0.029723 -0.075074
v -0.000945 -0.038170 -0.072682
v 0.000731 -0.039493 -0.069500
v 0.013611 -0.035674 -0.072682
v -0.141025 -0.059209 -0.010914
v 0.039092 -0.001504 0.075621
v 0.039956 0.001884 0.070500
v 0.039596 0.005672 0.073500
v 0.000642 -0.034994 -0.074000
v -0.181000 0.021375 -0.058731
v -0.043036 0.060419 -0.018741
v 0.016322 0.034518 -0.072682
v -0.106781 0.068449 -0.011018
v -0.181000 -0.000000 0.062500
v -0.126259 0.034230 0.074302
v -0.181000 0.021375 0.058731
v -0.124270 0.052793 0.057033
v -0.181000 0.040174 0.047878
v -0.130688 0.044312 0.064309
v -0.181000 0.054127 0.031249
v -0.181000 -0.061551 -0.010852
v -0.181000 -0.021375 0.058731
v -0.123511 -0.030182 0.074994
v -0.181000 -0.040174 -0.047878
v -0.125370 -0.032830 -0.071570
v -0.141018 -0.053588 -0.032529
v 0.038364 -0.011321 0.073500
v 0.038224 -0.009958 -0.069500
v 0.000129 -0.037000 0.076500
v -0.001565 -0.039090 0.075621
v 0.013528 -0.036708 0.075621
v 0.002972 0.036880 0.076500
v 0.016308 0.035560 0.075621
v 0.001443 0.039095 0.075621
v -0.109147 0.036028 0.076688
v 0.005613 0.039604 0.073500
v -0.096585 0.062767 0.035675
v 0.038878 0.006980 -0.069500
v 0.035992 0.017451 0.070500
v 0.028200 0.025742 -0.072682
v 0.017636 0.030232 -0.074000
v 0.021586 0.033675 0.073500
v 0.026224 0.030204 0.070500
v 0.036687 0.013585 0.075621
v 0.033643 0.021637 0.073500
v 0.026130 -0.027840 -0.072682
v -0.181000 0.040174 -0.047878
v -0.131242 0.037001 -0.070496
v -0.106279 0.056529 -0.052531
v -0.181000 0.054127 -0.031249
v -0.113683 0.066041 0.027986
v 0.003339 0.034840 -0.074000
v -0.131150 0.036495 0.071688
v -0.121407 0.063912 0.034310
v -0.121084 0.064890 0.031196
v -0.125436 -0.044437 -0.053738
v -0.125517 -0.043303 -0.055914
v -0.119390 0.034637 0.076198
v -0.117203 0.036718 0.075867
v -0.129243 -0.032734 -0.070495
v -0.120100 -0.032808 -0.072584
v 0.035535 -0.016364 0.075621
v 0.037475 -0.013988 0.070500
v 0.030531 -0.025062 -0.069500
v -0.141025 -0.059189 0.011444
v 0.000020 -0.040000 0.070500
v 0.026557 -0.028727 0.075621
v 0.015770 -0.033471 0.076500
v -0.103599 -0.028631 0.077373
v -0.106983 0.033583 0.077455
v 0.012227 0.038085 0.070500
v 0.032373 0.022632 -0.069500
v 0.035859 0.013115 -0.072682
v 0.028684 0.020055 -0.074000
v 0.034449 0.006185 -0.074000
v 0.034740 -0.015842 -0.072682
v 0.038154 -0.001474 -0.072682
v 0.028685 0.026601 0.075621
v 0.017216 -0.035551 -0.069500
v -0.131281 0.033604 -0.071477
v 0.002002 0.038130 -0.072682
v -0.108191 0.052956 -0.058231
v -0.113593 0.045855 -0.066257
v -0.110977 0.056629 -0.052666
v -0.116628 0.056192 -0.052989
v -0.123386 0.054863 -0.053418
v -0.118041 0.053243 -0.057338
v -0.114467 0.066719 0.024996
v -0.105923 0.036229 -0.074588
v -0.112624 0.053240 -0.057916
v -0.122387 0.037539 -0.073196
v -0.123249 0.036915 0.074588
v -0.121500 0.063000 0.036997
v -0.112935 0.064930 0.032261
v 0.030173 -0.026261 0.073500
v -0.117425 -0.032096 0.075091
v -0.111198 -0.029991 0.077053
v -0.000155 -0.040000 0.073500
v 0.028450 -0.023656 0.076500
v -0.107537 0.053084 0.059274
v -0.115321 0.053435 0.058479
v -0.114307 0.045866 0.067441
v 0.033870 -0.008824 -0.074000
v 0.016507 -0.036435 0.073500
v -0.126228 0.045115 -0.064785
v -0.116966 0.067500 0.020882
v -0.120349 0.066006 0.027231
v -0.112500 0.063000 0.038497
v -0.161000 -0.061551 0.010853
v -0.181000 -0.040174 0.047878
v -0.130942 -0.032081 0.071295
v -0.119998 -0.043128 0.057363
v -0.181000 -0.054127 0.031249
v -0.123356 -0.032186 0.073877
v 0.028949 -0.027603 0.070500
v -0.119264 -0.028774 0.075849
v -0.115466 0.033810 0.076718
v -0.109313 -0.031857 0.075910
v -0.098815 -0.029650 0.077270
v -0.181000 -0.061551 0.010852
v -0.175500 -0.057694 0.024035
v 0.035786 -0.009399 0.076500
v 0.015755 -0.036766 0.070500
v -0.124543 0.052684 -0.056299
v -0.115228 0.067137 0.022942
v -0.117913 0.067407 0.021263
v -0.124026 0.054632 0.054320
v -0.119728 0.059421 0.046506
v -0.120955 0.060853 0.042810
v -0.107026 0.056475 0.053938
v -0.112685 0.064277 0.034508
v -0.169521 -0.061919 0.008500
v -0.123897 -0.044435 0.054603
v -0.130236 -0.043357 0.055662
v -0.112547 -0.028675 0.076870
v -0.174704 -0.060224 0.016710
v 0.036403 0.006622 0.076500
v -0.116043 0.067397 0.021530
v -0.119556 0.066704 0.024425
v -0.115104 0.056280 0.054036
v -0.172479 -0.061919 0.008500
v -0.166500 -0.057688 0.024048
v 0.030183 0.021400 0.076500
v -0.118780 0.067133 0.022531
v -0.118153 0.058650 0.048604
v -0.167286 -0.060210 0.016760
v 0.018295 0.032160 0.076500
v -0.116475 0.058531 0.049220
v -0.112843 0.061277 0.043215
v -0.114771 0.059091 0.048265
v -0.113640 0.060007 0.046288
vn -0.1934 -0.0057 -0.9811
vn -0.1590 -0.0083 -0.9872
vn 0.0998 0.9831 0.1534
vn -0.0065 -0.0052 -1.0000
vn -0.0049 -0.0051 -1.0000
vn 0.0106 -0.0168 -0.9998
vn 0.0107 -0.0136 -0.9999
vn -0.1202 0.9688 -0.2168
vn -0.0352 0.9753 -0.2183
vn -0.1218 0.9926 -0.0000
vn -0.1217 0.9926 -0.0003
vn 0.3045 0.9442 -0.1256
vn 0.3908 0.9198 -0.0343
vn 0.1031 0.9845 0.1419
vn 0.1012 0.9859 0.1331
vn -0.0581 0.2308 -0.9713
vn -0.0000 -0.9397 -0.3420
vn -0.2729 -0.1671 -0.9474
vn -0.0701 0.1076 -0.9917
vn -0.0216 -0.5300 -0.8477
vn -0.1551 -0.0253 -0.9876
vn -0.0182 -0.0553 -0.9983
vn -0.1424 -0.0073 -0.9898
vn -0.0965 -0.0028 -0.9953
vn -0.0437 -0.0043 -0.9990
vn -0.0686 -0.0021 -0.9976
vn -0.0000 -0.9340 -0.3573
vn -0.0058 -0.9244 -0.3813
vn 0.1513 -0.8820 -0.4463
vn 0.1161 -0.9918 -0.0529
vn 0.9884 -0.0250 0.1500
vn 0.0101 -0.0424 -0.9990
vn -0.0073 -0.3507 -0.9364
vn -0.0088 -0.3795 -0.9251
vn 0.0707 -0.4122 -0.9083
vn 0.0785 -0.3283 -0.9413
vn -0.2833 0.1665 -0.9445
vn 0.1202 0.9511 -0.2845
vn 0.2471 0.9542 -0.1687
vn 0.2994 0.9283 -0.2204
vn -0.0052 0.9810 -0.1939
vn 0.0997 0.9762 -0.1924
vn 0.1040 0.9813 -0.1617
vn -0.0073 1.0000 -0.0003
vn -0.0074 1.0000 -0.0003
vn 0.0836 0.9965 -0.0004
vn 0.0899 0.9955 -0.0298
vn -0.3056 0.1653 0.9377
vn -0.2643 0.7353 0.6240
vn -0.2644 0.7388 0.6199
vn -0.2919 -0.1661 0.9419
vn -0.1701 -0.7549 -0.6334
vn 0.0034 -0.9397 -0.3420
vn 0.0032 -0.9384 -0.3456
vn 0.0045 -0.9400 -0.3412
vn 0.9900 -0.0958 0.1035
vn 0.9928 -0.1201 -0.0021
vn 0.0684 -0.4332 0.8987
vn 0.1015 0.4267 0.8987
vn -0.0012 0.3681 0.9298
vn 0.2554 0.9558 0.1460
vn 0.1905 0.8014 0.5670
vn 0.1075 0.9505 0.2915
vn 0.9564 0.2920 -0.0021
vn 0.9992 -0.0386 -0.0091
vn 0.9952 0.0977 -0.0041
vn 0.5166 0.6993 -0.4941
vn 0.2633 0.3564 -0.8964
vn 0.5973 0.8020 -0.0045
vn 0.7836 0.1249 0.6086
vn 0.9063 0.3872 0.1695
vn 0.9420 0.3165 0.1112
vn 0.2351 -0.3757 -0.8964
vn 0.2002 -0.2542 -0.9462
vn -0.3402 0.4702 -0.8144
vn 0.0885 0.9265 -0.3658
vn -0.1690 0.9262 -0.3371
vn 0.0924 0.9735 0.2092
vn 0.0135 0.0420 -0.9990
vn 0.1035 0.3212 -0.9413
vn -0.3526 0.4679 0.8104
vn -0.1487 0.9477 0.2824
vn -0.0219 -0.8973 -0.4408
vn -0.0255 -0.8870 -0.4610
vn -0.0318 -0.8870 -0.4607
vn -0.2703 0.1022 0.9573
vn -0.2146 -0.0045 0.9767
vn -0.0784 0.2367 0.9684
vn -0.2931 -0.4780 -0.8280
vn -0.2138 -0.6710 -0.7100
vn -0.2885 -0.4266 -0.8572
vn -0.2463 -0.4754 -0.8446
vn -0.0824 -0.8311 -0.5500
vn -0.1074 -0.8102 -0.5762
vn -0.0367 -0.8043 -0.5931
vn -0.0383 -0.8400 -0.5413
vn -0.0691 -0.5425 -0.8372
vn -0.1345 -0.4521 -0.8818
vn -0.1625 -0.4915 -0.8556
vn 0.7803 -0.1868 0.5968
vn 0.8910 -0.4538 -0.0083
vn 0.9499 -0.3126 -0.0039
vn 0.8870 -0.4429 0.1305
vn 0.1344 -0.9909 0.0009
vn 0.1366 -0.9906 -0.0029
vn 0.2528 -0.4126 0.8751
vn 0.0689 -0.3055 0.9497
vn 0.0062 -0.0275 0.9996
vn -0.0007 0.2988 0.9543
vn 0.2775 0.9519 0.1299
vn 0.3088 0.9274 0.2112
vn 0.3836 0.9122 0.1441
vn 0.4220 0.9066 -0.0025
vn 0.4268 0.9043 -0.0022
vn 0.9150 0.3803 -0.1351
vn 0.7284 0.4418 -0.5236
vn 0.9234 0.3838 -0.0097
vn 0.6680 0.7251 -0.1676
vn 0.8707 0.4918 -0.0043
vn 0.6775 0.7354 -0.0100
vn 0.7563 0.6542 -0.0022
vn 0.3944 0.2392 -0.8872
vn 0.2915 0.1212 -0.9489
vn 0.2192 0.2380 -0.9462
vn 0.0129 0.0140 -0.9998
vn 0.0120 0.0050 -0.9999
vn 0.3748 -0.2690 -0.8872
vn 0.8829 -0.4497 -0.1351
vn 0.6922 -0.4967 -0.5236
vn 0.8329 0.1310 -0.5378
vn 0.4652 0.0732 -0.8822
vn 0.9915 -0.0383 -0.1242
vn 0.8203 -0.1948 -0.5378
vn 0.6765 0.4159 0.6078
vn 0.4715 0.6514 0.5944
vn 0.7282 0.6740 0.1243
vn 0.6640 0.7232 0.1897
vn 0.6101 -0.7744 -0.1676
vn 0.4612 -0.7370 -0.4940
vn 0.2269 -0.9487 -0.2204
vn -0.2845 0.1740 -0.9428
vn -0.3005 0.2677 -0.9154
vn 0.0421 0.8401 -0.5408
vn 0.0834 0.9173 -0.3894
vn 0.0127 0.7446 -0.6674
vn 0.2189 0.8677 -0.4463
vn 0.1023 0.4056 -0.9083
vn 0.0045 0.6782 -0.7349
vn 0.0334 0.8417 -0.5389
vn 0.0303 0.9293 -0.3680
vn -0.0342 0.9342 -0.3551
vn -0.0509 0.9290 -0.3665
vn -0.1517 0.9016 -0.4050
vn -0.1676 0.8985 -0.4057
vn -0.1318 0.8398 -0.5267
vn 0.0923 0.9779 0.1877
vn 0.0921 0.9760 0.1972
vn -0.0021 0.3175 -0.9483
vn 0.0090 0.3084 -0.9512
vn 0.0089 0.4092 -0.9124
vn 0.0098 0.3754 -0.9268
vn 0.0009 0.7486 -0.6630
vn -0.0697 0.7509 -0.6568
vn 0.0149 0.8379 -0.5456
vn -0.0579 0.8349 -0.5474
vn -0.0347 0.8446 -0.5343
vn -0.0760 0.6850 -0.7246
vn -0.1229 0.3346 -0.9343
vn -0.2840 0.2360 -0.9293
vn -0.2958 0.2680 -0.9169
vn -0.2792 0.6721 0.6858
vn -0.2974 0.6276 0.7195
vn -0.2002 0.7208 0.6636
vn -0.1840 0.3403 0.9221
vn -0.2717 0.2046 0.9404
vn -0.3205 0.2625 0.9101
vn -0.3373 0.3703 0.8655
vn -0.1706 0.9259 0.3370
vn -0.1600 0.9365 0.3121
vn 0.0784 0.9681 0.2381
vn 0.6641 -0.4823 0.5713
vn 0.8656 -0.4905 0.1003
vn 0.8592 -0.5117 -0.0021
vn -0.1440 -0.4124 0.8995
vn -0.0414 -0.0036 0.9991
vn -0.0190 -0.3744 0.9271
vn 0.1379 -0.8738 0.4664
vn 0.1316 -0.9913 0.0078
vn 0.4198 -0.3049 0.8549
vn 0.1803 -0.2329 0.9556
vn 0.0069 -0.0090 0.9999
vn -0.0317 0.7618 0.6470
vn -0.1274 0.6935 0.7091
vn -0.0028 0.7504 0.6609
vn -0.1581 0.7455 0.6475
vn -0.1919 0.7223 0.6644
vn -0.0165 0.6802 0.7329
vn -0.0118 0.6815 0.7317
vn 0.2813 -0.1433 -0.9489
vn 0.0110 -0.0004 -0.9999
vn 0.3129 -0.0121 -0.9497
vn 0.4581 -0.1088 -0.8822
vn 0.0101 -0.0034 -0.9999
vn 0.0104 -0.0053 -0.9999
vn 0.4432 -0.7235 0.5293
vn 0.2063 -0.9643 0.1657
vn -0.2584 0.7400 -0.6209
vn -0.2751 0.6612 -0.6980
vn -0.2561 0.6572 -0.7089
vn -0.1208 0.7340 -0.6683
vn -0.1224 0.7090 -0.6945
vn -0.0087 0.9951 0.0988
vn -0.0391 0.9638 0.2638
vn -0.0343 0.9658 0.2572
vn -0.1366 0.9599 0.2447
vn -0.0532 0.9462 0.3192
vn 0.1164 -0.9932 -0.0000
vn 0.1174 -0.9931 0.0009
vn 0.1160 -0.9923 0.0434
vn -0.3085 -0.4756 0.8238
vn -0.3062 -0.4430 0.8426
vn -0.0534 -0.8443 0.5332
vn -0.1807 -0.7534 0.6322
vn -0.1023 -0.8214 0.5611
vn -0.2728 -0.5652 0.7785
vn -0.1676 -0.4898 0.8556
vn -0.2881 -0.4831 0.8268
vn 0.6188 -0.7855 -0.0073
vn 0.7433 -0.6689 -0.0037
vn 0.5785 -0.8157 -0.0022
vn 0.6027 -0.7906 0.1081
vn 0.5920 -0.7996 0.1011
vn -0.1955 -0.0058 0.9807
vn -0.1624 -0.1059 0.9810
vn -0.1319 -0.0036 0.9913
vn -0.0866 -0.0006 0.9962
vn -0.0784 0.2363 0.9685
vn -0.0779 0.2350 0.9689
vn -0.0472 -0.7306 0.6812
vn -0.0345 -0.5472 0.8363
vn -0.0660 -0.5689 0.8198
vn 0.0005 -0.0981 0.9952
vn -0.0104 -0.2413 0.9704
vn -0.0129 -0.1600 0.9870
vn -0.1588 -0.9278 0.3377
vn -0.0293 -0.9047 0.4250
vn -0.0156 -0.9227 0.3853
vn 0.5231 -0.1253 0.8430
vn 0.2528 -0.1301 0.9587
vn 0.0064 -0.0010 1.0000
vn 0.0067 -0.0035 1.0000
vn 0.2326 -0.9726 -0.0060
vn 0.4151 -0.9098 -0.0036
vn 0.2013 -0.9795 -0.0025
vn 0.2013 -0.9795 0.0118
vn 0.2089 -0.9764 0.0554
vn -0.2153 0.8186 -0.5325
vn -0.2539 0.7463 -0.6152
vn -0.1587 0.8172 -0.5541
vn -0.1665 0.7521 -0.6377
vn 0.0686 0.9823 0.1741
vn -0.0440 0.9901 0.1332
vn -0.2231 0.8161 0.5331
vn -0.1850 0.8799 0.4376
vn -0.1474 0.8249 0.5458
vn -0.1714 0.9189 0.3554
vn -0.1786 0.8960 0.4065
vn 0.0274 0.8425 0.5380
vn -0.0468 0.9507 0.3066
vn -0.0467 0.9543 0.2951
vn -0.0416 0.9583 0.2828
vn 0.0704 0.9600 0.2709
vn 0.0674 0.9511 0.3014
vn -0.0000 -0.9998 -0.0191
vn 0.0432 -0.9991 -0.0000
vn -0.0420 -0.8823 0.4689
vn -0.0436 -0.8777 0.4772
vn -0.0494 -0.8739 0.4836
vn -0.0817 -0.8380 0.5395
vn -0.0666 -0.8544 0.5153
vn -0.0700 -0.8424 0.5344
vn -0.1384 -0.0044 0.9904
vn -0.1502 -0.0057 0.9886
vn -0.1500 -0.0166 0.9885
vn -0.0000 -0.9753 0.2208
vn -0.0950 -0.9441 0.3158
vn 0.5312 0.0847 0.8430
vn 0.2809 -0.0108 0.9597
vn 0.0066 -0.0003 1.0000
vn 0.0187 0.9913 0.1306
vn 0.0450 0.9867 0.1561
vn -0.0217 0.9822 0.1867
vn -0.0228 0.9807 0.1941
vn -0.0286 0.9732 0.2282
vn -0.0316 0.9720 0.2329
vn -0.1231 0.9746 0.1871
vn -0.1268 0.9704 0.2056
vn -0.1378 0.8372 0.5293
vn -0.0170 0.8424 0.5385
vn -0.0139 0.8445 0.5353
vn -0.0000 -0.9879 0.1549
vn -0.0000 -0.9879 0.1548
vn -0.0432 -0.9991 -0.0000
vn -0.0000 -0.9998 -0.0190
vn 0.0001 -0.9417 0.3366
vn 0.4420 0.2717 0.8549
vn 0.2621 0.1103 0.9587
vn 0.0072 0.0030 1.0000
vn -0.0236 0.9805 0.1953
vn -0.0250 0.9778 0.2079
vn -0.0266 0.9772 0.2107
vn -0.0763 0.9842 0.1600
vn -0.1054 0.9783 0.1787
vn -0.1659 0.8788 0.4474
vn -0.1466 0.8738 0.4637
vn -0.0004 -0.9452 0.3265
vn 0.0001 -0.9450 0.3270
vn 0.0034 -0.9451 0.3267
vn 0.0312 -0.9671 0.2526
vn 0.0003 -0.9751 0.2216
vn 0.0079 0.0257 0.9996
vn 0.0077 0.0085 0.9999
vn 0.0922 0.2993 0.9497
vn 0.2837 0.3920 0.8751
vn 0.1977 0.2184 0.9556
vn -0.0800 0.9147 0.3961
vn -0.0995 0.8903 0.4444
vn 0.0795 0.9313 0.3554
vn 0.0752 0.9349 0.3468
vn 0.0749 0.9261 0.3697
vn 0.0733 0.9244 0.3742
vn -0.0565 0.9392 0.3388
vn -0.0663 0.9340 0.3511
vn -0.0164 0.8993 0.4371
vn -0.0518 0.8990 0.4349
vn -0.0793 0.9151 0.3954
vn 0.0395 0.9198 0.3905
vn -0.0011 0.9076 0.4199
vn -0.0668 0.9281 0.3663
vn -0.0749 0.9212 0.3818
vn -0.0748 0.9204 0.3837
vn -1.0000 -0.0000 -0.0000
s 0
f 1//1 2//1 3//1
f 4//2 3//2 2//2
f 5//3 6//3 7//3
f 8//4 9//4 10//4
f 11//5 8//5 10//5
f 11//6 12//6 8//6
f 12//7 11//7 13//7
f 14//8 15//8 16//8
f 17//9 15//9 14//9
f 18//10 19//10 16//10
f 19//11 14//11 16//11
f 20//12 21//12 22//12
f 22//13 23//13 20//13
f 6//14 5//14 23//14
f 6//15 23//15 7//15
f 2//16 24//16 10//16
f 25//17 26//17 27//17
f 3//18 28//18 1//18
f 29//19 2//19 10//19
f 30//20 31//20 32//20
f 4//21 31//21 3//21
f 8//22 31//22 9//22
f 2//23 31//23 4//23
f 29//24 31//24 2//24
f 9//25 31//25 10//25
f 31//26 29//26 10//26
f 26//27 33//27 27//27
f 33//28 26//28 32//28
f 34//29 33//29 32//29
f 25//30 33//30 35//30
f 36//31 37//31 38//31
f 12//32 39//32 8//32
f 39//33 31//33 8//33
f 31//34 39//34 32//34
f 32//35 39//35 34//35
f 12//36 34//36 39//36
f 1//37 40//37 2//37
f 41//38 21//38 17//38
f 21//39 41//39 22//39
f 42//40 21//40 20//40
f 14//41 43//41 17//41
f 43//42 41//42 17//42
f 41//43 43//43 22//43
f 43//44 19//44 7//44
f 19//45 43//45 14//45
f 23//46 43//46 7//46
f 22//47 43//47 23//47
f 44//48 45//48 46//48
f 47//49 48//49 49//49
f 47//50 50//50 48//50
f 51//17 26//17 25//17
f 52//51 53//51 44//51
f 54//52 55//52 26//52
f 56//53 25//53 27//53
f 33//54 56//54 27//54
f 25//55 56//55 33//55
f 36//56 57//56 37//56
f 57//57 58//57 37//57
f 59//58 60//58 61//58
f 62//59 63//59 64//59
f 65//60 62//60 64//60
f 23//61 5//61 66//61
f 63//62 66//62 64//62
f 67//63 66//63 5//63
f 38//64 68//64 69//64
f 58//65 68//65 37//65
f 38//66 37//66 68//66
f 70//67 42//67 20//67
f 42//68 70//68 71//68
f 20//69 72//69 73//69
f 38//70 74//70 36//70
f 75//71 74//71 69//71
f 69//72 74//72 38//72
f 12//73 76//73 34//73
f 12//74 13//74 76//74
f 77//75 78//75 40//75
f 21//76 79//76 17//76
f 15//77 80//77 16//77
f 67//78 5//78 81//78
f 71//79 10//79 82//79
f 82//80 42//80 71//80
f 46//81 83//81 48//81
f 84//82 85//82 18//82
f 26//83 86//83 32//83
f 32//84 86//84 87//84
f 87//85 86//85 26//85
f 88//86 45//86 44//86
f 53//87 88//87 44//87
f 89//88 88//88 65//88
f 28//89 90//89 54//89
f 55//90 54//90 90//90
f 90//91 28//91 3//91
f 55//92 90//92 3//92
f 87//93 26//93 91//93
f 55//94 91//94 26//94
f 30//95 32//95 91//95
f 87//96 91//96 32//96
f 31//97 30//97 91//97
f 31//98 91//98 3//98
f 3//99 91//99 55//99
f 36//100 92//100 57//100
f 93//101 94//101 58//101
f 57//102 93//102 58//102
f 92//103 93//103 57//103
f 95//104 35//104 96//104
f 33//105 96//105 35//105
f 97//106 98//106 61//106
f 61//107 98//107 59//107
f 59//108 98//108 99//108
f 100//109 62//109 65//109
f 66//110 101//110 23//110
f 63//111 101//111 66//111
f 72//112 101//112 63//112
f 23//113 101//113 20//113
f 20//114 101//114 72//114
f 102//115 68//115 103//115
f 70//116 102//116 103//116
f 68//117 102//117 69//117
f 20//118 102//118 70//118
f 75//119 69//119 102//119
f 73//120 102//120 20//120
f 75//121 102//121 73//121
f 70//122 103//122 104//122
f 105//123 104//123 103//123
f 70//124 104//124 71//124
f 71//125 104//125 10//125
f 104//126 105//126 10//126
f 76//127 13//127 106//127
f 94//128 106//128 58//128
f 76//129 106//129 94//129
f 68//130 107//130 103//130
f 107//131 105//131 103//131
f 58//132 107//132 68//132
f 106//133 107//133 58//133
f 74//134 75//134 108//134
f 108//135 72//135 63//135
f 75//136 73//136 108//136
f 72//137 108//137 73//137
f 76//138 94//138 109//138
f 76//139 109//139 34//139
f 109//140 33//140 34//140
f 40//141 110//141 2//141
f 78//142 110//142 40//142
f 79//143 111//143 112//143
f 79//144 21//144 111//144
f 113//145 112//145 111//145
f 42//146 111//146 21//146
f 82//147 111//147 42//147
f 113//148 111//148 24//148
f 112//149 114//149 79//149
f 79//150 114//150 17//150
f 17//151 114//151 15//151
f 115//152 15//152 114//152
f 115//153 116//153 15//153
f 116//154 80//154 15//154
f 117//155 116//155 115//155
f 5//156 7//156 118//156
f 81//157 5//157 118//157
f 24//158 119//158 10//158
f 82//159 10//159 119//159
f 111//160 119//160 24//160
f 111//161 82//161 119//161
f 113//162 120//162 112//162
f 117//163 120//163 113//163
f 120//164 114//164 112//164
f 117//165 115//165 120//165
f 114//166 120//166 115//166
f 24//167 121//167 113//167
f 2//168 121//168 24//168
f 110//169 121//169 2//169
f 78//170 121//170 110//170
f 49//171 48//171 122//171
f 83//172 122//172 48//172
f 49//173 122//173 47//173
f 88//174 89//174 122//174
f 88//175 122//175 45//175
f 45//176 122//176 46//176
f 83//177 46//177 122//177
f 50//178 123//178 18//178
f 18//179 123//179 84//179
f 81//180 124//180 67//180
f 97//181 125//181 92//181
f 93//182 92//182 125//182
f 93//183 125//183 94//183
f 126//184 127//184 53//184
f 100//185 127//185 99//185
f 59//186 127//186 60//186
f 128//187 61//187 60//187
f 96//188 128//188 95//188
f 92//189 129//189 97//189
f 129//190 98//190 97//190
f 98//191 129//191 99//191
f 130//192 131//192 132//192
f 122//193 89//193 132//193
f 130//194 132//194 64//194
f 47//195 132//195 131//195
f 122//196 132//196 47//196
f 65//197 132//197 89//197
f 65//198 64//198 132//198
f 106//199 13//199 133//199
f 105//200 133//200 10//200
f 107//201 133//201 105//201
f 107//202 106//202 133//202
f 10//203 133//203 11//203
f 11//204 133//204 13//204
f 61//205 134//205 97//205
f 128//206 134//206 61//206
f 80//207 135//207 77//207
f 77//208 135//208 78//208
f 135//209 121//209 78//209
f 117//210 113//210 135//210
f 121//211 135//211 113//211
f 19//212 136//212 7//212
f 124//213 137//213 85//213
f 137//214 124//214 81//214
f 85//215 137//215 18//215
f 123//216 138//216 84//216
f 139//217 25//217 35//217
f 95//218 139//218 35//218
f 128//219 139//219 95//219
f 140//220 141//220 52//220
f 53//221 52//221 141//221
f 126//222 142//222 60//222
f 140//223 143//223 144//223
f 126//224 144//224 143//224
f 140//225 144//225 141//225
f 126//226 53//226 144//226
f 141//227 144//227 53//227
f 109//228 94//228 145//228
f 125//229 145//229 94//229
f 134//230 109//230 145//230
f 97//231 145//231 125//231
f 134//232 145//232 97//232
f 53//233 146//233 88//233
f 127//234 146//234 53//234
f 127//235 147//235 88//235
f 147//236 127//236 100//236
f 88//237 147//237 65//237
f 100//238 65//238 147//238
f 126//239 60//239 148//239
f 127//240 148//240 60//240
f 148//241 127//241 126//241
f 99//242 149//242 59//242
f 149//243 127//243 59//243
f 127//244 149//244 99//244
f 150//245 151//245 143//245
f 143//246 151//246 60//246
f 60//247 151//247 128//247
f 152//248 92//248 36//248
f 152//249 129//249 92//249
f 99//250 152//250 100//250
f 129//251 152//251 99//251
f 109//252 153//252 33//252
f 134//253 153//253 109//253
f 33//254 153//254 96//254
f 96//255 153//255 128//255
f 128//256 153//256 134//256
f 116//257 154//257 80//257
f 154//258 135//258 80//258
f 116//259 117//259 154//259
f 135//260 154//260 117//260
f 155//261 118//261 7//261
f 136//262 19//262 156//262
f 157//263 50//263 47//263
f 50//264 157//264 158//264
f 131//265 157//265 47//265
f 123//266 50//266 159//266
f 158//267 159//267 50//267
f 130//268 64//268 160//268
f 138//269 161//269 84//269
f 84//270 161//270 85//270
f 124//271 85//271 161//271
f 124//272 161//272 67//272
f 67//273 161//273 138//273
f 162//274 51//274 25//274
f 139//275 162//275 25//275
f 143//276 60//276 163//276
f 142//277 163//277 60//277
f 163//278 142//278 143//278
f 143//279 164//279 126//279
f 142//280 164//280 143//280
f 126//281 164//281 142//281
f 127//282 88//282 165//282
f 146//283 165//283 88//283
f 165//284 146//284 127//284
f 139//285 166//285 150//285
f 166//286 151//286 150//286
f 74//287 167//287 36//287
f 36//288 167//288 152//288
f 152//289 167//289 100//289
f 136//290 168//290 7//290
f 7//291 168//291 155//291
f 156//292 168//292 136//292
f 155//293 168//293 156//293
f 118//294 169//294 81//294
f 169//295 137//295 81//295
f 19//296 18//296 169//296
f 137//297 169//297 18//297
f 170//298 157//298 131//298
f 130//299 170//299 131//299
f 160//300 170//300 130//300
f 150//301 171//301 139//301
f 162//302 139//302 171//302
f 51//303 171//303 150//303
f 162//304 171//304 51//304
f 151//305 172//305 128//305
f 108//306 173//306 74//306
f 167//307 74//307 173//307
f 167//308 173//308 100//308
f 156//309 174//309 155//309
f 155//310 174//310 118//310
f 174//311 169//311 118//311
f 156//312 19//312 174//312
f 169//313 174//313 19//313
f 157//314 175//314 158//314
f 170//315 175//315 157//315
f 166//316 176//316 151//316
f 151//317 176//317 172//317
f 172//318 176//318 128//318
f 139//319 128//319 176//319
f 166//320 139//320 176//320
f 100//321 177//321 62//321
f 173//322 177//322 100//322
f 62//323 177//323 63//323
f 108//324 63//324 177//324
f 108//325 177//325 173//325
f 175//326 178//326 158//326
f 178//327 175//327 170//327
f 179//328 66//328 67//328
f 138//329 179//329 67//329
f 66//330 179//330 64//330
f 160//331 64//331 179//331
f 138//332 123//332 179//332
f 159//333 179//333 123//333
f 170//334 160//334 180//334
f 170//335 180//335 178//335
f 178//336 180//336 158//336
f 179//337 181//337 160//337
f 180//338 160//338 181//338
f 181//339 179//339 159//339
f 159//340 158//340 181//340
f 180//341 181//341 158//341
f 50//342 140//342 48//342
f 28//342 54//342 140//342
f 26//342 140//342 54//342
f 40//342 140//342 77//342
f 18//342 16//342 140//342
f 150//342 143//342 140//342
f 46//342 48//342 140//342
f 51//342 140//342 26//342
f 46//342 140//342 44//342
f 28//342 140//342 1//342
f 52//342 44//342 140//342
f 40//342 1//342 140//342
f 50//342 18//342 140//342
f 140//342 80//342 77//342
f 80//342 140//342 16//342
f 150//342 140//342 51//342
