# Blender 3.1.2
# www.blender.org
v -0.034929 -0.066700 0.002230
v -0.044257 -0.008146 0.102500
v -0.045000 -0.000000 0.097800
v 0.033759 -0.060000 -0.008028
v 0.029658 0.066700 -0.004515
v 0.045000 -0.000000 0.097800
v 0.044257 0.008145 0.102500
v -0.029658 0.066700 -0.004515
v -0.027774 0.066700 -0.011342
v -0.032939 -0.060300 -0.011833
v 0.034698 -0.060000 -0.000367
v -0.042000 -0.016156 0.145300
v -0.035425 -0.027750 0.145300
v -0.029362 0.067000 -0.004470
v -0.024098 0.067000 -0.017361
v 0.027774 0.066700 -0.011342
v 0.024098 0.067000 -0.017361
v 0.029362 0.067000 -0.004470
v 0.035905 0.025433 0.146300
v 0.039435 0.019516 0.146300
v 0.035425 0.027750 0.145300
v 0.042000 0.016155 0.145300
v 0.042248 0.015496 0.131500
v -0.033759 -0.060000 -0.008028
v -0.031149 -0.060000 -0.015292
v 0.034929 -0.066700 0.002230
v 0.034698 -0.067000 -0.000367
v 0.000650 -0.043995 0.146300
v -0.000650 -0.044995 0.145300
v 0.000650 -0.044995 0.145300
v -0.014700 -0.065536 0.101036
v -0.033921 -0.067000 0.007312
v 0.014700 0.067000 0.097500
v 0.025743 0.036909 0.145300
v 0.014700 0.065535 0.101036
v 0.013802 0.042831 0.145300
v -0.042000 -0.014642 0.145821
v -0.042000 -0.013114 0.146300
v -0.045000 -0.000000 0.139300
v -0.044257 0.008145 0.102500
v 0.032939 -0.060300 -0.011833
v 0.015000 0.066700 0.097500
v 0.042000 0.013114 0.146300
v 0.042000 0.014642 0.145821
v 0.035425 -0.027750 0.145300
v 0.033921 -0.067000 0.007312
v 0.044257 -0.008146 0.102500
v -0.034698 -0.060000 -0.000367
v -0.024341 0.066700 -0.017536
v 0.024341 0.066700 -0.017536
v -0.015000 -0.066700 0.097500
v -0.014700 -0.067000 0.097500
v -0.026328 -0.035254 0.146300
v -0.035905 -0.025433 0.146300
v 0.026328 0.035254 0.146300
v -0.014700 0.065535 0.101036
v -0.000650 0.044995 0.145300
v 0.000650 0.044995 0.145300
v -0.000650 0.043995 0.146300
v -0.042000 0.013114 0.146300
v -0.044931 -0.002500 0.135800
v -0.042000 0.016155 0.145300
v -0.042248 0.015496 0.131500
v -0.044931 0.002500 0.135800
v -0.026328 0.035254 0.146300
v -0.035425 0.027750 0.145300
v -0.035905 0.025433 0.146300
v -0.028172 0.067000 0.009404
v -0.029890 0.066700 0.002563
v -0.014700 0.067000 0.097500
v 0.028172 0.067000 0.009404
v 0.029890 0.066700 0.002563
v 0.025743 -0.036910 0.145300
v 0.014700 -0.067000 0.097500
v 0.015000 -0.066700 0.097500
v 0.042000 -0.016156 0.145300
v 0.035905 -0.025433 0.146300
v -0.026998 -0.060000 -0.021799
v -0.031149 -0.067000 -0.015292
v -0.033759 -0.067000 -0.008028
v -0.032939 -0.066700 -0.011833
v 0.031149 -0.060000 -0.015292
v 0.013673 0.066700 -0.026703
v 0.021512 -0.060000 -0.027227
v 0.013908 -0.060300 -0.032118
v -0.039435 -0.019516 0.146300
v -0.000650 -0.043995 0.146300
v -0.013802 -0.042831 0.145300
v -0.014192 -0.041648 0.146300
v 0.014192 0.041648 0.146300
v -0.025743 0.036909 0.145300
v -0.013802 0.042831 0.145300
v -0.014192 0.041648 0.146300
v -0.007517 0.043353 0.146300
v -0.042000 0.014642 0.145821
v -0.044983 0.001252 0.137964
v -0.045000 0.000000 0.132500
v -0.015000 0.066700 0.097500
v 0.014700 -0.065536 0.101036
v 0.013802 -0.042831 0.145300
v 0.026328 -0.035254 0.146300
v 0.042000 -0.013114 0.146300
v 0.045000 -0.000000 0.139300
v 0.042000 -0.014642 0.145821
v -0.025525 -0.060300 -0.023947
v -0.021512 -0.067000 -0.027227
v -0.026998 -0.067000 -0.021799
v -0.025525 -0.066700 -0.023947
v -0.013673 0.066700 -0.026703
v -0.007033 0.066700 -0.029164
v -0.013908 -0.060300 -0.032118
v -0.013537 0.067000 -0.026436
v -0.000000 0.067000 -0.029700
v -0.000000 -0.060300 -0.035000
v -0.007670 -0.060000 -0.033842
v -0.021512 -0.060000 -0.027227
v -0.034698 -0.067000 -0.000367
v -0.007670 -0.067000 -0.033842
v -0.014961 -0.067000 -0.031309
v -0.013908 -0.066700 -0.032118
v 0.026998 -0.060000 -0.021799
v 0.033759 -0.067000 -0.008028
v 0.031149 -0.067000 -0.015292
v 0.032939 -0.066700 -0.011833
v 0.007033 0.066700 -0.029164
v 0.013537 0.067000 -0.026436
v 0.007670 -0.060000 -0.033842
v -0.025743 -0.036910 0.145300
v 0.000650 0.043995 0.146300
v -0.044983 -0.001231 0.133624
v -0.045000 -0.000000 0.102200
v -0.044983 -0.001251 0.137965
v -0.044983 0.001256 0.133638
v 0.014192 -0.041648 0.146300
v 0.044931 -0.002500 0.135800
v 0.044983 -0.001256 0.133638
v 0.044931 0.002500 0.135800
v 0.044983 -0.001252 0.137964
v -0.019552 0.066700 -0.022753
v 0.025525 -0.060300 -0.023947
v 0.019552 0.066700 -0.022753
v -0.000000 0.066700 -0.030000
v -0.000000 -0.067000 -0.034700
v -0.000000 -0.066700 -0.035000
v 0.007670 -0.067000 -0.033842
v -0.044948 -0.002156 0.134534
v 0.007517 -0.043353 0.146300
v 0.044983 0.001250 0.137965
v 0.045000 -0.000000 0.132500
v 0.013908 -0.066700 -0.032118
v 0.014961 -0.067000 -0.031309
v 0.044948 0.002156 0.134534
v 0.026998 -0.067000 -0.021799
v 0.021512 -0.067000 -0.027227
v 0.025525 -0.066700 -0.023947
v 0.044983 0.001231 0.133624
v 0.045000 -0.000000 0.102200
vn -0.9937 -0.1077 -0.0295
vn 0.9915 0.0356 -0.1255
vn 0.9897 0.1278 -0.0651
vn -0.9632 0.0402 -0.2659
vn 0.9922 0.0287 -0.1217
vn -0.8625 -0.4891 0.1302
vn -0.6840 0.7046 -0.1888
vn -0.2380 0.9664 -0.0972
vn 0.2380 0.9664 -0.0972
vn 0.6840 0.7046 -0.1888
vn 0.6786 0.4049 0.6129
vn 0.7545 0.4278 0.4977
vn 0.9702 0.2422 0.0058
vn -0.9915 0.0356 -0.1255
vn -0.9763 0.0375 -0.2132
vn -0.8888 0.0379 -0.4568
vn 0.9960 -0.0281 -0.0853
vn 0.9945 -0.0000 -0.1044
vn -0.0001 -0.7071 0.7071
vn -0.0001 -0.9071 0.4209
vn -0.8459 -0.5154 0.1374
vn 0.6585 0.6961 0.2861
vn 0.6526 0.7001 0.2899
vn 0.4023 0.8113 0.4243
vn -0.9622 -0.0815 0.2598
vn -0.9643 -0.0861 0.2503
vn -0.9897 0.1278 -0.0651
vn 0.9763 0.0375 -0.2132
vn 0.9632 0.0402 -0.2659
vn 0.6820 0.6820 0.2643
vn 0.5983 0.2397 0.7646
vn 0.6223 0.2548 0.7402
vn 0.8459 -0.5154 0.1374
vn 0.5186 -0.8534 0.0525
vn 0.9937 -0.1077 -0.0295
vn -0.9922 0.0287 -0.1217
vn -0.6205 0.7048 -0.3439
vn -0.8740 0.0384 -0.4843
vn 0.6205 0.7048 -0.3439
vn -0.6992 -0.6992 0.1490
vn -0.6820 -0.6820 0.2643
vn -0.7758 -0.6091 0.1648
vn -0.4419 -0.4309 0.7867
vn 0.4419 0.4310 0.7867
vn 0.5364 0.5671 0.6250
vn -0.0000 0.9071 0.4209
vn 0.1447 0.8792 0.4539
vn 0.0001 0.9071 0.4209
vn 0.0001 0.7071 0.7071
vn -0.9191 -0.0000 0.3939
vn -0.9956 -0.0934 -0.0043
vn -0.9849 -0.1730 0.0094
vn -0.9804 -0.1959 0.0208
vn -0.9702 0.2422 0.0058
vn -0.9796 0.2004 0.0141
vn -0.9956 0.0933 -0.0043
vn -0.4420 0.4310 0.7867
vn -0.7040 0.3992 0.5874
vn -0.2562 0.9664 0.0220
vn -0.7092 0.7046 -0.0232
vn -0.9688 0.2478 0.0055
vn -0.8655 0.4908 0.1004
vn -0.9820 0.1860 -0.0322
vn -0.9693 0.2460 0.0048
vn -0.4067 0.9114 0.0622
vn 0.2562 0.9664 0.0220
vn 0.7092 0.7046 -0.0232
vn 0.8062 0.5780 0.1265
vn 0.4067 0.9114 0.0622
vn 0.7028 0.7028 0.1102
vn 0.9688 0.2478 0.0055
vn 0.8655 0.4908 0.1004
vn 0.9820 0.1860 -0.0322
vn 0.9693 0.2460 0.0048
vn 0.6585 -0.6961 0.2861
vn 0.6992 -0.6992 0.1490
vn 0.6820 -0.6820 0.2643
vn 0.7758 -0.6091 0.1648
vn 0.7040 -0.3992 0.5874
vn 0.8625 -0.4891 0.1302
vn -0.8425 0.0358 -0.5374
vn -0.4735 -0.8642 -0.1701
vn 0.8888 0.0379 -0.4568
vn 0.8740 0.0384 -0.4843
vn 0.5396 0.0369 -0.8411
vn -0.5983 -0.2397 0.7646
vn -0.6223 -0.2548 0.7402
vn -0.7545 -0.4278 0.4977
vn -0.6786 -0.4049 0.6129
vn -0.0002 -0.7070 0.7072
vn -0.1447 -0.8792 0.4539
vn -0.1149 -0.6630 0.7397
vn -0.1156 -0.7023 0.7024
vn 0.3324 0.6703 0.6635
vn 0.2996 0.5686 0.7662
vn -0.4023 0.8113 0.4243
vn -0.2996 0.5686 0.7661
vn -0.3325 0.6704 0.6633
vn -0.5365 0.5671 0.6249
vn -0.6526 0.7001 0.2899
vn -0.6585 0.6961 0.2861
vn -0.1707 0.6683 0.7240
vn -0.0660 0.7056 0.7055
vn -0.1442 0.8793 0.4538
vn -0.1452 0.8791 0.4539
vn -0.9643 0.0861 0.2502
vn -0.9622 0.0815 0.2598
vn -0.5175 0.2560 0.8165
vn -0.5453 0.2728 0.7926
vn -0.9833 0.1390 0.1174
vn -0.9842 0.1625 0.0700
vn -0.9999 0.0139 -0.0000
vn -0.6820 0.6820 0.2643
vn -0.7028 0.7028 0.1102
vn -0.8062 0.5780 0.1265
vn 0.6526 -0.7001 0.2899
vn 0.4023 -0.8113 0.4243
vn -0.0000 -0.9071 0.4209
vn 0.4420 -0.4310 0.7867
vn 0.5365 -0.5671 0.6249
vn 0.9191 -0.0000 0.3939
vn 0.9622 0.0815 0.2598
vn 0.9643 0.0861 0.2503
vn 0.5175 -0.2561 0.8165
vn 0.5453 -0.2728 0.7926
vn 0.9622 -0.0815 0.2598
vn 0.9643 -0.0861 0.2503
vn -0.8218 0.0364 -0.5686
vn -0.3666 -0.8534 -0.3705
vn -0.3472 0.0406 -0.9369
vn -0.0603 0.9664 -0.2499
vn -0.2466 0.7047 -0.6653
vn -0.1478 0.0372 -0.9883
vn -0.2678 0.0369 -0.9628
vn -0.5396 0.0369 -0.8411
vn -0.5186 -0.8534 0.0525
vn -0.9960 -0.0281 -0.0853
vn -0.9945 -0.0000 -0.1044
vn -0.1911 -0.8129 -0.5501
vn -0.4854 -0.3970 -0.7790
vn 0.8425 0.0358 -0.5374
vn 0.4735 -0.8642 -0.1701
vn 0.3472 0.0406 -0.9369
vn 0.0603 0.9664 -0.2499
vn 0.2466 0.7047 -0.6653
vn 0.1478 0.0372 -0.9883
vn 0.2678 0.0369 -0.9628
vn -0.2996 -0.5686 0.7662
vn -0.3324 -0.6703 0.6635
vn -0.4023 -0.8113 0.4243
vn -0.5364 -0.5671 0.6250
vn -0.6526 -0.7001 0.2899
vn -0.6585 -0.6961 0.2861
vn 0.0002 0.7070 0.7072
vn 0.1156 0.7023 0.7024
vn 0.1149 0.6630 0.7397
vn -0.9999 -0.0136 -0.0000
vn -0.9999 -0.0140 0.0001
vn -0.9833 -0.1390 0.1174
vn -0.9842 -0.1625 0.0701
vn -0.9991 0.0436 -0.0010
vn -0.9999 0.0142 -0.0000
vn -0.9991 0.0417 -0.0000
vn 0.3325 -0.6704 0.6633
vn 0.2996 -0.5686 0.7661
vn 0.9956 -0.0934 -0.0043
vn 0.9990 -0.0436 -0.0010
vn 0.9849 -0.1730 0.0094
vn 0.9804 -0.1959 0.0208
vn 0.9796 0.2004 0.0141
vn 0.9956 0.0933 -0.0043
vn 0.9999 -0.0142 -0.0000
vn 0.9991 -0.0417 -0.0000
vn 0.9833 -0.1390 0.1174
vn 0.9842 -0.1625 0.0700
vn -0.1676 0.9664 -0.1950
vn -0.5227 0.7047 -0.4798
vn -0.3957 0.7047 -0.5890
vn -0.7361 0.0410 -0.6757
vn -0.5573 0.0379 -0.8295
vn -0.6341 0.0371 -0.7724
vn 0.8218 0.0364 -0.5686
vn 0.1676 0.9664 -0.1950
vn 0.5227 0.7047 -0.4798
vn 0.3957 0.7047 -0.5890
vn 0.7361 0.0410 -0.6757
vn 0.5573 0.0379 -0.8295
vn 0.6341 0.0371 -0.7724
vn 0.0838 0.7046 -0.7046
vn 0.1179 0.0391 -0.9923
vn -0.0838 0.7046 -0.7046
vn -0.1179 0.0391 -0.9923
vn -0.0789 -0.7050 -0.7048
vn 0.0789 -0.7050 -0.7048
vn -0.9990 -0.0449 0.0018
vn -0.9993 -0.0378 -0.0000
vn -0.9982 -0.0592 -0.0021
vn -0.9993 -0.0386 -0.0009
vn 0.1707 -0.6683 0.7240
vn 0.0660 -0.7056 0.7055
vn 0.1442 -0.8794 0.4538
vn 0.1452 -0.8791 0.4539
vn 0.9833 0.1390 0.1174
vn 0.9842 0.1625 0.0701
vn 0.9999 -0.0139 -0.0000
vn 0.1911 -0.8129 -0.5501
vn 0.9982 0.0592 -0.0021
vn 0.9990 0.0449 0.0018
vn 0.3666 -0.8534 -0.3705
vn 0.4854 -0.3970 -0.7790
vn 0.9993 0.0386 -0.0009
vn 0.9993 0.0378 -0.0000
vn 0.9999 0.0136 -0.0000
vn 0.9999 0.0140 0.0001
vn -0.8881 -0.0000 -0.4597
vn -0.0000 0.9239 0.3826
vn -0.9776 -0.0000 -0.2106
vn -0.1493 -0.0000 -0.9888
vn -0.2663 -0.0000 -0.9639
vn 0.9926 -0.0000 -0.1217
vn 0.9776 -0.0000 -0.2106
vn -0.0000 -0.9239 0.3826
vn -0.8247 -0.0000 -0.5655
vn -0.8431 -0.0000 -0.5378
vn -0.6328 -0.0000 -0.7743
vn -0.5410 -0.0000 -0.8411
vn -0.9926 -0.0000 -0.1217
vn 0.8881 -0.0000 -0.4597
vn -0.0000 1.0000 -0.0000
vn 0.1493 -0.0000 -0.9888
vn 0.2663 -0.0000 -0.9639
vn -1.0000 -0.0000 -0.0000
vn 0.8247 -0.0000 -0.5655
vn 0.8431 -0.0000 -0.5378
vn -0.0000 -0.0000 1.0000
vn 1.0000 -0.0000 -0.0000
vn -0.0000 -1.0000 -0.0000
vn 0.6328 -0.0000 -0.7743
vn 0.5410 -0.0000 -0.8411
s 0
f 1//1 2//1 3//1
f 4//2 5//2 6//2
f 6//3 5//3 7//3
f 8//4 9//4 10//4
f 11//5 4//5 6//5
f 12//6 1//6 13//6
f 8//7 14//7 9//7
f 9//8 14//8 15//8
f 16//9 17//9 18//9
f 16//10 18//10 5//10
f 19//11 20//11 21//11
f 21//12 20//12 22//12
f 22//13 7//13 23//13
f 8//14 24//14 3//14
f 10//15 24//15 8//15
f 10//16 9//16 25//16
f 26//17 27//17 6//17
f 6//18 27//18 11//18
f 28//19 29//19 30//19
f 29//20 31//20 30//20
f 1//21 32//21 13//21
f 33//22 34//22 21//22
f 33//23 35//23 34//23
f 34//24 35//24 36//24
f 37//25 38//25 39//25
f 37//26 39//26 12//26
f 3//27 40//27 8//27
f 41//28 5//28 4//28
f 5//29 41//29 16//29
f 33//30 21//30 42//30
f 43//31 44//31 20//31
f 20//32 44//32 22//32
f 45//33 46//33 26//33
f 46//34 27//34 26//34
f 6//35 47//35 26//35
f 24//36 48//36 3//36
f 15//37 49//37 9//37
f 49//38 25//38 9//38
f 16//39 50//39 17//39
f 51//40 32//40 52//40
f 13//41 51//41 52//41
f 32//42 51//42 13//42
f 53//43 54//43 13//43
f 55//44 19//44 21//44
f 34//45 55//45 21//45
f 35//46 56//46 57//46
f 35//47 58//47 36//47
f 58//48 35//48 57//48
f 58//49 57//49 59//49
f 60//50 39//50 38//50
f 2//51 61//51 3//51
f 1//52 61//52 2//52
f 61//53 1//53 12//53
f 40//54 62//54 63//54
f 40//55 64//55 62//55
f 3//56 64//56 40//56
f 65//57 66//57 67//57
f 67//58 66//58 62//58
f 68//59 14//59 69//59
f 14//60 8//60 69//60
f 63//61 62//61 69//61
f 66//62 69//62 62//62
f 40//63 69//63 8//63
f 63//64 69//64 40//64
f 68//65 69//65 70//65
f 71//66 72//66 18//66
f 18//67 72//67 5//67
f 42//68 21//68 72//68
f 71//69 33//69 72//69
f 42//70 72//70 33//70
f 23//71 72//71 22//71
f 22//72 72//72 21//72
f 5//73 72//73 7//73
f 23//74 7//74 72//74
f 73//75 74//75 45//75
f 46//76 75//76 74//76
f 74//77 75//77 45//77
f 45//78 75//78 46//78
f 45//79 76//79 77//79
f 76//80 45//80 26//80
f 49//81 78//81 25//81
f 79//82 80//82 81//82
f 41//83 82//83 16//83
f 50//84 16//84 82//84
f 83//85 84//85 85//85
f 37//86 86//86 38//86
f 86//87 37//87 12//87
f 13//88 86//88 12//88
f 54//89 86//89 13//89
f 29//90 28//90 87//90
f 29//91 88//91 31//91
f 87//92 89//92 88//92
f 87//93 88//93 29//93
f 36//94 90//94 34//94
f 90//95 55//95 34//95
f 56//96 91//96 92//96
f 93//97 91//97 65//97
f 93//98 92//98 91//98
f 91//99 66//99 65//99
f 56//100 70//100 91//100
f 66//101 91//101 70//101
f 93//102 94//102 92//102
f 57//103 94//103 59//103
f 56//104 94//104 57//104
f 92//105 94//105 56//105
f 39//106 95//106 62//106
f 60//107 95//107 39//107
f 95//108 60//108 67//108
f 62//109 95//109 67//109
f 39//110 62//110 96//110
f 64//111 96//111 62//111
f 97//112 39//112 96//112
f 97//112 96//112 3//112
f 66//113 70//113 98//113
f 69//114 98//114 70//114
f 98//115 69//115 66//115
f 73//116 99//116 74//116
f 73//117 100//117 99//117
f 31//118 99//118 30//118
f 77//119 101//119 45//119
f 101//120 73//120 45//120
f 102//121 103//121 43//121
f 103//122 44//122 43//122
f 44//123 103//123 22//123
f 77//124 104//124 102//124
f 76//125 104//125 77//125
f 104//126 103//126 102//126
f 103//127 104//127 76//127
f 78//128 49//128 105//128
f 106//129 107//129 108//129
f 109//130 110//130 111//130
f 112//131 113//131 110//131
f 112//132 110//132 109//132
f 110//133 114//133 115//133
f 110//134 115//134 111//134
f 109//135 111//135 116//135
f 1//136 117//136 32//136
f 117//137 1//137 3//137
f 48//138 117//138 3//138
f 118//139 119//139 120//139
f 119//140 106//140 120//140
f 82//141 121//141 50//141
f 122//142 123//142 124//142
f 125//143 83//143 85//143
f 126//144 125//144 113//144
f 83//145 125//145 126//145
f 114//146 125//146 127//146
f 85//147 127//147 125//147
f 89//148 53//148 128//148
f 88//149 89//149 128//149
f 88//150 128//150 31//150
f 53//151 13//151 128//151
f 31//152 128//152 52//152
f 52//153 128//153 13//153
f 58//154 59//154 129//154
f 58//155 129//155 36//155
f 129//156 90//156 36//156
f 130//157 131//157 3//157
f 39//157 131//157 130//157
f 130//158 132//158 39//158
f 39//159 132//159 12//159
f 61//160 12//160 132//160
f 64//161 3//161 133//161
f 96//162 133//162 3//162
f 64//163 133//163 96//163
f 73//164 134//164 100//164
f 101//165 134//165 73//165
f 6//166 135//166 47//166
f 136//167 135//167 6//167
f 47//168 135//168 26//168
f 76//169 26//169 135//169
f 22//170 137//170 7//170
f 7//171 137//171 6//171
f 6//172 138//172 136//172
f 136//173 138//173 135//173
f 76//174 138//174 103//174
f 135//175 138//175 76//175
f 112//176 139//176 15//176
f 49//177 15//177 139//177
f 112//178 109//178 139//178
f 105//179 49//179 139//179
f 116//180 139//180 109//180
f 139//181 116//181 105//181
f 121//182 140//182 50//182
f 17//183 141//183 126//183
f 50//184 141//184 17//184
f 126//185 141//185 83//185
f 140//186 141//186 50//186
f 84//187 83//187 141//187
f 84//188 141//188 140//188
f 125//189 142//189 113//189
f 142//190 125//190 114//190
f 110//191 113//191 142//191
f 110//192 142//192 114//192
f 143//193 118//193 144//193
f 145//194 143//194 144//194
f 132//195 146//195 61//195
f 132//196 130//196 146//196
f 61//197 146//197 3//197
f 130//198 3//198 146//198
f 134//199 147//199 100//199
f 28//200 30//200 147//200
f 99//201 147//201 30//201
f 147//202 99//202 100//202
f 103//203 148//203 22//203
f 22//204 148//204 137//204
f 149//205 138//205 6//205
f 138//205 149//205 103//205
f 145//206 150//206 151//206
f 137//207 152//207 6//207
f 148//208 152//208 137//208
f 153//209 154//209 155//209
f 151//210 150//210 154//210
f 152//211 156//211 6//211
f 152//212 148//212 156//212
f 156//213 157//213 6//213
f 157//213 156//213 103//213
f 148//214 103//214 156//214
f 25//215 79//215 10//215
f 81//215 10//215 79//215
f 33//216 70//216 56//216
f 33//216 56//216 35//216
f 81//217 80//217 10//217
f 80//217 24//217 10//217
f 114//218 118//218 115//218
f 118//218 114//218 144//218
f 115//219 118//219 111//219
f 120//219 111//219 118//219
f 11//220 122//220 4//220
f 27//220 122//220 11//220
f 122//221 41//221 4//221
f 41//221 122//221 124//221
f 74//222 99//222 52//222
f 99//222 31//222 52//222
f 105//223 107//223 78//223
f 107//223 105//223 108//223
f 107//224 79//224 25//224
f 78//224 107//224 25//224
f 105//225 116//225 108//225
f 106//225 108//225 116//225
f 120//226 116//226 111//226
f 106//226 116//226 120//226
f 80//227 117//227 24//227
f 48//227 24//227 117//227
f 124//228 123//228 41//228
f 41//228 123//228 82//228
f 18//229 126//229 71//229
f 33//229 126//229 70//229
f 14//229 126//229 15//229
f 68//229 126//229 14//229
f 112//229 126//229 113//229
f 126//229 18//229 17//229
f 70//229 126//229 68//229
f 71//229 126//229 33//229
f 15//229 126//229 112//229
f 114//230 145//230 144//230
f 145//230 114//230 127//230
f 85//231 145//231 127//231
f 150//231 145//231 85//231
f 97//232 131//232 39//232
f 3//232 131//232 97//232
f 121//233 153//233 140//233
f 140//233 153//233 155//233
f 123//234 153//234 82//234
f 82//234 153//234 121//234
f 147//235 54//235 53//235
f 20//235 19//235 147//235
f 89//235 147//235 53//235
f 94//235 93//235 147//235
f 55//235 147//235 19//235
f 20//235 147//235 43//235
f 67//235 147//235 65//235
f 102//235 147//235 77//235
f 65//235 147//235 93//235
f 102//235 43//235 147//235
f 60//235 147//235 67//235
f 147//235 86//235 54//235
f 87//235 147//235 89//235
f 90//235 147//235 55//235
f 38//235 147//235 60//235
f 86//235 147//235 38//235
f 87//235 28//235 147//235
f 101//235 77//235 147//235
f 94//235 147//235 59//235
f 129//235 147//235 90//235
f 129//235 59//235 147//235
f 134//235 101//235 147//235
f 149//236 157//236 103//236
f 157//236 149//236 6//236
f 46//237 154//237 27//237
f 52//237 154//237 74//237
f 32//237 154//237 52//237
f 46//237 74//237 154//237
f 119//237 118//237 154//237
f 80//237 79//237 154//237
f 107//237 106//237 154//237
f 117//237 80//237 154//237
f 122//237 27//237 154//237
f 107//237 154//237 79//237
f 117//237 154//237 32//237
f 119//237 154//237 106//237
f 123//237 122//237 154//237
f 143//237 145//237 154//237
f 153//237 123//237 154//237
f 143//237 154//237 118//237
f 151//237 154//237 145//237
f 140//238 155//238 154//238
f 140//238 154//238 84//238
f 150//239 85//239 154//239
f 84//239 154//239 85//239
