# Blender 3.1.2
# www.blender.org
v -0.000000 0.198916 0.107651
v 0.062500 0.212504 0.056940
v -0.062500 0.212504 0.056940
v -0.000000 0.226092 0.006229
v -0.044194 0.223942 0.014252
v -0.000000 0.228680 -0.003430
v 0.044194 0.223942 0.014252
v -0.023919 0.197559 0.112715
v -0.035483 -0.007417 0.108000
v -0.000000 0.196327 0.117311
v -0.057742 0.206313 0.080044
v -0.044194 0.201065 0.099628
v 0.037440 -0.007830 0.106000
v 0.030945 -0.022483 0.098500
v 0.035074 -0.010973 -0.084500
v 0.059179 0.066000 0.009685
v 0.035483 -0.007417 0.108000
v 0.023919 0.197559 0.112715
v 0.044194 0.201065 0.099628
v 0.057742 0.206313 0.080044
v 0.025333 -0.026624 -0.084500
v -0.023919 0.227448 0.001166
v 0.023919 0.227448 0.001166
v -0.061549 0.190373 0.062258
v -0.058233 0.066000 0.028173
v -0.056274 0.066000 0.041957
v -0.062500 0.193176 0.051798
v -0.059179 0.066000 0.009815
v -0.037209 -0.005838 0.107414
v -0.053507 0.196488 0.086088
v 0.058233 0.066000 -0.008673
v 0.058233 0.066000 0.028173
v 0.056296 0.066000 0.041832
v 0.037209 -0.005838 0.107414
v 0.027587 -0.022468 -0.087328
v -0.007563 -0.036897 0.107414
v 0.000000 -0.038250 0.098500
v -0.000000 -0.038250 0.106000
v -0.009217 -0.035575 -0.084500
v -0.015927 -0.032563 0.108000
v 0.000000 -0.036250 0.108000
v -0.021469 -0.030947 0.107414
v -0.012000 0.105490 -0.076342
v 0.012000 0.105490 -0.076342
v 0.028078 0.101695 -0.078266
v -0.060031 0.104293 0.018217
v -0.057742 0.218694 0.033836
v -0.060042 0.197677 0.035000
v -0.057255 0.107705 -0.010196
v -0.056630 0.087909 -0.018609
v -0.048423 0.090063 -0.047601
v -0.055218 0.199013 0.083636
v -0.031912 -0.020005 0.107414
v -0.030193 -0.023483 0.106000
v -0.030945 -0.022483 0.098500
v -0.037440 -0.007830 0.106000
v -0.035074 -0.010973 -0.084500
v 0.060031 0.104307 0.018102
v 0.062500 0.193194 0.051730
v 0.057742 0.218694 0.033836
v 0.060364 0.202004 0.070897
v 0.060372 0.195313 0.069075
v 0.060042 0.188693 0.068528
v 0.007563 -0.036897 0.107414
v 0.009217 -0.035575 -0.084500
v 0.028616 -0.022253 0.108000
v 0.017366 -0.034081 0.098500
v 0.021469 -0.030947 0.107414
v 0.061548 0.190373 0.062259
v 0.055154 0.198944 0.083744
v -0.015272 -0.032134 -0.087328
v -0.022577 -0.023724 -0.088500
v -0.008215 -0.031703 -0.088500
v 0.000000 -0.035578 -0.087328
v 0.008215 -0.031703 -0.088500
v -0.034560 -0.008451 -0.087328
v -0.027587 -0.022468 -0.087328
v -0.031258 -0.009774 -0.088500
v -0.050729 0.066000 -0.044752
v -0.056296 0.066000 -0.022332
v 0.022577 -0.023724 -0.088500
v 0.031258 -0.009774 -0.088500
v 0.015272 -0.032134 -0.087328
v 0.034560 -0.008451 -0.087328
v -0.016805 -0.034361 0.106000
v -0.017366 -0.034081 0.098500
v -0.031137 0.146972 -0.049369
v -0.031152 0.139977 -0.054025
v 0.031137 0.146830 -0.049468
v 0.031152 0.139798 -0.054140
v -0.060372 0.202006 0.070868
v -0.061438 0.201978 0.065995
v -0.061919 0.201464 0.062782
v -0.058233 0.066000 -0.008673
v -0.061548 0.195997 0.041269
v -0.049241 0.110923 -0.036979
v -0.036637 0.104430 -0.066324
v -0.028616 -0.022253 0.108000
v 0.057233 0.107718 -0.010308
v 0.056607 0.087918 -0.018730
v 0.060022 0.197695 0.034933
v 0.056274 0.066000 -0.022457
v 0.050729 0.066000 -0.044752
v 0.048381 0.090071 -0.047711
v 0.015927 -0.032563 0.108000
v 0.031912 -0.020005 0.107414
v 0.016805 -0.034361 0.106000
v 0.061919 0.199825 0.062343
v 0.061438 0.201978 0.065995
v -0.025333 -0.026624 -0.084500
v -0.027856 0.077299 -0.087433
v 0.027923 0.085223 -0.085420
v 0.027842 0.075133 -0.087803
v -0.035989 0.007439 -0.084500
v -0.034842 0.007202 -0.087328
v -0.048171 0.066000 -0.052229
v -0.036061 0.066000 -0.078500
v -0.031172 0.132244 -0.058834
v -0.031192 0.125146 -0.063051
v -0.029534 0.133246 -0.059551
v -0.027719 0.141639 -0.054480
v -0.027822 0.132971 -0.059996
v -0.029445 0.148643 -0.049485
v 0.031172 0.132048 -0.058952
v 0.031192 0.124973 -0.063153
v 0.029534 0.133254 -0.059546
v 0.029445 0.148653 -0.049479
v 0.027757 0.137759 -0.056998
v 0.029617 0.117478 -0.068877
v 0.032072 0.006630 -0.088500
v 0.029730 0.084443 -0.085191
v 0.031199 0.075197 -0.085934
v -0.061438 0.197773 0.064868
v -0.060022 0.188675 0.068594
v -0.061919 0.199825 0.062343
v -0.037865 0.135399 -0.047121
v -0.036222 0.086576 -0.074831
v 0.061549 0.195997 0.041270
v 0.048132 0.066000 -0.052337
v 0.049199 0.110935 -0.037081
v 0.036637 0.104430 -0.066324
v 0.037865 0.135399 -0.047121
v 0.030193 -0.023483 0.106000
v 0.061438 0.197773 0.064868
v 0.061919 0.201464 0.062782
v -0.027960 0.088921 -0.084139
v -0.028098 0.105944 -0.075929
v 0.035989 0.007439 -0.084500
v 0.031214 0.085374 -0.083512
v -0.029617 0.117472 -0.068880
v 0.029682 0.101522 -0.077950
v 0.027962 0.123957 -0.065419
v 0.034842 0.007202 -0.087328
v 0.036061 0.066000 -0.078500
v -0.060364 0.195300 0.069100
v -0.037211 0.120509 -0.056610
v -0.031227 0.107926 -0.073012
v -0.031230 0.102154 -0.076203
v -0.031207 0.119339 -0.066428
v -0.031200 0.075664 -0.085860
v 0.037211 0.120509 -0.056610
v 0.031230 0.101857 -0.076360
v 0.031227 0.107700 -0.073141
v -0.027816 0.066000 -0.088500
v 0.027816 0.066000 -0.088500
v -0.029682 0.101518 -0.077952
v -0.012000 0.087224 -0.084870
v 0.036222 0.086576 -0.074831
v -0.028034 0.118715 -0.068499
v 0.031226 0.094483 -0.079989
v 0.028088 0.112944 -0.071875
v 0.029744 0.066000 -0.088005
v -0.031219 0.113652 -0.069714
v 0.031208 0.119167 -0.066528
v -0.032072 0.006630 -0.088500
v -0.031194 0.066000 -0.086642
v -0.031214 0.085889 -0.083346
v 0.012000 0.087224 -0.084870
v 0.031194 0.066000 -0.086642
v 0.031219 0.113442 -0.069836
v -0.029744 0.066000 -0.088005
v -0.029730 0.084441 -0.085192
v -0.031226 0.094895 -0.079802
vn -0.0000 0.9659 0.2588
vn -0.1893 -0.0119 0.9819
vn -0.0001 0.9659 0.2589
vn 0.9151 -0.4032 -0.0047
vn 0.9567 -0.2909 -0.0071
vn 0.1893 -0.0119 0.9819
vn -0.0000 0.9659 0.2589
vn 0.0001 0.9659 0.2589
vn 0.8489 -0.5284 -0.0141
vn -0.0000 0.9659 0.2587
vn -0.9880 -0.0648 0.1405
vn -0.9978 -0.0430 0.0514
vn -0.9958 -0.0479 0.0778
vn -0.5406 0.0134 0.8412
vn -0.3243 -0.0035 0.9459
vn -0.8229 -0.0064 0.5681
vn 0.9689 -0.2423 -0.0499
vn 0.9738 -0.2218 0.0498
vn 0.9817 -0.1297 0.1392
vn 0.5406 0.0134 0.8412
vn 0.3243 -0.0035 0.9459
vn 0.8448 -0.5258 -0.0993
vn -0.1761 -0.9844 -0.0000
vn -0.1820 -0.9833 -0.0052
vn -0.0549 -0.2371 0.9699
vn -0.0093 -0.0400 0.9992
vn -0.2539 -0.5934 0.7638
vn -0.0000 0.4522 -0.8919
vn -0.9993 -0.0146 -0.0349
vn -0.0001 0.9659 0.2588
vn -0.9656 0.0922 -0.2431
vn -0.9605 0.0826 -0.2658
vn -0.8247 -0.0069 0.5655
vn -0.8231 -0.0064 0.5679
vn -0.8230 -0.0050 0.5680
vn -0.8229 -0.0061 0.5681
vn -0.4520 -0.1690 0.8759
vn -0.5597 -0.5343 0.6335
vn -0.8913 -0.4524 0.0290
vn -0.9767 -0.0743 0.2015
vn -0.9817 -0.1294 0.1396
vn -0.9739 -0.2214 0.0502
vn -0.7866 -0.2941 0.5429
vn -0.9567 -0.2909 -0.0071
vn -0.9111 -0.4119 0.0156
vn -0.9151 -0.4032 -0.0047
vn 0.9986 -0.0109 -0.0514
vn 0.9982 -0.0052 -0.0596
vn 0.9993 -0.0146 -0.0349
vn 0.9978 -0.0429 0.0510
vn 0.0001 0.9659 0.2588
vn 0.9680 0.1058 0.2277
vn 0.9529 -0.0537 0.2985
vn 0.9678 -0.0651 0.2430
vn 0.9666 -0.0641 0.2482
vn 0.9705 -0.0675 0.2314
vn -0.0000 -0.7225 0.6913
vn -0.0000 -0.6712 0.7413
vn 0.1761 -0.9844 -0.0000
vn 0.1820 -0.9833 -0.0052
vn 0.0715 -0.0331 0.9969
vn 0.4855 -0.8741 -0.0145
vn 0.6144 -0.7890 -0.0054
vn 0.9880 -0.0647 0.1401
vn 0.9741 -0.0664 0.2163
vn 0.9959 -0.0477 0.0772
vn 0.9767 -0.0743 0.2015
vn 0.9740 -0.0710 0.2150
vn 0.8229 -0.0037 0.5682
vn 0.8227 -0.0064 0.5685
vn 0.8261 -0.0073 0.5635
vn -0.1429 -0.2573 -0.9557
vn -0.0000 -0.2894 -0.9572
vn -0.0047 -0.9999 -0.0144
vn 0.0047 -0.9999 -0.0144
vn -0.1789 -0.7932 -0.5821
vn -0.1123 -0.4980 -0.8598
vn -0.7813 -0.3887 -0.4884
vn -0.3003 -0.3826 -0.8738
vn -0.2634 -0.1639 -0.9506
vn -0.3971 -0.1976 -0.8963
vn -0.9680 -0.0727 -0.2404
vn -0.9679 -0.0727 -0.2405
vn -0.9702 0.0262 -0.2409
vn -0.9616 0.0604 -0.2677
vn 0.2634 -0.1639 -0.9506
vn 0.1123 -0.4980 -0.8598
vn 0.1789 -0.7932 -0.5821
vn 0.1429 -0.2573 -0.9557
vn 0.3003 -0.3826 -0.8738
vn 0.4854 -0.8739 -0.0241
vn 0.5144 -0.6554 -0.5530
vn 0.7813 -0.3887 -0.4884
vn 0.3971 -0.1976 -0.8963
vn -0.5879 -0.8088 0.0137
vn -0.2892 -0.6758 0.6780
vn -0.3564 -0.9343 -0.0082
vn -0.2640 -0.9645 -0.0044
vn -0.5321 0.4840 -0.6947
vn -0.6149 0.4378 -0.6559
vn 0.5321 0.4840 -0.6947
vn 0.6179 0.4360 -0.6543
vn -0.9680 0.1059 0.2277
vn -0.9735 0.0847 0.2125
vn -0.9529 -0.0537 0.2984
vn -0.9666 -0.0641 0.2482
vn -0.9893 0.0243 0.1442
vn -0.9872 -0.0403 0.1542
vn -0.9977 -0.0176 0.0660
vn -0.9901 0.0088 -0.1404
vn -0.9982 -0.0054 -0.0590
vn -0.9986 -0.0110 -0.0511
vn -0.9928 0.0190 -0.1183
vn -0.9688 -0.2427 -0.0496
vn -0.9777 -0.1576 -0.1386
vn -0.9739 0.0770 -0.2134
vn -0.9962 0.0224 -0.0841
vn -0.9791 0.1076 -0.1728
vn -0.9734 0.0950 -0.2084
vn -0.9961 0.0083 -0.0878
vn -0.9931 0.0191 -0.1156
vn -0.9562 0.1043 -0.2736
vn -0.9563 0.1020 -0.2739
vn -0.8808 0.2096 -0.4247
vn -0.1596 -0.1964 0.9674
vn -0.4164 -0.3974 0.8177
vn -0.2498 -0.1156 0.9614
vn -0.0715 -0.0331 0.9969
vn -0.0312 -0.0385 0.9988
vn 0.9927 0.0192 -0.1187
vn 0.9657 0.0922 -0.2428
vn 0.9900 0.0089 -0.1407
vn 0.9701 0.0263 -0.2413
vn 0.9777 -0.1572 -0.1390
vn 0.9679 -0.0727 -0.2405
vn 0.9679 -0.0725 -0.2407
vn 0.9614 0.0608 -0.2684
vn 0.9603 0.0830 -0.2664
vn 0.0549 -0.2371 0.9699
vn 0.2539 -0.5934 0.7638
vn 0.1596 -0.1964 0.9674
vn 0.0093 -0.0400 0.9992
vn 0.0312 -0.0385 0.9988
vn 0.7866 -0.2941 0.5429
vn 0.9111 -0.4119 0.0156
vn 0.4520 -0.1690 0.8759
vn 0.2498 -0.1156 0.9614
vn 0.4164 -0.3974 0.8177
vn 0.2892 -0.6758 0.6779
vn 0.5879 -0.8088 0.0137
vn 0.2640 -0.9645 -0.0044
vn 0.3564 -0.9343 -0.0082
vn 0.9977 -0.0177 0.0657
vn 0.9961 -0.0398 0.0794
vn 0.9752 -0.0572 0.2139
vn 0.9734 0.0849 0.2128
vn -0.4855 -0.8741 -0.0145
vn -0.4854 -0.8739 -0.0241
vn -0.5144 -0.6554 -0.5530
vn -0.6144 -0.7890 -0.0054
vn -0.6497 -0.7602 -0.0040
vn -0.7659 -0.6428 -0.0089
vn -0.8489 -0.5284 -0.0141
vn -0.8448 -0.5258 -0.0993
vn 0.0025 0.2298 -0.9732
vn -0.9270 -0.0167 -0.3746
vn -0.9511 -0.0308 -0.3073
vn -0.9449 0.0523 -0.3232
vn -0.9073 0.0440 -0.4182
vn -0.9261 0.0151 -0.3769
vn -0.9460 -0.0185 -0.3236
vn -0.7166 0.3697 -0.5915
vn -0.7687 0.3283 -0.5489
vn -0.5712 0.4345 -0.6964
vn -0.5679 0.4217 -0.7069
vn -0.1447 0.5345 -0.8327
vn -0.1318 0.5325 -0.8361
vn -0.5178 0.4748 -0.7117
vn -0.4938 0.4778 -0.7265
vn -0.5272 0.4853 -0.6975
vn -0.1930 0.5377 -0.8208
vn -0.1855 0.5405 -0.8207
vn -0.1840 0.5402 -0.8212
vn 0.7185 0.3683 -0.5901
vn 0.7695 0.3276 -0.5482
vn 0.5720 0.4338 -0.6962
vn 0.5672 0.4216 -0.7075
vn 0.5160 0.4748 -0.7129
vn 0.4947 0.4776 -0.7261
vn 0.5273 0.4853 -0.6975
vn 0.1862 0.5384 -0.8219
vn 0.1855 0.5405 -0.8207
vn 0.1805 0.5396 -0.8223
vn 0.5663 0.4218 -0.7081
vn 0.3403 -0.0169 -0.9402
vn 0.2166 0.2228 -0.9505
vn 0.4792 0.1457 -0.8655
vn -0.9839 -0.0463 0.1726
vn -0.9752 -0.0573 0.2137
vn -0.9739 -0.0709 0.2156
vn -0.9960 -0.0398 0.0799
vn -0.9879 -0.0401 0.1497
vn -0.9977 -0.0177 0.0661
vn -0.8226 0.2831 -0.4932
vn -0.7882 0.3115 -0.5307
vn -0.9061 0.0674 -0.4177
vn -0.9069 0.0704 -0.4154
vn -0.8889 0.1797 -0.4213
vn -0.8887 0.1802 -0.4216
vn 0.9738 0.0773 -0.2139
vn 0.9791 0.1076 -0.1728
vn 0.9733 0.0948 -0.2091
vn 0.9962 0.0228 -0.0845
vn 0.9961 0.0085 -0.0883
vn 0.9931 0.0193 -0.1161
vn 0.9448 0.0524 -0.3235
vn 0.8806 0.2099 -0.4250
vn 0.9559 0.1047 -0.2742
vn 0.9561 0.1024 -0.2746
vn 0.8226 0.2831 -0.4932
vn 0.7883 0.3115 -0.5307
vn 0.8913 -0.4524 0.0290
vn 0.5597 -0.5343 0.6335
vn 0.7659 -0.6428 -0.0089
vn 0.6497 -0.7602 -0.0040
vn 0.9754 -0.0603 0.2120
vn 0.9752 -0.0573 0.2137
vn 0.9838 -0.0463 0.1729
vn 0.9977 -0.0176 0.0658
vn 0.9893 0.0243 0.1442
vn 0.9879 -0.0401 0.1497
vn 0.9872 -0.0403 0.1542
vn -0.0109 0.4343 -0.9007
vn -0.0029 0.4280 -0.9038
vn 0.9511 -0.0308 -0.3073
vn 0.9459 -0.0182 -0.3239
vn 0.6914 0.1663 -0.7031
vn -0.5660 0.4219 -0.7083
vn 0.2187 0.3870 -0.8958
vn 0.2744 0.3760 -0.8850
vn 0.0993 0.5193 -0.8488
vn 0.1947 0.5001 -0.8438
vn 0.0615 0.5205 -0.8516
vn -0.0001 0.5094 -0.8606
vn -0.0000 0.5091 -0.8607
vn 0.3908 -0.0070 -0.9205
vn 0.9270 -0.0167 -0.3746
vn 0.8662 0.0566 -0.4965
vn 0.9071 0.0440 -0.4185
vn 0.9261 0.0150 -0.3769
vn -0.9679 -0.0651 0.2429
vn -0.9708 -0.0678 0.2302
vn -0.9739 -0.0669 0.2167
vn -0.9754 -0.0603 0.2122
vn -0.9752 -0.0575 0.2139
vn -0.8494 0.2503 -0.4646
vn -0.8318 0.2719 -0.4840
vn -0.8017 0.2958 -0.5194
vn -0.8139 0.2789 -0.5097
vn -0.8097 0.2842 -0.5134
vn -0.7889 0.3104 -0.5303
vn -0.5948 0.4053 -0.6942
vn -0.8759 0.0781 -0.4761
vn -0.8657 0.0567 -0.4973
vn 0.8494 0.2503 -0.4646
vn 0.8318 0.2719 -0.4840
vn 0.8137 0.2790 -0.5099
vn 0.8108 0.2827 -0.5125
vn 0.8017 0.2958 -0.5194
vn 0.6221 0.3780 -0.6856
vn 0.5821 0.4037 -0.7058
vn -0.0000 0.0761 -0.9971
vn -0.0030 0.0940 -0.9956
vn -0.0622 0.4331 -0.8992
vn -0.2645 0.4775 -0.8379
vn -0.6197 0.3799 -0.6867
vn -0.5821 0.4037 -0.7058
vn -0.0007 0.2511 -0.9680
vn -0.0151 0.2725 -0.9620
vn 0.8887 0.1800 -0.4217
vn 0.8886 0.1803 -0.4218
vn 0.9060 0.0675 -0.4180
vn 0.9068 0.0705 -0.4156
vn 0.8759 0.0781 -0.4762
vn 0.8527 0.1198 -0.5085
vn -0.1391 0.5088 -0.8496
vn -0.1895 0.5006 -0.8447
vn -0.1841 0.4950 -0.8492
vn -0.0080 0.5029 -0.8643
vn -0.0008 0.5094 -0.8605
vn -0.0168 0.5123 -0.8586
vn 0.6368 0.3401 -0.6919
vn 0.8373 0.1963 -0.5102
vn 0.6388 0.2768 -0.7179
vn 0.4957 0.3402 -0.7991
vn 0.8243 0.2496 -0.5081
vn 0.8449 0.2140 -0.4903
vn 0.1825 0.4988 -0.8473
vn 0.2195 0.4818 -0.8483
vn 0.2297 0.4818 -0.8456
vn 0.0125 0.4939 -0.8694
vn 0.0052 0.5058 -0.8626
vn 0.2487 0.0178 -0.9684
vn 0.3855 0.0228 -0.9224
vn 0.2481 0.0730 -0.9660
vn 0.4813 0.1194 -0.8684
vn -0.7939 0.3043 -0.5265
vn -0.7916 0.3070 -0.5283
vn -0.5953 0.4016 -0.6959
vn -0.5976 0.4021 -0.6937
vn 0.7891 0.3103 -0.5302
vn 0.5951 0.4050 -0.6941
vn -0.3403 -0.0169 -0.9402
vn -0.3908 -0.0070 -0.9205
vn -0.7406 0.0538 -0.6697
vn -0.8509 0.1243 -0.5104
vn 0.0184 0.3981 -0.9171
vn -0.0000 0.2649 -0.9643
vn 0.0009 0.4143 -0.9101
vn -0.0000 0.3958 -0.9183
vn 0.7211 0.0528 -0.6909
vn 0.6837 0.0557 -0.7276
vn 0.6839 0.0509 -0.7278
vn 0.7941 0.3040 -0.5262
vn 0.7917 0.3069 -0.5283
vn 0.5949 0.4016 -0.6963
vn 0.5976 0.4021 -0.6937
vn -0.2487 0.0178 -0.9684
vn -0.3855 0.0228 -0.9224
vn -0.6839 0.0509 -0.7278
vn -0.6836 0.0585 -0.7275
vn -0.4710 0.1229 -0.8735
vn -0.2478 0.0902 -0.9646
vn -0.4053 0.3578 -0.8413
vn -0.1147 0.2699 -0.9560
vn -0.4787 0.1461 -0.8657
vn -0.6987 0.1699 -0.6949
vn -0.5000 0.3392 -0.7968
vn -0.6255 0.2849 -0.7263
vn -0.6386 0.3416 -0.6895
vn -0.8376 0.1990 -0.5087
vn -0.8233 0.2518 -0.5087
vn -0.8447 0.2141 -0.4906
vn -0.0000 -0.0000 -1.0000
s 0
f 1//1 2//1 3//1
f 4//1 3//1 2//1
f 4//1 5//1 3//1
f 5//1 4//1 6//1
f 7//1 4//1 2//1
f 4//1 7//1 6//1
f 8//2 9//2 10//2
f 8//3 11//3 12//3
f 8//1 1//1 3//1
f 3//1 11//1 8//1
f 13//4 14//4 15//4
f 15//5 16//5 13//5
f 17//6 18//6 10//6
f 18//7 8//7 10//7
f 18//1 1//1 8//1
f 19//8 20//8 18//8
f 18//1 2//1 1//1
f 18//1 20//1 2//1
f 14//9 21//9 15//9
f 22//10 5//10 6//10
f 23//10 6//10 7//10
f 24//11 25//11 26//11
f 25//12 27//12 28//12
f 24//13 27//13 25//13
f 29//14 8//14 12//14
f 8//15 29//15 9//15
f 12//16 30//16 29//16
f 31//17 16//17 15//17
f 32//18 13//18 16//18
f 13//19 32//19 33//19
f 18//20 34//20 19//20
f 34//21 18//21 17//21
f 35//22 15//22 21//22
f 36//23 37//23 38//23
f 37//24 36//24 39//24
f 40//25 36//25 41//25
f 40//26 41//26 10//26
f 40//27 42//27 36//27
f 43//28 44//28 45//28
f 28//29 27//29 46//29
f 3//30 5//30 47//30
f 48//31 47//31 49//31
f 50//32 49//32 51//32
f 29//33 52//33 11//33
f 52//34 29//34 30//34
f 52//35 12//35 11//35
f 52//36 30//36 12//36
f 29//37 53//37 9//37
f 42//38 53//38 54//38
f 53//39 55//39 54//39
f 56//40 24//40 26//40
f 56//41 26//41 25//41
f 56//42 25//42 28//42
f 56//43 53//43 29//43
f 56//44 28//44 57//44
f 53//45 56//45 55//45
f 57//46 55//46 56//46
f 16//47 31//47 58//47
f 59//48 58//48 31//48
f 16//49 58//49 59//49
f 59//50 32//50 16//50
f 60//51 7//51 2//51
f 61//52 2//52 20//52
f 34//53 61//53 20//53
f 62//54 61//54 13//54
f 61//55 34//55 13//55
f 63//56 62//56 13//56
f 64//57 36//57 38//57
f 41//58 36//58 64//58
f 37//59 64//59 38//59
f 64//60 37//60 65//60
f 66//61 17//61 10//61
f 67//62 65//62 21//62
f 67//63 21//63 68//63
f 33//64 32//64 69//64
f 69//65 62//65 63//65
f 69//66 32//66 59//66
f 69//67 13//67 33//67
f 69//68 63//68 13//68
f 70//69 20//69 19//69
f 70//70 19//70 34//70
f 70//71 34//71 20//71
f 71//72 72//72 73//72
f 74//73 73//73 75//73
f 74//74 37//74 39//74
f 37//75 74//75 65//75
f 74//76 39//76 71//76
f 74//77 71//77 73//77
f 57//78 76//78 77//78
f 71//79 77//79 72//79
f 77//80 78//80 72//80
f 77//81 76//81 78//81
f 79//82 57//82 80//82
f 79//83 76//83 57//83
f 79//84 80//84 50//84
f 51//85 79//85 50//85
f 35//86 81//86 82//86
f 83//87 74//87 75//87
f 83//88 65//88 74//88
f 81//89 83//89 75//89
f 83//90 81//90 35//90
f 83//91 21//91 65//91
f 83//92 35//92 21//92
f 35//93 84//93 15//93
f 84//94 35//94 82//94
f 85//95 42//95 86//95
f 42//96 85//96 36//96
f 85//97 86//97 39//97
f 36//98 85//98 39//98
f 87//99 5//99 22//99
f 87//100 88//100 5//100
f 89//101 23//101 7//101
f 7//102 90//102 89//102
f 91//103 11//103 3//103
f 92//104 91//104 3//104
f 91//105 29//105 11//105
f 91//106 56//106 29//106
f 93//107 92//107 3//107
f 93//108 24//108 92//108
f 93//109 3//109 27//109
f 50//110 80//110 94//110
f 94//111 46//111 27//111
f 28//112 46//112 94//112
f 94//113 49//113 50//113
f 94//114 57//114 28//114
f 94//115 80//115 57//115
f 95//116 48//116 49//116
f 95//117 27//117 3//117
f 3//118 47//118 95//118
f 95//119 47//119 48//119
f 95//120 94//120 27//120
f 95//121 49//121 94//121
f 47//122 96//122 49//122
f 96//123 51//123 49//123
f 96//124 47//124 97//124
f 98//125 42//125 40//125
f 98//126 53//126 42//126
f 98//127 9//127 53//127
f 9//128 98//128 10//128
f 98//129 40//129 10//129
f 99//130 31//130 100//130
f 99//131 60//131 101//131
f 100//132 31//132 102//132
f 102//133 103//133 100//133
f 102//134 31//134 15//134
f 84//135 102//135 15//135
f 102//136 84//136 103//136
f 104//137 100//137 103//137
f 104//138 99//138 100//138
f 41//139 64//139 105//139
f 105//140 64//140 68//140
f 68//141 66//141 105//141
f 105//142 10//142 41//142
f 105//143 66//143 10//143
f 106//144 13//144 34//144
f 106//145 14//145 13//145
f 106//146 34//146 17//146
f 66//147 106//147 17//147
f 106//148 66//148 68//148
f 107//149 68//149 64//149
f 107//150 67//150 68//150
f 107//151 64//151 65//151
f 65//152 67//152 107//152
f 108//153 59//153 2//153
f 108//154 69//154 59//154
f 109//155 61//155 62//155
f 2//156 61//156 109//156
f 39//157 86//157 110//157
f 110//158 71//158 39//158
f 110//159 77//159 71//159
f 86//160 42//160 110//160
f 110//161 42//161 54//161
f 55//162 110//162 54//162
f 110//163 55//163 57//163
f 57//164 77//164 110//164
f 111//165 112//165 113//165
f 114//166 115//166 76//166
f 76//167 79//167 114//167
f 116//168 79//168 51//168
f 117//169 115//169 116//169
f 116//170 115//170 114//170
f 116//171 114//171 79//171
f 118//172 5//172 88//172
f 118//173 119//173 5//173
f 118//174 88//174 120//174
f 118//175 120//175 119//175
f 6//176 120//176 121//176
f 122//177 120//177 6//177
f 88//178 87//178 123//178
f 123//179 120//179 88//179
f 123//180 87//180 22//180
f 123//181 121//181 120//181
f 123//182 22//182 6//182
f 6//183 121//183 123//183
f 124//184 90//184 7//184
f 124//185 7//185 125//185
f 124//186 126//186 90//186
f 125//187 126//187 124//187
f 127//188 89//188 90//188
f 127//189 90//189 126//189
f 23//190 89//190 127//190
f 126//191 128//191 127//191
f 6//192 23//192 127//192
f 127//193 128//193 6//193
f 129//194 126//194 125//194
f 130//195 84//195 82//195
f 131//196 113//196 112//196
f 131//197 132//197 113//197
f 133//198 92//198 24//198
f 133//199 91//199 92//199
f 134//200 24//200 56//200
f 135//201 27//201 24//201
f 93//202 135//202 24//202
f 135//203 93//203 27//203
f 136//204 47//204 5//204
f 136//205 5//205 119//205
f 117//206 116//206 137//206
f 137//207 116//207 51//207
f 96//208 137//208 51//208
f 137//209 96//209 97//209
f 138//210 99//210 101//210
f 138//211 60//211 2//211
f 101//212 60//212 138//212
f 59//213 138//213 2//213
f 138//214 59//214 31//214
f 31//215 99//215 138//215
f 139//216 104//216 103//216
f 140//217 141//217 60//217
f 99//218 140//218 60//218
f 104//219 140//219 99//219
f 142//220 7//220 60//220
f 142//221 125//221 7//221
f 106//222 143//222 14//222
f 143//223 106//223 68//223
f 143//224 21//224 14//224
f 143//225 68//225 21//225
f 69//226 144//226 62//226
f 144//227 109//227 62//227
f 144//228 69//228 109//228
f 145//229 108//229 2//229
f 2//230 109//230 145//230
f 108//231 145//231 69//231
f 145//232 109//232 69//232
f 146//233 147//233 43//233
f 146//234 43//234 45//234
f 84//235 148//235 103//235
f 148//236 139//236 103//236
f 131//237 149//237 132//237
f 119//238 120//238 150//238
f 151//239 112//239 45//239
f 151//240 131//240 112//240
f 152//241 128//241 126//241
f 129//242 152//242 126//242
f 152//243 6//243 128//243
f 152//244 43//244 6//244
f 43//245 152//245 44//245
f 153//246 84//246 130//246
f 153//247 148//247 84//247
f 153//248 132//248 154//248
f 154//249 139//249 153//249
f 139//250 148//250 153//250
f 155//251 56//251 91//251
f 155//252 134//252 56//252
f 155//253 24//253 134//253
f 155//254 133//254 24//254
f 133//255 155//255 91//255
f 156//256 97//256 47//256
f 136//257 156//257 47//257
f 156//258 136//258 157//258
f 158//259 97//259 156//259
f 156//260 157//260 158//260
f 159//261 136//261 119//261
f 119//262 150//262 159//262
f 137//263 160//263 117//263
f 160//264 115//264 117//264
f 161//265 60//265 141//265
f 161//266 142//266 60//266
f 161//267 141//267 162//267
f 163//268 161//268 162//268
f 161//269 163//269 142//269
f 162//270 151//270 163//270
f 163//271 151//271 129//271
f 164//272 113//272 165//272
f 164//273 111//273 113//273
f 147//274 146//274 166//274
f 166//275 150//275 147//275
f 166//276 158//276 157//276
f 166//277 157//277 150//277
f 167//278 112//278 111//278
f 167//279 111//279 146//279
f 168//280 140//280 104//280
f 140//281 168//281 141//281
f 168//282 139//282 154//282
f 168//283 104//283 139//283
f 168//284 154//284 132//284
f 168//285 132//285 149//285
f 120//286 122//286 169//286
f 169//287 150//287 120//287
f 147//288 150//288 169//288
f 169//289 43//289 147//289
f 169//290 6//290 43//290
f 169//291 122//291 6//291
f 170//292 151//292 162//292
f 170//293 168//293 149//293
f 170//294 149//294 131//294
f 170//295 131//295 151//295
f 170//296 162//296 141//296
f 168//297 170//297 141//297
f 171//298 152//298 129//298
f 171//299 151//299 45//299
f 171//300 129//300 151//300
f 171//301 45//301 44//301
f 44//302 152//302 171//302
f 172//303 130//303 165//303
f 172//304 153//304 130//304
f 172//305 165//305 113//305
f 113//306 132//306 172//306
f 157//307 136//307 173//307
f 173//308 136//308 159//308
f 173//309 150//309 157//309
f 173//310 159//310 150//310
f 142//311 174//311 125//311
f 174//312 129//312 125//312
f 175//313 78//313 76//313
f 115//314 175//314 76//314
f 115//315 160//315 176//315
f 177//316 160//316 137//316
f 178//317 45//317 112//317
f 167//318 178//318 112//318
f 178//319 146//319 45//319
f 178//320 167//320 146//320
f 132//321 153//321 179//321
f 179//322 172//322 132//322
f 172//323 179//323 153//323
f 163//324 180//324 142//324
f 180//325 174//325 142//325
f 180//326 163//326 129//326
f 129//327 174//327 180//327
f 164//328 175//328 181//328
f 181//329 175//329 115//329
f 115//330 176//330 181//330
f 181//331 176//331 160//331
f 181//332 160//332 111//332
f 111//333 164//333 181//333
f 182//334 166//334 146//334
f 182//335 146//335 111//335
f 111//336 160//336 182//336
f 182//337 160//337 177//337
f 183//338 166//338 182//338
f 183//339 182//339 177//339
f 166//340 183//340 158//340
f 183//341 177//341 137//341
f 183//342 97//342 158//342
f 183//343 137//343 97//343
f 78//344 175//344 72//344
f 175//344 73//344 72//344
f 175//344 82//344 81//344
f 73//344 175//344 75//344
f 130//344 175//344 165//344
f 175//344 81//344 75//344
f 175//344 164//344 165//344
f 175//344 130//344 82//344
