####
#
# OBJ File Generated by Meshlab
#
####
# Object 6a11000_halsbasis_t1_col.obj
#
# Vertices: 30
# Faces: 54
#
####
mtllib ./6a11000_halsbasis_t1_col.obj.mtl

vn 0.000000 0.000000 0.000000
v 0.000000 0.000000 0.000000
vn -2.372472 -0.969500 -1.360351
v -0.072711 -0.096010 -0.157582
vn 1.228290 0.794947 -0.400854
v 0.073135 0.114854 -0.158959
vn 1.450584 -1.138446 -0.674855
v 0.070339 -0.113851 -0.157783
vn -1.560088 1.052970 -0.687598
v -0.071804 0.114807 -0.158292
vn 5.824374 0.985082 1.292385
v 0.072121 0.055316 -0.134388
vn -0.294247 1.343284 -0.324404
v -0.019523 0.158015 -0.157809
vn 0.688294 1.416050 -0.389984
v 0.040018 0.147934 -0.157874
vn -5.838928 0.868279 1.219152
v -0.072746 0.057439 -0.138312
vn -0.727766 -1.262798 -0.406204
v -0.044896 -0.144801 -0.157989
vn 0.195014 -0.665932 -0.114993
v 0.021567 -0.165950 -0.158999
vn 0.481290 -2.951138 5.424413
v 0.010446 -0.139006 -0.147510
vn -3.097798 0.065125 3.096773
v -0.070487 0.002512 -0.079466
vn 3.096275 -0.038380 3.080273
v 0.070153 -0.002265 -0.079376
vn 2.782030 -1.263599 3.469457
v 0.060046 -0.037054 -0.079190
vn -2.776779 -1.275950 3.522139
v -0.060953 -0.035540 -0.079535
vn 1.239388 -2.468623 4.444173
v 0.030364 -0.063560 -0.079028
vn -0.989400 -2.553697 4.384142
v -0.021551 -0.068580 -0.079119
vn -2.770196 1.281394 3.502147
v -0.060046 0.037054 -0.079190
vn 2.785459 1.267910 3.505014
v 0.060953 0.035540 -0.079535
vn -1.239388 2.468623 4.444173
v -0.030364 0.063560 -0.079028
vn 0.989400 2.553697 4.384142
v 0.021551 0.068580 -0.079119
vn 4.568017 2.932993 2.849377
v 0.060281 0.067798 -0.118739
vn 2.035705 3.931368 4.356694
v 0.033175 0.092438 -0.120342
vn -0.351720 4.149215 4.575634
v -0.004462 0.101372 -0.120441
vn -3.841253 3.104447 3.571906
v -0.054766 0.077267 -0.120557
vn -4.177603 -3.086411 3.437409
v -0.060281 -0.067798 -0.118739
vn -2.007496 -3.959193 4.344878
v -0.033175 -0.092438 -0.120342
vn 0.412219 -4.258895 4.466915
v 0.004462 -0.101372 -0.120441
vn 3.030118 -3.672117 4.023818
v 0.054766 -0.077267 -0.120557
# 30 vertices, 0 vertices normals


usemtl material_0
f 2//2 3//3 4//4
f 2//2 5//5 3//3
f 5//5 7//7 3//3
f 8//8 6//6 3//3
f 7//7 8//8 3//3
f 4//4 10//10 2//2
f 4//4 11//11 10//10
f 12//12 10//10 11//11
f 4//4 12//12 11//11
f 13//13 15//15 14//14
f 13//13 16//16 15//15
f 16//16 17//17 15//15
f 16//16 18//18 17//17
f 14//14 19//19 13//13
f 14//14 20//20 19//19
f 20//20 21//21 19//19
f 20//20 22//22 21//21
f 4//4 3//3 6//6
f 14//14 4//4 6//6
f 6//6 23//23 14//14
f 23//23 20//20 14//14
f 24//24 22//22 20//20
f 23//23 24//24 20//20
f 24//24 25//25 22//22
f 25//25 21//21 22//22
f 25//25 26//26 21//21
f 26//26 19//19 21//21
f 26//26 13//13 19//19
f 2//2 13//13 9//9
f 9//9 13//13 26//26
f 23//23 6//6 8//8
f 24//24 8//8 7//7
f 24//24 23//23 8//8
f 25//25 24//24 7//7
f 26//26 7//7 5//5
f 26//26 25//25 7//7
f 26//26 5//5 9//9
f 2//2 9//9 5//5
f 2//2 27//27 13//13
f 27//27 16//16 13//13
f 28//28 18//18 16//16
f 27//27 28//28 16//16
f 28//28 29//29 18//18
f 29//29 17//17 18//18
f 29//29 30//30 17//17
f 30//30 15//15 17//17
f 30//30 14//14 15//15
f 4//4 14//14 30//30
f 27//27 2//2 10//10
f 28//28 10//10 12//12
f 28//28 27//27 10//10
f 29//29 28//28 12//12
f 30//30 12//12 4//4
f 30//30 29//29 12//12
# 54 faces, 0 coords texture

# End of File
