####
#
# OBJ File Generated by Meshlab
#
####
# Object 6a12000_halsmitte_t12_col.obj
#
# Vertices: 24
# Faces: 44
#
####
mtllib ./6a12000_halsmitte_t12_col.obj.mtl

vn -1.770749 -2.332544 -2.409010
v -0.040690 -0.058916 -0.076449
vn -2.742982 0.072644 -2.107014
v -0.072671 0.002860 -0.077438
vn -1.804941 2.393803 -2.560738
v -0.039506 0.058886 -0.076631
vn -0.012883 2.962344 -2.638589
v -0.000617 0.070066 -0.076973
vn 1.716395 2.434048 -2.562828
v 0.040689 0.058719 -0.076758
vn 2.804110 0.657012 -2.355525
v 0.067772 0.018599 -0.077070
vn 2.824953 -0.824597 -2.302943
v 0.067204 -0.022588 -0.076677
vn 1.700864 -2.504230 -2.650737
v 0.038805 -0.059188 -0.076683
vn -0.033158 -3.007195 -2.605780
v 0.000665 -0.070070 -0.076969
vn -0.834829 -5.256299 1.896664
v -0.018449 -0.064518 0.033016
vn 2.691805 -4.024445 1.189809
v 0.041756 -0.062703 0.020166
vn 2.163675 4.785729 1.523682
v 0.035804 0.063228 0.022091
vn -0.549294 5.147322 2.210807
v -0.011135 0.064513 0.037220
vn -3.190555 4.139750 0.721888
v -0.045003 0.061117 0.009726
vn 4.503036 2.253357 1.438431
v 0.054448 0.048263 0.018000
vn 0.266339 2.160844 4.505177
v 0.002589 0.048921 0.056931
vn -2.686630 2.134266 3.688991
v -0.034056 0.049325 0.045962
vn 2.956481 1.705015 4.113903
v 0.035834 0.041660 0.046928
vn -5.127979 1.210705 1.980100
v -0.055948 0.036041 0.020422
vn -3.561794 -2.772548 1.271348
v -0.051175 -0.054999 0.020504
vn -2.978821 -1.990601 3.824386
v -0.036015 -0.048558 0.044357
vn -0.456202 -2.296901 4.438451
v -0.008859 -0.049466 0.055513
vn 1.644393 -2.443777 3.778307
v 0.027035 -0.050127 0.050479
vn 4.763596 -1.165668 2.410539
v 0.052888 -0.036364 0.029912
# 24 vertices, 0 vertices normals


usemtl material_0
f 16//16 12//12 13//13
f 17//17 16//16 13//13
f 17//17 13//13 14//14
f 15//15 12//12 18//18
f 18//18 12//12 16//16
f 17//17 14//14 19//19
f 21//21 20//20 10//10
f 22//22 21//21 10//10
f 22//22 10//10 11//11
f 23//23 22//22 11//11
f 23//23 11//11 24//24
f 12//12 5//5 4//4
f 13//13 12//12 4//4
f 24//24 7//7 6//6
f 15//15 18//18 24//24
f 9//9 10//10 20//20
f 17//17 21//21 22//22
f 5//5 12//12 15//15
f 21//21 17//17 19//19
f 11//11 8//8 7//7
f 18//18 16//16 23//23
f 18//18 23//23 24//24
f 14//14 13//13 4//4
f 20//20 19//19 2//2
f 9//9 8//8 11//11
f 5//5 6//6 7//7
f 5//5 7//7 8//8
f 5//5 8//8 9//9
f 2//2 19//19 14//14
f 5//5 9//9 1//1
f 5//5 1//1 2//2
f 5//5 2//2 3//3
f 5//5 3//3 4//4
f 10//10 9//9 11//11
f 6//6 5//5 15//15
f 23//23 16//16 22//22
f 2//2 1//1 20//20
f 3//3 14//14 4//4
f 2//2 14//14 3//3
f 24//24 11//11 7//7
f 15//15 24//24 6//6
f 1//1 9//9 20//20
f 16//16 17//17 22//22
f 20//20 21//21 19//19
# 44 faces, 0 coords texture

# End of File
