####
#
# OBJ File Generated by Meshlab
#
####
# Object 6a13000_halsoben_v13_col.obj
#
# Vertices: 38
# Faces: 72
#
####
mtllib ./6a13000_halsoben_v13_col.obj.mtl

vn 0.778782 5.530610 -1.654393
v 0.015016 0.323923 0.009249
vn 1.022589 5.608271 1.227553
v 0.042054 0.323603 0.090139
vn -1.044946 5.693146 -1.186617
v -0.026847 0.324435 0.019672
vn 1.110232 3.875150 4.134532
v 0.037584 0.279319 0.173544
vn 2.740281 4.214688 3.004351
v 0.086591 0.282773 0.144163
vn 0.026443 1.350627 5.616372
v 0.001339 0.233445 0.203121
vn -2.785199 4.026476 3.332543
v -0.089058 0.280721 0.144349
vn -0.800013 3.812205 4.202984
v -0.024439 0.279125 0.177302
vn -2.922400 0.018235 2.137992
v -0.163163 0.173655 0.178115
vn 2.911423 -0.009327 2.089786
v 0.163040 0.173658 0.178265
vn -5.417147 -0.637328 -0.898203
v -0.160213 0.168861 0.073788
vn 5.251533 -0.551464 -1.245466
v 0.157211 0.171052 0.053421
vn -4.717769 -0.365139 -3.264778
v -0.123736 0.179104 -0.017816
vn -1.371105 5.395917 1.422334
v -0.052173 0.318692 0.103576
vn -4.810119 3.288597 -0.555536
v -0.126842 0.268604 0.063607
vn -3.657392 4.423627 1.002769
v -0.102927 0.292883 0.101930
vn 1.565994 -3.748572 3.131546
v 0.029196 0.015121 0.173143
vn -0.026774 -1.748550 5.487740
v -0.001808 0.045781 0.194321
vn -1.773881 -3.691651 2.960380
v -0.036175 0.015083 0.171659
vn -4.657570 -3.702005 0.771818
v -0.093794 0.048476 0.114988
vn 2.973360 4.993019 0.023130
v 0.078587 0.311738 0.075962
vn 4.601040 3.466595 0.557478
v 0.126340 0.268819 0.096342
vn 4.751669 2.583621 -1.817281
v 0.128934 0.250646 0.025379
vn 4.344422 -3.776775 1.078839
v 0.085897 0.037602 0.121587
vn 0.831870 0.023696 -5.609092
v 0.020947 0.184369 -0.086947
vn 4.013393 -0.123151 -4.073304
v 0.098425 0.184174 -0.047379
vn 3.402430 2.182129 -4.114143
v 0.081638 0.245000 -0.046704
vn 0.734860 2.402038 -5.177315
v 0.016220 0.254232 -0.071767
vn -0.703262 4.257675 -3.898469
v -0.013591 0.294033 -0.042233
vn 2.358803 4.311735 -3.023737
v 0.050982 0.297125 -0.023514
vn -2.354953 2.158236 -4.628918
v -0.053771 0.247341 -0.064326
vn -2.475042 -0.157384 -5.227722
v -0.059924 0.176121 -0.073333
vn -2.821642 4.594291 -2.022675
v -0.066365 0.307791 0.009293
vn -4.682655 2.159645 -2.593349
v -0.125142 0.239174 0.003328
vn -2.676236 -1.912459 -4.113573
v -0.048420 0.038894 -0.049272
vn 2.628131 -1.896353 -4.193942
v 0.047273 0.037594 -0.049315
vn -1.279351 -3.038142 -1.545952
v -0.019215 -0.043511 -0.023237
vn 1.334378 -3.070281 -1.556819
v 0.019663 -0.043067 -0.023069
# 38 vertices, 0 vertices normals


usemtl material_0
f 5//5 2//2 4//4
f 8//8 14//14 7//7
f 2//2 14//14 8//8
f 4//4 2//2 8//8
f 16//16 7//7 14//14
f 33//33 16//16 14//14
f 33//33 14//14 3//3
f 21//21 2//2 5//5
f 22//22 21//21 5//5
f 21//21 22//22 23//23
f 29//29 30//30 28//28
f 29//29 1//1 30//30
f 29//29 3//3 1//1
f 31//31 29//29 28//28
f 31//31 28//28 25//25
f 32//32 31//31 25//25
f 23//23 26//26 27//27
f 23//23 12//12 26//26
f 23//23 27//27 30//30
f 21//21 30//30 1//1
f 21//21 23//23 30//30
f 2//2 21//21 1//1
f 34//34 33//33 31//31
f 13//13 31//31 32//32
f 13//13 34//34 31//31
f 15//15 33//33 34//34
f 36//36 25//25 26//26
f 27//27 26//26 25//25
f 32//32 25//25 35//35
f 2//2 3//3 14//14
f 15//15 11//11 9//9
f 36//36 38//38 37//37
f 20//20 9//9 11//11
f 31//31 33//33 29//29
f 34//34 13//13 11//11
f 35//35 25//25 36//36
f 8//8 7//7 9//9
f 7//7 16//16 9//9
f 6//6 10//10 4//4
f 5//5 4//4 10//10
f 23//23 22//22 12//12
f 22//22 10//10 12//12
f 16//16 15//15 9//9
f 9//9 18//18 6//6
f 24//24 12//12 10//10
f 18//18 17//17 10//10
f 24//24 38//38 12//12
f 38//38 36//36 12//12
f 2//2 1//1 3//3
f 17//17 38//38 24//24
f 17//17 37//37 38//38
f 36//36 26//26 12//12
f 9//9 19//19 18//18
f 17//17 19//19 37//37
f 19//19 20//20 37//37
f 20//20 11//11 37//37
f 11//11 35//35 37//37
f 11//11 13//13 35//35
f 19//19 9//9 20//20
f 6//6 18//18 10//10
f 13//13 32//32 35//35
f 28//28 27//27 25//25
f 33//33 15//15 16//16
f 15//15 34//34 11//11
f 22//22 5//5 10//10
f 4//4 8//8 6//6
f 28//28 30//30 27//27
f 19//19 17//17 18//18
f 29//29 33//33 3//3
f 17//17 24//24 10//10
f 9//9 6//6 8//8
f 35//35 36//36 37//37
# 72 faces, 0 coords texture

# End of File
