ply
format ascii 1.0
comment Created by Blender 2.69 (sub 0) - www.blender.org, source file: ''
element vertex 462
property float x
property float y
property float z
property float nx
property float ny
property float nz
property float s
property float t
element face 154
property list uchar uint vertex_indices
end_header
-0.002291 -0.008228 0.051468 0.086280 -0.430315 0.898546 0.498043 0.578584
-0.002291 -0.030473 0.040815 0.086280 -0.430315 0.898546 0.498527 0.545756
0.017034 -0.019516 0.044207 0.086280 -0.430315 0.898546 0.527706 0.557939
0.017034 -0.019516 0.044207 0.210466 -0.247975 0.945628 0.527706 0.557939
0.015463 0.002307 0.050279 0.210466 -0.247975 0.945628 0.542523 0.588345
-0.002291 -0.008228 0.051468 0.210466 -0.247975 0.945628 0.498043 0.578584
0.017034 -0.019516 0.044207 0.626288 -0.222908 0.747044 0.527706 0.557939
0.037626 -0.020402 0.026679 0.626288 -0.222908 0.747044 0.558685 0.533532
0.038769 0.002353 0.032511 0.626288 -0.222908 0.747044 0.579011 0.557475
0.017034 -0.019516 0.044207 0.597166 -0.174823 0.782834 0.527706 0.557939
0.038769 0.002353 0.032511 0.597166 -0.174823 0.782834 0.579011 0.557475
0.015463 0.002307 0.050279 0.597166 -0.174823 0.782834 0.542523 0.588345
-0.002291 -0.030473 0.040815 0.198494 -0.790836 0.578946 0.498527 0.545756
-0.002291 -0.046493 0.018932 0.198494 -0.790836 0.578946 0.498442 0.514281
0.021965 -0.039541 0.020112 0.198494 -0.790836 0.578946 0.531304 0.517996
-0.002291 -0.030473 0.040815 0.287362 -0.706903 0.646306 0.498527 0.545756
0.021965 -0.039541 0.020112 0.287362 -0.706903 0.646306 0.531304 0.517996
0.017034 -0.019516 0.044207 0.287362 -0.706903 0.646306 0.527706 0.557939
0.017034 -0.019516 0.044207 0.495265 -0.615608 0.612976 0.527706 0.557939
0.021965 -0.039541 0.020112 0.495265 -0.615608 0.612976 0.531304 0.517996
0.037626 -0.020402 0.026679 0.495265 -0.615608 0.612976 0.558685 0.533532
0.037626 -0.020402 0.026679 0.908772 -0.145853 0.390973 0.558685 0.533532
0.049829 0.002474 0.006850 0.908772 -0.145853 0.390973 0.600968 0.508897
0.038769 0.002353 0.032511 0.908772 -0.145853 0.390973 0.579011 0.557475
-0.002291 -0.046493 0.018932 0.246378 -0.962879 0.110283 0.498442 0.514281
-0.002291 -0.049444 -0.006835 0.246378 -0.962879 0.110283 0.498115 0.488852
0.023166 -0.042933 -0.006859 0.246378 -0.962879 0.110283 0.532864 0.488566
-0.002291 -0.046493 0.018932 0.267169 -0.954573 0.131951 0.498442 0.514281
0.023166 -0.042933 -0.006859 0.267169 -0.954573 0.131951 0.532864 0.488566
0.021965 -0.039541 0.020112 0.267169 -0.954573 0.131951 0.531304 0.517996
0.021965 -0.039541 0.020112 0.694035 -0.709839 0.120182 0.531304 0.517996
0.023166 -0.042933 -0.006859 0.694035 -0.709839 0.120182 0.532864 0.488566
0.042387 -0.024140 -0.006858 0.694035 -0.709839 0.120182 0.567151 0.486496
0.021965 -0.039541 0.020112 0.730990 -0.658978 0.177206 0.531304 0.517996
0.042387 -0.024140 -0.006858 0.730990 -0.658978 0.177206 0.567151 0.486496
0.037626 -0.020402 0.026679 0.730990 -0.658978 0.177206 0.558685 0.533532
0.037626 -0.020402 0.026679 0.923015 -0.345409 0.169519 0.558685 0.533532
0.042387 -0.024140 -0.006858 0.923015 -0.345409 0.169519 0.567151 0.486496
0.049829 0.002474 0.006850 0.923015 -0.345409 0.169519 0.600968 0.508897
0.015463 0.002307 0.050279 0.297523 -0.872320 0.387993 0.542523 0.588345
0.038769 0.002353 0.032511 0.297523 -0.872320 0.387993 0.579011 0.557475
0.041626 0.011423 0.050712 0.297523 -0.872320 0.387993 0.590941 0.586552
0.068418 0.015033 0.013288 0.572909 -0.746627 0.338119 0.633881 0.518000
0.059818 0.025382 0.050712 0.572909 -0.746627 0.338119 0.633838 0.581393
0.041626 0.011423 0.050712 0.572909 -0.746627 0.338119 0.590941 0.586552
0.068418 0.015033 0.013288 0.535787 -0.786283 0.307719 0.633881 0.518000
0.041626 0.011423 0.050712 0.535787 -0.786283 0.307719 0.590941 0.586552
0.038769 0.002353 0.032511 0.535787 -0.786283 0.307719 0.579011 0.557475
0.082429 0.038720 0.026932 0.734982 -0.557340 0.386230 0.672276 0.537363
0.073385 0.043254 0.050683 0.734982 -0.557340 0.386230 0.672952 0.578196
0.059818 0.025382 0.050712 0.734982 -0.557340 0.386230 0.633838 0.581393
0.082429 0.038720 0.026932 0.714241 -0.614962 0.334187 0.672276 0.537363
0.059818 0.025382 0.050712 0.714241 -0.614962 0.334187 0.633838 0.581393
0.068418 0.015033 0.013288 0.714241 -0.614962 0.334187 0.633881 0.518000
0.088724 0.088273 0.026590 0.918455 -0.109531 0.380057 0.751822 0.534762
0.078644 0.087444 0.050710 0.918455 -0.109531 0.380057 0.750428 0.575310
0.073385 0.043254 0.050683 0.918455 -0.109531 0.380057 0.672952 0.578196
0.088724 0.088273 0.026590 0.920953 -0.114430 0.372493 0.751822 0.534762
0.073385 0.043254 0.050683 0.920953 -0.114430 0.372493 0.672952 0.578196
0.082429 0.038720 0.026932 0.920953 -0.114430 0.372493 0.672276 0.537363
0.075662 0.120776 0.026250 0.848618 0.360211 0.387421 0.825500 0.533156
0.058892 0.134108 0.050588 0.848618 0.360211 0.387421 0.866081 0.572307
0.078644 0.087444 0.050710 0.848618 0.360211 0.387421 0.750428 0.575310
0.075662 0.120776 0.026250 0.860138 0.349534 0.371467 0.825500 0.533156
0.078644 0.087444 0.050710 0.860138 0.349534 0.371467 0.750428 0.575310
0.088724 0.088273 0.026590 0.860138 0.349534 0.371467 0.751822 0.534762
0.050681 0.153777 0.026372 0.779189 0.589043 0.214228 0.893135 0.531454
0.058892 0.134108 0.050588 0.779189 0.589043 0.214228 0.866081 0.572307
0.075662 0.120776 0.026250 0.779189 0.589043 0.214228 0.825500 0.533156
0.050681 0.153777 0.026372 0.575640 0.719250 0.388996 0.893135 0.531454
0.041626 0.147860 0.050712 0.575640 0.719250 0.388996 0.902594 0.571104
0.058892 0.134108 0.050588 0.575640 0.719250 0.388996 0.866081 0.572307
0.026181 0.169082 0.013363 0.359295 0.867401 0.344272 0.940948 0.510763
0.020442 0.156635 0.050712 0.359295 0.867401 0.344272 0.939515 0.570496
0.041626 0.147860 0.050712 0.359295 0.867401 0.344272 0.902594 0.571104
0.026181 0.169082 0.013363 0.358995 0.867462 0.344430 0.940948 0.510763
0.041626 0.147860 0.050712 0.358995 0.867462 0.344430 0.902594 0.571104
0.050681 0.153777 0.026372 0.358995 0.867462 0.344430 0.893135 0.531454
-0.015091 0.169008 0.028704 0.123329 0.936755 0.327536 0.980073 0.531131
-0.002292 0.159628 0.050712 0.123329 0.936755 0.327536 0.975639 0.572002
0.020442 0.156635 0.050712 0.123329 0.936755 0.327536 0.939515 0.570496
-0.015091 0.169008 0.028704 0.121198 0.935978 0.330540 0.980073 0.531131
0.020442 0.156635 0.050712 0.121198 0.935978 0.330540 0.939515 0.570496
0.026181 0.169082 0.013363 0.121198 0.935978 0.330540 0.940948 0.510763
0.038769 0.002353 0.032511 0.496376 -0.842334 0.209962 0.579011 0.557475
0.049829 0.002474 0.006850 0.496376 -0.842334 0.209962 0.600968 0.508897
0.068418 0.015033 0.013288 0.496376 -0.842334 0.209962 0.633881 0.518000
0.085626 0.036888 -0.000000 0.816758 -0.560936 0.135122 0.671888 0.495407
0.082429 0.038720 0.026932 0.816758 -0.560936 0.135122 0.672276 0.537363
0.068418 0.015033 0.013288 0.816758 -0.560936 0.135122 0.633881 0.518000
0.092290 0.088190 -0.000000 0.983423 -0.124021 0.132280 0.750920 0.494437
0.088724 0.088273 0.026590 0.983423 -0.124021 0.132280 0.751822 0.534762
0.082429 0.038720 0.026932 0.983423 -0.124021 0.132280 0.672276 0.537363
0.092290 0.088190 -0.000000 0.983829 -0.127802 0.125484 0.750920 0.494437
0.082429 0.038720 0.026932 0.983829 -0.127802 0.125484 0.672276 0.537363
0.085626 0.036888 -0.000000 0.983829 -0.127802 0.125484 0.671888 0.495407
0.079259 0.122340 -0.010386 0.922230 0.371711 0.106403 0.827037 0.477153
0.075662 0.120776 0.026250 0.922230 0.371711 0.106403 0.825500 0.533156
0.088724 0.088273 0.026590 0.922230 0.371711 0.106403 0.751822 0.534762
0.079259 0.122340 -0.010386 0.914514 0.385894 0.121445 0.827037 0.477153
0.088724 0.088273 0.026590 0.914514 0.385894 0.121445 0.751822 0.534762
0.092290 0.088190 -0.000000 0.914514 0.385894 0.121445 0.750920 0.494437
0.079259 0.122340 -0.010386 0.793222 0.600074 0.103491 0.827037 0.477153
0.050681 0.153777 0.026372 0.793222 0.600074 0.103491 0.893135 0.531454
0.075662 0.120776 0.026250 0.793222 0.600074 0.103491 0.825500 0.533156
0.048420 0.159628 -0.000000 0.778331 0.623752 0.071663 0.902108 0.491423
0.050681 0.153777 0.026372 0.778331 0.623752 0.071663 0.893135 0.531454
0.079259 0.122340 -0.010386 0.778331 0.623752 0.071663 0.827037 0.477153
0.026181 0.169082 0.013363 0.463420 0.872675 0.153887 0.940948 0.510763
0.050681 0.153777 0.026372 0.463420 0.872675 0.153887 0.893135 0.531454
0.048420 0.159628 -0.000000 0.463420 0.872675 0.153887 0.902108 0.491423
-0.002292 0.173216 -0.000000 0.062121 0.983167 0.171825 0.980840 0.489164
-0.015091 0.169008 0.028704 0.062121 0.983167 0.171825 0.980073 0.531131
0.026181 0.169082 0.013363 0.062121 0.983167 0.171825 0.940948 0.510763
-0.002291 -0.008228 0.051468 -0.086278 -0.430315 0.898546 0.498043 0.578584
-0.021617 -0.019516 0.044207 -0.086278 -0.430315 0.898546 0.469253 0.557344
-0.002291 -0.030473 0.040815 -0.086278 -0.430315 0.898546 0.498527 0.545756
-0.021617 -0.019516 0.044207 -0.210466 -0.247975 0.945628 0.469253 0.557344
-0.002291 -0.008228 0.051468 -0.210466 -0.247975 0.945628 0.498043 0.578584
-0.020046 0.002307 0.050279 -0.210466 -0.247975 0.945628 0.454862 0.586463
-0.021617 -0.019516 0.044207 -0.628418 -0.166197 0.759914 0.469253 0.557344
-0.020046 0.002307 0.050279 -0.628418 -0.166197 0.759914 0.454862 0.586463
-0.047750 0.002295 0.027366 -0.628418 -0.166197 0.759914 0.411518 0.545827
-0.021617 -0.019516 0.044207 -0.633451 -0.177439 0.753163 0.469253 0.557344
-0.047750 0.002295 0.027366 -0.633451 -0.177439 0.753163 0.411518 0.545827
-0.042209 -0.020402 0.026679 -0.633451 -0.177439 0.753163 0.438250 0.532593
-0.002291 -0.030473 0.040815 -0.287358 -0.706899 0.646312 0.498527 0.545756
-0.021617 -0.019516 0.044207 -0.287358 -0.706899 0.646312 0.469253 0.557344
-0.026548 -0.039541 0.020113 -0.287358 -0.706899 0.646312 0.465710 0.517446
-0.002291 -0.030473 0.040815 -0.198484 -0.790838 0.578947 0.498527 0.545756
-0.026548 -0.039541 0.020113 -0.198484 -0.790838 0.578947 0.465710 0.517446
-0.002291 -0.046493 0.018932 -0.198484 -0.790838 0.578947 0.498442 0.514281
-0.021617 -0.019516 0.044207 -0.495263 -0.615605 0.612981 0.469253 0.557344
-0.042209 -0.020402 0.026679 -0.495263 -0.615605 0.612981 0.438250 0.532593
-0.026548 -0.039541 0.020113 -0.495263 -0.615605 0.612981 0.465710 0.517446
-0.002291 -0.046493 0.018932 -0.267168 -0.954572 0.131958 0.498442 0.514281
-0.026548 -0.039541 0.020113 -0.267168 -0.954572 0.131958 0.465710 0.517446
-0.027749 -0.042933 -0.006858 -0.267168 -0.954572 0.131958 0.463403 0.487704
-0.002291 -0.046493 0.018932 -0.246372 -0.962880 0.110284 0.498442 0.514281
-0.027749 -0.042933 -0.006858 -0.246372 -0.962880 0.110284 0.463403 0.487704
-0.002291 -0.049444 -0.006835 -0.246372 -0.962880 0.110284 0.498115 0.488852
-0.026548 -0.039541 0.020113 -0.730984 -0.658985 0.177205 0.465710 0.517446
-0.042209 -0.020402 0.026679 -0.730984 -0.658985 0.177205 0.438250 0.532593
-0.046970 -0.024140 -0.006858 -0.730984 -0.658985 0.177205 0.429272 0.485654
-0.026548 -0.039541 0.020113 -0.694034 -0.709839 0.120189 0.465710 0.517446
-0.046970 -0.024140 -0.006858 -0.694034 -0.709839 0.120189 0.429272 0.485654
-0.027749 -0.042933 -0.006858 -0.694034 -0.709839 0.120189 0.463403 0.487704
-0.042209 -0.020402 0.026679 -0.953513 -0.238355 0.184392 0.438250 0.532593
-0.047750 0.002295 0.027366 -0.953513 -0.238355 0.184392 0.411518 0.545827
-0.054412 0.002474 -0.006851 -0.953513 -0.238355 0.184392 0.395541 0.482629
-0.042209 -0.020402 0.026679 -0.949934 -0.265670 0.164453 0.438250 0.532593
-0.054412 0.002474 -0.006851 -0.949934 -0.265670 0.164453 0.395541 0.482629
-0.046970 -0.024140 -0.006858 -0.949934 -0.265670 0.164453 0.429272 0.485654
-0.020046 0.002307 0.050279 -0.301015 -0.881238 0.364431 0.454862 0.586463
-0.046209 0.011423 0.050712 -0.301015 -0.881238 0.364431 0.407936 0.586393
-0.047750 0.002295 0.027366 -0.301015 -0.881238 0.364431 0.411518 0.545827
-0.073001 0.015033 0.013288 -0.565922 -0.754500 0.332357 0.362940 0.518832
-0.047750 0.002295 0.027366 -0.565922 -0.754500 0.332357 0.411518 0.545827
-0.046209 0.011423 0.050712 -0.565922 -0.754500 0.332357 0.407936 0.586393
-0.073001 0.015033 0.013288 -0.572907 -0.746629 0.338116 0.362940 0.518832
-0.046209 0.011423 0.050712 -0.572907 -0.746629 0.338116 0.407936 0.586393
-0.064401 0.025382 0.050712 -0.572907 -0.746629 0.338116 0.365052 0.582621
-0.087600 0.039303 0.026462 -0.716568 -0.612353 0.333998 0.323921 0.538624
-0.073001 0.015033 0.013288 -0.716568 -0.612353 0.333998 0.362940 0.518832
-0.064401 0.025382 0.050712 -0.716568 -0.612353 0.333998 0.365052 0.582621
-0.087600 0.039303 0.026462 -0.734088 -0.563632 0.378728 0.323921 0.538624
-0.064401 0.025382 0.050712 -0.734088 -0.563632 0.378728 0.365052 0.582621
-0.078465 0.043702 0.050716 -0.734088 -0.563632 0.378728 0.325176 0.579564
-0.094439 0.088273 0.026590 -0.919971 -0.129448 0.369997 0.245710 0.538276
-0.087600 0.039303 0.026462 -0.919971 -0.129448 0.369997 0.323921 0.538624
-0.078465 0.043702 0.050716 -0.919971 -0.129448 0.369997 0.325176 0.579564
-0.094439 0.088273 0.026590 -0.917111 -0.123549 0.379002 0.245710 0.538276
-0.078465 0.043702 0.050716 -0.917111 -0.123549 0.379002 0.325176 0.579564
-0.084360 0.087444 0.050710 -0.917111 -0.123549 0.379002 0.250028 0.578440
-0.081378 0.120776 0.026250 -0.860146 0.349529 0.371454 0.172245 0.540142
-0.094439 0.088273 0.026590 -0.860146 0.349529 0.371454 0.245710 0.538276
-0.084360 0.087444 0.050710 -0.860146 0.349529 0.371454 0.250028 0.578440
-0.081378 0.120776 0.026250 -0.854087 0.355216 0.379943 0.172245 0.540142
-0.084360 0.087444 0.050710 -0.854087 0.355216 0.379943 0.250028 0.578440
-0.072603 0.115710 0.050712 -0.854087 0.355216 0.379943 0.174261 0.580479
-0.053361 0.154509 0.027891 -0.720922 0.580332 0.378796 0.101423 0.541832
-0.081378 0.120776 0.026250 -0.720922 0.580332 0.378796 0.172245 0.540142
-0.072603 0.115710 0.050712 -0.720922 0.580332 0.378796 0.174261 0.580479
-0.053361 0.154509 0.027891 -0.722508 0.579809 0.376569 0.101423 0.541832
-0.072603 0.115710 0.050712 -0.722508 0.579809 0.376569 0.174261 0.580479
-0.047364 0.147178 0.050685 -0.722508 0.579809 0.376569 0.101425 0.582405
-0.015091 0.169008 0.028704 -0.336325 0.867130 0.367385 0.038911 0.544875
-0.053361 0.154509 0.027891 -0.336325 0.867130 0.367385 0.101423 0.541832
-0.047364 0.147178 0.050685 -0.336325 0.867130 0.367385 0.101425 0.582405
-0.015091 0.169008 0.028704 -0.369258 0.871318 0.323192 0.038911 0.544875
-0.047364 0.147178 0.050685 -0.369258 0.871318 0.323192 0.101425 0.582405
-0.025025 0.156635 0.050712 -0.369258 0.871318 0.323192 0.062016 0.584005
-0.015091 0.169008 0.028704 -0.116819 0.887312 0.446129 0.038911 0.544875
-0.025025 0.156635 0.050712 -0.116819 0.887312 0.446129 0.062016 0.584005
-0.002292 0.159628 0.050712 -0.116819 0.887312 0.446129 0.026341 0.587197
-0.090595 0.037450 -0.000000 -0.816217 -0.562519 0.131768 0.323833 0.496629
-0.073001 0.015033 0.013288 -0.816217 -0.562519 0.131768 0.362940 0.518832
-0.087600 0.039303 0.026462 -0.816217 -0.562519 0.131768 0.323921 0.538624
-0.098005 0.088190 -0.000000 -0.982208 -0.143441 0.121213 0.245755 0.498039
-0.090595 0.037450 -0.000000 -0.982208 -0.143441 0.121213 0.323833 0.496629
-0.087600 0.039303 0.026462 -0.982208 -0.143441 0.121213 0.323921 0.538624
-0.098005 0.088190 -0.000000 -0.981664 -0.137440 0.132085 0.245755 0.498039
-0.087600 0.039303 0.026462 -0.981664 -0.137440 0.132085 0.323921 0.538624
-0.094439 0.088273 0.026590 -0.981664 -0.137440 0.132085 0.245710 0.538276
-0.079056 0.132071 -0.000000 -0.911316 0.393525 0.120999 0.155737 0.500348
-0.098005 0.088190 -0.000000 -0.911316 0.393525 0.120999 0.245755 0.498039
-0.094439 0.088273 0.026590 -0.911316 0.393525 0.120999 0.245710 0.538276
-0.079056 0.132071 -0.000000 -0.924742 0.372419 0.078468 0.155737 0.500348
-0.094439 0.088273 0.026590 -0.924742 0.372419 0.078468 0.245710 0.538276
-0.081378 0.120776 0.026250 -0.924742 0.372419 0.078468 0.172245 0.540142
-0.079056 0.132071 -0.000000 -0.758517 0.620264 0.199811 0.155737 0.500348
-0.081378 0.120776 0.026250 -0.758517 0.620264 0.199811 0.172245 0.540142
-0.053361 0.154509 0.027891 -0.758517 0.620264 0.199811 0.101423 0.541832
-0.036838 0.166931 0.001675 -0.635487 0.771316 -0.035052 0.071400 0.502516
-0.079056 0.132071 -0.000000 -0.635487 0.771316 -0.035052 0.155737 0.500348
-0.053361 0.154509 0.027891 -0.635487 0.771316 -0.035052 0.101423 0.541832
-0.036838 0.166931 0.001675 -0.350191 0.912456 0.211639 0.071400 0.502516
-0.053361 0.154509 0.027891 -0.350191 0.912456 0.211639 0.101423 0.541832
-0.015091 0.169008 0.028704 -0.350191 0.912456 0.211639 0.038911 0.544875
-0.002292 0.173216 -0.000000 -0.175511 0.982281 0.065730 0.015877 0.504847
-0.036838 0.166931 0.001675 -0.175511 0.982281 0.065730 0.071400 0.502516
-0.015091 0.169008 0.028704 -0.175511 0.982281 0.065730 0.038911 0.544875
-0.047750 0.002295 0.027366 -0.488324 -0.867954 0.090532 0.411518 0.545827
-0.073001 0.015033 0.013288 -0.488324 -0.867954 0.090532 0.362940 0.518832
-0.054412 0.002474 -0.006851 -0.488324 -0.867954 0.090532 0.395541 0.482629
0.016322 -0.014827 -0.045882 0.212942 -0.231466 -0.949252 0.528852 0.427366
-0.003378 -0.014144 -0.050467 0.212942 -0.231466 -0.949252 0.497400 0.420285
0.016111 0.002552 -0.050167 0.212942 -0.231466 -0.949252 0.536593 0.404880
-0.003378 -0.014144 -0.050467 0.166567 -0.574831 -0.801140 0.497400 0.420285
0.016322 -0.014827 -0.045882 0.166567 -0.574831 -0.801140 0.528852 0.427366
0.018596 -0.033545 -0.031978 0.166567 -0.574831 -0.801140 0.527183 0.457903
-0.003378 -0.014144 -0.050467 0.141776 -0.594046 -0.791839 0.497400 0.420285
0.018596 -0.033545 -0.031978 0.141776 -0.594046 -0.791839 0.527183 0.457903
-0.002291 -0.039920 -0.030936 0.141776 -0.594046 -0.791839 0.497839 0.461896
0.016322 -0.014827 -0.045882 0.485895 -0.482342 -0.728871 0.528852 0.427366
0.033735 -0.018295 -0.031978 0.485895 -0.482342 -0.728871 0.554920 0.449593
0.018596 -0.033545 -0.031978 0.485895 -0.482342 -0.728871 0.527183 0.457903
0.016322 -0.014827 -0.045882 0.633109 -0.178067 -0.753303 0.528852 0.427366
0.016111 0.002552 -0.050167 0.633109 -0.178067 -0.753303 0.536593 0.404880
0.043167 0.002295 -0.027367 0.633109 -0.178067 -0.753303 0.585505 0.445518
0.016322 -0.014827 -0.045882 0.608152 -0.102278 -0.787204 0.528852 0.427366
0.043167 0.002295 -0.027367 0.608152 -0.102278 -0.787204 0.585505 0.445518
0.033735 -0.018295 -0.031978 0.608152 -0.102278 -0.787204 0.554920 0.449593
-0.002291 -0.039920 -0.030936 0.252815 -0.890311 -0.378724 0.497839 0.461896
0.018596 -0.033545 -0.031978 0.252815 -0.890311 -0.378724 0.527183 0.457903
0.023166 -0.042933 -0.006859 0.252815 -0.890311 -0.378724 0.532864 0.488566
-0.002291 -0.039920 -0.030936 0.231094 -0.904840 -0.357575 0.497839 0.461896
0.023166 -0.042933 -0.006859 0.231094 -0.904840 -0.357575 0.532864 0.488566
-0.002291 -0.049444 -0.006835 0.231094 -0.904840 -0.357575 0.498115 0.488852
0.018596 -0.033545 -0.031978 0.657023 -0.652222 -0.378056 0.527183 0.457903
0.033735 -0.018295 -0.031978 0.657023 -0.652222 -0.378056 0.554920 0.449593
0.042387 -0.024140 -0.006858 0.657023 -0.652222 -0.378056 0.567151 0.486496
0.018596 -0.033545 -0.031978 0.650352 -0.665153 -0.366897 0.527183 0.457903
0.042387 -0.024140 -0.006858 0.650352 -0.665153 -0.366897 0.567151 0.486496
0.023166 -0.042933 -0.006859 0.650352 -0.665153 -0.366897 0.532864 0.488566
0.033735 -0.018295 -0.031978 0.872093 -0.315759 -0.373832 0.554920 0.449593
0.043167 0.002295 -0.027367 0.872093 -0.315759 -0.373832 0.585505 0.445518
0.042387 -0.024140 -0.006858 0.872093 -0.315759 -0.373832 0.567151 0.486496
0.042387 -0.024140 -0.006858 0.966793 -0.173854 -0.187315 0.567151 0.486496
0.043167 0.002295 -0.027367 0.966793 -0.173854 -0.187315 0.585505 0.445518
0.049829 0.002474 0.006850 0.966793 -0.173854 -0.187315 0.600968 0.508897
0.016111 0.002552 -0.050167 0.298829 -0.881929 -0.364557 0.536593 0.404880
0.041626 0.011423 -0.050712 0.298829 -0.881929 -0.364557 0.589160 0.404144
0.043167 0.002295 -0.027367 0.298829 -0.881929 -0.364557 0.585505 0.445518
0.066982 0.018217 -0.026251 0.533941 -0.774923 -0.338234 0.633539 0.450341
0.043167 0.002295 -0.027367 0.533941 -0.774923 -0.338234 0.585505 0.445518
0.041626 0.011423 -0.050712 0.533941 -0.774923 -0.338234 0.589160 0.404144
0.066982 0.018217 -0.026251 0.563126 -0.733877 -0.379886 0.633539 0.450341
0.041626 0.011423 -0.050712 0.563126 -0.733877 -0.379886 0.589160 0.404144
0.059818 0.025382 -0.050712 0.563126 -0.733877 -0.379886 0.632233 0.409074
0.082429 0.038721 -0.026932 0.732694 -0.564607 -0.379973 0.671953 0.453412
0.066982 0.018217 -0.026251 0.732694 -0.564607 -0.379973 0.633539 0.450341
0.059818 0.025382 -0.050712 0.732694 -0.564607 -0.379973 0.632233 0.409074
0.082429 0.038721 -0.026932 0.734986 -0.557333 -0.386233 0.671953 0.453412
0.059818 0.025382 -0.050712 0.734986 -0.557333 -0.386233 0.632233 0.409074
0.073385 0.043254 -0.050683 0.734986 -0.557333 -0.386233 0.671168 0.412540
0.088724 0.088273 -0.026591 0.920953 -0.114431 -0.372492 0.751255 0.454214
0.082429 0.038721 -0.026932 0.920953 -0.114431 -0.372492 0.671953 0.453412
0.073385 0.043254 -0.050683 0.920953 -0.114431 -0.372492 0.671168 0.412540
0.088724 0.088273 -0.026591 0.918460 -0.109540 -0.380043 0.751255 0.454214
0.073385 0.043254 -0.050683 0.918460 -0.109540 -0.380043 0.671168 0.412540
0.078644 0.087444 -0.050711 0.918460 -0.109540 -0.380043 0.747145 0.414028
0.079259 0.122340 -0.010386 0.838128 0.406085 -0.364192 0.827037 0.477153
0.088724 0.088273 -0.026591 0.838128 0.406085 -0.364192 0.751255 0.454214
0.078644 0.087444 -0.050711 0.838128 0.406085 -0.364192 0.747145 0.414028
0.079259 0.122340 -0.010386 0.872460 0.362872 -0.327319 0.827037 0.477153
0.078644 0.087444 -0.050711 0.872460 0.362872 -0.327319 0.747145 0.414028
0.066887 0.115710 -0.050712 0.872460 0.362872 -0.327319 0.822916 0.412442
0.047596 0.156020 -0.026660 0.762309 0.559225 -0.325811 0.898944 0.451428
0.079259 0.122340 -0.010386 0.762309 0.559225 -0.325811 0.827037 0.477153
0.066887 0.115710 -0.050712 0.762309 0.559225 -0.325811 0.822916 0.412442
0.047596 0.156020 -0.026660 0.740634 0.568318 -0.358435 0.898944 0.451428
0.066887 0.115710 -0.050712 0.740634 0.568318 -0.358435 0.822916 0.412442
0.052929 0.133901 -0.050712 0.740634 0.568318 -0.358435 0.860770 0.411678
0.047596 0.156020 -0.026660 0.515549 0.684612 -0.515281 0.898944 0.451428
0.052929 0.133901 -0.050712 0.515549 0.684612 -0.515281 0.860770 0.411678
0.023064 0.156274 -0.050867 0.515549 0.684612 -0.515281 0.929871 0.409752
0.012191 0.168625 -0.029591 0.340487 0.878229 -0.335831 0.955551 0.449054
0.047596 0.156020 -0.026660 0.340487 0.878229 -0.335831 0.898944 0.451428
0.023064 0.156274 -0.050867 0.340487 0.878229 -0.335831 0.929871 0.409752
0.012191 0.168625 -0.029591 0.114069 0.883395 -0.454534 0.955551 0.449054
0.023064 0.156274 -0.050867 0.114069 0.883395 -0.454534 0.929871 0.409752
-0.002292 0.159628 -0.050712 0.114069 0.883395 -0.454534 0.970874 0.406597
0.085626 0.036888 -0.000000 0.759103 -0.646087 -0.079590 0.671888 0.495407
0.068418 0.015033 0.013288 0.759103 -0.646087 -0.079590 0.633881 0.518000
0.066982 0.018217 -0.026251 0.759103 -0.646087 -0.079590 0.633539 0.450341
0.085626 0.036888 -0.000000 0.789306 -0.599096 -0.134462 0.671888 0.495407
0.066982 0.018217 -0.026251 0.789306 -0.599096 -0.134462 0.633539 0.450341
0.082429 0.038721 -0.026932 0.789306 -0.599096 -0.134462 0.671953 0.453412
0.092290 0.088190 -0.000000 0.983829 -0.127802 -0.125486 0.750920 0.494437
0.085626 0.036888 -0.000000 0.983829 -0.127802 -0.125486 0.671888 0.495407
0.082429 0.038721 -0.026932 0.983829 -0.127802 -0.125486 0.671953 0.453412
0.092290 0.088190 -0.000000 0.983423 -0.124021 -0.132282 0.750920 0.494437
0.082429 0.038721 -0.026932 0.983423 -0.124021 -0.132282 0.671953 0.453412
0.088724 0.088273 -0.026591 0.983423 -0.124021 -0.132282 0.751255 0.454214
0.079259 0.122340 -0.010386 0.939034 0.320318 -0.124945 0.827037 0.477153
0.092290 0.088190 -0.000000 0.939034 0.320318 -0.124945 0.750920 0.494437
0.088724 0.088273 -0.026591 0.939034 0.320318 -0.124945 0.751255 0.454214
0.048420 0.159628 -0.000000 0.750347 0.651593 -0.111381 0.902108 0.491423
0.079259 0.122340 -0.010386 0.750347 0.651593 -0.111381 0.827037 0.477153
0.047596 0.156020 -0.026660 0.750347 0.651593 -0.111381 0.898944 0.451428
0.026181 0.169082 0.013363 0.316754 0.938587 -0.136824 0.940948 0.510763
0.048420 0.159628 -0.000000 0.316754 0.938587 -0.136824 0.902108 0.491423
0.047596 0.156020 -0.026660 0.316754 0.938587 -0.136824 0.898944 0.451428
0.026181 0.169082 0.013363 0.341832 0.931909 -0.121226 0.940948 0.510763
0.047596 0.156020 -0.026660 0.341832 0.931909 -0.121226 0.898944 0.451428
0.012191 0.168625 -0.029591 0.341832 0.931909 -0.121226 0.955551 0.449054
-0.002292 0.173216 -0.000000 0.174179 0.982421 -0.067161 0.980840 0.489164
0.026181 0.169082 0.013363 0.174179 0.982421 -0.067161 0.940948 0.510763
0.012191 0.168625 -0.029591 0.174179 0.982421 -0.067161 0.955551 0.449054
0.043167 0.002295 -0.027367 0.556506 -0.826303 -0.086750 0.585505 0.445518
0.066982 0.018217 -0.026251 0.556506 -0.826303 -0.086750 0.633539 0.450341
0.068418 0.015033 0.013288 0.556506 -0.826303 -0.086750 0.633881 0.518000
0.043167 0.002295 -0.027367 0.582151 -0.805725 -0.109125 0.585505 0.445518
0.068418 0.015033 0.013288 0.582151 -0.805725 -0.109125 0.633881 0.518000
0.049829 0.002474 0.006850 0.582151 -0.805725 -0.109125 0.600968 0.508897
-0.020814 -0.014420 -0.046109 -0.232916 -0.225203 -0.946062 0.467367 0.426533
-0.020046 0.002307 -0.050280 -0.232916 -0.225203 -0.946062 0.453905 0.403689
-0.003378 -0.014144 -0.050467 -0.232916 -0.225203 -0.946062 0.497400 0.420285
-0.003378 -0.014144 -0.050467 -0.144347 -0.601483 -0.785737 0.497400 0.420285
-0.002291 -0.039920 -0.030936 -0.144347 -0.601483 -0.785737 0.497839 0.461896
-0.023179 -0.033545 -0.031978 -0.144347 -0.601483 -0.785737 0.468644 0.456950
-0.003378 -0.014144 -0.050467 -0.191134 -0.567896 -0.800601 0.497400 0.420285
-0.023179 -0.033545 -0.031978 -0.191134 -0.567896 -0.800601 0.468644 0.456950
-0.020814 -0.014420 -0.046109 -0.191134 -0.567896 -0.800601 0.467367 0.426533
-0.020814 -0.014420 -0.046109 -0.484024 -0.480491 -0.731334 0.467367 0.426533
-0.023179 -0.033545 -0.031978 -0.484024 -0.480491 -0.731334 0.468644 0.456950
-0.038319 -0.018295 -0.031978 -0.484024 -0.480491 -0.731334 0.441278 0.447937
-0.020814 -0.014420 -0.046109 -0.596959 -0.165819 -0.784948 0.467367 0.426533
-0.038319 -0.018295 -0.031978 -0.596959 -0.165819 -0.784948 0.441278 0.447937
-0.043352 0.002353 -0.032512 -0.596959 -0.165819 -0.784948 0.417131 0.433490
-0.020814 -0.014420 -0.046109 -0.597871 -0.167979 -0.783794 0.467367 0.426533
-0.043352 0.002353 -0.032512 -0.597871 -0.167979 -0.783794 0.417131 0.433490
-0.020046 0.002307 -0.050280 -0.597871 -0.167979 -0.783794 0.453905 0.403689
-0.002291 -0.039920 -0.030936 -0.231095 -0.904840 -0.357574 0.497839 0.461896
-0.002291 -0.049444 -0.006835 -0.231095 -0.904840 -0.357574 0.498115 0.488852
-0.027749 -0.042933 -0.006858 -0.231095 -0.904840 -0.357574 0.463403 0.487704
-0.002291 -0.039920 -0.030936 -0.252808 -0.890317 -0.378714 0.497839 0.461896
-0.027749 -0.042933 -0.006858 -0.252808 -0.890317 -0.378714 0.463403 0.487704
-0.023179 -0.033545 -0.031978 -0.252808 -0.890317 -0.378714 0.468644 0.456950
-0.023179 -0.033545 -0.031978 -0.650351 -0.665159 -0.366888 0.468644 0.456950
-0.027749 -0.042933 -0.006858 -0.650351 -0.665159 -0.366888 0.463403 0.487704
-0.046970 -0.024140 -0.006858 -0.650351 -0.665159 -0.366888 0.429272 0.485654
-0.023179 -0.033545 -0.031978 -0.657022 -0.652228 -0.378048 0.468644 0.456950
-0.046970 -0.024140 -0.006858 -0.657022 -0.652228 -0.378048 0.429272 0.485654
-0.038319 -0.018295 -0.031978 -0.657022 -0.652228 -0.378048 0.441278 0.447937
-0.038319 -0.018295 -0.031978 -0.895948 -0.250419 -0.366835 0.441278 0.447937
-0.046970 -0.024140 -0.006858 -0.895948 -0.250419 -0.366835 0.429272 0.485654
-0.054412 0.002474 -0.006851 -0.895948 -0.250419 -0.366835 0.395541 0.482629
-0.038319 -0.018295 -0.031978 -0.894542 -0.228011 -0.384456 0.441278 0.447937
-0.054412 0.002474 -0.006851 -0.894542 -0.228011 -0.384456 0.395541 0.482629
-0.043352 0.002353 -0.032512 -0.894542 -0.228011 -0.384456 0.417131 0.433490
-0.020046 0.002307 -0.050280 -0.297516 -0.872320 -0.387998 0.453905 0.403689
-0.043352 0.002353 -0.032512 -0.297516 -0.872320 -0.387998 0.417131 0.433490
-0.046209 0.011423 -0.050712 -0.297516 -0.872320 -0.387998 0.405240 0.404698
-0.071565 0.018217 -0.026251 -0.563123 -0.733879 -0.379886 0.362729 0.451078
-0.064401 0.025382 -0.050712 -0.563123 -0.733879 -0.379886 0.362186 0.410167
-0.046209 0.011423 -0.050712 -0.563123 -0.733879 -0.379886 0.405240 0.404698
-0.071565 0.018217 -0.026251 -0.517320 -0.795606 -0.315263 0.362729 0.451078
-0.046209 0.011423 -0.050712 -0.517320 -0.795606 -0.315263 0.405240 0.404698
-0.043352 0.002353 -0.032512 -0.517320 -0.795606 -0.315263 0.417131 0.433490
-0.087600 0.039303 -0.026463 -0.734089 -0.563632 -0.378725 0.323016 0.454641
-0.078465 0.043702 -0.050716 -0.734089 -0.563632 -0.378725 0.322184 0.413781
-0.064401 0.025382 -0.050712 -0.734089 -0.563632 -0.378725 0.362186 0.410167
-0.087600 0.039303 -0.026463 -0.734490 -0.562358 -0.379840 0.323016 0.454641
-0.064401 0.025382 -0.050712 -0.734490 -0.562358 -0.379840 0.362186 0.410167
-0.071565 0.018217 -0.026251 -0.734490 -0.562358 -0.379840 0.362729 0.451078
-0.094439 0.088273 -0.026591 -0.917111 -0.123545 -0.379004 0.244544 0.457744
-0.084360 0.087444 -0.050710 -0.917111 -0.123545 -0.379004 0.245682 0.417189
-0.078465 0.043702 -0.050716 -0.917111 -0.123545 -0.379004 0.322184 0.413781
-0.094439 0.088273 -0.026591 -0.919971 -0.129447 -0.369995 0.244544 0.457744
-0.078465 0.043702 -0.050716 -0.919971 -0.129447 -0.369995 0.322184 0.413781
-0.087600 0.039303 -0.026463 -0.919971 -0.129447 -0.369995 0.323016 0.454641
-0.074664 0.132040 -0.026713 -0.874025 0.363504 -0.322404 0.151428 0.460383
-0.072603 0.115710 -0.050712 -0.874025 0.363504 -0.322404 0.169078 0.419454
-0.084360 0.087444 -0.050710 -0.874025 0.363504 -0.322404 0.245682 0.417189
-0.074664 0.132040 -0.026713 -0.847924 0.382082 -0.367474 0.151428 0.460383
-0.084360 0.087444 -0.050710 -0.847924 0.382082 -0.367474 0.245682 0.417189
-0.094439 0.088273 -0.026591 -0.847924 0.382082 -0.367474 0.244544 0.457744
-0.074664 0.132040 -0.026713 -0.714563 0.548313 -0.434457 0.151428 0.460383
-0.058644 0.133901 -0.050712 -0.714563 0.548313 -0.434457 0.131119 0.420824
-0.072603 0.115710 -0.050712 -0.714563 0.548313 -0.434457 0.169078 0.419454
-0.031592 0.165134 -0.027058 -0.536584 0.753093 -0.380695 0.063336 0.462725
-0.028060 0.155716 -0.050666 -0.536584 0.753093 -0.380695 0.063076 0.422962
-0.058644 0.133901 -0.050712 -0.536584 0.753093 -0.380695 0.131119 0.420824
-0.031592 0.165134 -0.027058 -0.577338 0.748005 -0.327367 0.063336 0.462725
-0.058644 0.133901 -0.050712 -0.577338 0.748005 -0.327367 0.131119 0.420824
-0.074664 0.132040 -0.026713 -0.577338 0.748005 -0.327367 0.151428 0.460383
0.012191 0.168625 -0.029591 -0.143586 0.942149 -0.302884 0.016330 0.462773
-0.002292 0.159628 -0.050712 -0.143586 0.942149 -0.302884 0.020520 0.421833
-0.028060 0.155716 -0.050666 -0.143586 0.942149 -0.302884 0.063076 0.422962
0.012191 0.168625 -0.029591 -0.095387 0.919591 -0.381123 0.016330 0.462773
-0.028060 0.155716 -0.050666 -0.095387 0.919591 -0.381123 0.063076 0.422962
-0.031592 0.165134 -0.027058 -0.095387 0.919591 -0.381123 0.063336 0.462725
-0.043352 0.002353 -0.032512 -0.514635 -0.829260 -0.217896 0.417131 0.433490
-0.054412 0.002474 -0.006851 -0.514635 -0.829260 -0.217896 0.395541 0.482629
-0.071565 0.018217 -0.026251 -0.514635 -0.829260 -0.217896 0.362729 0.451078
-0.090595 0.037450 -0.000000 -0.788460 -0.600904 -0.131318 0.323833 0.496629
-0.087600 0.039303 -0.026463 -0.788460 -0.600904 -0.131318 0.323016 0.454641
-0.071565 0.018217 -0.026251 -0.788460 -0.600904 -0.131318 0.362729 0.451078
-0.090595 0.037450 -0.000000 -0.760722 -0.644191 -0.079494 0.323833 0.496629
-0.071565 0.018217 -0.026251 -0.760722 -0.644191 -0.079494 0.362729 0.451078
-0.073001 0.015033 0.013288 -0.760722 -0.644191 -0.079494 0.362940 0.518832
-0.098005 0.088190 -0.000000 -0.981663 -0.137440 -0.132088 0.245755 0.498039
-0.094439 0.088273 -0.026591 -0.981663 -0.137440 -0.132088 0.244544 0.457744
-0.087600 0.039303 -0.026463 -0.981663 -0.137440 -0.132088 0.323016 0.454641
-0.098005 0.088190 -0.000000 -0.982207 -0.143441 -0.121215 0.245755 0.498039
-0.087600 0.039303 -0.026463 -0.982207 -0.143441 -0.121215 0.323016 0.454641
-0.090595 0.037450 -0.000000 -0.982207 -0.143441 -0.121215 0.323833 0.496629
-0.079056 0.132071 -0.000000 -0.901327 0.406822 -0.148678 0.155737 0.500348
-0.074664 0.132040 -0.026713 -0.901327 0.406822 -0.148678 0.151428 0.460383
-0.094439 0.088273 -0.026591 -0.901327 0.406822 -0.148678 0.244544 0.457744
-0.079056 0.132071 -0.000000 -0.911316 0.393525 -0.120997 0.155737 0.500348
-0.094439 0.088273 -0.026591 -0.911316 0.393525 -0.120997 0.244544 0.457744
-0.098005 0.088190 -0.000000 -0.911316 0.393525 -0.120997 0.245755 0.498039
-0.036838 0.166931 0.001675 -0.602320 0.782277 -0.158911 0.071400 0.502516
-0.031592 0.165134 -0.027058 -0.602320 0.782277 -0.158911 0.063336 0.462725
-0.074664 0.132040 -0.026713 -0.602320 0.782277 -0.158911 0.151428 0.460383
-0.036838 0.166931 0.001675 -0.630739 0.768910 -0.104616 0.071400 0.502516
-0.074664 0.132040 -0.026713 -0.630739 0.768910 -0.104616 0.151428 0.460383
-0.079056 0.132071 -0.000000 -0.630739 0.768910 -0.104616 0.155737 0.500348
-0.002292 0.173216 -0.000000 -0.089184 0.976705 -0.195174 0.015877 0.504847
0.012191 0.168625 -0.029591 -0.089184 0.976705 -0.195174 0.016330 0.462773
-0.031592 0.165134 -0.027058 -0.089184 0.976705 -0.195174 0.063336 0.462725
-0.002292 0.173216 -0.000000 -0.182621 0.978625 -0.094570 0.015877 0.504847
-0.031592 0.165134 -0.027058 -0.182621 0.978625 -0.094570 0.063336 0.462725
-0.036838 0.166931 0.001675 -0.182621 0.978625 -0.094570 0.071400 0.502516
-0.054412 0.002474 -0.006851 -0.619598 -0.780267 -0.085330 0.395541 0.482629
-0.073001 0.015033 0.013288 -0.619598 -0.780267 -0.085330 0.362940 0.518832
-0.071565 0.018217 -0.026251 -0.619598 -0.780267 -0.085330 0.362729 0.451078
-0.002291 -0.000345 -0.050712 0.032828 -0.020327 -0.999254 0.497963 0.401753
0.016111 0.002552 -0.050167 0.032828 -0.020327 -0.999254 0.536593 0.404880
-0.003378 -0.014144 -0.050467 0.032828 -0.020327 -0.999254 0.497400 0.420285
-0.002291 -0.000345 -0.050712 -0.026676 -0.015647 -0.999522 0.497963 0.401753
-0.003378 -0.014144 -0.050467 -0.026676 -0.015647 -0.999522 0.497400 0.420285
-0.020046 0.002307 -0.050280 -0.026676 -0.015647 -0.999522 0.453905 0.403689
-0.002291 -0.008228 0.051468 -0.009968 0.095501 0.995379 0.498043 0.578584
-0.002291 -0.000345 0.050712 -0.009968 0.095501 0.995379 0.498708 0.591292
-0.020046 0.002307 0.050279 -0.009968 0.095501 0.995379 0.454862 0.586463
-0.002291 -0.000345 0.050712 0.009968 0.095501 0.995379 0.498708 0.591292
-0.002291 -0.008228 0.051468 0.009968 0.095501 0.995379 0.498043 0.578584
0.015463 0.002307 0.050279 0.009968 0.095501 0.995379 0.542523 0.588345
3 0 1 2
3 3 4 5
3 6 7 8
3 9 10 11
3 12 13 14
3 15 16 17
3 18 19 20
3 21 22 23
3 24 25 26
3 27 28 29
3 30 31 32
3 33 34 35
3 36 37 38
3 39 40 41
3 42 43 44
3 45 46 47
3 48 49 50
3 51 52 53
3 54 55 56
3 57 58 59
3 60 61 62
3 63 64 65
3 66 67 68
3 69 70 71
3 72 73 74
3 75 76 77
3 78 79 80
3 81 82 83
3 84 85 86
3 87 88 89
3 90 91 92
3 93 94 95
3 96 97 98
3 99 100 101
3 102 103 104
3 105 106 107
3 108 109 110
3 111 112 113
3 114 115 116
3 117 118 119
3 120 121 122
3 123 124 125
3 126 127 128
3 129 130 131
3 132 133 134
3 135 136 137
3 138 139 140
3 141 142 143
3 144 145 146
3 147 148 149
3 150 151 152
3 153 154 155
3 156 157 158
3 159 160 161
3 162 163 164
3 165 166 167
3 168 169 170
3 171 172 173
3 174 175 176
3 177 178 179
3 180 181 182
3 183 184 185
3 186 187 188
3 189 190 191
3 192 193 194
3 195 196 197
3 198 199 200
3 201 202 203
3 204 205 206
3 207 208 209
3 210 211 212
3 213 214 215
3 216 217 218
3 219 220 221
3 222 223 224
3 225 226 227
3 228 229 230
3 231 232 233
3 234 235 236
3 237 238 239
3 240 241 242
3 243 244 245
3 246 247 248
3 249 250 251
3 252 253 254
3 255 256 257
3 258 259 260
3 261 262 263
3 264 265 266
3 267 268 269
3 270 271 272
3 273 274 275
3 276 277 278
3 279 280 281
3 282 283 284
3 285 286 287
3 288 289 290
3 291 292 293
3 294 295 296
3 297 298 299
3 300 301 302
3 303 304 305
3 306 307 308
3 309 310 311
3 312 313 314
3 315 316 317
3 318 319 320
3 321 322 323
3 324 325 326
3 327 328 329
3 330 331 332
3 333 334 335
3 336 337 338
3 339 340 341
3 342 343 344
3 345 346 347
3 348 349 350
3 351 352 353
3 354 355 356
3 357 358 359
3 360 361 362
3 363 364 365
3 366 367 368
3 369 370 371
3 372 373 374
3 375 376 377
3 378 379 380
3 381 382 383
3 384 385 386
3 387 388 389
3 390 391 392
3 393 394 395
3 396 397 398
3 399 400 401
3 402 403 404
3 405 406 407
3 408 409 410
3 411 412 413
3 414 415 416
3 417 418 419
3 420 421 422
3 423 424 425
3 426 427 428
3 429 430 431
3 432 433 434
3 435 436 437
3 438 439 440
3 441 442 443
3 444 445 446
3 447 448 449
3 450 451 452
3 453 454 455
3 456 457 458
3 459 460 461
