ply
format ascii 1.0
comment Created by Blender 2.69 (sub 0) - www.blender.org, source file: ''
element vertex 237
property float x
property float y
property float z
property float nx
property float ny
property float nz
property float s
property float t
element face 79
property list uchar uint vertex_indices
end_header
-0.013336 -0.005837 -0.028584 -0.363233 -0.537096 -0.761308 0.071429 0.537909
0.000500 -0.016315 -0.027793 -0.363233 -0.537096 -0.761308 0.000000 0.650664
-0.012390 -0.025965 -0.014835 -0.363233 -0.537096 -0.761308 0.107208 0.784763
-0.024468 -0.005683 -0.019949 -0.537591 -0.492685 -0.684293 0.142857 0.537910
-0.013336 -0.005837 -0.028584 -0.537591 -0.492685 -0.684293 0.071429 0.537909
-0.012390 -0.025965 -0.014835 -0.537591 -0.492685 -0.684293 0.107208 0.784763
-0.030751 -0.005427 -0.007341 -0.756183 -0.542552 -0.365820 0.214286 0.537911
-0.024468 -0.005683 -0.019949 -0.756183 -0.542552 -0.365820 0.142857 0.537910
-0.012390 -0.025965 -0.014835 -0.756183 -0.542552 -0.365820 0.107208 0.784763
-0.030751 -0.005427 -0.007341 -0.751629 -0.527454 -0.396039 0.214286 0.537911
-0.012390 -0.025965 -0.014835 -0.751629 -0.527454 -0.396039 0.107208 0.784763
-0.025007 -0.020363 0.001650 -0.751629 -0.527454 -0.396039 0.256929 0.714286
-0.028061 -0.010094 0.012491 -0.941851 -0.332362 0.049515 0.314566 0.571429
-0.030751 -0.005427 -0.007341 -0.941851 -0.332362 0.049515 0.214286 0.537911
-0.025007 -0.020363 0.001650 -0.941851 -0.332362 0.049515 0.256929 0.714286
-0.028061 -0.010094 0.012491 -0.661352 -0.628639 0.409178 0.314566 0.571429
-0.025007 -0.020363 0.001650 -0.661352 -0.628639 0.409178 0.256929 0.714286
-0.010458 -0.025204 0.017728 -0.661352 -0.628639 0.409178 0.410230 0.782615
-0.014040 0.000601 0.029538 -0.563401 -0.407187 0.718873 0.428571 0.500438
-0.028061 -0.010094 0.012491 -0.563401 -0.407187 0.718873 0.314566 0.571429
-0.010458 -0.025204 0.017728 -0.563401 -0.407187 0.718873 0.410230 0.782615
-0.000409 -0.004483 0.031760 -0.299554 -0.431091 0.851133 0.500000 0.537908
-0.014040 0.000601 0.029538 -0.299554 -0.431091 0.851133 0.428571 0.500438
-0.010458 -0.025204 0.017728 -0.299554 -0.431091 0.851133 0.410230 0.782615
-0.000409 -0.004483 0.031760 -0.196818 -0.482511 0.853490 0.500000 0.537908
-0.010458 -0.025204 0.017728 -0.196818 -0.482511 0.853490 0.410230 0.782615
0.006590 -0.019526 0.024870 -0.196818 -0.482511 0.853490 0.540842 0.714286
0.013367 -0.004506 0.028809 0.197112 -0.330974 0.922823 0.571429 0.537909
-0.000409 -0.004483 0.031760 0.197112 -0.330974 0.922823 0.500000 0.537908
0.006590 -0.019526 0.024870 0.197112 -0.330974 0.922823 0.540842 0.714286
0.024499 -0.004660 0.020175 0.548166 -0.434738 0.714504 0.642857 0.537909
0.013367 -0.004506 0.028809 0.548166 -0.434738 0.714504 0.571429 0.537909
0.006590 -0.019526 0.024870 0.548166 -0.434738 0.714504 0.540842 0.714286
0.024499 -0.004660 0.020175 0.575913 -0.486278 0.657159 0.642857 0.537909
0.006590 -0.019526 0.024870 0.575913 -0.486278 0.657159 0.540842 0.714286
0.014581 -0.024782 0.013977 0.575913 -0.486278 0.657159 0.625070 0.785434
0.030782 -0.004916 0.007567 0.770441 -0.501125 0.394076 0.714286 0.537910
0.024499 -0.004660 0.020175 0.770441 -0.501125 0.394076 0.642857 0.537909
0.014581 -0.024782 0.013977 0.770441 -0.501125 0.394076 0.625070 0.785434
0.030782 -0.004916 0.007567 0.769716 -0.499359 0.397716 0.714286 0.537910
0.014581 -0.024782 0.013977 0.769716 -0.499359 0.397716 0.625070 0.785434
0.025130 -0.020264 -0.000765 0.769716 -0.499359 0.397716 0.756929 0.714286
0.030971 -0.005222 -0.006518 0.934588 -0.355154 0.020263 0.785714 0.537910
0.030782 -0.004916 0.007567 0.934588 -0.355154 0.020263 0.714286 0.537910
0.025130 -0.020264 -0.000765 0.934588 -0.355154 0.020263 0.756929 0.714286
0.020018 -0.010722 -0.023014 0.803439 -0.457630 -0.380868 0.885995 0.571429
0.030971 -0.005222 -0.006518 0.803439 -0.457630 -0.380868 0.785714 0.537910
0.025130 -0.020264 -0.000765 0.803439 -0.457630 -0.380868 0.756929 0.714286
0.020018 -0.010722 -0.023014 0.684734 -0.599487 -0.414433 0.885995 0.571429
0.025130 -0.020264 -0.000765 0.684734 -0.599487 -0.414433 0.756929 0.714286
0.010613 -0.025888 -0.016615 0.684734 -0.599487 -0.414433 0.910230 0.782616
0.000500 -0.016315 -0.027793 0.342690 -0.537562 -0.770449 1.000000 0.650664
0.020018 -0.010722 -0.023014 0.342690 -0.537562 -0.770449 0.885995 0.571429
0.010613 -0.025888 -0.016615 0.342690 -0.537562 -0.770449 0.910230 0.782616
-0.013336 -0.005837 -0.028584 -0.089227 -0.191608 -0.977407 0.071429 0.537909
-0.000767 0.004480 -0.031754 -0.089227 -0.191608 -0.977407 0.000000 0.462092
0.000500 -0.016315 -0.027793 -0.089227 -0.191608 -0.977407 0.000000 0.650664
-0.030751 -0.005427 -0.007341 -0.985274 -0.137835 0.101178 0.214286 0.537911
-0.028061 -0.010094 0.012491 -0.985274 -0.137835 0.101178 0.314566 0.571429
-0.030703 0.005248 0.007663 -0.985274 -0.137835 0.101178 0.285714 0.462090
-0.030703 0.005248 0.007663 -0.890226 -0.009994 0.455410 0.285714 0.462090
-0.028061 -0.010094 0.012491 -0.890226 -0.009994 0.455410 0.314566 0.571429
-0.024291 0.005540 0.020204 -0.890226 -0.009994 0.455410 0.357143 0.462092
-0.024291 0.005540 0.020204 -0.706773 -0.168534 0.687072 0.357143 0.462092
-0.028061 -0.010094 0.012491 -0.706773 -0.168534 0.687072 0.314566 0.571429
-0.014040 0.000601 0.029538 -0.706773 -0.168534 0.687072 0.428571 0.500438
0.030971 -0.005222 -0.006518 0.845902 -0.145669 -0.513060 0.785714 0.537910
0.020018 -0.010722 -0.023014 0.845902 -0.145669 -0.513060 0.885995 0.571429
0.024259 0.004803 -0.020430 0.845902 -0.145669 -0.513060 0.857143 0.462089
0.024259 0.004803 -0.020430 0.604708 -0.032718 -0.795775 0.857143 0.462089
0.020018 -0.010722 -0.023014 0.604708 -0.032718 -0.795775 0.885995 0.571429
0.013039 0.004583 -0.028947 0.604708 -0.032718 -0.795775 0.928572 0.462089
0.013039 0.004583 -0.028947 0.292441 -0.226774 -0.929006 0.928572 0.462089
0.020018 -0.010722 -0.023014 0.292441 -0.226774 -0.929006 0.885995 0.571429
0.000500 -0.016315 -0.027793 0.292441 -0.226774 -0.929006 1.000000 0.650664
0.013039 0.004583 -0.028947 0.197475 -0.171794 -0.965137 0.928572 0.462089
0.000500 -0.016315 -0.027793 0.197475 -0.171794 -0.965137 1.000000 0.650664
-0.000767 0.004480 -0.031754 0.197475 -0.171794 -0.965137 1.000000 0.462092
-0.012410 0.025170 -0.016033 -0.280726 0.475500 -0.833722 0.107056 0.215225
-0.000157 0.024622 -0.020471 -0.280726 0.475500 -0.833722 0.000000 0.213847
-0.000767 0.004480 -0.031754 -0.280726 0.475500 -0.833722 0.000000 0.462092
-0.012410 0.025170 -0.016033 -0.227806 0.504563 -0.832779 0.107056 0.215225
-0.000767 0.004480 -0.031754 -0.227806 0.504563 -0.832779 0.000000 0.462092
-0.020258 0.009713 -0.023251 -0.227806 0.504563 -0.832779 0.114006 0.428571
-0.026899 0.018252 -0.003068 -0.683801 0.563589 -0.463448 0.236404 0.320025
-0.012410 0.025170 -0.016033 -0.683801 0.563589 -0.463448 0.107056 0.215225
-0.020258 0.009713 -0.023251 -0.683801 0.563589 -0.463448 0.114006 0.428571
-0.016151 0.020922 0.018697 -0.796306 0.506203 0.331142 0.387911 0.285714
-0.026899 0.018252 -0.003068 -0.796306 0.506203 0.331142 0.236404 0.320025
-0.030703 0.005248 0.007663 -0.796306 0.506203 0.331142 0.285714 0.462090
-0.016151 0.020922 0.018697 -0.795082 0.459536 0.395818 0.387911 0.285714
-0.030703 0.005248 0.007663 -0.795082 0.459536 0.395818 0.285714 0.462090
-0.024291 0.005540 0.020204 -0.795082 0.459536 0.395818 0.357143 0.462092
-0.016151 0.020922 0.018697 -0.529656 0.355739 0.770009 0.387911 0.285714
-0.024291 0.005540 0.020204 -0.529656 0.355739 0.770009 0.357143 0.462092
-0.014040 0.000601 0.029538 -0.529656 0.355739 0.770009 0.428571 0.500438
0.000696 0.016319 0.027786 -0.341821 0.414426 0.843451 0.500000 0.349336
-0.016151 0.020922 0.018697 -0.341821 0.414426 0.843451 0.387911 0.285714
-0.014040 0.000601 0.029538 -0.341821 0.414426 0.843451 0.428571 0.500438
0.014863 0.020862 0.019711 0.335914 0.436239 0.834780 0.600511 0.285714
0.000696 0.016319 0.027786 0.335914 0.436239 0.834780 0.500000 0.349336
0.020195 0.010839 0.022804 0.335914 0.436239 0.834780 0.614005 0.428571
0.024922 0.020587 0.000449 0.758385 0.523322 0.388570 0.743394 0.285714
0.014863 0.020862 0.019711 0.758385 0.523322 0.388570 0.600511 0.285714
0.020195 0.010839 0.022804 0.758385 0.523322 0.388570 0.614005 0.428571
0.024922 0.020587 0.000449 0.848174 0.395871 0.351975 0.743394 0.285714
0.020195 0.010839 0.022804 0.848174 0.395871 0.351975 0.614005 0.428571
0.030589 0.010337 -0.001678 0.848174 0.395871 0.351975 0.756862 0.428571
0.016026 0.020186 -0.019593 0.783710 0.507562 -0.358021 0.887911 0.285714
0.024922 0.020587 0.000449 0.783710 0.507562 -0.358021 0.743394 0.285714
0.030589 0.010337 -0.001678 0.783710 0.507562 -0.358021 0.756862 0.428571
0.016026 0.020186 -0.019593 0.798059 0.448989 -0.401884 0.887911 0.285714
0.030589 0.010337 -0.001678 0.798059 0.448989 -0.401884 0.756862 0.428571
0.024259 0.004803 -0.020430 0.798059 0.448989 -0.401884 0.857143 0.462089
0.016026 0.020186 -0.019593 0.563769 0.342622 -0.751515 0.887911 0.285714
0.024259 0.004803 -0.020430 0.563769 0.342622 -0.751515 0.857143 0.462089
0.013039 0.004583 -0.028947 0.563769 0.342622 -0.751515 0.928572 0.462089
-0.000157 0.024622 -0.020471 0.178369 0.480619 -0.858598 1.000000 0.213847
0.016026 0.020186 -0.019593 0.178369 0.480619 -0.858598 0.887911 0.285714
0.013039 0.004583 -0.028947 0.178369 0.480619 -0.858598 0.928572 0.462089
-0.000157 0.024622 -0.020471 0.171598 0.477482 -0.861722 1.000000 0.213847
0.013039 0.004583 -0.028947 0.171598 0.477482 -0.861722 0.928572 0.462089
-0.000767 0.004480 -0.031754 0.171598 0.477482 -0.861722 1.000000 0.462092
-0.012410 0.025170 -0.016033 -0.553769 0.811690 -0.185740 0.107056 0.215225
-0.026899 0.018252 -0.003068 -0.553769 0.811690 -0.185740 0.236404 0.320025
-0.018981 0.024258 -0.000431 -0.553769 0.811690 -0.185740 0.250000 0.214286
-0.018981 0.024258 -0.000431 -0.635153 0.739512 0.222939 0.250000 0.214286
-0.026899 0.018252 -0.003068 -0.635153 0.739512 0.222939 0.236404 0.320025
-0.016151 0.020922 0.018697 -0.635153 0.739512 0.222939 0.387911 0.285714
-0.018981 0.024258 -0.000431 -0.490157 0.843512 0.219623 0.250000 0.214286
-0.016151 0.020922 0.018697 -0.490157 0.843512 0.219623 0.387911 0.285714
-0.011786 0.024601 0.014311 -0.490157 0.843512 0.219623 0.392857 0.214286
-0.016151 0.020922 0.018697 -0.174184 0.709925 0.682398 0.387911 0.285714
0.000696 0.016319 0.027786 -0.174184 0.709925 0.682398 0.500000 0.349336
0.000027 0.024736 0.018859 -0.174184 0.709925 0.682398 0.500000 0.214286
-0.016151 0.020922 0.018697 -0.203122 0.840326 0.502587 0.387911 0.285714
0.000027 0.024736 0.018859 -0.203122 0.840326 0.502587 0.500000 0.214286
-0.011786 0.024601 0.014311 -0.203122 0.840326 0.502587 0.392857 0.214286
0.000027 0.024736 0.018859 0.150665 0.724906 0.672169 0.500000 0.214286
0.000696 0.016319 0.027786 0.150665 0.724906 0.672169 0.500000 0.349336
0.014863 0.020862 0.019711 0.150665 0.724906 0.672169 0.600511 0.285714
0.000027 0.024736 0.018859 0.195615 0.854902 0.480497 0.500000 0.214286
0.014863 0.020862 0.019711 0.195615 0.854902 0.480497 0.600511 0.285714
0.011791 0.024669 0.014188 0.195615 0.854902 0.480497 0.607143 0.214286
0.011791 0.024669 0.014188 0.527078 0.807860 0.263725 0.607143 0.214286
0.014863 0.020862 0.019711 0.527078 0.807860 0.263725 0.600511 0.285714
0.024922 0.020587 0.000449 0.527078 0.807860 0.263725 0.743394 0.285714
0.011791 0.024669 0.014188 0.487578 0.846308 0.214547 0.607143 0.214286
0.024922 0.020587 0.000449 0.487578 0.846308 0.214547 0.743394 0.285714
0.018834 0.024368 -0.000628 0.487578 0.846308 0.214547 0.750000 0.214286
0.018834 0.024368 -0.000628 0.542271 0.800025 -0.256716 0.750000 0.214286
0.024922 0.020587 0.000449 0.542271 0.800025 -0.256716 0.743394 0.285714
0.016026 0.020186 -0.019593 0.542271 0.800025 -0.256716 0.887911 0.285714
0.018834 0.024368 -0.000628 0.485064 0.836106 -0.256204 0.750000 0.214286
0.016026 0.020186 -0.019593 0.485064 0.836106 -0.256204 0.887911 0.285714
0.011638 0.024025 -0.015370 0.485064 0.836106 -0.256204 0.892857 0.214286
0.016026 0.020186 -0.019593 0.254900 0.832430 -0.492022 0.887911 0.285714
-0.000157 0.024622 -0.020471 0.254900 0.832430 -0.492022 1.000000 0.213847
0.011638 0.024025 -0.015370 0.254900 0.832430 -0.492022 0.892857 0.214286
-0.000767 0.004480 -0.031754 -0.359628 0.155436 -0.920058 0.000000 0.462092
-0.013336 -0.005837 -0.028584 -0.359628 0.155436 -0.920058 0.071429 0.537909
-0.020258 0.009713 -0.023251 -0.359628 0.155436 -0.920058 0.114006 0.428571
-0.020258 0.009713 -0.023251 -0.612900 -0.001843 -0.790158 0.114006 0.428571
-0.013336 -0.005837 -0.028584 -0.612900 -0.001843 -0.790158 0.071429 0.537909
-0.024468 -0.005683 -0.019949 -0.612900 -0.001843 -0.790158 0.142857 0.537910
-0.020258 0.009713 -0.023251 -0.884164 0.146672 -0.443556 0.114006 0.428571
-0.024468 -0.005683 -0.019949 -0.884164 0.146672 -0.443556 0.142857 0.537910
-0.030751 -0.005427 -0.007341 -0.884164 0.146672 -0.443556 0.214286 0.537911
-0.020258 0.009713 -0.023251 -0.896817 0.215589 -0.386317 0.114006 0.428571
-0.030751 -0.005427 -0.007341 -0.896817 0.215589 -0.386317 0.214286 0.537911
-0.026899 0.018252 -0.003068 -0.896817 0.215589 -0.386317 0.236404 0.320025
-0.026899 0.018252 -0.003068 -0.975315 0.181371 -0.125957 0.236404 0.320025
-0.030751 -0.005427 -0.007341 -0.975315 0.181371 -0.125957 0.214286 0.537911
-0.030703 0.005248 0.007663 -0.975315 0.181371 -0.125957 0.285714 0.462090
-0.014040 0.000601 0.029538 -0.087983 0.191394 0.977562 0.428571 0.500438
-0.000409 -0.004483 0.031760 -0.087983 0.191394 0.977562 0.500000 0.537908
0.000696 0.016319 0.027786 -0.087983 0.191394 0.977562 0.500000 0.349336
0.000696 0.016319 0.027786 0.206553 0.172973 0.963025 0.500000 0.349336
-0.000409 -0.004483 0.031760 0.206553 0.172973 0.963025 0.500000 0.537908
0.013367 -0.004506 0.028809 0.206553 0.172973 0.963025 0.571429 0.537909
0.000696 0.016319 0.027786 0.300819 0.228508 0.925901 0.500000 0.349336
0.013367 -0.004506 0.028809 0.300819 0.228508 0.925901 0.571429 0.537909
0.020195 0.010839 0.022804 0.300819 0.228508 0.925901 0.614005 0.428571
0.020195 0.010839 0.022804 0.612799 0.036269 0.789406 0.614005 0.428571
0.013367 -0.004506 0.028809 0.612799 0.036269 0.789406 0.571429 0.537909
0.024499 -0.004660 0.020175 0.612799 0.036269 0.789406 0.642857 0.537909
0.020195 0.010839 0.022804 0.883201 0.171193 0.436633 0.614005 0.428571
0.024499 -0.004660 0.020175 0.883201 0.171193 0.436633 0.642857 0.537909
0.030782 -0.004916 0.007567 0.883201 0.171193 0.436633 0.714286 0.537910
0.020195 0.010839 0.022804 0.895599 0.238812 0.375329 0.614005 0.428571
0.030782 -0.004916 0.007567 0.895599 0.238812 0.375329 0.714286 0.537910
0.030589 0.010337 -0.001678 0.895599 0.238812 0.375329 0.756862 0.428571
0.030589 0.010337 -0.001678 0.999705 0.020521 0.012970 0.756862 0.428571
0.030782 -0.004916 0.007567 0.999705 0.020521 0.012970 0.714286 0.537910
0.030971 -0.005222 -0.006518 0.999705 0.020521 0.012970 0.785714 0.537910
0.030589 0.010337 -0.001678 0.926691 0.132199 -0.351806 0.756862 0.428571
0.030971 -0.005222 -0.006518 0.926691 0.132199 -0.351806 0.785714 0.537910
0.024259 0.004803 -0.020430 0.926691 0.132199 -0.351806 0.857143 0.462089
-0.000027 -0.024736 -0.018859 -0.151158 -0.714872 -0.682722 0.000000 0.785714
-0.012390 -0.025965 -0.014835 -0.151158 -0.714872 -0.682722 0.107208 0.784763
0.000500 -0.016315 -0.027793 -0.151158 -0.714872 -0.682722 0.000000 0.650664
-0.012390 -0.025965 -0.014835 -0.631359 -0.740055 -0.231744 0.107208 0.784763
-0.018848 -0.024429 -0.002146 -0.631359 -0.740055 -0.231744 0.232143 0.785714
-0.025007 -0.020363 0.001650 -0.631359 -0.740055 -0.231744 0.256929 0.714286
-0.025007 -0.020363 0.001650 -0.541684 -0.840317 0.021124 0.256929 0.714286
-0.018848 -0.024429 -0.002146 -0.541684 -0.840317 0.021124 0.232143 0.785714
-0.018819 -0.024308 0.003403 -0.541684 -0.840317 0.021124 0.267857 0.785714
-0.025007 -0.020363 0.001650 -0.571694 -0.764892 0.296827 0.256929 0.714286
-0.018819 -0.024308 0.003403 -0.571694 -0.764892 0.296827 0.267857 0.785714
-0.013817 -0.024069 0.013651 -0.571694 -0.764892 0.296827 0.375000 0.785714
-0.025007 -0.020363 0.001650 -0.270253 -0.961735 -0.045041 0.256929 0.714286
-0.013817 -0.024069 0.013651 -0.270253 -0.961735 -0.045041 0.375000 0.785714
-0.010458 -0.025204 0.017728 -0.270253 -0.961735 -0.045041 0.410230 0.782615
-0.010458 -0.025204 0.017728 -0.056342 -0.711611 0.700311 0.410230 0.782615
0.000174 -0.023891 0.019918 -0.056342 -0.711611 0.700311 0.500000 0.785714
0.006590 -0.019526 0.024870 -0.056342 -0.711611 0.700311 0.540842 0.714286
0.000174 -0.023891 0.019918 0.158500 -0.833480 0.529328 0.500000 0.785714
0.009778 -0.023925 0.016988 0.158500 -0.833480 0.529328 0.589286 0.785714
0.006590 -0.019526 0.024870 0.158500 -0.833480 0.529328 0.540842 0.714286
0.014581 -0.024782 0.013977 0.189029 -0.822925 0.535782 0.625070 0.785434
0.006590 -0.019526 0.024870 0.189029 -0.822925 0.535782 0.540842 0.714286
0.009778 -0.023925 0.016988 0.189029 -0.822925 0.535782 0.589286 0.785714
0.014581 -0.024782 0.013977 0.621582 -0.753611 0.213789 0.625070 0.785434
0.018995 -0.024198 0.003205 0.621582 -0.753611 0.213789 0.732143 0.785714
0.025130 -0.020264 -0.000765 0.621582 -0.753611 0.213789 0.756929 0.714286
0.025130 -0.020264 -0.000765 0.546758 -0.837149 0.015411 0.756929 0.714286
0.018995 -0.024198 0.003205 0.546758 -0.837149 0.015411 0.732143 0.785714
0.018966 -0.024318 -0.002344 0.546758 -0.837149 0.015411 0.767857 0.785714
0.025130 -0.020264 -0.000765 0.576350 -0.773618 -0.263317 0.756929 0.714286
0.018966 -0.024318 -0.002344 0.576350 -0.773618 -0.263317 0.767857 0.785714
0.013964 -0.024557 -0.012592 0.576350 -0.773618 -0.263317 0.875000 0.785714
0.025130 -0.020264 -0.000765 0.275997 -0.957222 0.086897 0.756929 0.714286
0.013964 -0.024557 -0.012592 0.275997 -0.957222 0.086897 0.875000 0.785714
0.010613 -0.025888 -0.016615 0.275997 -0.957222 0.086897 0.910230 0.782616
0.010613 -0.025888 -0.016615 0.065035 -0.728070 -0.682411 0.910230 0.782616
-0.000027 -0.024736 -0.018859 0.065035 -0.728070 -0.682411 1.000000 0.785714
0.000500 -0.016315 -0.027793 0.065035 -0.728070 -0.682411 1.000000 0.650664
3 0 1 2
3 3 4 5
3 6 7 8
3 9 10 11
3 12 13 14
3 15 16 17
3 18 19 20
3 21 22 23
3 24 25 26
3 27 28 29
3 30 31 32
3 33 34 35
3 36 37 38
3 39 40 41
3 42 43 44
3 45 46 47
3 48 49 50
3 51 52 53
3 54 55 56
3 57 58 59
3 60 61 62
3 63 64 65
3 66 67 68
3 69 70 71
3 72 73 74
3 75 76 77
3 78 79 80
3 81 82 83
3 84 85 86
3 87 88 89
3 90 91 92
3 93 94 95
3 96 97 98
3 99 100 101
3 102 103 104
3 105 106 107
3 108 109 110
3 111 112 113
3 114 115 116
3 117 118 119
3 120 121 122
3 123 124 125
3 126 127 128
3 129 130 131
3 132 133 134
3 135 136 137
3 138 139 140
3 141 142 143
3 144 145 146
3 147 148 149
3 150 151 152
3 153 154 155
3 156 157 158
3 159 160 161
3 162 163 164
3 165 166 167
3 168 169 170
3 171 172 173
3 174 175 176
3 177 178 179
3 180 181 182
3 183 184 185
3 186 187 188
3 189 190 191
3 192 193 194
3 195 196 197
3 198 199 200
3 201 202 203
3 204 205 206
3 207 208 209
3 210 211 212
3 213 214 215
3 216 217 218
3 219 220 221
3 222 223 224
3 225 226 227
3 228 229 230
3 231 232 233
3 234 235 236
