ply
format ascii 1.0
comment Created by Blender 2.69 (sub 0) - www.blender.org, source file: ''
element vertex 288
property float x
property float y
property float z
property float nx
property float ny
property float nz
property float s
property float t
element face 96
property list uchar uint vertex_indices
end_header
0.008011 -0.041179 -0.003735 -0.120981 -0.991807 -0.041025 0.125000 1.000000
-0.013140 -0.039022 0.006486 -0.120981 -0.991807 -0.041025 0.320307 0.875000
-0.006486 -0.039022 -0.013141 -0.120981 -0.991807 -0.041025 0.083980 0.875000
0.008011 -0.041179 -0.003735 -0.041700 -0.991533 0.122979 0.375000 1.000000
0.006486 -0.039022 0.013141 -0.041700 -0.991533 0.122979 0.570306 0.875000
-0.013140 -0.039022 0.006486 -0.041700 -0.991533 0.122979 0.320307 0.875000
-0.026008 -0.030474 -0.017425 -0.282244 -0.858854 -0.427444 0.156051 0.750000
-0.007057 -0.030061 -0.030769 -0.282244 -0.858854 -0.427444 0.035956 0.750000
-0.006486 -0.039022 -0.013141 -0.282244 -0.858854 -0.427444 0.083980 0.875000
-0.026008 -0.030474 -0.017425 -0.374335 -0.918565 -0.126932 0.156051 0.750000
-0.006486 -0.039022 -0.013141 -0.374335 -0.918565 -0.126932 0.083980 0.875000
-0.013140 -0.039022 0.006486 -0.374335 -0.918565 -0.126932 0.320307 0.875000
-0.013140 -0.039022 0.006486 -0.453817 -0.888078 -0.073260 0.320307 0.875000
-0.030769 -0.030061 0.007057 -0.453817 -0.888078 -0.073260 0.285956 0.750000
-0.026008 -0.030474 -0.017425 -0.453817 -0.888078 -0.073260 0.156051 0.750000
-0.017425 -0.030474 0.026008 -0.427444 -0.858854 0.282242 0.406050 0.750000
-0.030769 -0.030061 0.007057 -0.427444 -0.858854 0.282242 0.285956 0.750000
-0.013140 -0.039022 0.006486 -0.427444 -0.858854 0.282242 0.320307 0.875000
-0.017425 -0.030474 0.026008 -0.126932 -0.918564 0.374338 0.406050 0.750000
-0.013140 -0.039022 0.006486 -0.126932 -0.918564 0.374338 0.320307 0.875000
0.006486 -0.039022 0.013141 -0.126932 -0.918564 0.374338 0.570306 0.875000
0.006486 -0.039022 0.013141 -0.073261 -0.888077 0.453819 0.570306 0.875000
0.007057 -0.030061 0.030769 -0.073261 -0.888077 0.453819 0.535956 0.750000
-0.017425 -0.030474 0.026008 -0.073261 -0.888077 0.453819 0.406050 0.750000
0.026008 -0.030474 0.017425 0.282243 -0.858853 0.427447 0.656050 0.750000
0.007057 -0.030061 0.030769 0.282243 -0.858853 0.427447 0.535956 0.750000
0.006486 -0.039022 0.013141 0.282243 -0.858853 0.427447 0.570306 0.875000
0.006486 -0.039022 0.013141 0.368603 -0.917312 0.150567 0.570306 0.875000
0.008011 -0.041179 -0.003735 0.368603 -0.917312 0.150567 0.842723 0.926232
0.026008 -0.030474 0.017425 0.368603 -0.917312 0.150567 0.656050 0.750000
0.008011 -0.041179 -0.003735 0.446260 -0.892024 0.071724 0.842723 0.926232
0.030769 -0.030061 -0.007057 0.446260 -0.892024 0.071724 0.785957 0.750000
0.026008 -0.030474 0.017425 0.446260 -0.892024 0.071724 0.656050 0.750000
0.030769 -0.030061 -0.007057 0.393483 -0.882441 -0.257817 0.785957 0.750000
0.008011 -0.041179 -0.003735 0.393483 -0.882441 -0.257817 0.842723 0.926232
0.017425 -0.030474 -0.026008 0.393483 -0.882441 -0.257817 0.906050 0.750000
0.017425 -0.030474 -0.026008 0.116873 -0.913508 -0.389671 0.906050 0.750000
0.008011 -0.041179 -0.003735 0.116873 -0.913508 -0.389671 0.842723 0.926232
-0.006486 -0.039022 -0.013141 0.116873 -0.913508 -0.389671 0.968750 0.875000
-0.006486 -0.039022 -0.013141 0.073261 -0.888079 -0.453817 0.968750 0.875000
-0.007057 -0.030061 -0.030769 0.073261 -0.888079 -0.453817 1.000000 0.750000
0.017425 -0.030474 -0.026008 0.073261 -0.888079 -0.453817 0.906050 0.750000
-0.034019 -0.017185 -0.022327 -0.474652 -0.536413 -0.697830 0.157589 0.625000
-0.008267 -0.017185 -0.039843 -0.474652 -0.536413 -0.697830 0.032588 0.625000
-0.007057 -0.030061 -0.030769 -0.474652 -0.536413 -0.697830 0.035956 0.750000
-0.034019 -0.017185 -0.022327 -0.475784 -0.542270 -0.692512 0.157589 0.625000
-0.007057 -0.030061 -0.030769 -0.475784 -0.542270 -0.692512 0.035956 0.750000
-0.026008 -0.030474 -0.017425 -0.475784 -0.542270 -0.692512 0.156051 0.750000
-0.039843 -0.017185 0.008267 -0.819445 -0.551524 -0.155981 0.282588 0.625000
-0.034019 -0.017185 -0.022327 -0.819445 -0.551524 -0.155981 0.157589 0.625000
-0.026008 -0.030474 -0.017425 -0.819445 -0.551524 -0.155981 0.156051 0.750000
-0.039843 -0.017185 0.008267 -0.814829 -0.560227 -0.148994 0.282588 0.625000
-0.026008 -0.030474 -0.017425 -0.814829 -0.560227 -0.148994 0.156051 0.750000
-0.030769 -0.030061 0.007057 -0.814829 -0.560227 -0.148994 0.285956 0.750000
-0.022327 -0.017185 0.034019 -0.697831 -0.536412 0.474651 0.407588 0.625000
-0.039843 -0.017185 0.008267 -0.697831 -0.536412 0.474651 0.282588 0.625000
-0.030769 -0.030061 0.007057 -0.697831 -0.536412 0.474651 0.285956 0.750000
-0.022327 -0.017185 0.034019 -0.692516 -0.542265 0.475783 0.407588 0.625000
-0.030769 -0.030061 0.007057 -0.692516 -0.542265 0.475783 0.285956 0.750000
-0.017425 -0.030474 0.026008 -0.692516 -0.542265 0.475783 0.406050 0.750000
0.008267 -0.017185 0.039843 -0.155986 -0.551519 0.819448 0.532588 0.625000
-0.022327 -0.017185 0.034019 -0.155986 -0.551519 0.819448 0.407588 0.625000
-0.017425 -0.030474 0.026008 -0.155986 -0.551519 0.819448 0.406050 0.750000
0.008267 -0.017185 0.039843 -0.148995 -0.560227 0.814829 0.532588 0.625000
-0.017425 -0.030474 0.026008 -0.148995 -0.560227 0.814829 0.406050 0.750000
0.007057 -0.030061 0.030769 -0.148995 -0.560227 0.814829 0.535956 0.750000
0.034019 -0.017185 0.022327 0.474649 -0.536415 0.697830 0.657588 0.625000
0.008267 -0.017185 0.039843 0.474649 -0.536415 0.697830 0.532588 0.625000
0.007057 -0.030061 0.030769 0.474649 -0.536415 0.697830 0.535956 0.750000
0.034019 -0.017185 0.022327 0.475780 -0.542270 0.692515 0.657588 0.625000
0.007057 -0.030061 0.030769 0.475780 -0.542270 0.692515 0.535956 0.750000
0.026008 -0.030474 0.017425 0.475780 -0.542270 0.692515 0.656050 0.750000
0.039843 -0.017185 -0.008267 0.819446 -0.551522 0.155985 0.782587 0.625000
0.034019 -0.017185 0.022327 0.819446 -0.551522 0.155985 0.657588 0.625000
0.026008 -0.030474 0.017425 0.819446 -0.551522 0.155985 0.656050 0.750000
0.039843 -0.017185 -0.008267 0.814828 -0.560229 0.148994 0.782587 0.625000
0.026008 -0.030474 0.017425 0.814828 -0.560229 0.148994 0.656050 0.750000
0.030769 -0.030061 -0.007057 0.814828 -0.560229 0.148994 0.785957 0.750000
0.022327 -0.017185 -0.034019 0.697833 -0.536411 -0.474650 0.907588 0.625000
0.039843 -0.017185 -0.008267 0.697833 -0.536411 -0.474650 0.782587 0.625000
0.030769 -0.030061 -0.007057 0.697833 -0.536411 -0.474650 0.785957 0.750000
0.022327 -0.017185 -0.034019 0.692514 -0.542269 -0.475782 0.907588 0.625000
0.030769 -0.030061 -0.007057 0.692514 -0.542269 -0.475782 0.785957 0.750000
0.017425 -0.030474 -0.026008 0.692514 -0.542269 -0.475782 0.906050 0.750000
-0.008267 -0.017185 -0.039843 0.155982 -0.551522 -0.819447 1.000000 0.625000
0.022327 -0.017185 -0.034019 0.155982 -0.551522 -0.819447 0.907588 0.625000
0.017425 -0.030474 -0.026008 0.155982 -0.551522 -0.819447 0.906050 0.750000
-0.008267 -0.017185 -0.039843 0.148994 -0.560226 -0.814830 1.000000 0.625000
0.017425 -0.030474 -0.026008 0.148994 -0.560226 -0.814830 0.906050 0.750000
-0.007057 -0.030061 -0.030769 0.148994 -0.560226 -0.814830 1.000000 0.750000
-0.024602 0.000000 -0.036820 -0.261214 -0.079076 -0.962037 0.093749 0.500000
-0.000000 0.000000 -0.043500 -0.261214 -0.079076 -0.962037 0.000000 0.500000
-0.008267 -0.017185 -0.039843 -0.261214 -0.079076 -0.962037 0.032588 0.625000
-0.024602 0.000000 -0.036820 -0.524125 -0.362661 -0.770565 0.093749 0.500000
-0.008267 -0.017185 -0.039843 -0.524125 -0.362661 -0.770565 0.032588 0.625000
-0.034019 -0.017185 -0.022327 -0.524125 -0.362661 -0.770565 0.157589 0.625000
-0.043432 0.000000 -0.008639 -0.831397 -0.012923 -0.555528 0.218749 0.500000
-0.024602 0.000000 -0.036820 -0.831397 -0.012923 -0.555528 0.093749 0.500000
-0.034019 -0.017185 -0.022327 -0.831397 -0.012923 -0.555528 0.157589 0.625000
-0.043432 0.000000 -0.008639 -0.915485 -0.362657 -0.174263 0.218749 0.500000
-0.034019 -0.017185 -0.022327 -0.915485 -0.362657 -0.174263 0.157589 0.625000
-0.039843 -0.017185 0.008267 -0.915485 -0.362657 -0.174263 0.282588 0.625000
-0.036820 -0.000000 0.024602 -0.980704 -0.012919 0.195071 0.343750 0.500000
-0.043432 0.000000 -0.008639 -0.980704 -0.012919 0.195071 0.218749 0.500000
-0.039843 -0.017185 0.008267 -0.980704 -0.012919 0.195071 0.282588 0.625000
-0.036820 -0.000000 0.024602 -0.770565 -0.362663 0.524123 0.343750 0.500000
-0.039843 -0.017185 0.008267 -0.770565 -0.362663 0.524123 0.282588 0.625000
-0.022327 -0.017185 0.034019 -0.770565 -0.362663 0.524123 0.407588 0.625000
-0.016647 -0.000000 0.040189 -0.609357 -0.081737 0.788671 0.437500 0.500000
-0.036820 -0.000000 0.024602 -0.609357 -0.081737 0.788671 0.343750 0.500000
-0.022327 -0.017185 0.034019 -0.609357 -0.081737 0.788671 0.407588 0.625000
0.008639 -0.000000 0.043432 -0.121374 -0.299636 0.946302 0.531251 0.500000
-0.016647 -0.000000 0.040189 -0.121374 -0.299636 0.946302 0.437500 0.500000
-0.022327 -0.017185 0.034019 -0.121374 -0.299636 0.946302 0.407588 0.625000
0.008639 -0.000000 0.043432 -0.183324 -0.197188 0.963073 0.531251 0.500000
-0.022327 -0.017185 0.034019 -0.183324 -0.197188 0.963073 0.407588 0.625000
0.008267 -0.017185 0.039843 -0.183324 -0.197188 0.963073 0.532588 0.625000
0.036820 -0.000000 0.024602 0.546235 -0.182569 0.817494 0.656250 0.500000
0.008639 -0.000000 0.043432 0.546235 -0.182569 0.817494 0.531251 0.500000
0.008267 -0.017185 0.039843 0.546235 -0.182569 0.817494 0.532588 0.625000
0.036820 -0.000000 0.024602 0.551368 -0.197192 0.810622 0.656250 0.500000
0.008267 -0.017185 0.039843 0.551368 -0.197192 0.810622 0.532588 0.625000
0.034019 -0.017185 0.022327 0.551368 -0.197192 0.810622 0.657588 0.625000
0.043432 0.000000 -0.008639 0.964302 -0.182570 0.191809 0.781250 0.500000
0.036820 -0.000000 0.024602 0.964302 -0.182570 0.191809 0.656250 0.500000
0.034019 -0.017185 0.022327 0.964302 -0.182570 0.191809 0.657588 0.625000
0.043432 0.000000 -0.008639 0.963073 -0.197185 0.183325 0.781250 0.500000
0.034019 -0.017185 0.022327 0.963073 -0.197185 0.183325 0.657588 0.625000
0.039843 -0.017185 -0.008267 0.963073 -0.197185 0.183325 0.782587 0.625000
0.030759 0.000000 -0.030759 0.852126 -0.188541 -0.488195 0.875000 0.500000
0.043432 0.000000 -0.008639 0.852126 -0.188541 -0.488195 0.781250 0.500000
0.039843 -0.017185 -0.008267 0.852126 -0.188541 -0.488195 0.782587 0.625000
0.030759 0.000000 -0.030759 0.792198 -0.286496 -0.538834 0.875000 0.500000
0.039843 -0.017185 -0.008267 0.792198 -0.286496 -0.538834 0.782587 0.625000
0.022327 -0.017185 -0.034019 0.792198 -0.286496 -0.538834 0.907588 0.625000
0.016647 0.000000 -0.040189 0.551940 -0.114128 -0.826037 0.937500 0.500000
0.030759 0.000000 -0.030759 0.551940 -0.114128 -0.826037 0.875000 0.500000
0.022327 -0.017185 -0.034019 0.551940 -0.114128 -0.826037 0.907588 0.625000
-0.000000 0.000000 -0.043500 0.187486 -0.276436 -0.942567 1.000000 0.500000
0.016647 0.000000 -0.040189 0.187486 -0.276436 -0.942567 0.937500 0.500000
0.022327 -0.017185 -0.034019 0.187486 -0.276436 -0.942567 0.907588 0.625000
-0.000000 0.000000 -0.043500 0.179155 -0.286497 -0.941182 1.000000 0.500000
0.022327 -0.017185 -0.034019 0.179155 -0.286497 -0.941182 0.907588 0.625000
-0.008267 -0.017185 -0.039843 0.179155 -0.286497 -0.941182 1.000000 0.625000
-0.007497 0.017119 -0.040004 -0.261151 0.082036 -0.961806 0.029451 0.375000
-0.000000 0.000000 -0.043500 -0.261151 0.082036 -0.961806 0.000000 0.500000
-0.024602 0.000000 -0.036820 -0.261151 0.082036 -0.961806 0.093749 0.500000
-0.033654 0.017065 -0.022936 -0.509511 0.364082 -0.779643 0.154763 0.375000
-0.007497 0.017119 -0.040004 -0.509511 0.364082 -0.779643 0.029451 0.375000
-0.024602 0.000000 -0.036820 -0.509511 0.364082 -0.779643 0.093749 0.500000
-0.033654 0.017065 -0.022936 -0.831416 0.010996 -0.555541 0.154763 0.375000
-0.024602 0.000000 -0.036820 -0.831416 0.010996 -0.555541 0.093749 0.500000
-0.043432 0.000000 -0.008639 -0.831416 0.010996 -0.555541 0.218749 0.500000
-0.040004 0.017119 0.007497 -0.912140 0.362665 -0.190982 0.279450 0.375000
-0.033654 0.017065 -0.022936 -0.912140 0.362665 -0.190982 0.154763 0.375000
-0.043432 0.000000 -0.008639 -0.912140 0.362665 -0.190982 0.218749 0.500000
-0.040004 0.017119 0.007497 -0.980709 0.012492 0.195072 0.279450 0.375000
-0.043432 0.000000 -0.008639 -0.980709 0.012492 0.195072 0.218749 0.500000
-0.036820 -0.000000 0.024602 -0.980709 0.012492 0.195072 0.343750 0.500000
-0.022936 0.017065 0.033654 -0.779647 0.364080 0.509506 0.404762 0.375000
-0.040004 0.017119 0.007497 -0.779647 0.364080 0.509506 0.279450 0.375000
-0.036820 -0.000000 0.024602 -0.779647 0.364080 0.509506 0.343750 0.500000
-0.022936 0.017065 0.033654 -0.609565 0.077480 0.788940 0.404762 0.375000
-0.036820 -0.000000 0.024602 -0.609565 0.077480 0.788940 0.343750 0.500000
-0.016647 -0.000000 0.040189 -0.609565 0.077480 0.788940 0.437500 0.500000
0.007497 0.017119 0.040004 -0.196178 0.286795 0.937690 0.529451 0.375000
-0.022936 0.017065 0.033654 -0.196178 0.286795 0.937690 0.404762 0.375000
-0.016647 -0.000000 0.040189 -0.196178 0.286795 0.937690 0.437500 0.500000
0.007497 0.017119 0.040004 -0.124980 0.186774 0.974421 0.529451 0.375000
-0.016647 -0.000000 0.040189 -0.124980 0.186774 0.974421 0.437500 0.500000
0.008639 -0.000000 0.043432 -0.124980 0.186774 0.974421 0.531251 0.500000
0.033654 0.017065 0.022936 0.535735 0.200011 0.820356 0.654761 0.375000
0.007497 0.017119 0.040004 0.535735 0.200011 0.820356 0.529451 0.375000
0.008639 -0.000000 0.043432 0.535735 0.200011 0.820356 0.531251 0.500000
0.033654 0.017065 0.022936 0.546373 0.181226 0.817700 0.654761 0.375000
0.008639 -0.000000 0.043432 0.546373 0.181226 0.817700 0.531251 0.500000
0.036820 -0.000000 0.024602 0.546373 0.181226 0.817700 0.656250 0.500000
0.040004 0.017119 -0.007497 0.959537 0.197624 0.200582 0.779451 0.375000
0.033654 0.017065 0.022936 0.959537 0.197624 0.200582 0.654761 0.375000
0.036820 -0.000000 0.024602 0.959537 0.197624 0.200582 0.656250 0.500000
0.040004 0.017119 -0.007497 0.964701 0.180364 0.191889 0.779451 0.375000
0.036820 -0.000000 0.024602 0.964701 0.180364 0.191889 0.656250 0.500000
0.043432 0.000000 -0.008639 0.964701 0.180364 0.191889 0.781250 0.500000
0.022936 0.017065 -0.033654 0.820357 0.200005 -0.535735 0.904761 0.375000
0.040004 0.017119 -0.007497 0.820357 0.200005 -0.535735 0.779451 0.375000
0.043432 0.000000 -0.008639 0.820357 0.200005 -0.535735 0.781250 0.500000
0.022936 0.017065 -0.033654 0.827961 0.299117 -0.474351 0.904761 0.375000
0.043432 0.000000 -0.008639 0.827961 0.299117 -0.474351 0.781250 0.500000
0.030759 0.000000 -0.030759 0.827961 0.299117 -0.474351 0.875000 0.500000
0.022936 0.017065 -0.033654 0.552015 0.112940 -0.826150 0.904761 0.375000
0.030759 0.000000 -0.030759 0.552015 0.112940 -0.826150 0.875000 0.500000
0.016647 0.000000 -0.040189 0.552015 0.112940 -0.826150 0.937500 0.500000
-0.007497 0.017119 -0.040004 0.196179 0.286796 -0.937690 1.000000 0.375000
0.022936 0.017065 -0.033654 0.196179 0.286796 -0.937690 0.904761 0.375000
0.016647 0.000000 -0.040189 0.196179 0.286796 -0.937690 0.937500 0.500000
-0.007497 0.017119 -0.040004 0.187582 0.274729 -0.943047 1.000000 0.375000
0.016647 0.000000 -0.040189 0.187582 0.274729 -0.943047 0.937500 0.500000
-0.000000 0.000000 -0.043500 0.187582 0.274729 -0.943047 1.000000 0.500000
-0.024828 0.030327 -0.018723 -0.415096 0.582017 -0.699251 0.145937 0.250000
-0.004575 0.030547 -0.030562 -0.415096 0.582017 -0.699251 0.024770 0.250000
-0.007497 0.017119 -0.040004 -0.415096 0.582017 -0.699251 0.029451 0.375000
-0.024828 0.030327 -0.018723 -0.463120 0.533131 -0.708019 0.145937 0.250000
-0.007497 0.017119 -0.040004 -0.463120 0.533131 -0.708019 0.029451 0.375000
-0.033654 0.017065 -0.022936 -0.463120 0.533131 -0.708019 0.154763 0.375000
-0.030562 0.030547 0.004575 -0.785550 0.585966 -0.198887 0.274771 0.250000
-0.024828 0.030327 -0.018723 -0.785550 0.585966 -0.198887 0.145937 0.250000
-0.033654 0.017065 -0.022936 -0.785550 0.585966 -0.198887 0.154763 0.375000
-0.030562 0.030547 0.004575 -0.823018 0.541124 -0.172699 0.274771 0.250000
-0.033654 0.017065 -0.022936 -0.823018 0.541124 -0.172699 0.154763 0.375000
-0.040004 0.017119 0.007497 -0.823018 0.541124 -0.172699 0.279450 0.375000
-0.018722 0.030327 0.024828 -0.699250 0.582011 0.415106 0.395938 0.250000
-0.030562 0.030547 0.004575 -0.699250 0.582011 0.415106 0.274771 0.250000
-0.040004 0.017119 0.007497 -0.699250 0.582011 0.415106 0.279450 0.375000
-0.018722 0.030327 0.024828 -0.708015 0.533145 0.463110 0.395938 0.250000
-0.040004 0.017119 0.007497 -0.708015 0.533145 0.463110 0.279450 0.375000
-0.022936 0.017065 0.033654 -0.708015 0.533145 0.463110 0.404762 0.375000
0.004575 0.030547 0.030562 -0.198889 0.585971 0.785545 0.524771 0.250000
-0.018722 0.030327 0.024828 -0.198889 0.585971 0.785545 0.395938 0.250000
-0.022936 0.017065 0.033654 -0.198889 0.585971 0.785545 0.404762 0.375000
0.004575 0.030547 0.030562 -0.172698 0.541122 0.823020 0.524771 0.250000
-0.022936 0.017065 0.033654 -0.172698 0.541122 0.823020 0.404762 0.375000
0.007497 0.017119 0.040004 -0.172698 0.541122 0.823020 0.529451 0.375000
0.024828 0.030327 0.018723 0.415097 0.582012 0.699254 0.645937 0.250000
0.004575 0.030547 0.030562 0.415097 0.582012 0.699254 0.524771 0.250000
0.007497 0.017119 0.040004 0.415097 0.582012 0.699254 0.529451 0.375000
0.024828 0.030327 0.018723 0.463113 0.533134 0.708021 0.645937 0.250000
0.007497 0.017119 0.040004 0.463113 0.533134 0.708021 0.529451 0.375000
0.033654 0.017065 0.022936 0.463113 0.533134 0.708021 0.654761 0.375000
0.030562 0.030547 -0.004575 0.785552 0.585963 0.198884 0.774771 0.250000
0.024828 0.030327 0.018723 0.785552 0.585963 0.198884 0.645937 0.250000
0.033654 0.017065 0.022936 0.785552 0.585963 0.198884 0.654761 0.375000
0.030562 0.030547 -0.004575 0.823020 0.541123 0.172698 0.774771 0.250000
0.033654 0.017065 0.022936 0.823020 0.541123 0.172698 0.654761 0.375000
0.040004 0.017119 -0.007497 0.823020 0.541123 0.172698 0.779451 0.375000
0.018722 0.030327 -0.024828 0.699250 0.582012 -0.415104 0.895938 0.250000
0.030562 0.030547 -0.004575 0.699250 0.582012 -0.415104 0.774771 0.250000
0.040004 0.017119 -0.007497 0.699250 0.582012 -0.415104 0.779451 0.375000
0.018722 0.030327 -0.024828 0.708016 0.533144 -0.463110 0.895938 0.250000
0.040004 0.017119 -0.007497 0.708016 0.533144 -0.463110 0.779451 0.375000
0.022936 0.017065 -0.033654 0.708016 0.533144 -0.463110 0.904761 0.375000
-0.004575 0.030547 -0.030562 0.198884 0.585961 -0.785554 1.000000 0.250000
0.018722 0.030327 -0.024828 0.198884 0.585961 -0.785554 0.895938 0.250000
0.022936 0.017065 -0.033654 0.198884 0.585961 -0.785554 0.904761 0.375000
-0.004575 0.030547 -0.030562 0.172699 0.541123 -0.823019 1.000000 0.250000
0.022936 0.017065 -0.033654 0.172699 0.541123 -0.823019 0.904761 0.375000
-0.007497 0.017119 -0.040004 0.172699 0.541123 -0.823019 1.000000 0.375000
-0.013027 0.039044 -0.006553 -0.145498 0.915456 -0.375194 0.178688 0.125000
0.003708 0.041196 -0.007792 -0.145498 0.915456 -0.375194 0.044408 0.072368
-0.004575 0.030547 -0.030562 -0.145498 0.915456 -0.375194 0.024770 0.250000
-0.013027 0.039044 -0.006553 -0.242544 0.884551 -0.398424 0.178688 0.125000
-0.004575 0.030547 -0.030562 -0.242544 0.884551 -0.398424 0.024770 0.250000
-0.024828 0.030327 -0.018723 -0.242544 0.884551 -0.398424 0.145937 0.250000
-0.024828 0.030327 -0.018723 -0.498295 0.857090 -0.130759 0.145937 0.250000
-0.030562 0.030547 0.004575 -0.498295 0.857090 -0.130759 0.274771 0.250000
-0.013027 0.039044 -0.006553 -0.498295 0.857090 -0.130759 0.178688 0.125000
-0.006553 0.039044 0.013027 -0.369025 0.921373 0.122030 0.428688 0.125000
-0.013027 0.039044 -0.006553 -0.369025 0.921373 0.122030 0.178688 0.125000
-0.030562 0.030547 0.004575 -0.369025 0.921373 0.122030 0.274771 0.250000
-0.006553 0.039044 0.013027 -0.398424 0.884549 0.242551 0.428688 0.125000
-0.030562 0.030547 0.004575 -0.398424 0.884549 0.242551 0.274771 0.250000
-0.018722 0.030327 0.024828 -0.398424 0.884549 0.242551 0.395938 0.250000
-0.018722 0.030327 0.024828 -0.130763 0.857088 0.498299 0.395938 0.250000
0.004575 0.030547 0.030562 -0.130763 0.857088 0.498299 0.524771 0.250000
-0.006553 0.039044 0.013027 -0.130763 0.857088 0.498299 0.428688 0.125000
0.013027 0.039044 0.006553 0.122030 0.921373 0.369026 0.678688 0.125000
-0.006553 0.039044 0.013027 0.122030 0.921373 0.369026 0.428688 0.125000
0.004575 0.030547 0.030562 0.122030 0.921373 0.369026 0.524771 0.250000
0.013027 0.039044 0.006553 0.242542 0.884552 0.398423 0.678688 0.125000
0.004575 0.030547 0.030562 0.242542 0.884552 0.398423 0.524771 0.250000
0.024828 0.030327 0.018723 0.242542 0.884552 0.398423 0.645937 0.250000
0.024828 0.030327 0.018723 0.498295 0.857091 0.130758 0.645937 0.250000
0.030562 0.030547 -0.004575 0.498295 0.857091 0.130758 0.774771 0.250000
0.013027 0.039044 0.006553 0.498295 0.857091 0.130758 0.678688 0.125000
0.003708 0.041196 -0.007792 0.377561 0.919743 -0.107332 0.871996 0.072368
0.013027 0.039044 0.006553 0.377561 0.919743 -0.107332 0.678688 0.125000
0.030562 0.030547 -0.004575 0.377561 0.919743 -0.107332 0.774771 0.250000
0.003708 0.041196 -0.007792 0.382458 0.894029 -0.233319 0.871996 0.072368
0.030562 0.030547 -0.004575 0.382458 0.894029 -0.233319 0.774771 0.250000
0.018722 0.030327 -0.024828 0.382458 0.894029 -0.233319 0.895938 0.250000
0.018722 0.030327 -0.024828 0.120627 0.881668 -0.456192 0.895938 0.250000
-0.004575 0.030547 -0.030562 0.120627 0.881668 -0.456192 1.000000 0.250000
0.003708 0.041196 -0.007792 0.120627 0.881668 -0.456192 0.871996 0.072368
0.003708 0.041196 -0.007792 -0.124426 0.991375 0.041147 0.312500 0.000000
-0.013027 0.039044 -0.006553 -0.124426 0.991375 0.041147 0.178688 0.125000
-0.006553 0.039044 0.013027 -0.124426 0.991375 0.041147 0.428688 0.125000
0.003708 0.041196 -0.007792 0.040492 0.991648 0.122451 0.562500 0.000000
-0.006553 0.039044 0.013027 0.040492 0.991648 0.122451 0.428688 0.125000
0.013027 0.039044 0.006553 0.040492 0.991648 0.122451 0.678688 0.125000
3 0 1 2
3 3 4 5
3 6 7 8
3 9 10 11
3 12 13 14
3 15 16 17
3 18 19 20
3 21 22 23
3 24 25 26
3 27 28 29
3 30 31 32
3 33 34 35
3 36 37 38
3 39 40 41
3 42 43 44
3 45 46 47
3 48 49 50
3 51 52 53
3 54 55 56
3 57 58 59
3 60 61 62
3 63 64 65
3 66 67 68
3 69 70 71
3 72 73 74
3 75 76 77
3 78 79 80
3 81 82 83
3 84 85 86
3 87 88 89
3 90 91 92
3 93 94 95
3 96 97 98
3 99 100 101
3 102 103 104
3 105 106 107
3 108 109 110
3 111 112 113
3 114 115 116
3 117 118 119
3 120 121 122
3 123 124 125
3 126 127 128
3 129 130 131
3 132 133 134
3 135 136 137
3 138 139 140
3 141 142 143
3 144 145 146
3 147 148 149
3 150 151 152
3 153 154 155
3 156 157 158
3 159 160 161
3 162 163 164
3 165 166 167
3 168 169 170
3 171 172 173
3 174 175 176
3 177 178 179
3 180 181 182
3 183 184 185
3 186 187 188
3 189 190 191
3 192 193 194
3 195 196 197
3 198 199 200
3 201 202 203
3 204 205 206
3 207 208 209
3 210 211 212
3 213 214 215
3 216 217 218
3 219 220 221
3 222 223 224
3 225 226 227
3 228 229 230
3 231 232 233
3 234 235 236
3 237 238 239
3 240 241 242
3 243 244 245
3 246 247 248
3 249 250 251
3 252 253 254
3 255 256 257
3 258 259 260
3 261 262 263
3 264 265 266
3 267 268 269
3 270 271 272
3 273 274 275
3 276 277 278
3 279 280 281
3 282 283 284
3 285 286 287
