ply
format ascii 1.0
comment Created by Blender 2.69 (sub 0) - www.blender.org, source file: ''
element vertex 312
property float x
property float y
property float z
property float nx
property float ny
property float nz
property float s
property float t
element face 104
property list uchar uint vertex_indices
end_header
0.004580 0.004172 0.000047 -0.064611 0.996853 -0.045922 0.054962 0.679534
0.014860 0.004823 -0.000286 -0.064611 0.996853 -0.045922 0.007349 0.516592
0.013412 0.004516 -0.004896 -0.064611 0.996853 -0.045922 0.109247 0.482258
0.004580 0.004172 0.000047 -0.149041 0.968652 -0.198744 0.054962 0.679534
0.013412 0.004516 -0.004896 -0.149041 0.968652 -0.198744 0.109247 0.482258
0.004865 0.003219 -0.004811 -0.149041 0.968652 -0.198744 0.151163 0.652842
0.014860 0.004823 -0.000286 0.892040 0.425801 0.151522 0.444973 0.078224
0.018121 -0.002218 0.000301 0.892040 0.425801 0.151522 0.467584 0.236900
0.017527 0.001452 -0.006517 0.892040 0.425801 0.151522 0.333423 0.155689
-0.001258 0.000373 0.000205 -0.836472 0.061944 0.544498 0.472909 0.863867
-0.000250 -0.007188 0.002614 -0.836472 0.061944 0.544498 0.523060 0.729243
0.002950 -0.001210 0.006850 -0.836472 0.061944 0.544498 0.622078 0.861803
0.018121 -0.002218 0.000301 0.974076 0.218309 0.059296 0.467584 0.236900
0.016822 0.002453 0.004435 0.974076 0.218309 0.059296 0.545007 0.141550
0.017584 -0.001925 0.008046 0.974076 0.218309 0.059296 0.624252 0.240007
0.017033 -0.008203 0.003884 0.987229 -0.153044 0.044228 0.545604 0.362086
0.017232 -0.008790 -0.002600 0.987229 -0.153044 0.044228 0.412199 0.365779
0.018121 -0.002218 0.000301 0.987229 -0.153044 0.044228 0.467584 0.236900
0.017033 -0.008203 0.003884 0.988026 -0.135587 0.073629 0.545604 0.362086
0.018121 -0.002218 0.000301 0.988026 -0.135587 0.073629 0.467584 0.236900
0.017584 -0.001925 0.008046 0.988026 -0.135587 0.073629 0.624252 0.240007
0.002950 -0.001210 0.006850 -0.189230 -0.498277 0.846116 0.680073 0.679470
-0.000250 -0.007188 0.002614 -0.189230 -0.498277 0.846116 0.523060 0.729243
0.003343 -0.007199 0.003411 -0.189230 -0.498277 0.846116 0.539326 0.657494
0.002950 -0.001210 0.006850 -0.570924 -0.436679 0.695239 0.680073 0.679470
0.003343 -0.007199 0.003411 -0.570924 -0.436679 0.695239 0.539326 0.657494
0.004519 -0.002146 0.007550 -0.570924 -0.436679 0.695239 0.669740 0.641788
-0.000250 -0.007188 0.002614 -0.026983 -0.993862 0.107289 0.523060 0.729243
0.002857 -0.007568 -0.000122 -0.026983 -0.993862 0.107289 0.466292 0.664461
0.003343 -0.007199 0.003411 -0.026983 -0.993862 0.107289 0.539326 0.657494
0.000381 -0.006623 -0.004256 -0.332845 -0.271146 -0.903158 0.383459 0.732016
0.002869 -0.000353 -0.007055 -0.332845 -0.271146 -0.903158 0.241472 0.687551
0.004749 -0.001414 -0.007430 -0.332845 -0.271146 -0.903158 0.261034 0.643954
0.000381 -0.006623 -0.004256 0.042442 -0.545552 -0.837001 0.383459 0.732016
0.004749 -0.001414 -0.007430 0.042442 -0.545552 -0.837001 0.261034 0.643954
0.003461 -0.006965 -0.003878 0.042442 -0.545552 -0.837001 0.393158 0.657882
0.002869 -0.000353 -0.007055 0.038596 0.516030 -0.855700 0.241472 0.687551
0.004865 0.003219 -0.004811 0.038596 0.516030 -0.855700 0.151163 0.652842
0.005902 0.001189 -0.005989 0.038596 0.516030 -0.855700 0.195216 0.622896
0.002869 -0.000353 -0.007055 0.080389 0.455266 -0.886719 0.241472 0.687551
0.005902 0.001189 -0.005989 0.080389 0.455266 -0.886719 0.195216 0.622896
0.004749 -0.001414 -0.007430 0.080389 0.455266 -0.886719 0.261034 0.643954
0.004865 0.003219 -0.004811 -0.097063 0.586709 -0.803960 0.151163 0.652842
0.013412 0.004516 -0.004896 -0.097063 0.586709 -0.803960 0.109247 0.482258
0.011922 0.002686 -0.006052 -0.097063 0.586709 -0.803960 0.166230 0.522454
0.004865 0.003219 -0.004811 -0.121455 0.450851 -0.884297 0.151163 0.652842
0.011922 0.002686 -0.006052 -0.121455 0.450851 -0.884297 0.166230 0.522454
0.005902 0.001189 -0.005989 -0.121455 0.450851 -0.884297 0.195216 0.622896
0.013412 0.004516 -0.004896 -0.446560 -0.131726 -0.885004 0.109247 0.482258
0.017527 0.001452 -0.006517 -0.446560 -0.131726 -0.885004 0.156642 0.394849
0.015556 0.002443 -0.005669 -0.446560 -0.131726 -0.885004 0.154832 0.430929
0.013412 0.004516 -0.004896 0.123379 0.456116 -0.881326 0.109247 0.482258
0.015556 0.002443 -0.005669 0.123379 0.456116 -0.881326 0.154832 0.430929
0.011922 0.002686 -0.006052 0.123379 0.456116 -0.881326 0.166230 0.522454
0.017527 0.001452 -0.006517 -0.279437 0.239206 -0.929890 0.156642 0.394849
0.017692 -0.001791 -0.007400 -0.279437 0.239206 -0.929890 0.240571 0.371992
0.015556 0.002443 -0.005669 -0.279437 0.239206 -0.929890 0.154832 0.430929
0.017692 -0.001791 -0.007400 0.241321 -0.559635 -0.792826 0.240571 0.371992
0.017232 -0.008790 -0.002600 0.241321 -0.559635 -0.792826 0.412199 0.365779
0.014588 -0.007974 -0.003980 0.241321 -0.559635 -0.792826 0.384570 0.418830
0.017232 -0.008790 -0.002600 -0.138072 -0.945704 -0.294246 0.412199 0.365779
0.014706 -0.009225 -0.000015 -0.138072 -0.945704 -0.294246 0.466920 0.416063
0.014588 -0.007974 -0.003980 -0.138072 -0.945704 -0.294246 0.384570 0.418830
0.017033 -0.008203 0.003884 0.122445 -0.555870 0.822202 0.545604 0.362086
0.017584 -0.001925 0.008046 0.122445 -0.555870 0.822202 0.692743 0.372313
0.014713 -0.008222 0.004217 0.122445 -0.555870 0.822202 0.548363 0.414450
0.016095 0.002093 0.006647 0.026250 0.464683 0.885088 0.782266 0.424989
0.013241 0.004258 0.005595 0.026250 0.464683 0.885088 0.822374 0.483830
0.010679 0.002239 0.006731 0.026250 0.464683 0.885088 0.765604 0.523056
0.013241 0.004258 0.005595 -0.146920 0.519283 0.841879 0.822374 0.483830
0.004707 0.002979 0.004894 -0.146920 0.519283 0.841879 0.781264 0.654997
0.005900 0.000940 0.006360 -0.146920 0.519283 0.841879 0.735116 0.622269
0.013241 0.004258 0.005595 -0.240365 0.689487 0.683252 0.822374 0.483830
0.005900 0.000940 0.006360 -0.240365 0.689487 0.683252 0.735116 0.622269
0.010679 0.002239 0.006731 -0.240365 0.689487 0.683252 0.765604 0.523056
0.004707 0.002979 0.004894 -0.118023 0.460265 0.879902 0.781264 0.654997
0.002950 -0.001210 0.006850 -0.118023 0.460265 0.879902 0.680073 0.679470
0.004519 -0.002146 0.007550 -0.118023 0.460265 0.879902 0.669740 0.641788
0.004707 0.002979 0.004894 -0.274309 0.450324 0.849684 0.781264 0.654997
0.004519 -0.002146 0.007550 -0.274309 0.450324 0.849684 0.669740 0.641788
0.005900 0.000940 0.006360 -0.274309 0.450324 0.849684 0.735116 0.622269
0.013241 0.004258 0.005595 0.504747 0.810222 0.297942 0.575594 0.062295
0.016095 0.002093 0.006647 0.504747 0.810222 0.297942 0.606981 0.156070
0.016822 0.002453 0.004435 0.504747 0.810222 0.297942 0.545007 0.141550
0.016095 0.002093 0.006647 0.834924 0.429251 0.344450 0.606981 0.156070
0.017584 -0.001925 0.008046 0.834924 0.429251 0.344450 0.624252 0.240007
0.016822 0.002453 0.004435 0.834924 0.429251 0.344450 0.545007 0.141550
0.017692 -0.001791 -0.007400 0.996544 0.064878 -0.051879 0.313444 0.239686
0.017527 0.001452 -0.006517 0.996544 0.064878 -0.051879 0.333423 0.155689
0.018121 -0.002218 0.000301 0.996544 0.064878 -0.051879 0.467584 0.236900
0.017527 0.001452 -0.006517 0.525590 0.821901 -0.219620 0.333423 0.155689
0.013412 0.004516 -0.004896 0.525590 0.821901 -0.219620 0.359088 0.061234
0.014860 0.004823 -0.000286 0.525590 0.821901 -0.219620 0.444973 0.078224
0.004580 0.004172 0.000047 -0.163031 0.957074 0.239644 0.877428 0.684267
0.004707 0.002979 0.004894 -0.163031 0.957074 0.239644 0.781264 0.654997
0.013241 0.004258 0.005595 -0.163031 0.957074 0.239644 0.822374 0.483830
0.004580 0.004172 0.000047 -0.060457 0.995045 0.078938 0.877428 0.684267
0.013241 0.004258 0.005595 -0.060457 0.995045 0.078938 0.822374 0.483830
0.014860 0.004823 -0.000286 -0.060457 0.995045 0.078938 0.923350 0.520839
0.016822 0.002453 0.004435 0.899257 0.402191 -0.171988 0.545007 0.141550
0.018121 -0.002218 0.000301 0.899257 0.402191 -0.171988 0.467584 0.236900
0.014860 0.004823 -0.000286 0.899257 0.402191 -0.171988 0.444973 0.078224
0.000381 -0.006623 -0.004256 -0.981038 -0.163846 -0.103536 0.383459 0.732016
-0.000250 -0.007188 0.002614 -0.981038 -0.163846 -0.103536 0.523060 0.729243
-0.001258 0.000373 0.000205 -0.981038 -0.163846 -0.103536 0.472909 0.863867
0.000381 -0.006623 -0.004256 -0.858261 0.117446 -0.499595 0.383459 0.732016
-0.001258 0.000373 0.000205 -0.858261 0.117446 -0.499595 0.472909 0.863867
0.002869 -0.000353 -0.007055 -0.858261 0.117446 -0.499595 0.316283 0.877281
0.017232 -0.008790 -0.002600 0.992351 -0.107211 -0.061194 0.412199 0.365779
0.017692 -0.001791 -0.007400 0.992351 -0.107211 -0.061194 0.313444 0.239686
0.018121 -0.002218 0.000301 0.992351 -0.107211 -0.061194 0.467584 0.236900
-0.000250 -0.007188 0.002614 -0.098713 -0.990993 -0.090486 0.523060 0.729243
0.000381 -0.006623 -0.004256 -0.098713 -0.990993 -0.090486 0.383459 0.732016
0.003461 -0.006965 -0.003878 -0.098713 -0.990993 -0.090486 0.393158 0.657882
-0.000250 -0.007188 0.002614 -0.287928 -0.937214 -0.196791 0.523060 0.729243
0.003461 -0.006965 -0.003878 -0.287928 -0.937214 -0.196791 0.393158 0.657882
0.002857 -0.007568 -0.000122 -0.287928 -0.937214 -0.196791 0.466292 0.664461
0.017033 -0.008203 0.003884 0.040969 -0.972219 0.230460 0.545604 0.362086
0.014713 -0.008222 0.004217 0.040969 -0.972219 0.230460 0.548363 0.414450
0.014706 -0.009225 -0.000015 0.040969 -0.972219 0.230460 0.466920 0.416063
0.017033 -0.008203 0.003884 0.262629 -0.960206 0.095032 0.545604 0.362086
0.014706 -0.009225 -0.000015 0.262629 -0.960206 0.095032 0.466920 0.416063
0.017232 -0.008790 -0.002600 0.262629 -0.960206 0.095032 0.412199 0.365779
0.014860 0.004823 -0.000286 0.494380 0.841742 0.216933 0.444973 0.078224
0.013241 0.004258 0.005595 0.494380 0.841742 0.216933 0.575594 0.062295
0.016822 0.002453 0.004435 0.494380 0.841742 0.216933 0.545007 0.141550
0.004707 0.002979 0.004894 -0.528377 0.821146 0.215724 0.579969 0.962303
0.004580 0.004172 0.000047 -0.528377 0.821146 0.215724 0.472366 0.989387
-0.001258 0.000373 0.000205 -0.528377 0.821146 0.215724 0.472909 0.863867
0.004707 0.002979 0.004894 -0.655474 0.527211 0.540743 0.579969 0.962303
-0.001258 0.000373 0.000205 -0.655474 0.527211 0.540743 0.472909 0.863867
0.002950 -0.001210 0.006850 -0.655474 0.527211 0.540743 0.622078 0.861803
-0.001258 0.000373 0.000205 -0.538788 0.820166 -0.192444 0.472909 0.863867
0.004580 0.004172 0.000047 -0.538788 0.820166 -0.192444 0.472366 0.989387
0.004865 0.003219 -0.004811 -0.538788 0.820166 -0.192444 0.362383 0.970888
-0.001258 0.000373 0.000205 -0.645599 0.631043 -0.430101 0.472909 0.863867
0.004865 0.003219 -0.004811 -0.645599 0.631043 -0.430101 0.362383 0.970888
0.002869 -0.000353 -0.007055 -0.645599 0.631043 -0.430101 0.316283 0.877281
-0.001294 -0.000010 -0.005240 0.129125 -0.031944 -0.991114 0.696737 0.185019
0.003125 0.000718 -0.004687 0.129125 -0.031944 -0.991114 0.647268 0.282828
0.001519 -0.002498 -0.004793 0.129125 -0.031944 -0.991114 0.642338 0.122920
0.003125 0.000718 -0.004687 0.068263 0.306250 -0.949501 0.647268 0.282828
-0.001294 -0.000010 -0.005240 0.068263 0.306250 -0.949501 0.696737 0.185019
-0.000472 0.003318 -0.004107 0.068263 0.306250 -0.949501 0.726225 0.251003
0.001519 -0.002498 -0.004793 -0.269486 -0.456758 -0.847791 0.642338 0.122920
-0.003491 -0.003293 -0.002772 -0.269486 -0.456758 -0.847791 0.754570 0.107936
-0.001294 -0.000010 -0.005240 -0.269486 -0.456758 -0.847791 0.696737 0.185019
-0.001294 -0.000010 -0.005240 -0.637242 -0.142674 -0.757342 0.696737 0.185019
-0.003491 -0.003293 -0.002772 -0.637242 -0.142674 -0.757342 0.754570 0.107936
-0.003533 0.001666 -0.003671 -0.637242 -0.142674 -0.757342 0.753071 0.196629
-0.003533 0.001666 -0.003671 -0.326265 0.375730 -0.867398 0.753071 0.196629
-0.000472 0.003318 -0.004107 -0.326265 0.375730 -0.867398 0.726225 0.251003
-0.001294 -0.000010 -0.005240 -0.326265 0.375730 -0.867398 0.696737 0.185019
-0.000472 0.003318 -0.004107 0.199475 0.468020 -0.860911 0.726225 0.251003
0.004057 0.002533 -0.003485 0.199475 0.468020 -0.860911 0.708951 0.345939
0.003125 0.000718 -0.004687 0.199475 0.468020 -0.860911 0.647268 0.282828
0.001519 -0.002498 -0.004793 -0.248961 -0.515428 -0.819971 0.642338 0.122920
0.000587 -0.004352 -0.003345 -0.248961 -0.515428 -0.819971 0.702035 0.057575
-0.003491 -0.003293 -0.002772 -0.248961 -0.515428 -0.819971 0.754570 0.107936
-0.005305 0.000152 -0.001246 -0.763874 -0.121350 -0.633854 0.790405 0.162412
-0.003533 0.001666 -0.003671 -0.763874 -0.121350 -0.633854 0.753071 0.196629
-0.003491 -0.003293 -0.002772 -0.763874 -0.121350 -0.633854 0.754570 0.107936
-0.003262 0.004210 -0.001128 -0.835473 0.430472 -0.341583 0.792507 0.236335
-0.003533 0.001666 -0.003671 -0.835473 0.430472 -0.341583 0.753071 0.196629
-0.005305 0.000152 -0.001246 -0.835473 0.430472 -0.341583 0.790405 0.162412
-0.003262 0.004210 -0.001128 -0.441687 0.657448 -0.610470 0.792507 0.236335
-0.000472 0.003318 -0.004107 -0.441687 0.657448 -0.610470 0.726225 0.251003
-0.003533 0.001666 -0.003671 -0.441687 0.657448 -0.610470 0.753071 0.196629
-0.000472 0.003318 -0.004107 -0.166976 0.890619 -0.422985 0.726225 0.251003
-0.003262 0.004210 -0.001128 -0.166976 0.890619 -0.422985 0.792507 0.236335
0.001454 0.005156 -0.000998 -0.166976 0.890619 -0.422985 0.789383 0.315904
0.001454 0.005156 -0.000998 0.215962 0.776046 -0.592547 0.789383 0.315904
0.004057 0.002533 -0.003485 0.215962 0.776046 -0.592547 0.708951 0.345939
-0.000472 0.003318 -0.004107 0.215962 0.776046 -0.592547 0.726225 0.251003
0.001454 0.005156 -0.000998 0.594258 0.779069 -0.199773 0.789383 0.315904
0.004375 0.003260 0.000296 0.594258 0.779069 -0.199773 0.818539 0.381984
0.004057 0.002533 -0.003485 0.594258 0.779069 -0.199773 0.708951 0.345939
-0.002380 -0.005078 0.000139 -0.282958 -0.862002 -0.420581 0.813084 0.065714
-0.003491 -0.003293 -0.002772 -0.282958 -0.862002 -0.420581 0.754570 0.107936
0.000587 -0.004352 -0.003345 -0.282958 -0.862002 -0.420581 0.702035 0.057575
-0.002380 -0.005078 0.000139 -0.091984 -0.956300 -0.277540 0.813084 0.065714
0.000587 -0.004352 -0.003345 -0.091984 -0.956300 -0.277540 0.702035 0.057575
0.000109 -0.005281 0.000016 -0.091984 -0.956300 -0.277540 0.809860 0.015451
-0.004791 -0.002516 0.001286 -0.748476 -0.653143 -0.114837 0.832405 0.119279
-0.003491 -0.003293 -0.002772 -0.748476 -0.653143 -0.114837 0.754570 0.107936
-0.002380 -0.005078 0.000139 -0.748476 -0.653143 -0.114837 0.813084 0.065714
-0.004791 -0.002516 0.001286 -0.900126 -0.378291 -0.216029 0.832405 0.119279
-0.005305 0.000152 -0.001246 -0.900126 -0.378291 -0.216029 0.790405 0.162412
-0.003491 -0.003293 -0.002772 -0.900126 -0.378291 -0.216029 0.754570 0.107936
-0.004997 0.000394 0.002425 -0.990362 -0.105191 0.090104 0.849316 0.172404
-0.005305 0.000152 -0.001246 -0.990362 -0.105191 0.090104 0.790405 0.162412
-0.004791 -0.002516 0.001286 -0.990362 -0.105191 0.090104 0.832405 0.119279
-0.003552 0.003672 0.002377 -0.893134 0.449765 -0.004834 0.845068 0.226121
-0.003262 0.004210 -0.001128 -0.893134 0.449765 -0.004834 0.792507 0.236335
-0.005305 0.000152 -0.001246 -0.893134 0.449765 -0.004834 0.790405 0.162412
-0.003552 0.003672 0.002377 -0.913615 0.403488 0.050045 0.845068 0.226121
-0.005305 0.000152 -0.001246 -0.913615 0.403488 0.050045 0.790405 0.162412
-0.004997 0.000394 0.002425 -0.913615 0.403488 0.050045 0.849316 0.172404
0.001297 0.005176 0.001571 -0.196112 0.980384 -0.019662 0.841896 0.311767
0.001454 0.005156 -0.000998 -0.196112 0.980384 -0.019662 0.789383 0.315904
-0.003262 0.004210 -0.001128 -0.196112 0.980384 -0.019662 0.792507 0.236335
0.001297 0.005176 0.001571 -0.275177 0.953426 0.123519 0.841896 0.311767
-0.003262 0.004210 -0.001128 -0.275177 0.953426 0.123519 0.792507 0.236335
-0.003552 0.003672 0.002377 -0.275177 0.953426 0.123519 0.845068 0.226121
0.001454 0.005156 -0.000998 0.536113 0.843741 0.026137 0.789383 0.315904
0.001297 0.005176 0.001571 0.536113 0.843741 0.026137 0.841896 0.311767
0.004375 0.003260 0.000296 0.536113 0.843741 0.026137 0.818539 0.381984
-0.002881 -0.003294 0.003583 -0.632481 -0.721538 0.281691 0.884367 0.107997
-0.004791 -0.002516 0.001286 -0.632481 -0.721538 0.281691 0.832405 0.119279
-0.002380 -0.005078 0.000139 -0.632481 -0.721538 0.281691 0.813084 0.065714
-0.002881 -0.003294 0.003583 -0.783044 -0.273820 0.558449 0.884367 0.107997
-0.004997 0.000394 0.002425 -0.783044 -0.273820 0.558449 0.849316 0.172404
-0.004791 -0.002516 0.001286 -0.783044 -0.273820 0.558449 0.832405 0.119279
-0.003552 0.003672 0.002377 -0.190015 0.863209 0.467723 0.845068 0.226121
-0.000591 0.003109 0.004619 -0.190015 0.863209 0.467723 0.898857 0.245750
0.001297 0.005176 0.001571 -0.190015 0.863209 0.467723 0.841896 0.311767
0.003950 0.002359 0.004039 0.204132 0.746789 0.632958 0.925259 0.336563
0.001297 0.005176 0.001571 0.204132 0.746789 0.632958 0.841896 0.311767
-0.000591 0.003109 0.004619 0.204132 0.746789 0.632958 0.898857 0.245750
0.003950 0.002359 0.004039 0.584552 0.771215 0.252043 0.925259 0.336563
0.004375 0.003260 0.000296 0.584552 0.771215 0.252043 0.818539 0.381984
0.001297 0.005176 0.001571 0.584552 0.771215 0.252043 0.841896 0.311767
0.000476 -0.004519 0.003432 -0.297414 -0.864804 0.404548 0.918831 0.056724
-0.002881 -0.003294 0.003583 -0.297414 -0.864804 0.404548 0.884367 0.107997
-0.002380 -0.005078 0.000139 -0.297414 -0.864804 0.404548 0.813084 0.065714
0.000476 -0.004519 0.003432 -0.068605 -0.972102 0.224302 0.918831 0.056724
-0.002380 -0.005078 0.000139 -0.068605 -0.972102 0.224302 0.813084 0.065714
0.000109 -0.005281 0.000016 -0.068605 -0.972102 0.224302 0.809860 0.015451
-0.002881 -0.003294 0.003583 -0.669398 -0.155846 0.726373 0.884367 0.107997
-0.001417 -0.000271 0.005581 -0.669398 -0.155846 0.726373 0.924594 0.180461
-0.004997 0.000394 0.002425 -0.669398 -0.155846 0.726373 0.849316 0.172404
-0.004997 0.000394 0.002425 -0.605725 0.277865 0.745579 0.849316 0.172404
-0.001417 -0.000271 0.005581 -0.605725 0.277865 0.745579 0.924594 0.180461
-0.003552 0.003672 0.002377 -0.605725 0.277865 0.745579 0.845068 0.226121
-0.000591 0.003109 0.004619 -0.522611 0.349074 0.777834 0.898857 0.245750
-0.003552 0.003672 0.002377 -0.522611 0.349074 0.777834 0.845068 0.226121
-0.001417 -0.000271 0.005581 -0.522611 0.349074 0.777834 0.924594 0.180461
0.000476 -0.004519 0.003432 -0.182786 -0.597208 0.780981 0.918831 0.056724
0.001359 -0.002740 0.005000 -0.182786 -0.597208 0.780981 0.979849 0.124191
-0.002881 -0.003294 0.003583 -0.182786 -0.597208 0.780981 0.884367 0.107997
-0.001417 -0.000271 0.005581 0.060304 0.259496 0.963860 0.924594 0.180461
0.002965 0.000476 0.005105 0.060304 0.259496 0.963860 0.982000 0.266344
-0.000591 0.003109 0.004619 0.060304 0.259496 0.963860 0.898857 0.245750
-0.001417 -0.000271 0.005581 0.123193 -0.093956 0.987925 0.924594 0.180461
0.001359 -0.002740 0.005000 0.123193 -0.093956 0.987925 0.979849 0.124191
0.002965 0.000476 0.005105 0.123193 -0.093956 0.987925 0.982000 0.266344
-0.002881 -0.003294 0.003583 -0.227235 -0.457853 0.859497 0.884367 0.107997
0.001359 -0.002740 0.005000 -0.227235 -0.457853 0.859497 0.979849 0.124191
-0.001417 -0.000271 0.005581 -0.227235 -0.457853 0.859497 0.924594 0.180461
-0.000591 0.003109 0.004619 0.181883 0.410734 0.893429 0.898857 0.245750
0.002965 0.000476 0.005105 0.181883 0.410734 0.893429 0.982000 0.266344
0.003950 0.002359 0.004039 0.181883 0.410734 0.893429 0.925259 0.336563
0.004519 -0.002146 0.007550 -0.064209 -0.623412 0.779253 0.669740 0.641788
0.003343 -0.007199 0.003411 -0.064209 -0.623412 0.779253 0.539326 0.657494
0.010282 -0.007542 0.003709 -0.064209 -0.623412 0.779253 0.543117 0.513486
0.004519 -0.002146 0.007550 0.119783 -0.487748 0.864728 0.669740 0.641788
0.010282 -0.007542 0.003709 0.119783 -0.487748 0.864728 0.543117 0.513486
0.010402 -0.001460 0.007122 0.119783 -0.487748 0.864728 0.683922 0.519953
0.003343 -0.007199 0.003411 -0.053772 -0.992384 0.110822 0.539326 0.657494
0.002857 -0.007568 -0.000122 -0.053772 -0.992384 0.110822 0.466292 0.664461
0.010282 -0.007542 0.003709 -0.053772 -0.992384 0.110822 0.543117 0.513486
0.003461 -0.006965 -0.003878 0.116970 -0.554486 -0.823932 0.393158 0.657882
0.004749 -0.001414 -0.007430 0.116970 -0.554486 -0.823932 0.261034 0.643954
0.010629 -0.001117 -0.006795 0.116970 -0.554486 -0.823932 0.247968 0.520242
0.003461 -0.006965 -0.003878 -0.044867 -0.401427 -0.914791 0.393158 0.657882
0.010629 -0.001117 -0.006795 -0.044867 -0.401427 -0.914791 0.247968 0.520242
0.014588 -0.007974 -0.003980 -0.044867 -0.401427 -0.914791 0.384570 0.418830
0.004749 -0.001414 -0.007430 -0.139708 0.526195 -0.838809 0.261034 0.643954
0.005902 0.001189 -0.005989 -0.139708 0.526195 -0.838809 0.195216 0.622896
0.011922 0.002686 -0.006052 -0.139708 0.526195 -0.838809 0.166230 0.522454
0.004749 -0.001414 -0.007430 0.098048 0.158529 -0.982474 0.261034 0.643954
0.011922 0.002686 -0.006052 0.098048 0.158529 -0.982474 0.166230 0.522454
0.010629 -0.001117 -0.006795 0.098048 0.158529 -0.982474 0.247968 0.520242
0.005900 0.000940 0.006360 0.027463 0.348880 0.936765 0.735116 0.622269
0.004519 -0.002146 0.007550 0.027463 0.348880 0.936765 0.669740 0.641788
0.010402 -0.001460 0.007122 0.027463 0.348880 0.936765 0.683922 0.519953
0.005900 0.000940 0.006360 -0.107259 0.112462 0.987850 0.735116 0.622269
0.010402 -0.001460 0.007122 -0.107259 0.112462 0.987850 0.683922 0.519953
0.010679 0.002239 0.006731 -0.107259 0.112462 0.987850 0.765604 0.523056
0.010402 -0.001460 0.007122 -0.172187 -0.479574 0.860442 0.683922 0.519953
0.010282 -0.007542 0.003709 -0.172187 -0.479574 0.860442 0.543117 0.513486
0.014713 -0.008222 0.004217 -0.172187 -0.479574 0.860442 0.548363 0.414450
0.010402 -0.001460 0.007122 -0.142437 -0.466090 0.873196 0.683922 0.519953
0.014713 -0.008222 0.004217 -0.142437 -0.466090 0.873196 0.548363 0.414450
0.017584 -0.001925 0.008046 -0.142437 -0.466090 0.873196 0.692743 0.372313
0.010282 -0.007542 0.003709 -0.173048 -0.958277 0.227506 0.543117 0.513486
0.014706 -0.009225 -0.000015 -0.173048 -0.958277 0.227506 0.466920 0.416063
0.014713 -0.008222 0.004217 -0.173048 -0.958277 0.227506 0.548363 0.414450
0.014588 -0.007974 -0.003980 -0.117935 -0.434609 -0.892864 0.384570 0.418830
0.010629 -0.001117 -0.006795 -0.117935 -0.434609 -0.892864 0.247968 0.520242
0.017692 -0.001791 -0.007400 -0.117935 -0.434609 -0.892864 0.240571 0.371992
0.010629 -0.001117 -0.006795 0.113692 0.153052 -0.981656 0.247968 0.520242
0.011922 0.002686 -0.006052 0.113692 0.153052 -0.981656 0.166230 0.522454
0.015556 0.002443 -0.005669 0.113692 0.153052 -0.981656 0.154832 0.430929
0.010629 -0.001117 -0.006795 -0.045757 0.358196 -0.932525 0.247968 0.520242
0.015556 0.002443 -0.005669 -0.045757 0.358196 -0.932525 0.154832 0.430929
0.017692 -0.001791 -0.007400 -0.045757 0.358196 -0.932525 0.240571 0.371992
0.010679 0.002239 0.006731 -0.119480 0.113217 0.986360 0.765604 0.523056
0.010402 -0.001460 0.007122 -0.119480 0.113217 0.986360 0.683922 0.519953
0.017584 -0.001925 0.008046 -0.119480 0.113217 0.986360 0.692743 0.372313
0.010679 0.002239 0.006731 0.023682 0.336443 0.941406 0.765604 0.523056
0.017584 -0.001925 0.008046 0.023682 0.336443 0.941406 0.692743 0.372313
0.016095 0.002093 0.006647 0.023682 0.336443 0.941406 0.782266 0.424989
0.003461 -0.006965 -0.003878 -0.090310 -0.995899 0.005398 0.393158 0.657882
0.014588 -0.007974 -0.003980 -0.090310 -0.995899 0.005398 0.384570 0.418830
0.010282 -0.007542 0.003709 -0.090310 -0.995899 0.005398 0.543117 0.513486
0.003461 -0.006965 -0.003878 0.078549 -0.986206 -0.145696 0.393158 0.657882
0.010282 -0.007542 0.003709 0.078549 -0.986206 -0.145696 0.543117 0.513486
0.002857 -0.007568 -0.000122 0.078549 -0.986206 -0.145696 0.466292 0.664461
0.014588 -0.007974 -0.003980 -0.517151 -0.820529 -0.243488 0.384570 0.418830
0.014706 -0.009225 -0.000015 -0.517151 -0.820529 -0.243488 0.466920 0.416063
0.010282 -0.007542 0.003709 -0.517151 -0.820529 -0.243488 0.543117 0.513486
3 0 1 2
3 3 4 5
3 6 7 8
3 9 10 11
3 12 13 14
3 15 16 17
3 18 19 20
3 21 22 23
3 24 25 26
3 27 28 29
3 30 31 32
3 33 34 35
3 36 37 38
3 39 40 41
3 42 43 44
3 45 46 47
3 48 49 50
3 51 52 53
3 54 55 56
3 57 58 59
3 60 61 62
3 63 64 65
3 66 67 68
3 69 70 71
3 72 73 74
3 75 76 77
3 78 79 80
3 81 82 83
3 84 85 86
3 87 88 89
3 90 91 92
3 93 94 95
3 96 97 98
3 99 100 101
3 102 103 104
3 105 106 107
3 108 109 110
3 111 112 113
3 114 115 116
3 117 118 119
3 120 121 122
3 123 124 125
3 126 127 128
3 129 130 131
3 132 133 134
3 135 136 137
3 138 139 140
3 141 142 143
3 144 145 146
3 147 148 149
3 150 151 152
3 153 154 155
3 156 157 158
3 159 160 161
3 162 163 164
3 165 166 167
3 168 169 170
3 171 172 173
3 174 175 176
3 177 178 179
3 180 181 182
3 183 184 185
3 186 187 188
3 189 190 191
3 192 193 194
3 195 196 197
3 198 199 200
3 201 202 203
3 204 205 206
3 207 208 209
3 210 211 212
3 213 214 215
3 216 217 218
3 219 220 221
3 222 223 224
3 225 226 227
3 228 229 230
3 231 232 233
3 234 235 236
3 237 238 239
3 240 241 242
3 243 244 245
3 246 247 248
3 249 250 251
3 252 253 254
3 255 256 257
3 258 259 260
3 261 262 263
3 264 265 266
3 267 268 269
3 270 271 272
3 273 274 275
3 276 277 278
3 279 280 281
3 282 283 284
3 285 286 287
3 288 289 290
3 291 292 293
3 294 295 296
3 297 298 299
3 300 301 302
3 303 304 305
3 306 307 308
3 309 310 311
