ply
format ascii 1.0
comment Created by Blender 2.69 (sub 0) - www.blender.org, source file: ''
element vertex 276
property float x
property float y
property float z
property float nx
property float ny
property float nz
property float s
property float t
element face 92
property list uchar uint vertex_indices
end_header
0.016308 -0.003938 -0.002795 0.360905 -0.538213 -0.761626 0.607178 0.623252
0.012570 -0.005497 -0.003464 0.360905 -0.538213 -0.761626 0.586319 0.704429
0.012277 -0.002201 -0.005933 0.360905 -0.538213 -0.761626 0.502029 0.668843
0.016308 -0.003938 -0.002795 0.332453 -0.576604 -0.746326 0.607178 0.623252
0.012277 -0.002201 -0.005933 0.332453 -0.576604 -0.746326 0.502029 0.668843
0.017086 -0.001444 -0.004375 0.332453 -0.576604 -0.746326 0.574070 0.579353
0.012570 -0.005497 -0.003464 0.384342 -0.923180 0.004417 0.586319 0.704429
0.016308 -0.003938 -0.002795 0.384342 -0.923180 0.004417 0.607178 0.623252
0.016439 -0.003857 0.002713 0.384342 -0.923180 0.004417 0.721058 0.626837
0.012570 -0.005497 -0.003464 0.375608 -0.926715 0.010826 0.586319 0.704429
0.016439 -0.003857 0.002713 0.375608 -0.926715 0.010826 0.721058 0.626837
0.012678 -0.005371 0.003615 0.375608 -0.926715 0.010826 0.737278 0.708731
0.016439 -0.003857 0.002713 0.486166 -0.380106 0.786869 0.721058 0.626837
0.017333 -0.000206 0.003925 0.486166 -0.380106 0.786869 0.759856 0.567693
0.012484 -0.001971 0.006068 0.486166 -0.380106 0.786869 0.824790 0.679347
0.016439 -0.003857 0.002713 0.392130 -0.523352 0.756530 0.721058 0.626837
0.012484 -0.001971 0.006068 0.392130 -0.523352 0.756530 0.824790 0.679347
0.012678 -0.005371 0.003615 0.392130 -0.523352 0.756530 0.737278 0.708731
0.017333 -0.000206 0.003925 0.349351 0.161081 0.923042 0.759856 0.567693
0.011199 0.000001 0.006210 0.349351 0.161081 0.923042 0.876046 0.683437
0.012484 -0.001971 0.006068 0.349351 0.161081 0.923042 0.824790 0.679347
0.015905 0.001922 -0.004141 0.666294 0.741635 0.077654 0.567604 0.515404
0.012989 0.003607 0.004789 0.666294 0.741635 0.077654 0.774696 0.446024
0.017333 -0.000206 0.003925 0.666294 0.741635 0.077654 0.759856 0.567693
0.008309 0.004802 0.005229 -0.379069 0.923955 0.051124 0.783148 0.345785
0.002612 0.002953 -0.003588 -0.379069 0.923955 0.051124 0.588547 0.205833
0.002585 0.002493 0.004514 -0.379069 0.923955 0.051124 0.781337 0.210555
0.008062 0.004649 -0.005174 -0.391909 0.652655 -0.648420 0.562823 0.338747
0.005486 0.000923 -0.007368 -0.391909 0.652655 -0.648420 0.486527 0.273690
0.002612 0.002953 -0.003588 -0.391909 0.652655 -0.648420 0.588547 0.205833
0.017333 -0.000206 0.003925 0.939013 0.334940 -0.077905 0.759856 0.567693
0.017086 -0.001444 -0.004375 0.939013 0.334940 -0.077905 0.574070 0.579353
0.015905 0.001922 -0.004141 0.939013 0.334940 -0.077905 0.567604 0.515404
0.016439 -0.003857 0.002713 0.951156 -0.308178 -0.018112 0.721058 0.626837
0.016308 -0.003938 -0.002795 0.951156 -0.308178 -0.018112 0.607178 0.623252
0.017086 -0.001444 -0.004375 0.951156 -0.308178 -0.018112 0.574070 0.579353
0.016439 -0.003857 0.002713 0.970766 -0.239927 0.006914 0.721058 0.626837
0.017086 -0.001444 -0.004375 0.970766 -0.239927 0.006914 0.574070 0.579353
0.017333 -0.000206 0.003925 0.970766 -0.239927 0.006914 0.759856 0.567693
-0.000003 -0.006136 -0.003400 -0.980830 0.193546 0.022619 0.606466 0.021442
0.000186 -0.006044 0.004004 -0.980830 0.193546 0.022619 0.758681 0.025788
0.001011 -0.002178 0.006704 -0.980830 0.193546 0.022619 0.810319 0.103009
-0.000003 -0.006136 -0.003400 -0.974167 0.225633 0.009382 0.606466 0.021442
0.001011 -0.002178 0.006704 -0.974167 0.225633 0.009382 0.810319 0.103009
0.000858 -0.002298 -0.006311 -0.974167 0.225633 0.009382 0.551052 0.096518
0.011199 0.000001 0.006210 0.162798 0.290685 0.942868 0.860630 0.432982
0.012989 0.003607 0.004789 0.162798 0.290685 0.942868 0.774696 0.446024
0.008309 0.004802 0.005229 0.162798 0.290685 0.942868 0.783148 0.345785
0.011199 0.000001 0.006210 0.332077 0.376605 0.864808 0.860630 0.432982
0.008309 0.004802 0.005229 0.332077 0.376605 0.864808 0.783148 0.345785
0.005848 0.001139 0.007769 0.332077 0.376605 0.864808 0.861261 0.285018
0.008062 0.004649 -0.005174 0.245712 0.969135 -0.020084 0.562823 0.338747
0.008309 0.004802 0.005229 0.245712 0.969135 -0.020084 0.783148 0.345785
0.012989 0.003607 0.004789 0.245712 0.969135 -0.020084 0.774696 0.446024
0.008062 0.004649 -0.005174 0.335652 0.939553 -0.067655 0.562823 0.338747
0.012989 0.003607 0.004789 0.335652 0.939553 -0.067655 0.774696 0.446024
0.015905 0.001922 -0.004141 0.335652 0.939553 -0.067655 0.567604 0.515404
0.011083 -0.000176 -0.006146 0.264542 0.346844 -0.899843 0.483031 0.422992
0.005486 0.000923 -0.007368 0.264542 0.346844 -0.899843 0.486527 0.273690
0.008062 0.004649 -0.005174 0.264542 0.346844 -0.899843 0.562823 0.338747
0.011083 -0.000176 -0.006146 0.235579 0.331478 -0.913578 0.483031 0.422992
0.008062 0.004649 -0.005174 0.235579 0.331478 -0.913578 0.562823 0.338747
0.015905 0.001922 -0.004141 0.235579 0.331478 -0.913578 0.567604 0.515404
0.005486 0.000923 -0.007368 -0.518833 0.523708 -0.675679 0.384185 0.793687
0.000858 -0.002298 -0.006311 -0.518833 0.523708 -0.675679 0.460444 0.915408
0.002612 0.002953 -0.003588 -0.518833 0.523708 -0.675679 0.341971 0.892503
0.005848 0.001139 0.007769 -0.354975 0.681983 0.639447 0.861261 0.285018
0.008309 0.004802 0.005229 -0.354975 0.681983 0.639447 0.783148 0.345785
0.002585 0.002493 0.004514 -0.354975 0.681983 0.639447 0.781337 0.210555
0.003172 -0.006367 -0.004003 -0.404310 -0.614380 -0.677548 0.554649 0.904712
0.000858 -0.002298 -0.006311 -0.404310 -0.614380 -0.677548 0.460444 0.915408
0.004646 -0.003354 -0.007615 -0.404310 -0.614380 -0.677548 0.470199 0.834642
0.001011 -0.002178 0.006704 -0.369243 -0.594367 0.714414 0.849056 0.927425
0.003353 -0.006153 0.004608 -0.369243 -0.594367 0.714414 0.755694 0.911229
0.005107 -0.003094 0.008059 -0.369243 -0.594367 0.714414 0.842922 0.846869
0.000858 -0.002298 -0.006311 -0.193492 -0.565115 -0.802001 0.460444 0.915408
0.003172 -0.006367 -0.004003 -0.193492 -0.565115 -0.802001 0.554649 0.904712
-0.000003 -0.006136 -0.003400 -0.193492 -0.565115 -0.802001 0.566183 0.960990
0.000186 -0.006044 0.004004 -0.069921 -0.997452 0.014127 0.738482 0.967252
-0.000003 -0.006136 -0.003400 -0.069921 -0.997452 0.014127 0.566183 0.960990
0.003172 -0.006367 -0.004003 -0.069921 -0.997452 0.014127 0.554649 0.904712
0.000186 -0.006044 0.004004 -0.039205 -0.998902 0.025639 0.738482 0.967252
0.003172 -0.006367 -0.004003 -0.039205 -0.998902 0.025639 0.554649 0.904712
0.003353 -0.006153 0.004608 -0.039205 -0.998902 0.025639 0.755694 0.911229
0.001011 -0.002178 0.006704 -0.175626 -0.538255 0.824280 0.849056 0.927425
0.000186 -0.006044 0.004004 -0.175626 -0.538255 0.824280 0.738482 0.967252
0.003353 -0.006153 0.004608 -0.175626 -0.538255 0.824280 0.755694 0.911229
0.008309 0.004802 0.005229 -0.299082 0.954202 -0.006902 0.783148 0.345785
0.008062 0.004649 -0.005174 -0.299082 0.954202 -0.006902 0.562823 0.338747
0.002612 0.002953 -0.003588 -0.299082 0.954202 -0.006902 0.588547 0.205833
-0.001276 -0.000072 -0.005470 0.226764 -0.128228 -0.965472 0.100957 0.461428
0.002766 0.000658 -0.004617 0.226764 -0.128228 -0.965472 0.054492 0.561529
0.001380 -0.002378 -0.004540 0.226764 -0.128228 -0.965472 0.049729 0.392896
0.002766 0.000658 -0.004617 0.156185 0.250919 -0.955325 0.054492 0.561529
-0.001276 -0.000072 -0.005470 0.156185 0.250919 -0.955325 0.100957 0.461428
0.000180 0.003718 -0.004236 0.156185 0.250919 -0.955325 0.137976 0.548285
0.001380 -0.002378 -0.004540 -0.116310 -0.483737 -0.867451 0.049729 0.392896
-0.002644 -0.003327 -0.003471 -0.116310 -0.483737 -0.867451 0.145147 0.377853
-0.001276 -0.000072 -0.005470 -0.116310 -0.483737 -0.867451 0.100957 0.461428
-0.001276 -0.000072 -0.005470 -0.664919 -0.167426 -0.727909 0.100957 0.461428
-0.002644 -0.003327 -0.003471 -0.664919 -0.167426 -0.727909 0.145147 0.377853
-0.005224 0.000034 -0.001888 -0.664919 -0.167426 -0.727909 0.191445 0.436764
-0.001276 -0.000072 -0.005470 -0.658126 0.181344 -0.730742 0.100957 0.461428
-0.005224 0.000034 -0.001888 -0.658126 0.181344 -0.730742 0.191445 0.436764
-0.003806 0.003348 -0.002342 -0.658126 0.181344 -0.730742 0.186338 0.492675
-0.003806 0.003348 -0.002342 -0.420651 0.422824 -0.802666 0.186338 0.492675
0.000180 0.003718 -0.004236 -0.420651 0.422824 -0.802666 0.137976 0.548285
-0.001276 -0.000072 -0.005470 -0.420651 0.422824 -0.802666 0.100957 0.461428
0.002766 0.000658 -0.004617 0.401343 0.439209 -0.803753 0.054492 0.561529
0.000180 0.003718 -0.004236 0.401343 0.439209 -0.803753 0.137976 0.548285
0.003582 0.002393 -0.003261 0.401343 0.439209 -0.803753 0.119480 0.626575
0.001380 -0.002378 -0.004540 -0.055733 -0.633094 -0.772066 0.049729 0.392896
0.000630 -0.004072 -0.003096 -0.055733 -0.633094 -0.772066 0.112566 0.325189
-0.002644 -0.003327 -0.003471 -0.055733 -0.633094 -0.772066 0.145147 0.377853
-0.004051 -0.003322 -0.001062 -0.516031 -0.802361 -0.299882 0.199088 0.373645
-0.002644 -0.003327 -0.003471 -0.516031 -0.802361 -0.299882 0.145147 0.377853
-0.002209 -0.004999 0.000254 -0.516031 -0.802361 -0.299882 0.226889 0.334573
-0.005224 0.000034 -0.001888 -0.794829 -0.391626 -0.463548 0.191445 0.436764
-0.002644 -0.003327 -0.003471 -0.794829 -0.391626 -0.463548 0.145147 0.377853
-0.004051 -0.003322 -0.001062 -0.794829 -0.391626 -0.463548 0.199088 0.373645
-0.001162 0.005335 -0.001388 -0.344463 0.737497 -0.580899 0.203718 0.555594
0.000180 0.003718 -0.004236 -0.344463 0.737497 -0.580899 0.137976 0.548285
-0.003806 0.003348 -0.002342 -0.344463 0.737497 -0.580899 0.186338 0.492675
-0.001162 0.005335 -0.001388 0.207252 0.889505 -0.407219 0.203718 0.555594
0.002472 0.005064 -0.000130 0.207252 0.889505 -0.407219 0.229931 0.612964
0.000180 0.003718 -0.004236 0.207252 0.889505 -0.407219 0.137976 0.548285
0.002472 0.005064 -0.000130 0.733328 0.623273 -0.271589 0.229931 0.612964
0.004021 0.003238 -0.000137 0.733328 0.623273 -0.271589 0.232257 0.665250
0.003582 0.002393 -0.003261 0.733328 0.623273 -0.271589 0.119480 0.626575
0.002472 0.005064 -0.000130 0.434633 0.755501 -0.490217 0.229931 0.612964
0.003582 0.002393 -0.003261 0.434633 0.755501 -0.490217 0.119480 0.626575
0.000180 0.003718 -0.004236 0.434633 0.755501 -0.490217 0.137976 0.548285
-0.002209 -0.004999 0.000254 -0.162022 -0.907197 -0.388256 0.226889 0.334573
-0.002644 -0.003327 -0.003471 -0.162022 -0.907197 -0.388256 0.145147 0.377853
0.000630 -0.004072 -0.003096 -0.162022 -0.907197 -0.388256 0.112566 0.325189
-0.002209 -0.004999 0.000254 0.050162 -0.972708 -0.226545 0.226889 0.334573
0.000630 -0.004072 -0.003096 0.050162 -0.972708 -0.226545 0.112566 0.325189
0.000340 -0.004824 0.000069 0.050162 -0.972708 -0.226545 0.224005 0.281298
-0.004668 -0.002480 0.001391 -0.698139 -0.712596 0.069343 0.247048 0.390221
-0.004051 -0.003322 -0.001062 -0.698139 -0.712596 0.069343 0.199088 0.373645
-0.002209 -0.004999 0.000254 -0.698139 -0.712596 0.069343 0.226889 0.334573
-0.004668 -0.002480 0.001391 -0.929147 -0.352188 -0.112467 0.247048 0.390221
-0.005224 0.000034 -0.001888 -0.929147 -0.352188 -0.112467 0.191445 0.436764
-0.004051 -0.003322 -0.001062 -0.929147 -0.352188 -0.112467 0.199088 0.373645
-0.004932 0.000465 0.002425 -0.990081 -0.116459 0.078596 0.264616 0.445883
-0.005224 0.000034 -0.001888 -0.990081 -0.116459 0.078596 0.191445 0.436764
-0.004668 -0.002480 0.001391 -0.990081 -0.116459 0.078596 0.247048 0.390221
-0.003608 0.003785 0.002193 -0.919264 0.393635 0.002165 0.260018 0.502085
-0.003806 0.003348 -0.002342 -0.919264 0.393635 0.002165 0.186338 0.492675
-0.005224 0.000034 -0.001888 -0.919264 0.393635 0.002165 0.191445 0.436764
-0.003608 0.003785 0.002193 -0.927937 0.371856 0.025623 0.260018 0.502085
-0.005224 0.000034 -0.001888 -0.927937 0.371856 0.025623 0.191445 0.436764
-0.004932 0.000465 0.002425 -0.927937 0.371856 0.025623 0.264616 0.445883
-0.003608 0.003785 0.002193 -0.587829 0.807298 -0.052220 0.260018 0.502085
-0.001162 0.005335 -0.001388 -0.587829 0.807298 -0.052220 0.203718 0.555594
-0.003806 0.003348 -0.002342 -0.587829 0.807298 -0.052220 0.186338 0.492675
-0.000028 0.005399 0.001135 -0.371149 0.917428 0.143439 0.252955 0.572132
-0.001162 0.005335 -0.001388 -0.371149 0.917428 0.143439 0.203718 0.555594
-0.003608 0.003785 0.002193 -0.371149 0.917428 0.143439 0.260018 0.502085
0.002472 0.005064 -0.000130 0.098106 0.992741 -0.069577 0.229931 0.612964
-0.001162 0.005335 -0.001388 0.098106 0.992741 -0.069577 0.203718 0.555594
-0.000028 0.005399 0.001135 0.098106 0.992741 -0.069577 0.252955 0.572132
-0.002476 -0.003221 0.003694 -0.595838 -0.731318 0.331890 0.302955 0.375916
-0.004668 -0.002480 0.001391 -0.595838 -0.731318 0.331890 0.247048 0.390221
-0.002209 -0.004999 0.000254 -0.595838 -0.731318 0.331890 0.226889 0.334573
-0.002476 -0.003221 0.003694 -0.738621 -0.281295 0.612626 0.302955 0.375916
-0.004932 0.000465 0.002425 -0.738621 -0.281295 0.612626 0.264616 0.445883
-0.004668 -0.002480 0.001391 -0.738621 -0.281295 0.612626 0.247048 0.390221
-0.003608 0.003785 0.002193 -0.241138 0.846326 0.474959 0.260018 0.502085
0.000377 0.003840 0.004118 -0.241138 0.846326 0.474959 0.316116 0.543019
-0.000028 0.005399 0.001135 -0.241138 0.846326 0.474959 0.252955 0.572132
0.000377 0.003840 0.004118 0.319687 0.856854 0.404476 0.316116 0.543019
0.002472 0.005064 -0.000130 0.319687 0.856854 0.404476 0.229931 0.612964
-0.000028 0.005399 0.001135 0.319687 0.856854 0.404476 0.252955 0.572132
0.003732 0.002486 0.003029 0.744528 0.630971 0.218070 0.342341 0.617396
0.004021 0.003238 -0.000137 0.744528 0.630971 0.218070 0.232257 0.665250
0.002472 0.005064 -0.000130 0.744528 0.630971 0.218070 0.229931 0.612964
0.003732 0.002486 0.003029 0.455828 0.769920 0.446592 0.342341 0.617396
0.002472 0.005064 -0.000130 0.455828 0.769920 0.446592 0.229931 0.612964
0.000377 0.003840 0.004118 0.455828 0.769920 0.446592 0.316116 0.543019
0.000780 -0.003980 0.003194 -0.137646 -0.884179 0.446409 0.336519 0.324887
-0.002476 -0.003221 0.003694 -0.137646 -0.884179 0.446409 0.302955 0.375916
-0.002209 -0.004999 0.000254 -0.137646 -0.884179 0.446409 0.226889 0.334573
0.000780 -0.003980 0.003194 0.084060 -0.964854 0.248978 0.336519 0.324887
-0.002209 -0.004999 0.000254 0.084060 -0.964854 0.248978 0.226889 0.334573
0.000340 -0.004824 0.000069 0.084060 -0.964854 0.248978 0.224005 0.281298
-0.002476 -0.003221 0.003694 -0.623026 -0.150943 0.767499 0.302955 0.375916
-0.001017 0.000089 0.005529 -0.623026 -0.150943 0.767499 0.346401 0.456457
-0.004932 0.000465 0.002425 -0.623026 -0.150943 0.767499 0.264616 0.445883
-0.004932 0.000465 0.002425 -0.578750 0.284273 0.764354 0.264616 0.445883
-0.001017 0.000089 0.005529 -0.578750 0.284273 0.764354 0.346401 0.456457
-0.003608 0.003785 0.002193 -0.578750 0.284273 0.764354 0.260018 0.502085
0.000377 0.003840 0.004118 -0.393958 0.448171 0.802459 0.316116 0.543019
-0.003608 0.003785 0.002193 -0.393958 0.448171 0.802459 0.260018 0.502085
-0.001017 0.000089 0.005529 -0.393958 0.448171 0.802459 0.346401 0.456457
0.000377 0.003840 0.004118 0.437296 0.463220 0.770843 0.316116 0.543019
0.002982 0.000791 0.004472 0.437296 0.463220 0.770843 0.402379 0.544670
0.003732 0.002486 0.003029 0.437296 0.463220 0.770843 0.342341 0.617396
0.000780 -0.003980 0.003194 -0.020477 -0.609529 0.792499 0.336519 0.324887
0.001596 -0.002244 0.004550 -0.020477 -0.609529 0.792499 0.400329 0.395271
-0.002476 -0.003221 0.003694 -0.020477 -0.609529 0.792499 0.302955 0.375916
-0.001017 0.000089 0.005529 0.199097 0.279243 0.939353 0.346401 0.456457
0.002982 0.000791 0.004472 0.199097 0.279243 0.939353 0.402379 0.544670
0.000377 0.003840 0.004118 0.199097 0.279243 0.939353 0.316116 0.543019
-0.001017 0.000089 0.005529 0.270329 -0.098953 0.957669 0.346401 0.456457
0.001596 -0.002244 0.004550 0.270329 -0.098953 0.957669 0.400329 0.395271
0.002982 0.000791 0.004472 0.270329 -0.098953 0.957669 0.402379 0.544670
-0.002476 -0.003221 0.003694 -0.076604 -0.457407 0.885952 0.302955 0.375916
0.001596 -0.002244 0.004550 -0.076604 -0.457407 0.885952 0.400329 0.395271
-0.001017 0.000089 0.005529 -0.076604 -0.457407 0.885952 0.346401 0.456457
0.017333 -0.000206 0.003925 0.348450 0.188780 0.918120 0.759856 0.567693
0.012989 0.003607 0.004789 0.348450 0.188780 0.918120 0.774696 0.446024
0.011199 0.000001 0.006210 0.348450 0.188780 0.918120 0.860630 0.432982
0.015905 0.001922 -0.004141 0.280459 0.164056 -0.945742 0.567604 0.515404
0.017086 -0.001444 -0.004375 0.280459 0.164056 -0.945742 0.574070 0.579353
0.012277 -0.002201 -0.005933 0.280459 0.164056 -0.945742 0.502029 0.668843
0.015905 0.001922 -0.004141 0.342947 0.103790 -0.933603 0.567604 0.515404
0.012277 -0.002201 -0.005933 0.342947 0.103790 -0.933603 0.502029 0.668843
0.011083 -0.000176 -0.006146 0.342947 0.103790 -0.933603 0.449868 0.668709
0.005486 0.000923 -0.007368 -0.295038 0.112673 -0.948819 0.384185 0.793687
0.004646 -0.003354 -0.007615 -0.295038 0.112673 -0.948819 0.470199 0.834642
0.000858 -0.002298 -0.006311 -0.295038 0.112673 -0.948819 0.460444 0.915408
0.002585 0.002493 0.004514 -0.498829 0.499989 0.707941 0.968759 0.911455
0.001011 -0.002178 0.006704 -0.498829 0.499989 0.707941 0.849056 0.927425
0.005848 0.001139 0.007769 -0.498829 0.499989 0.707941 0.932704 0.811544
0.005848 0.001139 0.007769 -0.288603 0.115676 0.950435 0.932704 0.811544
0.001011 -0.002178 0.006704 -0.288603 0.115676 0.950435 0.849056 0.927425
0.005107 -0.003094 0.008059 -0.288603 0.115676 0.950435 0.842922 0.846869
0.002612 0.002953 -0.003588 -0.949725 0.312974 0.008290 0.588547 0.205833
0.000858 -0.002298 -0.006311 -0.949725 0.312974 0.008290 0.551052 0.096518
0.001011 -0.002178 0.006704 -0.949725 0.312974 0.008290 0.810319 0.103009
0.002612 0.002953 -0.003588 -0.945369 0.325643 0.015283 0.588547 0.205833
0.001011 -0.002178 0.006704 -0.945369 0.325643 0.015283 0.810319 0.103009
0.002585 0.002493 0.004514 -0.945369 0.325643 0.015283 0.781337 0.210555
0.003746 -0.007423 -0.004325 0.256282 -0.641307 -0.723218 0.564757 0.886529
0.004646 -0.003354 -0.007615 0.256282 -0.641307 -0.723218 0.470199 0.834642
0.012277 -0.002201 -0.005933 0.256282 -0.641307 -0.723218 0.502029 0.668843
0.003746 -0.007423 -0.004325 0.202857 -0.575306 -0.792383 0.564757 0.886529
0.012277 -0.002201 -0.005933 0.202857 -0.575306 -0.792383 0.502029 0.668843
0.012570 -0.005497 -0.003464 0.202857 -0.575306 -0.792383 0.586319 0.704429
0.003929 -0.007201 0.005017 0.211321 -0.977231 0.019055 0.747004 0.892598
0.003746 -0.007423 -0.004325 0.211321 -0.977231 0.019055 0.564757 0.886529
0.012570 -0.005497 -0.003464 0.211321 -0.977231 0.019055 0.586319 0.704429
0.003929 -0.007201 0.005017 0.206882 -0.978261 0.014325 0.747004 0.892598
0.012570 -0.005497 -0.003464 0.206882 -0.978261 0.014325 0.586319 0.704429
0.012678 -0.005371 0.003615 0.206882 -0.978261 0.014325 0.737278 0.708731
0.012484 -0.001971 0.006068 0.290874 -0.621961 0.727019 0.824790 0.679347
0.005107 -0.003094 0.008059 0.290874 -0.621961 0.727019 0.842922 0.846869
0.003929 -0.007201 0.005017 0.290874 -0.621961 0.727019 0.747004 0.892598
0.012484 -0.001971 0.006068 0.243785 -0.558207 0.793079 0.824790 0.679347
0.003929 -0.007201 0.005017 0.243785 -0.558207 0.793079 0.747004 0.892598
0.012678 -0.005371 0.003615 0.243785 -0.558207 0.793079 0.737278 0.708731
0.005107 -0.003094 0.008059 0.246546 0.091067 0.964843 0.842922 0.846869
0.012484 -0.001971 0.006068 0.246546 0.091067 0.964843 0.824790 0.679347
0.011199 0.000001 0.006210 0.246546 0.091067 0.964843 0.876046 0.683437
0.005107 -0.003094 0.008059 0.282825 0.016171 0.959035 0.842922 0.846869
0.011199 0.000001 0.006210 0.282825 0.016171 0.959035 0.876046 0.683437
0.005848 0.001139 0.007769 0.282825 0.016171 0.959035 0.932704 0.811544
0.004646 -0.003354 -0.007615 0.215841 0.013927 -0.976329 0.470199 0.834642
0.005486 0.000923 -0.007368 0.215841 0.013927 -0.976329 0.384185 0.793687
0.011083 -0.000176 -0.006146 0.215841 0.013927 -0.976329 0.449868 0.668709
0.004646 -0.003354 -0.007615 0.212018 0.021989 -0.977018 0.470199 0.834642
0.011083 -0.000176 -0.006146 0.212018 0.021989 -0.977018 0.449868 0.668709
0.012277 -0.002201 -0.005933 0.212018 0.021989 -0.977018 0.502029 0.668843
0.003746 -0.007423 -0.004325 -0.794852 -0.265318 -0.545726 0.564757 0.886529
0.003172 -0.006367 -0.004003 -0.794852 -0.265318 -0.545726 0.554649 0.904712
0.004646 -0.003354 -0.007615 -0.794852 -0.265318 -0.545726 0.470199 0.834642
0.003929 -0.007201 0.005017 -0.880906 -0.472323 0.030258 0.747004 0.892598
0.003353 -0.006153 0.004608 -0.880906 -0.472323 0.030258 0.755694 0.911229
0.003172 -0.006367 -0.004003 -0.880906 -0.472323 0.030258 0.554649 0.904712
0.003929 -0.007201 0.005017 -0.874452 -0.484268 0.028612 0.747004 0.892598
0.003172 -0.006367 -0.004003 -0.874452 -0.484268 0.028612 0.554649 0.904712
0.003746 -0.007423 -0.004325 -0.874452 -0.484268 0.028612 0.564757 0.886529
0.005107 -0.003094 0.008059 -0.786999 -0.205284 0.581800 0.842922 0.846869
0.003353 -0.006153 0.004608 -0.786999 -0.205284 0.581800 0.755694 0.911229
0.003929 -0.007201 0.005017 -0.786999 -0.205284 0.581800 0.747004 0.892598
3 0 1 2
3 3 4 5
3 6 7 8
3 9 10 11
3 12 13 14
3 15 16 17
3 18 19 20
3 21 22 23
3 24 25 26
3 27 28 29
3 30 31 32
3 33 34 35
3 36 37 38
3 39 40 41
3 42 43 44
3 45 46 47
3 48 49 50
3 51 52 53
3 54 55 56
3 57 58 59
3 60 61 62
3 63 64 65
3 66 67 68
3 69 70 71
3 72 73 74
3 75 76 77
3 78 79 80
3 81 82 83
3 84 85 86
3 87 88 89
3 90 91 92
3 93 94 95
3 96 97 98
3 99 100 101
3 102 103 104
3 105 106 107
3 108 109 110
3 111 112 113
3 114 115 116
3 117 118 119
3 120 121 122
3 123 124 125
3 126 127 128
3 129 130 131
3 132 133 134
3 135 136 137
3 138 139 140
3 141 142 143
3 144 145 146
3 147 148 149
3 150 151 152
3 153 154 155
3 156 157 158
3 159 160 161
3 162 163 164
3 165 166 167
3 168 169 170
3 171 172 173
3 174 175 176
3 177 178 179
3 180 181 182
3 183 184 185
3 186 187 188
3 189 190 191
3 192 193 194
3 195 196 197
3 198 199 200
3 201 202 203
3 204 205 206
3 207 208 209
3 210 211 212
3 213 214 215
3 216 217 218
3 219 220 221
3 222 223 224
3 225 226 227
3 228 229 230
3 231 232 233
3 234 235 236
3 237 238 239
3 240 241 242
3 243 244 245
3 246 247 248
3 249 250 251
3 252 253 254
3 255 256 257
3 258 259 260
3 261 262 263
3 264 265 266
3 267 268 269
3 270 271 272
3 273 274 275
