ply
format ascii 1.0
comment Created by Blender 2.69 (sub 0) - www.blender.org, source file: ''
element vertex 237
property float x
property float y
property float z
property float nx
property float ny
property float nz
property float s
property float t
element face 79
property list uchar uint vertex_indices
end_header
0.000022 -0.025479 0.019398 -0.180374 -0.514656 0.838209 0.000000 0.785943
0.000440 -0.005859 0.031535 -0.180374 -0.514656 0.838209 0.000000 0.537908
-0.013336 -0.005837 0.028584 -0.180374 -0.514656 0.838209 0.071429 0.537909
-0.018626 -0.018924 0.019104 -0.196539 -0.521851 0.830087 0.119074 0.681659
0.000022 -0.025479 0.019398 -0.196539 -0.521851 0.830087 0.000000 0.785943
-0.013336 -0.005837 0.028584 -0.196539 -0.521851 0.830087 0.071429 0.537909
-0.025007 -0.020363 -0.001650 -0.823403 -0.489469 0.287102 0.256929 0.714286
-0.018626 -0.018924 0.019104 -0.823403 -0.489469 0.287102 0.119074 0.681659
-0.030751 -0.005427 0.007341 -0.823403 -0.489469 0.287102 0.214286 0.537911
-0.025007 -0.020363 -0.001650 -0.941851 -0.332361 -0.049515 0.256929 0.714286
-0.030751 -0.005427 0.007341 -0.941851 -0.332361 -0.049515 0.214286 0.537911
-0.028061 -0.010094 -0.012491 -0.941851 -0.332361 -0.049515 0.314566 0.571429
-0.010458 -0.025204 -0.017728 -0.661351 -0.628640 -0.409178 0.410230 0.782615
-0.025007 -0.020363 -0.001650 -0.661351 -0.628640 -0.409178 0.256929 0.714286
-0.028061 -0.010094 -0.012491 -0.661351 -0.628640 -0.409178 0.314566 0.571429
-0.010458 -0.025204 -0.017728 -0.563401 -0.407187 -0.718873 0.410230 0.782615
-0.028061 -0.010094 -0.012491 -0.563401 -0.407187 -0.718873 0.314566 0.571429
-0.014040 0.000601 -0.029538 -0.563401 -0.407187 -0.718873 0.428571 0.500438
-0.010458 -0.025204 -0.017728 -0.299554 -0.431091 -0.851133 0.410230 0.782615
-0.014040 0.000601 -0.029538 -0.299554 -0.431091 -0.851133 0.428571 0.500438
-0.000409 -0.004483 -0.031760 -0.299554 -0.431091 -0.851133 0.500000 0.537908
0.006590 -0.019526 -0.024870 -0.196819 -0.482511 -0.853490 0.540842 0.714286
-0.010458 -0.025204 -0.017728 -0.196819 -0.482511 -0.853490 0.410230 0.782615
-0.000409 -0.004483 -0.031760 -0.196819 -0.482511 -0.853490 0.500000 0.537908
0.006590 -0.019526 -0.024870 0.197111 -0.330974 -0.922824 0.540842 0.714286
-0.000409 -0.004483 -0.031760 0.197111 -0.330974 -0.922824 0.500000 0.537908
0.013367 -0.004506 -0.028809 0.197111 -0.330974 -0.922824 0.571429 0.537909
0.006590 -0.019526 -0.024870 0.452419 -0.411631 -0.791124 0.540842 0.714286
0.013367 -0.004506 -0.028809 0.452419 -0.411631 -0.791124 0.571429 0.537909
0.021451 -0.016450 -0.017972 0.452419 -0.411631 -0.791124 0.642857 0.666131
0.025130 -0.020264 0.000765 0.851865 -0.454760 -0.259846 0.756929 0.714286
0.021451 -0.016450 -0.017972 0.851865 -0.454760 -0.259846 0.642857 0.666131
0.030782 -0.004916 -0.007567 0.851865 -0.454760 -0.259846 0.714286 0.537910
0.025130 -0.020264 0.000765 0.934589 -0.355153 -0.020263 0.756929 0.714286
0.030782 -0.004916 -0.007567 0.934589 -0.355153 -0.020263 0.714286 0.537910
0.030971 -0.005222 0.006518 0.934589 -0.355153 -0.020263 0.785714 0.537910
0.025130 -0.020264 0.000765 0.754830 -0.468614 0.458947 0.756929 0.714286
0.030971 -0.005222 0.006518 0.754830 -0.468614 0.458947 0.785714 0.537910
0.025468 -0.000370 0.020523 0.754830 -0.468614 0.458947 0.857143 0.499561
0.010613 -0.025888 0.016615 0.721294 -0.494201 0.485283 0.910230 0.782616
0.025130 -0.020264 0.000765 0.721294 -0.494201 0.485283 0.756929 0.714286
0.025468 -0.000370 0.020523 0.721294 -0.494201 0.485283 0.857143 0.499561
0.010613 -0.025888 0.016615 0.562971 -0.435304 0.702549 0.910230 0.782616
0.025468 -0.000370 0.020523 0.562971 -0.435304 0.702549 0.857143 0.499561
0.014040 -0.000601 0.029538 0.562971 -0.435304 0.702549 0.928572 0.500438
0.010613 -0.025888 0.016615 0.302267 -0.465916 0.831599 0.910230 0.782616
0.014040 -0.000601 0.029538 0.302267 -0.465916 0.831599 0.928572 0.500438
0.000440 -0.005859 0.031535 0.302267 -0.465916 0.831599 1.000000 0.537908
0.000022 -0.025479 0.019398 0.198440 -0.518669 0.831628 1.000000 0.785943
0.010613 -0.025888 0.016615 0.198440 -0.518669 0.831628 0.910230 0.782616
0.000440 -0.005859 0.031535 0.198440 -0.518669 0.831628 1.000000 0.537908
-0.025228 0.004678 0.019251 -0.709123 -0.202569 0.675360 0.142857 0.462091
-0.018626 -0.018924 0.019104 -0.709123 -0.202569 0.675360 0.119074 0.681659
-0.013336 -0.005837 0.028584 -0.709123 -0.202569 0.675360 0.071429 0.537909
-0.030751 -0.005427 0.007341 -0.796205 -0.226213 0.561147 0.214286 0.537911
-0.018626 -0.018924 0.019104 -0.796205 -0.226213 0.561147 0.119074 0.681659
-0.025228 0.004678 0.019251 -0.796205 -0.226213 0.561147 0.142857 0.462091
-0.030703 0.005248 -0.007663 -0.985274 -0.137835 -0.101178 0.285714 0.462090
-0.028061 -0.010094 -0.012491 -0.985274 -0.137835 -0.101178 0.314566 0.571429
-0.030751 -0.005427 0.007341 -0.985274 -0.137835 -0.101178 0.214286 0.537911
-0.024291 0.005540 -0.020204 -0.890226 -0.009995 -0.455409 0.357143 0.462092
-0.028061 -0.010094 -0.012491 -0.890226 -0.009995 -0.455409 0.314566 0.571429
-0.030703 0.005248 -0.007663 -0.890226 -0.009995 -0.455409 0.285714 0.462090
-0.014040 0.000601 -0.029538 -0.706772 -0.168535 -0.687073 0.428571 0.500438
-0.028061 -0.010094 -0.012491 -0.706772 -0.168535 -0.687073 0.314566 0.571429
-0.024291 0.005540 -0.020204 -0.706772 -0.168535 -0.687073 0.357143 0.462092
0.025197 0.005665 -0.019026 0.704364 -0.152366 -0.693294 0.642857 0.462091
0.021451 -0.016450 -0.017972 0.704364 -0.152366 -0.693294 0.642857 0.666131
0.013367 -0.004506 -0.028809 0.704364 -0.152366 -0.693294 0.571429 0.537909
0.030782 -0.004916 -0.007567 0.818099 -0.164847 -0.550944 0.714286 0.537910
0.021451 -0.016450 -0.017972 0.818099 -0.164847 -0.550944 0.642857 0.666131
0.025197 0.005665 -0.019026 0.818099 -0.164847 -0.550944 0.642857 0.462091
-0.025228 0.004678 0.019251 -0.753003 0.463798 0.466773 0.142857 0.462091
-0.014916 0.017594 0.023053 -0.753003 0.463798 0.466773 0.093303 0.321121
-0.026899 0.018252 0.003068 -0.753003 0.463798 0.466773 0.236404 0.320025
-0.030703 0.005248 -0.007663 -0.796306 0.506204 -0.331141 0.285714 0.462090
-0.026899 0.018252 0.003068 -0.796306 0.506204 -0.331141 0.236404 0.320025
-0.016151 0.020922 -0.018697 -0.796306 0.506204 -0.331141 0.387911 0.285714
-0.024291 0.005540 -0.020204 -0.795082 0.459536 -0.395817 0.357143 0.462092
-0.030703 0.005248 -0.007663 -0.795082 0.459536 -0.395817 0.285714 0.462090
-0.016151 0.020922 -0.018697 -0.795082 0.459536 -0.395817 0.387911 0.285714
-0.014040 0.000601 -0.029538 -0.529655 0.355739 -0.770010 0.428571 0.500438
-0.024291 0.005540 -0.020204 -0.529655 0.355739 -0.770010 0.357143 0.462092
-0.016151 0.020922 -0.018697 -0.529655 0.355739 -0.770010 0.387911 0.285714
-0.014040 0.000601 -0.029538 -0.341822 0.414426 -0.843451 0.428571 0.500438
-0.016151 0.020922 -0.018697 -0.341822 0.414426 -0.843451 0.387911 0.285714
0.000696 0.016319 -0.027786 -0.341822 0.414426 -0.843451 0.500000 0.349336
0.025197 0.005665 -0.019026 0.762423 0.509927 -0.398353 0.642857 0.462091
0.014807 0.018671 -0.022263 0.762423 0.509927 -0.398353 0.593303 0.321121
0.024922 0.020587 -0.000449 0.762423 0.509927 -0.398353 0.743394 0.285714
0.030589 0.010337 0.001678 0.856724 0.408217 -0.315252 0.756862 0.428571
0.025197 0.005665 -0.019026 0.856724 0.408217 -0.315252 0.642857 0.462091
0.024922 0.020587 -0.000449 0.856724 0.408217 -0.315252 0.743394 0.285714
0.030589 0.010337 0.001678 0.783711 0.507561 0.358021 0.756862 0.428571
0.024922 0.020587 -0.000449 0.783711 0.507561 0.358021 0.743394 0.285714
0.016026 0.020186 0.019593 0.783711 0.507561 0.358021 0.887911 0.285714
0.025468 -0.000370 0.020523 0.807592 0.390936 0.441548 0.857143 0.499561
0.030589 0.010337 0.001678 0.807592 0.390936 0.441548 0.756862 0.428571
0.016026 0.020186 0.019593 0.807592 0.390936 0.441548 0.887911 0.285714
0.014040 -0.000601 0.029538 0.586357 0.303329 0.751117 0.928572 0.500438
0.025468 -0.000370 0.020523 0.586357 0.303329 0.751117 0.857143 0.499561
0.016026 0.020186 0.019593 0.586357 0.303329 0.751117 0.887911 0.285714
0.014040 -0.000601 0.029538 0.339413 0.379374 0.860740 0.928572 0.500438
0.016026 0.020186 0.019593 0.339413 0.379374 0.860740 0.887911 0.285714
-0.000791 0.015089 0.028471 0.339413 0.379374 0.860740 1.000000 0.349339
-0.014916 0.017594 0.023053 -0.146924 0.694590 0.704243 0.093303 0.321121
-0.000791 0.015089 0.028471 -0.146924 0.694590 0.704243 0.000000 0.349339
-0.000174 0.023890 0.019918 -0.146924 0.694590 0.704243 0.000000 0.214286
-0.011938 0.023957 0.015247 -0.219738 0.795560 0.564623 0.107143 0.214286
-0.014916 0.017594 0.023053 -0.219738 0.795560 0.564623 0.093303 0.321121
-0.000174 0.023890 0.019918 -0.219738 0.795560 0.564623 0.000000 0.214286
-0.026899 0.018252 0.003068 -0.578885 0.726111 0.371017 0.236404 0.320025
-0.014916 0.017594 0.023053 -0.578885 0.726111 0.371017 0.093303 0.321121
-0.011938 0.023957 0.015247 -0.578885 0.726111 0.371017 0.107143 0.214286
-0.018981 0.024258 0.000431 -0.524773 0.808654 0.265879 0.250000 0.214286
-0.026899 0.018252 0.003068 -0.524773 0.808654 0.265879 0.236404 0.320025
-0.011938 0.023957 0.015247 -0.524773 0.808654 0.265879 0.107143 0.214286
-0.016151 0.020922 -0.018697 -0.635154 0.739512 -0.222939 0.387911 0.285714
-0.026899 0.018252 0.003068 -0.635154 0.739512 -0.222939 0.236404 0.320025
-0.018981 0.024258 0.000431 -0.635154 0.739512 -0.222939 0.250000 0.214286
-0.011786 0.024601 -0.014311 -0.490156 0.843512 -0.219622 0.392857 0.214286
-0.016151 0.020922 -0.018697 -0.490156 0.843512 -0.219622 0.387911 0.285714
-0.018981 0.024258 0.000431 -0.490156 0.843512 -0.219622 0.250000 0.214286
0.000027 0.024736 -0.018859 -0.174184 0.709925 -0.682397 0.500000 0.214286
0.000696 0.016319 -0.027786 -0.174184 0.709925 -0.682397 0.500000 0.349336
-0.016151 0.020922 -0.018697 -0.174184 0.709925 -0.682397 0.387911 0.285714
-0.011786 0.024601 -0.014311 -0.203122 0.840326 -0.502586 0.392857 0.214286
0.000027 0.024736 -0.018859 -0.203122 0.840326 -0.502586 0.500000 0.214286
-0.016151 0.020922 -0.018697 -0.203122 0.840326 -0.502586 0.387911 0.285714
0.014807 0.018671 -0.022263 0.142635 0.725475 -0.673306 0.593303 0.321121
0.000696 0.016319 -0.027786 0.142635 0.725475 -0.673306 0.500000 0.349336
0.000027 0.024736 -0.018859 0.142635 0.725475 -0.673306 0.500000 0.214286
0.011791 0.024670 -0.014188 0.214851 0.820701 -0.529423 0.607143 0.214286
0.014807 0.018671 -0.022263 0.214851 0.820701 -0.529423 0.593303 0.321121
0.000027 0.024736 -0.018859 0.214851 0.820701 -0.529423 0.500000 0.214286
0.024922 0.020587 -0.000449 0.580721 0.742206 -0.334505 0.743394 0.285714
0.014807 0.018671 -0.022263 0.580721 0.742206 -0.334505 0.593303 0.321121
0.011791 0.024670 -0.014188 0.580721 0.742206 -0.334505 0.607143 0.214286
0.018834 0.024368 0.000628 0.487577 0.846309 -0.214546 0.750000 0.214286
0.024922 0.020587 -0.000449 0.487577 0.846309 -0.214546 0.743394 0.285714
0.011791 0.024670 -0.014188 0.487577 0.846309 -0.214546 0.607143 0.214286
0.016026 0.020186 0.019593 0.542270 0.800025 0.256716 0.887911 0.285714
0.024922 0.020587 -0.000449 0.542270 0.800025 0.256716 0.743394 0.285714
0.018834 0.024368 0.000628 0.542270 0.800025 0.256716 0.750000 0.214286
0.011638 0.024025 0.015370 0.485063 0.836106 0.256204 0.892857 0.214286
0.016026 0.020186 0.019593 0.485063 0.836106 0.256204 0.887911 0.285714
0.018834 0.024368 0.000628 0.485063 0.836106 0.256204 0.750000 0.214286
-0.000174 0.023890 0.019918 0.169970 0.680575 0.712690 1.000000 0.214286
-0.000791 0.015089 0.028471 0.169970 0.680575 0.712690 1.000000 0.349339
0.016026 0.020186 0.019593 0.169970 0.680575 0.712690 0.887911 0.285714
0.011638 0.024025 0.015370 0.198097 0.818868 0.538714 0.892857 0.214286
-0.000174 0.023890 0.019918 0.198097 0.818868 0.538714 1.000000 0.214286
0.016026 0.020186 0.019593 0.198097 0.818868 0.538714 0.887911 0.285714
-0.013336 -0.005837 0.028584 -0.207469 0.129625 0.969615 0.071429 0.537909
0.000440 -0.005859 0.031535 -0.207469 0.129625 0.969615 0.000000 0.537908
-0.000791 0.015089 0.028471 -0.207469 0.129625 0.969615 0.000000 0.349339
-0.014916 0.017594 0.023053 -0.320403 0.197095 0.926550 0.093303 0.321121
-0.013336 -0.005837 0.028584 -0.320403 0.197095 0.926550 0.071429 0.537909
-0.000791 0.015089 0.028471 -0.320403 0.197095 0.926550 0.000000 0.349339
-0.025228 0.004678 0.019251 -0.515316 0.163804 0.841200 0.142857 0.462091
-0.013336 -0.005837 0.028584 -0.515316 0.163804 0.841200 0.071429 0.537909
-0.014916 0.017594 0.023053 -0.515316 0.163804 0.841200 0.093303 0.321121
-0.026899 0.018252 0.003068 -0.942638 0.201371 0.266239 0.236404 0.320025
-0.030751 -0.005427 0.007341 -0.942638 0.201371 0.266239 0.214286 0.537911
-0.025228 0.004678 0.019251 -0.942638 0.201371 0.266239 0.142857 0.462091
-0.030703 0.005248 -0.007663 -0.975315 0.181371 0.125958 0.285714 0.462090
-0.030751 -0.005427 0.007341 -0.975315 0.181371 0.125958 0.214286 0.537911
-0.026899 0.018252 0.003068 -0.975315 0.181371 0.125958 0.236404 0.320025
0.000696 0.016319 -0.027786 -0.087983 0.191394 -0.977562 0.500000 0.349336
-0.000409 -0.004483 -0.031760 -0.087983 0.191394 -0.977562 0.500000 0.537908
-0.014040 0.000601 -0.029538 -0.087983 0.191394 -0.977562 0.428571 0.500438
0.013367 -0.004506 -0.028809 0.206551 0.172973 -0.963025 0.571429 0.537909
-0.000409 -0.004483 -0.031760 0.206551 0.172973 -0.963025 0.500000 0.537908
0.000696 0.016319 -0.027786 0.206551 0.172973 -0.963025 0.500000 0.349336
0.014807 0.018671 -0.022263 0.319080 0.239186 -0.917048 0.593303 0.321121
0.013367 -0.004506 -0.028809 0.319080 0.239186 -0.917048 0.571429 0.537909
0.000696 0.016319 -0.027786 0.319080 0.239186 -0.917048 0.500000 0.349336
0.025197 0.005665 -0.019026 0.514204 0.203389 -0.833203 0.642857 0.462091
0.013367 -0.004506 -0.028809 0.514204 0.203389 -0.833203 0.571429 0.537909
0.014807 0.018671 -0.022263 0.514204 0.203389 -0.833203 0.593303 0.321121
0.030589 0.010337 0.001678 0.939869 0.185643 -0.286674 0.756862 0.428571
0.030782 -0.004916 -0.007567 0.939869 0.185643 -0.286674 0.714286 0.537910
0.025197 0.005665 -0.019026 0.939869 0.185643 -0.286674 0.642857 0.462091
0.030971 -0.005222 0.006518 0.999705 0.020521 -0.012970 0.785714 0.537910
0.030782 -0.004916 -0.007567 0.999705 0.020521 -0.012970 0.714286 0.537910
0.030589 0.010337 0.001678 0.999705 0.020521 -0.012970 0.756862 0.428571
0.025468 -0.000370 0.020523 0.937420 0.124214 0.325291 0.857143 0.499561
0.030971 -0.005222 0.006518 0.937420 0.124214 0.325291 0.785714 0.537910
0.030589 0.010337 0.001678 0.937420 0.124214 0.325291 0.756862 0.428571
-0.000791 0.015089 0.028471 0.086947 0.149178 0.984980 1.000000 0.349339
0.000440 -0.005859 0.031535 0.086947 0.149178 0.984980 1.000000 0.537908
0.014040 -0.000601 0.029538 0.086947 0.149178 0.984980 0.928572 0.500438
-0.011791 -0.024670 0.014188 -0.288577 -0.797125 0.530392 0.107143 0.785714
0.000022 -0.025479 0.019398 -0.288577 -0.797125 0.530392 0.000000 0.785943
-0.018626 -0.018924 0.019104 -0.288577 -0.797125 0.530392 0.119074 0.681659
-0.018848 -0.024429 0.002146 -0.495690 -0.824142 0.274011 0.232143 0.785714
-0.011791 -0.024670 0.014188 -0.495690 -0.824142 0.274011 0.107143 0.785714
-0.018626 -0.018924 0.019104 -0.495690 -0.824142 0.274011 0.119074 0.681659
-0.025007 -0.020363 -0.001650 -0.635019 -0.732277 0.246012 0.256929 0.714286
-0.018848 -0.024429 0.002146 -0.635019 -0.732277 0.246012 0.232143 0.785714
-0.018626 -0.018924 0.019104 -0.635019 -0.732277 0.246012 0.119074 0.681659
-0.018819 -0.024308 -0.003403 -0.541685 -0.840316 -0.021124 0.267857 0.785714
-0.018848 -0.024429 0.002146 -0.541685 -0.840316 -0.021124 0.232143 0.785714
-0.025007 -0.020363 -0.001650 -0.541685 -0.840316 -0.021124 0.256929 0.714286
-0.013817 -0.024069 -0.013651 -0.571695 -0.764891 -0.296828 0.375000 0.785714
-0.018819 -0.024308 -0.003403 -0.571695 -0.764891 -0.296828 0.267857 0.785714
-0.025007 -0.020363 -0.001650 -0.571695 -0.764891 -0.296828 0.256929 0.714286
-0.010458 -0.025204 -0.017728 -0.270273 -0.961730 0.045023 0.410230 0.782615
-0.013817 -0.024069 -0.013651 -0.270273 -0.961730 0.045023 0.375000 0.785714
-0.025007 -0.020363 -0.001650 -0.270273 -0.961730 0.045023 0.256929 0.714286
0.006590 -0.019526 -0.024870 -0.056342 -0.711611 -0.700311 0.540842 0.714286
0.000174 -0.023890 -0.019918 -0.056342 -0.711611 -0.700311 0.500000 0.785714
-0.010458 -0.025204 -0.017728 -0.056342 -0.711611 -0.700311 0.410230 0.782615
0.006590 -0.019526 -0.024870 0.158500 -0.833480 -0.529329 0.540842 0.714286
0.009778 -0.023925 -0.016988 0.158500 -0.833480 -0.529329 0.589286 0.785714
0.000174 -0.023890 -0.019918 0.158500 -0.833480 -0.529329 0.500000 0.785714
0.009778 -0.023925 -0.016988 0.410494 -0.715452 -0.565352 0.589286 0.785714
0.006590 -0.019526 -0.024870 0.410494 -0.715452 -0.565352 0.540842 0.714286
0.021451 -0.016450 -0.017972 0.410494 -0.715452 -0.565352 0.642857 0.666131
0.014099 -0.023988 -0.013505 0.422283 -0.730153 -0.537172 0.625000 0.785714
0.009778 -0.023925 -0.016988 0.422283 -0.730153 -0.537172 0.589286 0.785714
0.021451 -0.016450 -0.017972 0.422283 -0.730153 -0.537172 0.642857 0.666131
0.018995 -0.024198 -0.003205 0.590287 -0.751017 -0.295862 0.732143 0.785714
0.014099 -0.023988 -0.013505 0.590287 -0.751017 -0.295862 0.625000 0.785714
0.021451 -0.016450 -0.017972 0.590287 -0.751017 -0.295862 0.642857 0.666131
0.025130 -0.020264 0.000765 0.637951 -0.720474 -0.271912 0.756929 0.714286
0.018995 -0.024198 -0.003205 0.637951 -0.720474 -0.271912 0.732143 0.785714
0.021451 -0.016450 -0.017972 0.637951 -0.720474 -0.271912 0.642857 0.666131
0.018966 -0.024318 0.002344 0.546759 -0.837148 -0.015411 0.767857 0.785714
0.018995 -0.024198 -0.003205 0.546759 -0.837148 -0.015411 0.732143 0.785714
0.025130 -0.020264 0.000765 0.546759 -0.837148 -0.015411 0.756929 0.714286
0.013964 -0.024557 0.012592 0.576351 -0.773618 0.263318 0.875000 0.785714
0.018966 -0.024318 0.002344 0.576351 -0.773618 0.263318 0.767857 0.785714
0.025130 -0.020264 0.000765 0.576351 -0.773618 0.263318 0.756929 0.714286
0.010613 -0.025888 0.016615 0.276015 -0.957219 -0.086880 0.910230 0.782616
0.013964 -0.024557 0.012592 0.276015 -0.957219 -0.086880 0.875000 0.785714
0.025130 -0.020264 0.000765 0.276015 -0.957219 -0.086880 0.756929 0.714286
3 0 1 2
3 3 4 5
3 6 7 8
3 9 10 11
3 12 13 14
3 15 16 17
3 18 19 20
3 21 22 23
3 24 25 26
3 27 28 29
3 30 31 32
3 33 34 35
3 36 37 38
3 39 40 41
3 42 43 44
3 45 46 47
3 48 49 50
3 51 52 53
3 54 55 56
3 57 58 59
3 60 61 62
3 63 64 65
3 66 67 68
3 69 70 71
3 72 73 74
3 75 76 77
3 78 79 80
3 81 82 83
3 84 85 86
3 87 88 89
3 90 91 92
3 93 94 95
3 96 97 98
3 99 100 101
3 102 103 104
3 105 106 107
3 108 109 110
3 111 112 113
3 114 115 116
3 117 118 119
3 120 121 122
3 123 124 125
3 126 127 128
3 129 130 131
3 132 133 134
3 135 136 137
3 138 139 140
3 141 142 143
3 144 145 146
3 147 148 149
3 150 151 152
3 153 154 155
3 156 157 158
3 159 160 161
3 162 163 164
3 165 166 167
3 168 169 170
3 171 172 173
3 174 175 176
3 177 178 179
3 180 181 182
3 183 184 185
3 186 187 188
3 189 190 191
3 192 193 194
3 195 196 197
3 198 199 200
3 201 202 203
3 204 205 206
3 207 208 209
3 210 211 212
3 213 214 215
3 216 217 218
3 219 220 221
3 222 223 224
3 225 226 227
3 228 229 230
3 231 232 233
3 234 235 236
