ply
format ascii 1.0
comment Created by Blender 2.69 (sub 0) - www.blender.org, source file: ''
element vertex 288
property float x
property float y
property float z
property float nx
property float ny
property float nz
property float s
property float t
element face 96
property list uchar uint vertex_indices
end_header
-0.006486 -0.039022 0.013141 -0.120981 -0.991807 0.041024 0.083980 0.875000
-0.013140 -0.039022 -0.006486 -0.120981 -0.991807 0.041024 0.320307 0.875000
0.008011 -0.041179 0.003735 -0.120981 -0.991807 0.041024 0.125000 1.000000
-0.013140 -0.039022 -0.006486 -0.041700 -0.991533 -0.122979 0.320307 0.875000
0.006486 -0.039022 -0.013141 -0.041700 -0.991533 -0.122979 0.570306 0.875000
0.008011 -0.041179 0.003735 -0.041700 -0.991533 -0.122979 0.375000 1.000000
-0.006486 -0.039022 0.013141 -0.282243 -0.858854 0.427443 0.083980 0.875000
-0.007057 -0.030061 0.030769 -0.282243 -0.858854 0.427443 0.035956 0.750000
-0.026008 -0.030474 0.017425 -0.282243 -0.858854 0.427443 0.156051 0.750000
-0.013140 -0.039022 -0.006486 -0.374335 -0.918565 0.126932 0.320307 0.875000
-0.006486 -0.039022 0.013141 -0.374335 -0.918565 0.126932 0.083980 0.875000
-0.026008 -0.030474 0.017425 -0.374335 -0.918565 0.126932 0.156051 0.750000
-0.026008 -0.030474 0.017425 -0.453818 -0.888078 0.073258 0.156051 0.750000
-0.030769 -0.030061 -0.007057 -0.453818 -0.888078 0.073258 0.285956 0.750000
-0.013140 -0.039022 -0.006486 -0.453818 -0.888078 0.073258 0.320307 0.875000
-0.013140 -0.039022 -0.006486 -0.427445 -0.858854 -0.282242 0.320307 0.875000
-0.030769 -0.030061 -0.007057 -0.427445 -0.858854 -0.282242 0.285956 0.750000
-0.017425 -0.030474 -0.026008 -0.427445 -0.858854 -0.282242 0.406050 0.750000
0.006486 -0.039022 -0.013141 -0.126933 -0.918564 -0.374338 0.570306 0.875000
-0.013140 -0.039022 -0.006486 -0.126933 -0.918564 -0.374338 0.320307 0.875000
-0.017425 -0.030474 -0.026008 -0.126933 -0.918564 -0.374338 0.406050 0.750000
-0.017425 -0.030474 -0.026008 -0.073261 -0.888076 -0.453821 0.406050 0.750000
0.007057 -0.030061 -0.030769 -0.073261 -0.888076 -0.453821 0.535956 0.750000
0.006486 -0.039022 -0.013141 -0.073261 -0.888076 -0.453821 0.570306 0.875000
0.006486 -0.039022 -0.013141 0.282243 -0.858852 -0.427448 0.570306 0.875000
0.007057 -0.030061 -0.030769 0.282243 -0.858852 -0.427448 0.535956 0.750000
0.026008 -0.030474 -0.017425 0.282243 -0.858852 -0.427448 0.656050 0.750000
0.008011 -0.041179 0.003735 0.368603 -0.917312 -0.150567 0.842723 0.926232
0.006486 -0.039022 -0.013141 0.368603 -0.917312 -0.150567 0.570306 0.875000
0.026008 -0.030474 -0.017425 0.368603 -0.917312 -0.150567 0.656050 0.750000
0.026008 -0.030474 -0.017425 0.446260 -0.892025 -0.071725 0.656050 0.750000
0.030769 -0.030061 0.007057 0.446260 -0.892025 -0.071725 0.785957 0.750000
0.008011 -0.041179 0.003735 0.446260 -0.892025 -0.071725 0.842723 0.926232
0.008011 -0.041179 0.003735 0.393483 -0.882441 0.257817 0.842723 0.926232
0.030769 -0.030061 0.007057 0.393483 -0.882441 0.257817 0.785957 0.750000
0.017425 -0.030474 0.026008 0.393483 -0.882441 0.257817 0.906050 0.750000
-0.006486 -0.039022 0.013141 0.116874 -0.913509 0.389669 0.968750 0.875000
0.008011 -0.041179 0.003735 0.116874 -0.913509 0.389669 0.842723 0.926232
0.017425 -0.030474 0.026008 0.116874 -0.913509 0.389669 0.906050 0.750000
-0.007057 -0.030061 0.030769 0.073262 -0.888078 0.453817 1.000000 0.750000
-0.006486 -0.039022 0.013141 0.073262 -0.888078 0.453817 0.968750 0.875000
0.017425 -0.030474 0.026008 0.073262 -0.888078 0.453817 0.906050 0.750000
-0.007057 -0.030061 0.030769 -0.183978 -0.424305 0.886633 0.035956 0.750000
0.007609 -0.017185 0.039974 -0.183978 -0.424305 0.886633 0.000000 0.625000
-0.022885 -0.017185 0.033646 -0.183978 -0.424305 0.886633 0.095087 0.625000
-0.026008 -0.030474 0.017425 -0.423258 -0.659202 0.621535 0.156051 0.750000
-0.007057 -0.030061 0.030769 -0.423258 -0.659202 0.621535 0.035956 0.750000
-0.022885 -0.017185 0.033646 -0.423258 -0.659202 0.621535 0.095087 0.625000
-0.026008 -0.030474 0.017425 -0.755656 -0.427799 0.495956 0.156051 0.750000
-0.022885 -0.017185 0.033646 -0.755656 -0.427799 0.495956 0.095087 0.625000
-0.039974 -0.017185 0.007609 -0.755656 -0.427799 0.495956 0.220087 0.625000
-0.030769 -0.030061 -0.007057 -0.730086 -0.670750 0.130649 0.285956 0.750000
-0.026008 -0.030474 0.017425 -0.730086 -0.670750 0.130649 0.156051 0.750000
-0.039974 -0.017185 0.007609 -0.730086 -0.670750 0.130649 0.220087 0.625000
-0.030769 -0.030061 -0.007057 -0.886634 -0.424304 -0.183975 0.285956 0.750000
-0.039974 -0.017185 0.007609 -0.886634 -0.424304 -0.183975 0.220087 0.625000
-0.033646 -0.017185 -0.022885 -0.886634 -0.424304 -0.183975 0.345088 0.625000
-0.017425 -0.030474 -0.026008 -0.621533 -0.659207 -0.423253 0.406050 0.750000
-0.030769 -0.030061 -0.007057 -0.621533 -0.659207 -0.423253 0.285956 0.750000
-0.033646 -0.017185 -0.022885 -0.621533 -0.659207 -0.423253 0.345088 0.625000
-0.017425 -0.030474 -0.026008 -0.529687 -0.482656 -0.697478 0.406050 0.750000
-0.033646 -0.017185 -0.022885 -0.529687 -0.482656 -0.697478 0.345088 0.625000
-0.015380 -0.016647 -0.037130 -0.529687 -0.482656 -0.697478 0.437500 0.625000
-0.017425 -0.030474 -0.026008 -0.103739 -0.614012 -0.782450 0.406050 0.750000
-0.015380 -0.016647 -0.037130 -0.103739 -0.614012 -0.782450 0.437500 0.625000
0.008267 -0.017185 -0.039843 -0.103739 -0.614012 -0.782450 0.532588 0.625000
0.007057 -0.030061 -0.030769 -0.148995 -0.560226 -0.814830 0.535956 0.750000
-0.017425 -0.030474 -0.026008 -0.148995 -0.560226 -0.814830 0.406050 0.750000
0.008267 -0.017185 -0.039843 -0.148995 -0.560226 -0.814830 0.532588 0.625000
0.007057 -0.030061 -0.030769 0.423561 -0.548104 -0.721234 0.535956 0.750000
0.008267 -0.017185 -0.039843 0.423561 -0.548104 -0.721234 0.532588 0.625000
0.028418 -0.016647 -0.028418 0.423561 -0.548104 -0.721234 0.625000 0.625000
0.026008 -0.030474 -0.017425 0.450741 -0.602327 -0.658813 0.656050 0.750000
0.007057 -0.030061 -0.030769 0.450741 -0.602327 -0.658813 0.535956 0.750000
0.028418 -0.016647 -0.028418 0.450741 -0.602327 -0.658813 0.625000 0.625000
0.026008 -0.030474 -0.017425 0.762053 -0.479109 -0.435580 0.656050 0.750000
0.028418 -0.016647 -0.028418 0.762053 -0.479109 -0.435580 0.625000 0.625000
0.039974 -0.017185 -0.007609 0.762053 -0.479109 -0.435580 0.720088 0.625000
0.030769 -0.030061 0.007057 0.730085 -0.670750 -0.130651 0.785957 0.750000
0.026008 -0.030474 -0.017425 0.730085 -0.670750 -0.130651 0.656050 0.750000
0.039974 -0.017185 -0.007609 0.730085 -0.670750 -0.130651 0.720088 0.625000
0.030769 -0.030061 0.007057 0.886634 -0.424303 0.183977 0.785957 0.750000
0.039974 -0.017185 -0.007609 0.886634 -0.424303 0.183977 0.720088 0.625000
0.033646 -0.017185 0.022885 0.886634 -0.424303 0.183977 0.845088 0.625000
0.017425 -0.030474 0.026008 0.621533 -0.659205 0.423255 0.906050 0.750000
0.030769 -0.030061 0.007057 0.621533 -0.659205 0.423255 0.785957 0.750000
0.033646 -0.017185 0.022885 0.621533 -0.659205 0.423255 0.845088 0.625000
0.017425 -0.030474 0.026008 0.495948 -0.427798 0.755661 0.906050 0.750000
0.033646 -0.017185 0.022885 0.495948 -0.427798 0.755661 0.845088 0.625000
0.007609 -0.017185 0.039974 0.495948 -0.427798 0.755661 0.970088 0.625000
-0.007057 -0.030061 0.030769 0.130650 -0.670751 0.730085 1.000000 0.750000
0.017425 -0.030474 0.026008 0.130650 -0.670751 0.730085 0.906050 0.750000
0.007609 -0.017185 0.039974 0.130650 -0.670751 0.730085 0.970088 0.625000
0.007609 -0.017185 0.039974 -0.249995 -0.299627 0.920720 0.000000 0.625000
-0.000000 -0.000000 0.043500 -0.249995 -0.299627 0.920720 0.000000 0.500000
-0.024602 0.000000 0.036820 -0.249995 -0.299627 0.920720 0.093749 0.500000
-0.022885 -0.017185 0.033646 -0.199184 -0.197193 0.959917 0.095087 0.625000
0.007609 -0.017185 0.039974 -0.199184 -0.197193 0.959917 0.000000 0.625000
-0.024602 0.000000 0.036820 -0.199184 -0.197193 0.959917 0.093749 0.500000
-0.022885 -0.017185 0.033646 -0.817492 -0.182570 0.546237 0.095087 0.625000
-0.024602 0.000000 0.036820 -0.817492 -0.182570 0.546237 0.093749 0.500000
-0.043432 0.000000 0.008639 -0.817492 -0.182570 0.546237 0.218749 0.500000
-0.039974 -0.017185 0.007609 -0.819605 -0.197188 0.537927 0.220087 0.625000
-0.022885 -0.017185 0.033646 -0.819605 -0.197188 0.537927 0.095087 0.625000
-0.043432 0.000000 0.008639 -0.819605 -0.197188 0.537927 0.218749 0.500000
-0.039974 -0.017185 0.007609 -0.964303 -0.182565 -0.191808 0.220087 0.625000
-0.043432 0.000000 0.008639 -0.964303 -0.182565 -0.191808 0.218749 0.500000
-0.036820 0.000000 -0.024602 -0.964303 -0.182565 -0.191808 0.343750 0.500000
-0.033646 -0.017185 -0.022885 -0.959918 -0.197190 -0.199181 0.345088 0.625000
-0.039974 -0.017185 0.007609 -0.959918 -0.197190 -0.199181 0.220087 0.625000
-0.036820 0.000000 -0.024602 -0.959918 -0.197190 -0.199181 0.343750 0.500000
-0.033646 -0.017185 -0.022885 -0.600438 -0.188541 -0.777127 0.345088 0.625000
-0.036820 0.000000 -0.024602 -0.600438 -0.188541 -0.777127 0.343750 0.500000
-0.016647 0.000000 -0.040189 -0.600438 -0.188541 -0.777127 0.437500 0.500000
-0.015380 -0.016647 -0.037130 -0.600455 -0.188518 -0.777120 0.437500 0.625000
-0.033646 -0.017185 -0.022885 -0.600455 -0.188518 -0.777120 0.345088 0.625000
-0.016647 0.000000 -0.040189 -0.600455 -0.188518 -0.777120 0.437500 0.500000
-0.015380 -0.016647 -0.037130 -0.124938 -0.188520 -0.974090 0.437500 0.625000
-0.016647 0.000000 -0.040189 -0.124938 -0.188520 -0.974090 0.437500 0.500000
0.008639 -0.000000 -0.043432 -0.124938 -0.188520 -0.974090 0.531251 0.500000
0.008267 -0.017185 -0.039843 -0.116171 -0.200662 -0.972748 0.532588 0.625000
-0.015380 -0.016647 -0.037130 -0.116171 -0.200662 -0.972748 0.437500 0.625000
0.008639 -0.000000 -0.043432 -0.116171 -0.200662 -0.972748 0.531251 0.500000
0.008267 -0.017185 -0.039843 0.546235 -0.182569 -0.817494 0.532588 0.625000
0.008639 -0.000000 -0.043432 0.546235 -0.182569 -0.817494 0.531251 0.500000
0.036820 -0.000000 -0.024602 0.546235 -0.182569 -0.817494 0.656250 0.500000
0.028418 -0.016647 -0.028418 0.493615 -0.050141 -0.868234 0.625000 0.625000
0.008267 -0.017185 -0.039843 0.493615 -0.050141 -0.868234 0.532588 0.625000
0.036820 -0.000000 -0.024602 0.493615 -0.050141 -0.868234 0.656250 0.500000
0.039974 -0.017185 -0.007609 0.827589 -0.310532 -0.467617 0.720088 0.625000
0.028418 -0.016647 -0.028418 0.827589 -0.310532 -0.467617 0.625000 0.625000
0.036820 -0.000000 -0.024602 0.827589 -0.310532 -0.467617 0.656250 0.500000
0.039974 -0.017185 -0.007609 0.980704 -0.012922 -0.195073 0.720088 0.625000
0.036820 -0.000000 -0.024602 0.980704 -0.012922 -0.195073 0.656250 0.500000
0.043432 0.000000 0.008639 0.980704 -0.012922 -0.195073 0.781250 0.500000
0.033646 -0.017185 0.022885 0.912485 -0.362657 0.189342 0.845088 0.625000
0.039974 -0.017185 -0.007609 0.912485 -0.362657 0.189342 0.720088 0.625000
0.043432 0.000000 0.008639 0.912485 -0.362657 0.189342 0.781250 0.500000
0.033646 -0.017185 0.022885 0.831400 -0.012917 0.555524 0.845088 0.625000
0.043432 0.000000 0.008639 0.831400 -0.012917 0.555524 0.781250 0.500000
0.024602 -0.000000 0.036820 0.831400 -0.012917 0.555524 0.906250 0.500000
0.007609 -0.017185 0.039974 0.511337 -0.362660 0.779109 0.970088 0.625000
0.033646 -0.017185 0.022885 0.511337 -0.362660 0.779109 0.845088 0.625000
0.024602 -0.000000 0.036820 0.511337 -0.362660 0.779109 0.906250 0.500000
0.007609 -0.017185 0.039974 0.261159 -0.081736 0.961829 0.970088 0.625000
0.024602 -0.000000 0.036820 0.261159 -0.081736 0.961829 0.906250 0.500000
-0.000000 -0.000000 0.043500 0.261159 -0.081736 0.961829 1.000000 0.500000
-0.024602 0.000000 0.036820 -0.261151 0.082036 0.961806 0.093749 0.500000
-0.000000 -0.000000 0.043500 -0.261151 0.082036 0.961806 0.000000 0.500000
-0.007497 0.017119 0.040004 -0.261151 0.082036 0.961806 0.029451 0.375000
-0.024602 0.000000 0.036820 -0.509511 0.364083 0.779643 0.093749 0.500000
-0.007497 0.017119 0.040004 -0.509511 0.364083 0.779643 0.029451 0.375000
-0.033654 0.017065 0.022936 -0.509511 0.364083 0.779643 0.154763 0.375000
-0.043432 0.000000 0.008639 -0.831416 0.010995 0.555541 0.218749 0.500000
-0.024602 0.000000 0.036820 -0.831416 0.010995 0.555541 0.093749 0.500000
-0.033654 0.017065 0.022936 -0.831416 0.010995 0.555541 0.154763 0.375000
-0.043432 0.000000 0.008639 -0.912140 0.362665 0.190981 0.218749 0.500000
-0.033654 0.017065 0.022936 -0.912140 0.362665 0.190981 0.154763 0.375000
-0.040004 0.017119 -0.007497 -0.912140 0.362665 0.190981 0.279450 0.375000
-0.036820 0.000000 -0.024602 -0.980709 0.012493 -0.195072 0.343750 0.500000
-0.043432 0.000000 0.008639 -0.980709 0.012493 -0.195072 0.218749 0.500000
-0.040004 0.017119 -0.007497 -0.980709 0.012493 -0.195072 0.279450 0.375000
-0.036820 0.000000 -0.024602 -0.779647 0.364080 -0.509505 0.343750 0.500000
-0.040004 0.017119 -0.007497 -0.779647 0.364080 -0.509505 0.279450 0.375000
-0.022936 0.017065 -0.033654 -0.779647 0.364080 -0.509505 0.404762 0.375000
-0.016647 0.000000 -0.040189 -0.609565 0.077480 -0.788940 0.437500 0.500000
-0.036820 0.000000 -0.024602 -0.609565 0.077480 -0.788940 0.343750 0.500000
-0.022936 0.017065 -0.033654 -0.609565 0.077480 -0.788940 0.404762 0.375000
-0.016647 0.000000 -0.040189 -0.196177 0.286796 -0.937690 0.437500 0.500000
-0.022936 0.017065 -0.033654 -0.196177 0.286796 -0.937690 0.404762 0.375000
0.007497 0.017119 -0.040004 -0.196177 0.286796 -0.937690 0.529451 0.375000
0.008639 -0.000000 -0.043432 -0.124980 0.186776 -0.974420 0.531251 0.500000
-0.016647 0.000000 -0.040189 -0.124980 0.186776 -0.974420 0.437500 0.500000
0.007497 0.017119 -0.040004 -0.124980 0.186776 -0.974420 0.529451 0.375000
0.008639 -0.000000 -0.043432 0.535734 0.200011 -0.820356 0.531251 0.500000
0.007497 0.017119 -0.040004 0.535734 0.200011 -0.820356 0.529451 0.375000
0.033654 0.017065 -0.022936 0.535734 0.200011 -0.820356 0.654761 0.375000
0.036820 -0.000000 -0.024602 0.546373 0.181227 -0.817700 0.656250 0.500000
0.008639 -0.000000 -0.043432 0.546373 0.181227 -0.817700 0.531251 0.500000
0.033654 0.017065 -0.022936 0.546373 0.181227 -0.817700 0.654761 0.375000
0.036820 -0.000000 -0.024602 0.959538 0.197623 -0.200582 0.656250 0.500000
0.033654 0.017065 -0.022936 0.959538 0.197623 -0.200582 0.654761 0.375000
0.040004 0.017119 0.007497 0.959538 0.197623 -0.200582 0.779451 0.375000
0.043432 0.000000 0.008639 0.964700 0.180364 -0.191890 0.781250 0.500000
0.036820 -0.000000 -0.024602 0.964700 0.180364 -0.191890 0.656250 0.500000
0.040004 0.017119 0.007497 0.964700 0.180364 -0.191890 0.779451 0.375000
0.043432 0.000000 0.008639 0.820358 0.200005 0.535735 0.781250 0.500000
0.040004 0.017119 0.007497 0.820358 0.200005 0.535735 0.779451 0.375000
0.022936 0.017065 0.033654 0.820358 0.200005 0.535735 0.904761 0.375000
0.024602 -0.000000 0.036820 0.817702 0.181223 0.546371 0.906250 0.500000
0.043432 0.000000 0.008639 0.817702 0.181223 0.546371 0.781250 0.500000
0.022936 0.017065 0.033654 0.817702 0.181223 0.546371 0.904761 0.375000
0.024602 -0.000000 0.036820 0.200580 0.197620 0.959538 0.906250 0.500000
0.022936 0.017065 0.033654 0.200580 0.197620 0.959538 0.904761 0.375000
-0.007497 0.017119 0.040004 0.200580 0.197620 0.959538 1.000000 0.375000
-0.000000 -0.000000 0.043500 0.250156 0.297693 0.921304 1.000000 0.500000
0.024602 -0.000000 0.036820 0.250156 0.297693 0.921304 0.906250 0.500000
-0.007497 0.017119 0.040004 0.250156 0.297693 0.921304 1.000000 0.375000
-0.007497 0.017119 0.040004 -0.415096 0.582016 0.699252 0.029451 0.375000
-0.004575 0.030547 0.030562 -0.415096 0.582016 0.699252 0.024770 0.250000
-0.024828 0.030327 0.018723 -0.415096 0.582016 0.699252 0.145937 0.250000
-0.033654 0.017065 0.022936 -0.463120 0.533129 0.708020 0.154763 0.375000
-0.007497 0.017119 0.040004 -0.463120 0.533129 0.708020 0.029451 0.375000
-0.024828 0.030327 0.018723 -0.463120 0.533129 0.708020 0.145937 0.250000
-0.033654 0.017065 0.022936 -0.785551 0.585964 0.198886 0.154763 0.375000
-0.024828 0.030327 0.018723 -0.785551 0.585964 0.198886 0.145937 0.250000
-0.030562 0.030547 -0.004575 -0.785551 0.585964 0.198886 0.274771 0.250000
-0.040004 0.017119 -0.007497 -0.823018 0.541125 0.172699 0.279450 0.375000
-0.033654 0.017065 0.022936 -0.823018 0.541125 0.172699 0.154763 0.375000
-0.030562 0.030547 -0.004575 -0.823018 0.541125 0.172699 0.274771 0.250000
-0.040004 0.017119 -0.007497 -0.699250 0.582011 -0.415106 0.279450 0.375000
-0.030562 0.030547 -0.004575 -0.699250 0.582011 -0.415106 0.274771 0.250000
-0.018722 0.030327 -0.024828 -0.699250 0.582011 -0.415106 0.395937 0.250000
-0.022936 0.017065 -0.033654 -0.708015 0.533145 -0.463110 0.404762 0.375000
-0.040004 0.017119 -0.007497 -0.708015 0.533145 -0.463110 0.279450 0.375000
-0.018722 0.030327 -0.024828 -0.708015 0.533145 -0.463110 0.395937 0.250000
-0.022936 0.017065 -0.033654 -0.198889 0.585971 -0.785545 0.404762 0.375000
-0.018722 0.030327 -0.024828 -0.198889 0.585971 -0.785545 0.395937 0.250000
0.004575 0.030547 -0.030562 -0.198889 0.585971 -0.785545 0.524771 0.250000
0.007497 0.017119 -0.040004 -0.172697 0.541123 -0.823020 0.529451 0.375000
-0.022936 0.017065 -0.033654 -0.172697 0.541123 -0.823020 0.404762 0.375000
0.004575 0.030547 -0.030562 -0.172697 0.541123 -0.823020 0.524771 0.250000
0.007497 0.017119 -0.040004 0.415096 0.582013 -0.699254 0.529451 0.375000
0.004575 0.030547 -0.030562 0.415096 0.582013 -0.699254 0.524771 0.250000
0.024828 0.030327 -0.018723 0.415096 0.582013 -0.699254 0.645937 0.250000
0.033654 0.017065 -0.022936 0.463113 0.533134 -0.708022 0.654761 0.375000
0.007497 0.017119 -0.040004 0.463113 0.533134 -0.708022 0.529451 0.375000
0.024828 0.030327 -0.018723 0.463113 0.533134 -0.708022 0.645937 0.250000
0.033654 0.017065 -0.022936 0.785551 0.585964 -0.198885 0.654761 0.375000
0.024828 0.030327 -0.018723 0.785551 0.585964 -0.198885 0.645937 0.250000
0.030562 0.030547 0.004575 0.785551 0.585964 -0.198885 0.774771 0.250000
0.040004 0.017119 0.007497 0.823020 0.541122 -0.172698 0.779451 0.375000
0.033654 0.017065 -0.022936 0.823020 0.541122 -0.172698 0.654761 0.375000
0.030562 0.030547 0.004575 0.823020 0.541122 -0.172698 0.774771 0.250000
0.040004 0.017119 0.007497 0.699250 0.582012 0.415104 0.779451 0.375000
0.030562 0.030547 0.004575 0.699250 0.582012 0.415104 0.774771 0.250000
0.018722 0.030327 0.024828 0.699250 0.582012 0.415104 0.895938 0.250000
0.022936 0.017065 0.033654 0.708016 0.533144 0.463110 0.904761 0.375000
0.040004 0.017119 0.007497 0.708016 0.533144 0.463110 0.779451 0.375000
0.018722 0.030327 0.024828 0.708016 0.533144 0.463110 0.895938 0.250000
0.022936 0.017065 0.033654 0.198884 0.585960 0.785554 0.904761 0.375000
0.018722 0.030327 0.024828 0.198884 0.585960 0.785554 0.895938 0.250000
-0.004575 0.030547 0.030562 0.198884 0.585960 0.785554 1.000000 0.250000
-0.007497 0.017119 0.040004 0.172699 0.541122 0.823020 1.000000 0.375000
0.022936 0.017065 0.033654 0.172699 0.541122 0.823020 0.904761 0.375000
-0.004575 0.030547 0.030562 0.172699 0.541122 0.823020 1.000000 0.250000
-0.004575 0.030547 0.030562 -0.145498 0.915456 0.375195 0.024770 0.250000
0.003708 0.041196 0.007792 -0.145498 0.915456 0.375195 0.044408 0.072368
-0.013027 0.039044 0.006553 -0.145498 0.915456 0.375195 0.178688 0.125000
-0.024828 0.030327 0.018723 -0.242544 0.884551 0.398424 0.145937 0.250000
-0.004575 0.030547 0.030562 -0.242544 0.884551 0.398424 0.024770 0.250000
-0.013027 0.039044 0.006553 -0.242544 0.884551 0.398424 0.178688 0.125000
-0.013027 0.039044 0.006553 -0.498295 0.857090 0.130759 0.178688 0.125000
-0.030562 0.030547 -0.004575 -0.498295 0.857090 0.130759 0.274771 0.250000
-0.024828 0.030327 0.018723 -0.498295 0.857090 0.130759 0.145937 0.250000
-0.030562 0.030547 -0.004575 -0.369025 0.921373 -0.122030 0.274771 0.250000
-0.013027 0.039044 0.006553 -0.369025 0.921373 -0.122030 0.178688 0.125000
-0.006553 0.039044 -0.013027 -0.369025 0.921373 -0.122030 0.428688 0.125000
-0.018722 0.030327 -0.024828 -0.398424 0.884549 -0.242550 0.395937 0.250000
-0.030562 0.030547 -0.004575 -0.398424 0.884549 -0.242550 0.274771 0.250000
-0.006553 0.039044 -0.013027 -0.398424 0.884549 -0.242550 0.428688 0.125000
-0.006553 0.039044 -0.013027 -0.130763 0.857088 -0.498298 0.428688 0.125000
0.004575 0.030547 -0.030562 -0.130763 0.857088 -0.498298 0.524771 0.250000
-0.018722 0.030327 -0.024828 -0.130763 0.857088 -0.498298 0.395937 0.250000
0.004575 0.030547 -0.030562 0.122030 0.921373 -0.369025 0.524771 0.250000
-0.006553 0.039044 -0.013027 0.122030 0.921373 -0.369025 0.428688 0.125000
0.013027 0.039044 -0.006553 0.122030 0.921373 -0.369025 0.678688 0.125000
0.024828 0.030327 -0.018723 0.242542 0.884552 -0.398423 0.645937 0.250000
0.004575 0.030547 -0.030562 0.242542 0.884552 -0.398423 0.524771 0.250000
0.013027 0.039044 -0.006553 0.242542 0.884552 -0.398423 0.678688 0.125000
0.013027 0.039044 -0.006553 0.498295 0.857091 -0.130758 0.678688 0.125000
0.030562 0.030547 0.004575 0.498295 0.857091 -0.130758 0.774771 0.250000
0.024828 0.030327 -0.018723 0.498295 0.857091 -0.130758 0.645937 0.250000
0.030562 0.030547 0.004575 0.377561 0.919743 0.107332 0.774771 0.250000
0.013027 0.039044 -0.006553 0.377561 0.919743 0.107332 0.678688 0.125000
0.003708 0.041196 0.007792 0.377561 0.919743 0.107332 0.871996 0.072368
0.018722 0.030327 0.024828 0.382458 0.894029 0.233319 0.895938 0.250000
0.030562 0.030547 0.004575 0.382458 0.894029 0.233319 0.774771 0.250000
0.003708 0.041196 0.007792 0.382458 0.894029 0.233319 0.871996 0.072368
0.003708 0.041196 0.007792 0.120627 0.881667 0.456193 0.871996 0.072368
-0.004575 0.030547 0.030562 0.120627 0.881667 0.456193 1.000000 0.250000
0.018722 0.030327 0.024828 0.120627 0.881667 0.456193 0.895938 0.250000
-0.006553 0.039044 -0.013027 -0.124426 0.991375 -0.041147 0.428688 0.125000
-0.013027 0.039044 0.006553 -0.124426 0.991375 -0.041147 0.178688 0.125000
0.003708 0.041196 0.007792 -0.124426 0.991375 -0.041147 0.312500 0.000000
0.013027 0.039044 -0.006553 0.040493 0.991648 -0.122450 0.678688 0.125000
-0.006553 0.039044 -0.013027 0.040493 0.991648 -0.122450 0.428688 0.125000
0.003708 0.041196 0.007792 0.040493 0.991648 -0.122450 0.562500 0.000000
3 0 1 2
3 3 4 5
3 6 7 8
3 9 10 11
3 12 13 14
3 15 16 17
3 18 19 20
3 21 22 23
3 24 25 26
3 27 28 29
3 30 31 32
3 33 34 35
3 36 37 38
3 39 40 41
3 42 43 44
3 45 46 47
3 48 49 50
3 51 52 53
3 54 55 56
3 57 58 59
3 60 61 62
3 63 64 65
3 66 67 68
3 69 70 71
3 72 73 74
3 75 76 77
3 78 79 80
3 81 82 83
3 84 85 86
3 87 88 89
3 90 91 92
3 93 94 95
3 96 97 98
3 99 100 101
3 102 103 104
3 105 106 107
3 108 109 110
3 111 112 113
3 114 115 116
3 117 118 119
3 120 121 122
3 123 124 125
3 126 127 128
3 129 130 131
3 132 133 134
3 135 136 137
3 138 139 140
3 141 142 143
3 144 145 146
3 147 148 149
3 150 151 152
3 153 154 155
3 156 157 158
3 159 160 161
3 162 163 164
3 165 166 167
3 168 169 170
3 171 172 173
3 174 175 176
3 177 178 179
3 180 181 182
3 183 184 185
3 186 187 188
3 189 190 191
3 192 193 194
3 195 196 197
3 198 199 200
3 201 202 203
3 204 205 206
3 207 208 209
3 210 211 212
3 213 214 215
3 216 217 218
3 219 220 221
3 222 223 224
3 225 226 227
3 228 229 230
3 231 232 233
3 234 235 236
3 237 238 239
3 240 241 242
3 243 244 245
3 246 247 248
3 249 250 251
3 252 253 254
3 255 256 257
3 258 259 260
3 261 262 263
3 264 265 266
3 267 268 269
3 270 271 272
3 273 274 275
3 276 277 278
3 279 280 281
3 282 283 284
3 285 286 287
