ply
format ascii 1.0
comment Created by Blender 2.69 (sub 0) - www.blender.org, source file: ''
element vertex 258
property float x
property float y
property float z
property float nx
property float ny
property float nz
property float s
property float t
element face 86
property list uchar uint vertex_indices
end_header
0.000000 0.000000 -0.071533 -0.251965 -0.103743 -0.962159 0.741309 0.151425
-0.011315 -0.028389 -0.065509 -0.251965 -0.103743 -0.962159 0.815137 0.219176
-0.025106 0.014074 -0.066476 -0.251965 -0.103743 -0.962159 0.637356 0.231811
0.000000 0.000000 -0.071533 -0.065436 0.232011 -0.970510 0.547253 0.146612
-0.025106 0.014074 -0.066476 -0.065436 0.232011 -0.970510 0.637356 0.231811
0.011314 0.028389 -0.065509 -0.065436 0.232011 -0.970510 0.448710 0.231124
0.000000 0.000000 -0.071533 0.251963 0.103741 -0.962160 0.354513 0.152015
0.011314 0.028389 -0.065509 0.251963 0.103741 -0.962160 0.448710 0.231124
0.025106 -0.014073 -0.066476 0.251963 0.103741 -0.962160 0.250136 0.231092
0.000000 0.000000 -0.071533 0.065433 -0.232015 -0.970509 0.215395 0.140522
0.025106 -0.014073 -0.066476 0.065433 -0.232015 -0.970509 0.250136 0.231092
-0.011315 -0.028389 -0.065509 0.065433 -0.232015 -0.970509 0.154887 0.205851
-0.036280 -0.042886 -0.045986 -0.264108 -0.581484 -0.769495 0.830897 0.313992
-0.011315 -0.028389 -0.065509 -0.264108 -0.581484 -0.769495 0.815137 0.219176
-0.015495 -0.059361 -0.040670 -0.264108 -0.581484 -0.769495 0.910939 0.315362
-0.055832 0.001378 -0.046501 -0.484099 -0.176742 -0.856977 0.709167 0.324187
-0.025106 0.014074 -0.066476 -0.484099 -0.176742 -0.856977 0.637356 0.231811
-0.011315 -0.028389 -0.065509 -0.484099 -0.176742 -0.856977 0.815137 0.219176
-0.055832 0.001378 -0.046501 -0.510382 -0.235066 -0.827196 0.709167 0.324187
-0.011315 -0.028389 -0.065509 -0.510382 -0.235066 -0.827196 0.815137 0.219176
-0.036280 -0.042886 -0.045986 -0.510382 -0.235066 -0.827196 0.830897 0.313992
-0.033733 0.044510 -0.046501 -0.604908 0.309925 -0.733507 0.588773 0.321923
-0.025106 0.014074 -0.066476 -0.604908 0.309925 -0.733507 0.637356 0.231811
-0.055832 0.001378 -0.046501 -0.604908 0.309925 -0.733507 0.709167 0.324187
-0.002451 0.062498 -0.036743 -0.207270 0.580480 -0.787453 0.500499 0.346905
0.011314 0.028389 -0.065509 -0.207270 0.580480 -0.787453 0.448710 0.231124
-0.025106 0.014074 -0.066476 -0.207270 0.580480 -0.787453 0.637356 0.231811
-0.002451 0.062498 -0.036743 -0.047317 0.538651 -0.841199 0.500499 0.346905
-0.025106 0.014074 -0.066476 -0.047317 0.538651 -0.841199 0.637356 0.231811
-0.033733 0.044510 -0.046501 -0.047317 0.538651 -0.841199 0.588773 0.321923
0.036280 0.042886 -0.045986 0.170115 0.674533 -0.718377 0.404990 0.322149
0.011314 0.028389 -0.065509 0.170115 0.674533 -0.718377 0.448710 0.231124
-0.002451 0.062498 -0.036743 0.170115 0.674533 -0.718377 0.500499 0.346905
0.060426 -0.004303 -0.041346 0.533161 0.191925 -0.823956 0.275913 0.340373
0.025106 -0.014073 -0.066476 0.533161 0.191925 -0.823956 0.250136 0.231092
0.011314 0.028389 -0.065509 0.533161 0.191925 -0.823956 0.448710 0.231124
0.060426 -0.004303 -0.041346 0.533082 0.191736 -0.824051 0.275913 0.340373
0.011314 0.028389 -0.065509 0.533082 0.191736 -0.824051 0.448710 0.231124
0.036280 0.042886 -0.045986 0.533082 0.191736 -0.824051 0.404990 0.322149
0.034311 -0.049926 -0.041346 0.605565 -0.346637 -0.716334 0.149218 0.328356
0.025106 -0.014073 -0.066476 0.605565 -0.346637 -0.716334 0.250136 0.231092
0.060426 -0.004303 -0.041346 0.605565 -0.346637 -0.716334 0.275913 0.340373
-0.015495 -0.059361 -0.040670 0.226991 -0.627773 -0.744565 0.080286 0.272604
-0.011315 -0.028389 -0.065509 0.226991 -0.627773 -0.744565 0.154887 0.205851
0.025106 -0.014073 -0.066476 0.226991 -0.627773 -0.744565 0.250136 0.231092
-0.015495 -0.059361 -0.040670 0.093959 -0.555154 -0.826424 0.080286 0.272604
0.025106 -0.014073 -0.066476 0.093959 -0.555154 -0.826424 0.250136 0.231092
0.034311 -0.049926 -0.041346 0.093959 -0.555154 -0.826424 0.149218 0.328356
-0.054661 -0.045278 -0.011598 -0.530200 -0.777807 -0.337497 0.826833 0.418327
-0.036280 -0.042886 -0.045986 -0.530200 -0.777807 -0.337497 0.830897 0.313992
-0.015495 -0.059361 -0.040670 -0.530200 -0.777807 -0.337497 0.910939 0.315362
-0.066149 -0.015098 -0.021397 -0.766685 -0.344952 -0.541481 0.755203 0.393438
-0.055832 0.001378 -0.046501 -0.766685 -0.344952 -0.541481 0.709167 0.324187
-0.036280 -0.042886 -0.045986 -0.766685 -0.344952 -0.541481 0.830897 0.313992
-0.066149 -0.015098 -0.021397 -0.778283 -0.441296 -0.446691 0.755203 0.393438
-0.036280 -0.042886 -0.045986 -0.778283 -0.441296 -0.446691 0.830897 0.313992
-0.054661 -0.045278 -0.011598 -0.778283 -0.441296 -0.446691 0.826833 0.418327
-0.069480 0.014506 -0.011598 -0.928874 0.017940 -0.369961 0.690030 0.420545
-0.055832 0.001378 -0.046501 -0.928874 0.017940 -0.369961 0.709167 0.324187
-0.066149 -0.015098 -0.021397 -0.928874 0.017940 -0.369961 0.755203 0.393438
-0.045082 0.051878 -0.023046 -0.771925 0.395496 -0.497710 0.599924 0.392774
-0.033733 0.044510 -0.046501 -0.771925 0.395496 -0.497710 0.588773 0.321923
-0.055832 0.001378 -0.046501 -0.771925 0.395496 -0.497710 0.709167 0.324187
-0.045082 0.051878 -0.023046 -0.802108 0.383405 -0.457846 0.599924 0.392774
-0.055832 0.001378 -0.046501 -0.802108 0.383405 -0.457846 0.709167 0.324187
-0.069480 0.014506 -0.011598 -0.802108 0.383405 -0.457846 0.690030 0.420545
-0.002451 0.062498 -0.036743 -0.345793 0.834310 -0.429365 0.500499 0.346905
-0.033733 0.044510 -0.046501 -0.345793 0.834310 -0.429365 0.588773 0.321923
-0.045082 0.051878 -0.023046 -0.345793 0.834310 -0.429365 0.599924 0.392774
0.029603 0.064510 -0.011597 0.310359 0.830732 -0.462127 0.438311 0.419325
0.036280 0.042886 -0.045986 0.310359 0.830732 -0.462127 0.404990 0.322149
-0.002451 0.062498 -0.036743 0.310359 0.830732 -0.462127 0.500499 0.346905
0.054661 0.045278 -0.011597 0.569030 0.741396 -0.355719 0.375368 0.419923
0.036280 0.042886 -0.045986 0.569030 0.741396 -0.355719 0.404990 0.322149
0.029603 0.064510 -0.011597 0.569030 0.741396 -0.355719 0.438311 0.419325
0.068893 0.017077 -0.011598 0.796728 0.359935 -0.485460 0.310973 0.420545
0.060426 -0.004303 -0.041346 0.796728 0.359935 -0.485460 0.275913 0.340373
0.036280 0.042886 -0.045986 0.796728 0.359935 -0.485460 0.404990 0.322149
0.068893 0.017077 -0.011598 0.795771 0.401609 -0.453276 0.310973 0.420545
0.036280 0.042886 -0.045986 0.795771 0.401609 -0.453276 0.404990 0.322149
0.054661 0.045278 -0.011597 0.795771 0.401609 -0.453276 0.375368 0.419923
0.056306 -0.043215 -0.011598 0.766949 -0.439016 -0.468032 0.174174 0.418328
0.034311 -0.049926 -0.041346 0.766949 -0.439016 -0.468032 0.149218 0.328356
0.060426 -0.004303 -0.041346 0.766949 -0.439016 -0.468032 0.275913 0.340373
0.001319 -0.070966 -0.011597 0.160880 -0.881089 -0.444746 0.023463 0.401256
-0.015495 -0.059361 -0.040670 0.160880 -0.881089 -0.444746 0.080286 0.272604
0.034311 -0.049926 -0.041346 0.160880 -0.881089 -0.444746 0.149218 0.328356
0.001319 -0.070966 -0.011597 -0.334156 -0.925877 -0.176330 0.977546 0.401254
-0.031979 -0.063366 0.011598 -0.334156 -0.925877 -0.176330 0.900345 0.485936
-0.015495 -0.059361 -0.040670 -0.334156 -0.925877 -0.176330 0.910939 0.315362
-0.031979 -0.063366 0.011598 -0.466735 -0.858371 -0.212971 0.900345 0.485936
-0.054661 -0.045278 -0.011598 -0.466735 -0.858371 -0.212971 0.826833 0.418327
-0.015495 -0.059361 -0.040670 -0.466735 -0.858371 -0.212971 0.910939 0.315362
-0.054661 -0.045278 -0.011598 -0.921470 -0.378757 -0.086235 0.826833 0.418327
-0.069480 -0.014506 0.011598 -0.921470 -0.378757 -0.086235 0.757032 0.479222
-0.066149 -0.015098 -0.021397 -0.921470 -0.378757 -0.086235 0.755203 0.393438
-0.069480 -0.014506 0.011598 -0.991977 -0.078943 -0.098737 0.757032 0.479222
-0.069480 0.014506 -0.011598 -0.991977 -0.078943 -0.098737 0.690030 0.420545
-0.066149 -0.015098 -0.021397 -0.991977 -0.078943 -0.098737 0.755203 0.393438
-0.069480 0.014506 -0.011598 -0.848146 0.511734 -0.137027 0.690030 0.420545
-0.054661 0.045278 0.011598 -0.848146 0.511734 -0.137027 0.625698 0.480279
-0.045082 0.051878 -0.023046 -0.848146 0.511734 -0.137027 0.599924 0.392774
-0.054661 0.045278 0.011598 -0.608765 0.793164 -0.017220 0.625698 0.480279
-0.029603 0.064510 0.011598 -0.608765 0.793164 -0.017220 0.562713 0.480869
-0.045082 0.051878 -0.023046 -0.608765 0.793164 -0.017220 0.599924 0.392774
-0.029603 0.064510 0.011598 -0.201933 0.967264 -0.153696 0.562713 0.480869
0.001319 0.070966 0.011598 -0.201933 0.967264 -0.153696 0.500499 0.481305
-0.002451 0.062498 -0.036743 -0.201933 0.967264 -0.153696 0.500499 0.346905
-0.029603 0.064510 0.011598 -0.298458 0.931830 -0.206435 0.562713 0.480869
-0.002451 0.062498 -0.036743 -0.298458 0.931830 -0.206435 0.500499 0.346905
-0.045082 0.051878 -0.023046 -0.298458 0.931830 -0.206435 0.599924 0.392774
0.001319 0.070966 0.011598 0.077980 0.980949 -0.177926 0.500499 0.481305
0.029603 0.064510 -0.011597 0.077980 0.980949 -0.177926 0.438311 0.419325
-0.002451 0.062498 -0.036743 0.077980 0.980949 -0.177926 0.500499 0.346905
0.068893 0.017077 -0.011598 0.974298 -0.126556 -0.186351 0.310973 0.420545
0.068893 -0.017077 0.011598 0.974298 -0.126556 -0.186351 0.243974 0.479223
0.060426 -0.004303 -0.041346 0.974298 -0.126556 -0.186351 0.275913 0.340373
0.068893 -0.017077 0.011598 0.940728 -0.263171 -0.213945 0.243974 0.479223
0.056306 -0.043215 -0.011598 0.940728 -0.263171 -0.213945 0.174174 0.418328
0.060426 -0.004303 -0.041346 0.940728 -0.263171 -0.213945 0.275913 0.340373
0.056306 -0.043215 -0.011598 0.508518 -0.840644 -0.186355 0.174174 0.418328
0.029603 -0.064510 0.011597 0.508518 -0.840644 -0.186355 0.100664 0.485937
0.034311 -0.049926 -0.041346 0.508518 -0.840644 -0.186355 0.149218 0.328356
0.029603 -0.064510 0.011597 0.380776 -0.899575 -0.213949 0.100664 0.485937
0.001319 -0.070966 -0.011597 0.380776 -0.899575 -0.213949 0.023463 0.401256
0.034311 -0.049926 -0.041346 0.380776 -0.899575 -0.213949 0.149218 0.328356
-0.033733 -0.044510 0.046501 -0.344089 -0.833222 0.432833 0.838555 0.586993
-0.031979 -0.063366 0.011598 -0.344089 -0.833222 0.432833 0.900345 0.485936
-0.002452 -0.062497 0.036743 -0.344089 -0.833222 0.432833 0.939948 0.593423
-0.033733 -0.044510 0.046501 -0.565114 -0.737407 0.369968 0.838555 0.586993
-0.053047 -0.042304 0.021397 -0.565114 -0.737407 0.369968 0.824320 0.508517
-0.031979 -0.063366 0.011598 -0.565114 -0.737407 0.369968 0.900345 0.485936
-0.055832 -0.001378 0.046501 -0.829461 -0.331982 0.449201 0.716170 0.575545
-0.069480 -0.014506 0.011598 -0.829461 -0.331982 0.449201 0.757032 0.479222
-0.053047 -0.042304 0.021397 -0.829461 -0.331982 0.449201 0.824320 0.508517
-0.055832 -0.001378 0.046501 -0.748026 -0.383255 0.541824 0.716170 0.575545
-0.053047 -0.042304 0.021397 -0.748026 -0.383255 0.541824 0.824320 0.508517
-0.033733 -0.044510 0.046501 -0.748026 -0.383255 0.541824 0.838555 0.586993
-0.055832 -0.001378 0.046501 -0.928874 -0.017940 0.369961 0.716170 0.575545
-0.066149 0.015098 0.021397 -0.928874 -0.017940 0.369961 0.689591 0.505973
-0.069480 -0.014506 0.011598 -0.928874 -0.017940 0.369961 0.757032 0.479222
-0.036280 0.042886 0.045986 -0.778282 0.441298 0.446691 0.596157 0.577943
-0.054661 0.045278 0.011598 -0.778282 0.441298 0.446691 0.625698 0.480279
-0.066149 0.015098 0.021397 -0.778282 0.441298 0.446691 0.689591 0.505973
-0.036280 0.042886 0.045986 -0.766684 0.344952 0.541482 0.596157 0.577943
-0.066149 0.015098 0.021397 -0.766684 0.344952 0.541482 0.689591 0.505973
-0.055832 -0.001378 0.046501 -0.766684 0.344952 0.541482 0.716170 0.575545
-0.036280 0.042886 0.045986 -0.569030 0.741394 0.355724 0.596157 0.577943
-0.029603 0.064510 0.011598 -0.569030 0.741394 0.355724 0.562713 0.480869
-0.054661 0.045278 0.011598 -0.569030 0.741394 0.355724 0.625698 0.480279
0.000000 0.055927 0.044600 -0.187203 0.896689 0.401129 0.500500 0.580808
0.001319 0.070966 0.011598 -0.187203 0.896689 0.401129 0.500499 0.481305
-0.029603 0.064510 0.011598 -0.187203 0.896689 0.401129 0.562713 0.480869
0.000000 0.055927 0.044600 -0.282470 0.835825 0.470752 0.500500 0.580808
-0.029603 0.064510 0.011598 -0.282470 0.835825 0.470752 0.562713 0.480869
-0.036280 0.042886 0.045986 -0.282470 0.835825 0.470752 0.596157 0.577943
0.034311 0.049926 0.041346 0.194787 0.889583 0.413159 0.418264 0.561733
0.001319 0.070966 0.011598 0.194787 0.889583 0.413159 0.500499 0.481305
0.000000 0.055927 0.044600 0.194787 0.889583 0.413159 0.500500 0.580808
0.055832 0.001378 0.046501 0.688664 0.371417 0.622729 0.291534 0.575511
0.063126 0.027180 0.023046 0.688664 0.371417 0.622729 0.337346 0.506368
0.034311 0.049926 0.041346 0.688664 0.371417 0.622729 0.418264 0.561733
0.055832 0.001378 0.046501 0.942141 0.036572 0.333217 0.291534 0.575511
0.068893 -0.017077 0.011598 0.942141 0.036572 0.333217 0.243974 0.479223
0.063126 0.027180 0.023046 0.942141 0.036572 0.333217 0.337346 0.506368
0.041566 -0.044478 0.040706 0.821787 -0.315611 0.474400 0.171508 0.566419
0.068893 -0.017077 0.011598 0.821787 -0.315611 0.474400 0.243974 0.479223
0.055832 0.001378 0.046501 0.821787 -0.315611 0.474400 0.291534 0.575511
-0.002452 -0.062497 0.036743 0.302563 -0.838690 0.452830 0.061063 0.593425
0.029603 -0.064510 0.011597 0.302563 -0.838690 0.452830 0.100664 0.485937
0.041566 -0.044478 0.040706 0.302563 -0.838690 0.452830 0.171508 0.566419
-0.025106 -0.014073 0.066476 -0.047325 -0.538655 0.841196 0.751321 0.668434
-0.033733 -0.044510 0.046501 -0.047325 -0.538655 0.841196 0.838555 0.586993
-0.002452 -0.062497 0.036743 -0.047325 -0.538655 0.841196 0.939948 0.593423
-0.025106 -0.014073 0.066476 -0.207265 -0.580481 0.787454 0.751321 0.668434
-0.002452 -0.062497 0.036743 -0.207265 -0.580481 0.787454 0.939948 0.593423
0.011314 -0.028389 0.065509 -0.207265 -0.580481 0.787454 0.846654 0.693376
-0.025106 -0.014073 0.066476 -0.604910 -0.309929 0.733504 0.751321 0.668434
-0.055832 -0.001378 0.046501 -0.604910 -0.309929 0.733504 0.716170 0.575545
-0.033733 -0.044510 0.046501 -0.604910 -0.309929 0.733504 0.838555 0.586993
-0.011315 0.028390 0.065509 -0.510385 0.235068 0.827194 0.552421 0.668945
-0.036280 0.042886 0.045986 -0.510385 0.235068 0.827194 0.596157 0.577943
-0.055832 -0.001378 0.046501 -0.510385 0.235068 0.827194 0.716170 0.575545
-0.011315 0.028390 0.065509 -0.484100 0.176742 0.856977 0.552421 0.668945
-0.055832 -0.001378 0.046501 -0.484100 0.176742 0.856977 0.716170 0.575545
-0.025106 -0.014073 0.066476 -0.484100 0.176742 0.856977 0.751321 0.668434
-0.011315 0.028390 0.065509 -0.203212 0.643703 0.737801 0.552421 0.668945
0.000000 0.055927 0.044600 -0.203212 0.643703 0.737801 0.500500 0.580808
-0.036280 0.042886 0.045986 -0.203212 0.643703 0.737801 0.596157 0.577943
0.025106 0.014074 0.066476 0.172086 0.535416 0.826871 0.363333 0.668091
0.034311 0.049926 0.041346 0.172086 0.535416 0.826871 0.418264 0.561733
0.000000 0.055927 0.044600 0.172086 0.535416 0.826871 0.500500 0.580808
0.025106 0.014074 0.066476 0.191494 0.542417 0.817993 0.363333 0.668091
0.000000 0.055927 0.044600 0.191494 0.542417 0.817993 0.500500 0.580808
-0.011315 0.028390 0.065509 0.191494 0.542417 0.817993 0.552421 0.668945
0.025106 0.014074 0.066476 0.607638 0.345320 0.715213 0.363333 0.668091
0.055832 0.001378 0.046501 0.607638 0.345320 0.715213 0.291534 0.575511
0.034311 0.049926 0.041346 0.607638 0.345320 0.715213 0.418264 0.561733
0.011314 -0.028389 0.065509 0.523115 -0.265106 0.809981 0.185372 0.680138
0.041566 -0.044478 0.040706 0.523115 -0.265106 0.809981 0.171508 0.566419
0.055832 0.001378 0.046501 0.523115 -0.265106 0.809981 0.291534 0.575511
0.011314 -0.028389 0.065509 0.484096 -0.176743 0.856979 0.185372 0.680138
0.055832 0.001378 0.046501 0.484096 -0.176743 0.856979 0.291534 0.575511
0.025106 0.014074 0.066476 0.484096 -0.176743 0.856979 0.363333 0.668091
0.011314 -0.028389 0.065509 0.214686 -0.678861 0.702180 0.185372 0.680138
-0.002452 -0.062497 0.036743 0.214686 -0.678861 0.702180 0.061063 0.593425
0.041566 -0.044478 0.040706 0.214686 -0.678861 0.702180 0.171508 0.566419
0.000000 0.000000 0.071533 -0.065429 -0.232009 0.970511 0.786310 0.758873
-0.025106 -0.014073 0.066476 -0.065429 -0.232009 0.970511 0.751321 0.668434
0.011314 -0.028389 0.065509 -0.065429 -0.232009 0.970511 0.846654 0.693376
0.000000 0.000000 0.071533 -0.251960 0.103742 0.962161 0.647029 0.747859
-0.011315 0.028390 0.065509 -0.251960 0.103742 0.962161 0.552421 0.668945
-0.025106 -0.014073 0.066476 -0.251960 0.103742 0.962161 0.751321 0.668434
0.000000 0.000000 0.071533 0.065431 0.232009 0.970511 0.453577 0.753459
0.025106 0.014074 0.066476 0.065431 0.232009 0.970511 0.363333 0.668091
-0.011315 0.028390 0.065509 0.065431 0.232009 0.970511 0.552421 0.668945
0.000000 0.000000 0.071533 0.251960 -0.103743 0.962161 0.258986 0.748136
0.011314 -0.028389 0.065509 0.251960 -0.103743 0.962161 0.185372 0.680138
0.025106 0.014074 0.066476 0.251960 -0.103743 0.962161 0.363333 0.668091
-0.002452 -0.062497 0.036743 -0.110120 -0.980433 0.163168 0.939948 0.593423
-0.031979 -0.063366 0.011598 -0.110120 -0.980433 0.163168 0.900345 0.485936
0.001319 -0.070966 -0.011597 -0.110120 -0.980433 0.163168 0.977546 0.401254
-0.031979 -0.063366 0.011598 -0.680209 -0.726338 0.098735 0.900345 0.485936
-0.053047 -0.042304 0.021397 -0.680209 -0.726338 0.098735 0.824320 0.508517
-0.054661 -0.045278 -0.011598 -0.680209 -0.726338 0.098735 0.826833 0.418327
-0.053047 -0.042304 0.021397 -0.870650 -0.484285 0.086232 0.824320 0.508517
-0.069480 -0.014506 0.011598 -0.870650 -0.484285 0.086232 0.757032 0.479222
-0.054661 -0.045278 -0.011598 -0.870650 -0.484285 0.086232 0.826833 0.418327
-0.069480 -0.014506 0.011598 -0.991977 0.078943 0.098736 0.757032 0.479222
-0.066149 0.015098 0.021397 -0.991977 0.078943 0.098736 0.689591 0.505973
-0.069480 0.014506 -0.011598 -0.991977 0.078943 0.098736 0.690030 0.420545
-0.066149 0.015098 0.021397 -0.921470 0.378758 0.086233 0.689591 0.505973
-0.054661 0.045278 0.011598 -0.921470 0.378758 0.086233 0.625698 0.480279
-0.069480 0.014506 -0.011598 -0.921470 0.378758 0.086233 0.690030 0.420545
0.001319 0.070966 0.011598 0.380779 0.899574 0.213950 0.500499 0.481305
0.034311 0.049926 0.041346 0.380779 0.899574 0.213950 0.418264 0.561733
0.029603 0.064510 -0.011597 0.380779 0.899574 0.213950 0.438311 0.419325
0.034311 0.049926 0.041346 0.682302 0.703027 0.200541 0.418264 0.561733
0.063126 0.027180 0.023046 0.682302 0.703027 0.200541 0.337346 0.506368
0.054661 0.045278 -0.011597 0.682302 0.703027 0.200541 0.375368 0.419923
0.034311 0.049926 0.041346 0.600791 0.782777 0.162208 0.418264 0.561733
0.054661 0.045278 -0.011597 0.600791 0.782777 0.162208 0.375368 0.419923
0.029603 0.064510 -0.011597 0.600791 0.782777 0.162208 0.438311 0.419325
0.063126 0.027180 0.023046 0.892619 0.450483 0.017220 0.337346 0.506368
0.068893 0.017077 -0.011598 0.892619 0.450483 0.017220 0.310973 0.420545
0.054661 0.045278 -0.011597 0.892619 0.450483 0.017220 0.375368 0.419923
0.063126 0.027180 0.023046 0.986186 0.093059 0.137028 0.337346 0.506368
0.068893 -0.017077 0.011598 0.986186 0.093059 0.137028 0.243974 0.479223
0.068893 0.017077 -0.011598 0.986186 0.093059 0.137028 0.310973 0.420545
0.068893 -0.017077 0.011598 0.794787 -0.569312 0.210232 0.243974 0.479223
0.041566 -0.044478 0.040706 0.794787 -0.569312 0.210232 0.171508 0.566419
0.056306 -0.043215 -0.011598 0.794787 -0.569312 0.210232 0.174174 0.418328
0.041566 -0.044478 0.040706 0.704880 -0.685556 0.182090 0.171508 0.566419
0.029603 -0.064510 0.011597 0.704880 -0.685556 0.182090 0.100664 0.485937
0.056306 -0.043215 -0.011598 0.704880 -0.685556 0.182090 0.174174 0.418328
0.029603 -0.064510 0.011597 0.077979 -0.980949 0.177930 0.100664 0.485937
-0.002452 -0.062497 0.036743 0.077979 -0.980949 0.177930 0.061063 0.593425
0.001319 -0.070966 -0.011597 0.077979 -0.980949 0.177930 0.023463 0.401256
3 0 1 2
3 3 4 5
3 6 7 8
3 9 10 11
3 12 13 14
3 15 16 17
3 18 19 20
3 21 22 23
3 24 25 26
3 27 28 29
3 30 31 32
3 33 34 35
3 36 37 38
3 39 40 41
3 42 43 44
3 45 46 47
3 48 49 50
3 51 52 53
3 54 55 56
3 57 58 59
3 60 61 62
3 63 64 65
3 66 67 68
3 69 70 71
3 72 73 74
3 75 76 77
3 78 79 80
3 81 82 83
3 84 85 86
3 87 88 89
3 90 91 92
3 93 94 95
3 96 97 98
3 99 100 101
3 102 103 104
3 105 106 107
3 108 109 110
3 111 112 113
3 114 115 116
3 117 118 119
3 120 121 122
3 123 124 125
3 126 127 128
3 129 130 131
3 132 133 134
3 135 136 137
3 138 139 140
3 141 142 143
3 144 145 146
3 147 148 149
3 150 151 152
3 153 154 155
3 156 157 158
3 159 160 161
3 162 163 164
3 165 166 167
3 168 169 170
3 171 172 173
3 174 175 176
3 177 178 179
3 180 181 182
3 183 184 185
3 186 187 188
3 189 190 191
3 192 193 194
3 195 196 197
3 198 199 200
3 201 202 203
3 204 205 206
3 207 208 209
3 210 211 212
3 213 214 215
3 216 217 218
3 219 220 221
3 222 223 224
3 225 226 227
3 228 229 230
3 231 232 233
3 234 235 236
3 237 238 239
3 240 241 242
3 243 244 245
3 246 247 248
3 249 250 251
3 252 253 254
3 255 256 257
