####
#
# OBJ File Generated by Meshlab
#
####
# Object fingerpart_col.obj
#
# Vertices: 30
# Faces: 54
#
####
vn 0.000000 0.000000 0.000000
v 0.000000 0.000000 0.000000 0.000000 0.000000 0.000000
vn -1.498505 0.305531 -4.245874
v -0.004500 0.000000 -0.010000 1.000000 1.000000 1.000000
vn -2.162870 5.060148 -0.880115
v -0.007842 0.008456 0.008665 0.800000 0.400000 0.000000
vn -4.986432 -2.443847 -0.384267
v -0.009803 -0.006733 0.009667 0.800000 0.400000 0.000000
vn -2.132603 -5.179753 -0.699949
v -0.007584 -0.008451 0.007803 0.756863 0.529412 0.309804
vn -2.343986 -5.249205 0.458650
v -0.007829 -0.008407 0.023349 0.878431 0.647059 0.419608
vn -5.039622 2.380762 -0.486479
v -0.009812 0.006745 0.009602 0.819608 0.447059 0.086275
vn -4.988249 -2.241814 0.539424
v -0.009782 -0.006832 0.021815 0.807843 0.427451 0.047059
vn -4.995402 2.237579 0.568870
v -0.009779 0.006807 0.021819 0.800000 0.400000 0.000000
vn -2.113394 5.336102 0.505786
v -0.007708 0.008466 0.023085 0.768627 0.478431 0.188235
vn 3.428146 -2.181477 -1.853144
v 0.007125 -0.004990 -0.002765 0.698039 0.737255 0.788235
vn 2.932437 -3.798095 -0.418179
v 0.006497 -0.008144 0.005905 0.717647 0.749020 0.800000
vn 4.681640 1.697626 -1.946247
v 0.007120 0.001866 -0.002486 0.698039 0.737255 0.788235
vn 3.333096 2.303250 1.453808
v 0.007077 0.006763 0.034091 0.698039 0.737255 0.788235
vn 4.551986 -1.669268 1.649068
v 0.007206 -0.006404 0.033824 0.698039 0.737255 0.788235
vn -2.556466 2.288624 2.112107
v -0.006140 0.006801 0.035938 0.768627 0.800000 0.839216
vn -0.369721 2.444484 3.239362
v -0.000347 0.006841 0.038931 0.776471 0.807843 0.847059
vn 1.681020 2.509210 2.941891
v 0.003380 0.006848 0.038036 0.698039 0.737255 0.788235
vn 1.918411 5.110787 -1.127256
v 0.005647 0.008286 0.005642 0.686275 0.737255 0.788235
vn 4.607912 2.548713 -0.871149
v 0.007180 0.007055 0.005613 0.686275 0.737255 0.788235
vn 1.974716 5.438642 0.267891
v 0.005376 0.008434 0.025905 0.686275 0.737255 0.788235
vn 2.305084 -4.985857 0.900154
v 0.005322 -0.008316 0.033641 0.698039 0.737255 0.788235
vn -1.475924 -4.647612 2.070005
v -0.003417 -0.008476 0.036083 0.698039 0.737255 0.776471
vn 1.771373 -2.572142 3.143652
v 0.003378 -0.007598 0.037804 0.698039 0.737255 0.788235
vn -3.762837 -1.860921 2.623014
v -0.006173 -0.006579 0.035790 0.698039 0.737255 0.788235
vn -0.643485 -1.826001 4.523653
v -0.000859 -0.006568 0.039019 0.698039 0.737255 0.788235
vn 2.351245 0.882236 -3.836240
v 0.002583 0.001350 -0.008783 1.000000 1.000000 1.000000
vn -4.177799 0.891628 -2.038427
v -0.009090 0.000927 -0.004924 1.000000 1.000000 1.000000
vn -0.311238 3.598352 -3.141887
v -0.001973 0.004538 -0.008187 1.000000 1.000000 1.000000
vn -1.056177 -2.716905 -2.561560
v -0.004481 -0.006222 -0.007972 1.000000 1.000000 1.000000
# 30 vertices, 0 vertices normals

f 5//5 8//8 4//4
f 5//5 6//6 8//8
f 24//24 23//23 22//22
f 22//22 15//15 24//24
f 23//23 26//26 25//25
f 24//24 26//26 23//23
f 24//24 14//14 18//18
f 24//24 18//18 26//26
f 21//21 3//3 10//10
f 12//12 11//11 15//15
f 23//23 25//25 6//6
f 20//20 21//21 14//14
f 25//25 16//16 8//8
f 26//26 17//17 16//16
f 5//5 12//12 23//23
f 23//23 6//6 5//5
f 23//23 12//12 22//22
f 21//21 18//18 14//14
f 24//24 15//15 14//14
f 9//9 7//7 4//4
f 3//3 7//7 9//9
f 13//13 20//20 15//15
f 19//19 21//21 20//20
f 15//15 20//20 14//14
f 27//27 19//19 13//13
f 16//16 10//10 9//9
f 21//21 17//17 18//18
f 10//10 16//16 17//17
f 11//11 27//27 13//13
f 3//3 21//21 19//19
f 7//7 3//3 28//28
f 29//29 3//3 19//19
f 28//28 29//29 2//2
f 30//30 12//12 5//5
f 29//29 19//19 27//27
f 2//2 29//29 27//27
f 28//28 2//2 30//30
f 5//5 4//4 30//30
f 30//30 2//2 27//27
f 12//12 30//30 11//11
f 8//8 16//16 9//9
f 18//18 17//17 26//26
f 25//25 8//8 6//6
f 25//25 26//26 16//16
f 8//8 9//9 4//4
f 22//22 12//12 15//15
f 10//10 3//3 9//9
f 11//11 13//13 15//15
f 19//19 20//20 13//13
f 21//21 10//10 17//17
f 7//7 28//28 4//4
f 3//3 29//29 28//28
f 28//28 30//30 4//4
f 11//11 30//30 27//27
# 54 faces, 0 coords texture

# End of File
