####
#
# OBJ File Generated by Meshlab
#
####
# Object middle_dist_col.obj
#
# Vertices: 52
# Faces: 100
#
####
mtllib ./middle_dist_col.obj.mtl

vn 5.425236 0.640411 -1.977505
v 0.008759 -0.004584 -0.004720
vn 4.724855 -0.283721 -3.720942
v 0.007918 -0.011361 -0.005990
vn 5.694779 0.719894 1.185093
v 0.009321 -0.005261 0.002948
vn 5.442652 -0.239754 1.997989
v 0.009143 -0.011013 0.004200
vn 3.974937 -1.022999 -4.222269
v 0.006618 -0.017808 -0.006620
vn 1.640934 -0.666336 -5.743794
v 0.004532 -0.015607 -0.008022
vn 5.801009 -0.767009 -1.391353
v 0.008783 -0.015809 -0.003289
vn 4.703574 -2.824414 -1.690311
v 0.006052 -0.026547 -0.003631
vn 2.953739 -1.964472 -4.108904
v 0.005358 -0.025704 -0.005393
vn 5.713835 -1.872761 0.153264
v 0.007620 -0.023351 -0.000424
vn 3.964058 -3.856119 1.258683
v 0.005600 -0.027393 -0.000705
vn 4.938954 -2.212129 2.306144
v 0.007312 -0.022142 0.002992
vn 4.300075 -0.937351 3.858564
v 0.007191 -0.016382 0.006374
vn 3.173989 -2.387633 4.405316
v 0.005794 -0.020590 0.005946
vn 1.853076 -1.225368 5.545606
v 0.004721 -0.017305 0.007708
vn 2.289651 1.332714 -4.144083
v 0.005259 0.001793 -0.008464
vn -0.706089 -0.640175 -6.034550
v -0.002517 -0.014615 -0.008488
vn -3.144349 -0.930292 -4.823161
v -0.006135 -0.017131 -0.007141
vn 2.444176 -4.362488 -1.914850
v 0.003701 -0.028863 -0.003686
vn -0.021432 -4.888807 -1.575903
v -0.000068 -0.030053 -0.003678
vn -0.049207 -3.056353 -4.756662
v -0.000097 -0.028474 -0.005404
vn 1.592963 -5.166135 2.018674
v 0.002330 -0.029213 -0.000487
vn -1.038266 -5.217922 1.988556
v -0.001364 -0.029578 -0.000637
vn -2.692534 -4.317523 -1.429481
v -0.004101 -0.028798 -0.003401
vn -4.533843 -2.471060 -2.182838
v -0.006205 -0.026090 -0.004059
vn -2.361547 -2.340001 -4.657025
v -0.004671 -0.026310 -0.005410
vn -5.679588 -1.951669 0.320778
v -0.007586 -0.023502 -0.000610
vn -5.526340 -1.044609 -2.095586
v -0.007959 -0.019379 -0.004035
vn -3.853285 -3.795124 1.536622
v -0.005694 -0.027118 -0.000282
vn -5.374366 -1.518679 1.947013
v -0.008189 -0.019156 0.003042
vn -3.769918 -2.887522 3.222834
v -0.006002 -0.024098 0.003316
vn -0.829694 -4.270650 4.048363
v -0.001372 -0.026626 0.003410
vn 2.284574 -3.869380 3.841000
v 0.003825 -0.025723 0.003450
vn -2.150585 -2.708818 4.799202
v -0.003741 -0.022147 0.006147
vn 0.601699 -2.978901 5.195231
v 0.001265 -0.023110 0.006168
vn -3.707969 -1.102460 4.148695
v -0.006862 -0.016521 0.006720
vn -1.115392 -1.394879 5.684136
v -0.002995 -0.018212 0.008000
vn -5.203389 -0.194974 2.949300
v -0.008493 -0.010400 0.005242
vn 0.197755 -0.517168 6.170358
v 0.000702 -0.014659 0.008522
vn -5.391868 0.587266 -2.036604
v -0.008748 -0.004554 -0.004726
vn -5.205366 -0.259696 -2.673965
v -0.008485 -0.011951 -0.005171
vn -6.130532 -0.419629 0.174246
v -0.009296 -0.012602 0.000891
vn -5.733315 0.668532 1.073713
v -0.009408 -0.005507 0.002710
vn -2.220668 1.443345 -3.962685
v -0.005251 0.002349 -0.008465
vn -2.313726 1.406452 3.883371
v -0.005226 0.002415 0.008413
vn -2.470376 3.213975 2.067004
v -0.005247 0.007179 0.004729
vn -2.514178 3.122348 -2.378343
v -0.005243 0.006788 -0.005172
vn 2.355973 3.066769 -2.070393
v 0.005269 0.007114 -0.004983
vn -2.444625 3.710261 -0.278498
v -0.005235 0.008654 -0.000752
vn 2.401002 3.608013 0.539820
v 0.005251 0.008582 0.001336
vn 2.396539 2.536683 2.967072
v 0.005252 0.005270 0.006903
vn 2.475704 0.834337 4.489913
v 0.005258 0.000842 0.008495
# 52 vertices, 0 vertices normals


usemtl material_0
f 4//4 7//7 3//3
f 5//5 7//7 9//9
f 10//10 8//8 7//7
f 11//11 8//8 10//10
f 9//9 19//19 21//21
f 13//13 12//12 4//4
f 11//11 19//19 8//8
f 22//22 20//20 19//19
f 23//23 24//24 20//20
f 29//29 27//27 25//25
f 24//24 29//29 25//25
f 29//29 24//24 23//23
f 32//32 23//23 22//22
f 33//33 32//32 22//22
f 33//33 22//22 11//11
f 12//12 33//33 11//11
f 35//35 32//32 33//33
f 14//14 33//33 12//12
f 14//14 35//35 33//33
f 15//15 35//35 14//14
f 15//15 37//37 35//35
f 39//39 37//37 15//15
f 41//41 18//18 28//28
f 18//18 25//25 28//28
f 30//30 42//42 27//27
f 42//42 30//30 38//38
f 43//43 42//42 38//38
f 48//48 44//44 47//47
f 50//50 49//49 46//46
f 17//17 18//18 44//44
f 7//7 8//8 9//9
f 41//41 43//43 40//40
f 17//17 21//21 26//26
f 8//8 19//19 9//9
f 5//5 2//2 7//7
f 9//9 6//6 5//5
f 43//43 41//41 42//42
f 20//20 24//24 21//21
f 41//41 28//28 42//42
f 12//12 13//13 14//14
f 28//28 27//27 42//42
f 17//17 44//44 16//16
f 36//36 38//38 30//30
f 7//7 2//2 1//1
f 12//12 10//10 4//4
f 41//41 40//40 44//44
f 44//44 48//48 16//16
f 44//44 18//18 41//41
f 46//46 49//49 43//43
f 48//48 50//50 1//1
f 1//1 50//50 3//3
f 23//23 32//32 29//29
f 26//26 25//25 18//18
f 47//47 40//40 49//49
f 26//26 24//24 25//25
f 32//32 34//34 31//31
f 34//34 36//36 30//30
f 37//37 36//36 34//34
f 29//29 31//31 27//27
f 35//35 34//34 32//32
f 39//39 15//15 52//52
f 15//15 13//13 52//52
f 13//13 4//4 52//52
f 36//36 45//45 38//38
f 45//45 43//43 38//38
f 3//3 51//51 52//52
f 4//4 3//3 52//52
f 49//49 40//40 43//43
f 36//36 37//37 45//45
f 6//6 16//16 5//5
f 45//45 46//46 43//43
f 37//37 39//39 45//45
f 3//3 50//50 51//51
f 39//39 52//52 45//45
f 45//45 52//52 51//51
f 6//6 21//21 17//17
f 3//3 7//7 1//1
f 5//5 16//16 2//2
f 46//46 51//51 50//50
f 16//16 1//1 2//2
f 49//49 50//50 48//48
f 4//4 10//10 7//7
f 16//16 48//48 1//1
f 14//14 13//13 15//15
f 11//11 10//10 12//12
f 21//21 6//6 9//9
f 47//47 49//49 48//48
f 47//47 44//44 40//40
f 17//17 26//26 18//18
f 20//20 22//22 23//23
f 25//25 27//27 28//28
f 35//35 37//37 34//34
f 19//19 11//11 22//22
f 6//6 17//17 16//16
f 46//46 45//45 51//51
f 19//19 20//20 21//21
f 24//24 26//26 21//21
f 32//32 31//31 29//29
f 31//31 34//34 30//30
f 31//31 30//30 27//27
# 100 faces, 0 coords texture

# End of File
