####
#
# OBJ File Generated by Meshlab
#
####
# Object middle_prox_col.obj
#
# Vertices: 63
# Faces: 122
#
####
mtllib ./middle_prox_col.obj.mtl

vn 2.343705 1.770755 -4.354855
v 0.004569 0.002740 -0.007735
vn 2.418931 2.134132 4.288356
v 0.004600 0.003674 0.007313
vn 2.567077 3.163128 -2.805999
v 0.004600 0.005946 -0.005623
vn -2.135499 1.934408 -4.156309
v -0.004294 0.003410 -0.007771
vn 2.321468 3.247426 2.743553
v 0.004437 0.006162 0.005767
vn 2.369311 4.036747 -0.877848
v 0.004423 0.008305 -0.001509
vn -2.331803 3.426539 -2.626154
v -0.004423 0.006714 -0.005118
vn 2.709551 4.058316 0.929317
v 0.004600 0.008061 0.001414
vn -2.342200 4.070622 1.026002
v -0.004413 0.008093 0.002402
vn -2.194779 2.070456 4.152660
v -0.004471 0.003143 0.007773
vn 1.652679 0.821621 5.574239
v 0.004454 -0.000117 0.008342
vn -1.651638 0.591719 5.653881
v -0.004495 -0.000267 0.008362
vn -2.637470 3.403077 2.731791
v -0.004600 0.006567 0.004883
vn -2.686373 4.100013 -0.956702
v -0.004600 0.007838 -0.002354
vn -1.376154 -1.671141 5.363535
v -0.005968 -0.061973 0.007756
vn -0.013318 -0.888237 6.033276
v -0.000074 -0.059846 0.008602
vn -3.558220 -0.914472 4.547144
v -0.007968 -0.061368 0.006914
vn 3.607556 -0.883466 4.502002
v 0.008044 -0.061380 0.006855
vn 1.363873 -1.703641 5.324930
v 0.005913 -0.062059 0.007765
vn 1.159118 0.486669 -5.940104
v 0.002143 -0.011048 -0.009956
vn -0.097188 0.021974 -6.156497
v -0.000010 -0.025698 -0.010546
vn -1.446292 0.354165 -5.914880
v -0.002798 -0.013466 -0.010001
vn 2.514753 -0.025729 -5.504315
v 0.004382 -0.031416 -0.009806
vn 3.946185 0.320450 -4.535468
v 0.007392 -0.009518 -0.007394
vn 5.340576 0.970394 -2.430978
v 0.009530 -0.005760 -0.004081
vn 5.655401 1.038845 0.303627
v 0.010531 -0.005515 0.000435
vn 4.244464 0.755623 3.543696
v 0.008116 -0.004311 0.006668
vn -1.494638 -0.379157 -5.953173
v -0.002900 -0.048370 -0.009791
vn 0.850178 -0.452363 -5.990540
v 0.001465 -0.048347 -0.010145
vn -5.114238 0.686417 -3.264144
v -0.009060 -0.006744 -0.005048
vn -5.666766 1.203106 0.930573
v -0.010349 -0.004623 0.001865
vn -4.355903 0.871159 3.503636
v -0.008570 -0.004330 0.006223
vn -3.849979 0.332512 -4.691184
v -0.007154 -0.010074 -0.007648
vn -2.904142 -0.007691 -5.387214
v -0.005473 -0.029944 -0.009185
vn -5.634795 1.171623 -1.347605
v -0.010243 -0.004926 -0.001999
vn -6.250113 -0.049812 0.041239
v -0.010449 -0.055112 0.000269
vn 1.220318 -1.888926 -5.396049
v 0.005837 -0.062540 -0.007549
vn 1.149892 -4.154409 -3.842898
v 0.005765 -0.065824 -0.005443
vn 3.529517 -3.116073 3.348177
v 0.008243 -0.064538 0.005111
vn 1.119604 -4.206836 3.822014
v 0.005752 -0.066047 0.005198
vn 1.409722 -5.367715 -1.096380
v 0.006059 -0.067797 -0.001571
vn -1.270569 -1.987499 -5.310665
v -0.005815 -0.062615 -0.007542
vn -5.296257 -1.033762 2.043145
v -0.010032 -0.061991 0.004064
vn -5.265327 -2.215075 0.128297
v -0.010064 -0.064595 0.000143
vn 5.133608 -2.197218 0.759060
v 0.010136 -0.064241 0.001498
vn 5.334571 -0.923598 2.085562
v 0.010040 -0.062170 0.003982
vn -5.406796 -0.752174 -2.097521
v -0.010020 -0.061327 -0.004321
vn -4.063043 -3.267948 -2.397861
v -0.008840 -0.065077 -0.003804
vn 5.370224 -1.299707 -1.666885
v 0.010103 -0.062545 -0.003719
vn 4.766724 -0.936274 -3.421766
v 0.009437 -0.061794 -0.005253
vn 4.278756 -3.873413 -0.481651
v 0.009060 -0.065983 -0.000891
vn 1.862110 -5.017940 1.512620
v 0.006467 -0.067503 0.002370
vn 3.522814 -3.734122 -2.739510
v 0.008190 -0.065529 -0.004070
vn 3.172263 -1.597177 -4.598027
v 0.007816 -0.062423 -0.006734
vn -3.684771 -0.355210 -4.714265
v -0.008159 -0.059360 -0.006899
vn -3.557158 -1.990111 -4.187134
v -0.008243 -0.062895 -0.006192
vn -1.302873 -4.231033 -3.653009
v -0.005871 -0.066038 -0.005187
vn -1.145723 -4.141477 3.844336
v -0.005781 -0.065919 0.005343
vn -3.444348 -4.695382 -0.725492
v -0.008120 -0.066834 -0.000995
vn -1.209903 -5.476706 -1.411661
v -0.005789 -0.067738 -0.001918
vn -1.166695 -5.516830 1.369251
v -0.005785 -0.067734 0.001938
vn -3.614016 -4.242926 1.648831
v -0.008191 -0.066459 0.002325
vn -3.619424 -2.999696 3.351260
v -0.008243 -0.064538 0.005111
# 63 vertices, 0 vertices normals


usemtl material_0
f 4//4 3//3 1//1
f 7//7 6//6 3//3
f 4//4 7//7 3//3
f 9//9 5//5 8//8
f 6//6 9//9 8//8
f 5//5 10//10 2//2
f 13//13 5//5 9//9
f 13//13 10//10 5//5
f 14//14 6//6 7//7
f 14//14 9//9 6//6
f 20//20 24//24 23//23
f 28//28 21//21 29//29
f 22//22 34//34 33//33
f 28//28 34//34 22//22
f 28//28 55//55 34//34
f 39//39 19//19 40//40
f 53//53 41//41 38//38
f 54//54 38//38 37//37
f 51//51 49//49 45//45
f 52//52 41//41 51//51
f 39//39 52//52 45//45
f 46//46 39//39 45//45
f 48//48 47//47 56//56
f 59//59 44//44 48//48
f 63//63 17//17 43//43
f 27//27 5//5 2//2
f 29//29 23//23 54//54
f 18//18 46//46 27//27
f 46//46 26//26 27//27
f 40//40 19//19 58//58
f 61//61 62//62 59//59
f 58//58 63//63 62//62
f 37//37 42//42 29//29
f 58//58 15//15 63//63
f 13//13 31//31 10//10
f 52//52 40//40 61//61
f 21//21 28//28 22//22
f 19//19 16//16 15//15
f 43//43 17//17 32//32
f 62//62 61//61 58//58
f 57//57 60//60 48//48
f 1//1 3//3 25//25
f 42//42 56//56 55//55
f 25//25 24//24 1//1
f 57//57 48//48 56//56
f 10//10 12//12 11//11
f 16//16 11//11 12//12
f 26//26 49//49 25//25
f 30//30 35//35 4//4
f 41//41 52//52 61//61
f 18//18 27//27 19//19
f 23//23 24//24 54//54
f 37//37 29//29 54//54
f 16//16 19//19 11//11
f 39//39 18//18 19//19
f 59//59 60//60 61//61
f 35//35 30//30 47//47
f 22//22 33//33 4//4
f 52//52 39//39 40//40
f 48//48 44//44 47//47
f 18//18 39//39 46//46
f 33//33 34//34 55//55
f 45//45 26//26 46//46
f 53//53 49//49 51//51
f 49//49 50//50 24//24
f 9//9 14//14 31//31
f 33//33 30//30 4//4
f 15//15 17//17 63//63
f 23//23 29//29 21//21
f 49//49 26//26 45//45
f 12//12 10//10 32//32
f 13//13 9//9 31//31
f 62//62 63//63 43//43
f 17//17 12//12 32//32
f 36//36 31//31 35//35
f 24//24 20//20 1//1
f 33//33 55//55 47//47
f 37//37 38//38 42//42
f 36//36 43//43 31//31
f 42//42 55//55 28//28
f 27//27 26//26 5//5
f 59//59 62//62 44//44
f 26//26 8//8 5//5
f 26//26 6//6 8//8
f 43//43 32//32 31//31
f 28//28 29//29 42//42
f 3//3 6//6 26//26
f 42//42 57//57 56//56
f 17//17 15//15 12//12
f 26//26 25//25 3//3
f 38//38 41//41 60//60
f 35//35 47//47 36//36
f 2//2 10//10 11//11
f 47//47 44//44 36//36
f 27//27 2//2 11//11
f 54//54 50//50 53//53
f 44//44 43//43 36//36
f 41//41 53//53 51//51
f 20//20 23//23 21//21
f 54//54 53//53 38//38
f 1//1 20//20 4//4
f 20//20 22//22 4//4
f 20//20 21//21 22//22
f 33//33 47//47 30//30
f 52//52 51//51 45//45
f 53//53 50//50 49//49
f 55//55 56//56 47//47
f 14//14 7//7 35//35
f 15//15 16//16 12//12
f 19//19 15//15 58//58
f 31//31 32//32 10//10
f 40//40 58//58 61//61
f 60//60 59//59 48//48
f 35//35 7//7 4//4
f 60//60 41//41 61//61
f 27//27 11//11 19//19
f 24//24 50//50 54//54
f 25//25 49//49 24//24
f 14//14 35//35 31//31
f 44//44 62//62 43//43
f 38//38 57//57 42//42
f 57//57 38//38 60//60
# 122 faces, 0 coords texture

# End of File
