####
#
# OBJ File Generated by Meshlab
#
####
# Object palm_l_col.obj
#
# Vertices: 221
# Faces: 381
#
####
mtllib ./palm_l_col.obj.mtl

vn -0.002544 2.470570 -0.006155
v 0.111828 0.008000 -0.047452
vn -0.035707 -2.386853 0.009406
v 0.111819 -0.010000 -0.047448
vn 0.014994 2.410128 0.013418
v 0.111434 0.008000 -0.053434
vn -0.052062 -2.340506 0.020847
v 0.111659 -0.010000 -0.054068
vn -0.054111 -2.340148 0.053388
v 0.116470 -0.010000 -0.042734
vn -0.030132 2.410364 0.027335
v 0.115855 0.008000 -0.043013
vn 0.716777 2.602735 1.305801
v 0.121947 0.008069 -0.042382
vn 0.946778 -2.670831 1.044865
v 0.122607 -0.010143 -0.042782
vn -0.103164 -2.665086 -1.394398
v 0.115957 -0.010170 -0.058448
vn 2.455372 -2.665995 -2.574404
v 0.133653 -0.004995 -0.062343
vn 3.050102 1.975140 -2.934929
v 0.134332 0.003543 -0.062568
vn 0.320458 -1.348490 -5.094445
v 0.130698 -0.002678 -0.064378
vn -0.438620 2.596008 -1.381158
v 0.115214 0.008069 -0.058248
vn 0.954550 4.696261 -2.124358
v 0.129313 0.007923 -0.059582
vn 2.626404 4.020985 1.599483
v 0.134074 0.006813 -0.050431
vn 3.546992 -2.620066 0.045544
v 0.137919 -0.004673 -0.053016
vn 4.163759 1.879137 0.225530
v 0.138589 0.003084 -0.052467
vn 3.857332 -0.288018 2.791788
v 0.138196 -0.000612 -0.049504
vn 0.528855 1.076142 -4.868878
v 0.131129 0.001818 -0.064610
vn 0.031014 2.748801 -0.012337
v 0.127167 0.008000 -0.020862
vn 0.002873 2.748004 0.037350
v 0.126472 0.008000 -0.024801
vn -0.021840 -2.748589 -0.002310
v 0.126472 -0.010000 -0.024801
vn -0.241416 2.344261 -0.053550
v 0.127798 0.008000 -0.030779
vn -0.032232 -2.748802 0.008785
v 0.127167 -0.010000 -0.020862
vn 0.631863 -2.670387 1.277505
v 0.136443 -0.010088 -0.014363
vn -0.041123 -2.356804 0.009022
v 0.127798 -0.010000 -0.030779
vn -0.040387 -2.356891 0.025731
v 0.130457 -0.010000 -0.015698
vn -0.046918 2.357584 -0.097314
v 0.130457 0.008000 -0.015698
vn 0.320195 2.680056 1.256465
v 0.136456 0.008522 -0.014345
vn 2.612630 4.963896 0.699728
v 0.149922 0.007194 -0.022073
vn 0.145426 -2.672311 -1.402054
v 0.132966 -0.010133 -0.034079
vn -0.082624 2.690023 -1.378433
v 0.132973 0.008457 -0.034103
vn 0.853246 -1.610617 -5.258417
v 0.147746 -0.002665 -0.036310
vn 1.888630 5.178740 -1.285214
v 0.147515 0.007727 -0.030536
vn 2.653450 2.926800 3.738846
v 0.150266 0.005070 -0.018138
vn 1.321950 3.187739 -4.198681
v 0.147253 0.005067 -0.035261
vn 2.455450 -5.191139 0.971697
v 0.148852 -0.007412 -0.021538
vn 3.955077 -2.465306 1.118448
v 0.153791 -0.004137 -0.021046
vn 4.432150 1.497254 1.029148
v 0.154585 0.002605 -0.021291
vn 3.343166 -2.524849 -2.407383
v 0.151372 -0.004335 -0.033740
vn 1.979711 -5.254575 -1.680212
v 0.147081 -0.007412 -0.031583
vn 3.054523 -0.750667 4.164457
v 0.152239 -0.001426 -0.017558
vn 2.152626 0.627978 -4.651526
v 0.149794 0.000994 -0.036267
vn 4.244313 1.744392 -2.015554
v 0.152670 0.002839 -0.032721
vn -0.024200 -2.748829 -0.002220
v 0.131720 -0.010500 0.005000
vn -0.014911 -2.748823 0.004350
v 0.131720 -0.010500 0.010000
vn 0.039195 2.780771 -0.025888
v 0.131720 0.008500 0.010000
vn -0.025030 -2.356771 0.000490
v 0.134063 -0.010500 0.015656
vn 0.069163 2.780476 0.010029
v 0.131720 0.008500 0.005000
vn -0.049498 2.422772 0.018653
v 0.133709 0.008500 0.015278
vn 0.485053 -2.632394 1.346771
v 0.139727 -0.010575 0.018007
vn 0.060244 2.392756 0.061555
v 0.133709 0.008500 -0.000279
vn -0.032175 -2.356626 -0.013326
v 0.134063 -0.010500 -0.000657
vn 0.498478 -2.664679 -1.297673
v 0.139724 -0.010564 -0.003007
vn 0.210847 2.604677 -1.307921
v 0.139641 0.008616 -0.003237
vn 0.180188 2.608641 1.420399
v 0.138678 0.008581 0.017943
vn 1.886468 4.107618 -1.863065
v 0.153552 0.007972 0.000825
vn 1.294671 2.824107 2.954716
v 0.152258 0.006807 0.017380
vn 2.433479 -0.187814 -4.019071
v 0.156667 -0.000370 -0.002764
vn 3.438952 -2.954291 1.172497
v 0.158294 -0.005402 0.012739
vn 3.809776 1.528260 1.800920
v 0.159177 0.002644 0.014441
vn 3.354881 -2.928508 -1.428333
v 0.158225 -0.005158 0.001888
vn 4.282169 1.597412 -1.472876
v 0.159420 0.002641 0.001500
vn 2.295103 -1.282071 4.317770
v 0.155884 -0.002576 0.017488
vn 0.024843 2.780932 -0.013814
v 0.125167 0.008500 0.039968
vn 0.039973 2.781080 0.009712
v 0.125603 0.008500 0.034987
vn -0.013792 -2.748787 -0.005368
v 0.125603 -0.010500 0.034987
vn 0.031515 2.420654 0.032385
v 0.128044 0.008500 0.029902
vn -0.023151 -2.748609 0.000098
v 0.125167 -0.010500 0.039968
vn 0.371459 -2.648124 1.396857
v 0.132446 -0.010561 0.048642
vn -0.097892 -2.346647 0.013093
v 0.128431 -0.010500 0.029556
vn -0.031647 -2.356740 0.009983
v 0.127009 -0.010500 0.045807
vn -0.035222 2.423939 0.009869
v 0.126689 0.008500 0.045400
vn 0.045797 2.622694 1.458937
v 0.131410 0.008556 0.048495
vn 0.430522 -2.643867 -0.125196
v 0.134390 -0.010857 0.027720
vn 0.151250 2.622749 -0.189783
v 0.133339 0.008525 0.027647
vn 1.753687 3.961316 2.470355
v 0.147176 0.007309 0.046551
vn 2.128496 4.801957 -1.141991
v 0.147608 0.008186 0.034334
vn 1.758760 2.159123 -2.000519
v 0.148397 0.003697 0.029203
vn 3.356698 -2.791437 -1.329695
v 0.152002 -0.005313 0.033099
vn 2.123090 -1.456449 -2.549418
v 0.149479 -0.002635 0.029468
vn 2.804722 0.342760 -2.246260
v 0.150463 0.000634 0.029537
vn 4.420077 1.514598 -1.157183
v 0.153479 0.002721 0.034015
vn 2.069202 -0.254861 4.192639
v 0.149363 -0.000462 0.049877
vn 3.247511 -2.853429 1.617839
v 0.151481 -0.005070 0.045274
vn 4.221149 1.690403 1.819288
v 0.152441 0.002941 0.045651
vn 0.167697 -6.128637 -1.228953
v 0.024006 -0.024910 -0.019111
vn -2.883343 -3.087189 -0.396300
v -0.000003 -0.026122 -0.014267
vn -2.538909 2.995136 -0.597297
v -0.000001 0.027291 -0.020163
vn -2.862479 -2.814951 -1.292196
v 0.000000 -0.022089 -0.029222
vn -0.734801 -6.184126 -0.444552
v 0.045066 -0.027674 0.012855
vn 0.448735 -6.019564 -1.527668
v 0.061099 -0.019732 -0.035157
vn -2.754468 -2.910897 0.923348
v 0.000004 -0.024690 0.025076
vn -0.001173 -5.389272 -2.956448
v 0.064878 -0.015568 -0.046379
vn -2.836663 -1.664196 -2.483013
v 0.000001 -0.014690 -0.039078
vn -0.058451 -5.683311 -2.493526
v 0.080235 -0.014234 -0.048045
vn -1.895016 -5.841215 -1.016634
v 0.049756 -0.029632 0.018726
vn 0.576939 -6.154864 -0.973057
v 0.079660 -0.016948 -0.037294
vn -1.657201 -5.600855 1.899209
v 0.041494 -0.025791 0.026723
vn -0.703044 -3.605991 -4.760764
v 0.070626 -0.008693 -0.055482
vn 0.725524 -5.886251 -1.530299
v 0.118978 -0.013005 -0.052464
vn -3.266617 -5.094747 1.039354
v 0.048169 -0.029345 0.028005
vn -2.915865 -2.216798 2.145561
v 0.000001 -0.018030 0.035545
vn -3.356757 0.290826 -3.067807
v 0.000000 0.003707 -0.041905
vn 0.504200 -6.155513 -1.086259
v 0.051926 -0.025265 -0.003623
vn -1.583026 -3.427918 4.836801
v 0.048117 -0.013930 0.044438
vn -1.131896 -0.644344 -5.884706
v 0.080060 -0.001722 -0.059996
vn 1.398275 -5.913536 -0.903775
v 0.127784 -0.012840 -0.044814
vn -3.716374 -4.009776 3.037507
v 0.048541 -0.026026 0.034132
vn 0.728468 -5.458758 -2.878880
v 0.067474 -0.027765 0.010325
vn -0.441176 -5.884580 -2.002275
v 0.056398 -0.028661 0.012483
vn -2.856412 -0.669706 2.957789
v 0.000008 -0.006238 0.042751
vn -1.547500 -4.665130 3.662890
v 0.042137 -0.018954 0.037044
vn -3.158605 1.680649 -2.605158
v 0.000004 0.015479 -0.037988
vn -0.804830 2.388297 -5.291307
v 0.094287 0.003719 -0.062033
vn -0.061650 -2.980484 -4.843276
v 0.112696 -0.007231 -0.063213
vn 1.595837 -5.951778 -1.068260
v 0.073631 -0.020442 -0.006473
vn -0.783878 0.235800 6.222721
v 0.069845 -0.010365 0.049861
vn -1.657548 0.966523 5.579529
v 0.052176 -0.012355 0.046269
vn -3.116227 -1.721368 5.001947
v 0.056995 -0.022197 0.046127
vn 1.334419 -3.993414 -3.496182
v 0.120461 -0.009696 -0.060737
vn 3.168919 -4.463608 -1.938177
v 0.133676 -0.010387 -0.046445
vn -2.688582 1.352885 2.669346
v 0.000003 0.011739 0.040995
vn -1.257169 0.273509 6.074883
v 0.069612 -0.021797 0.050985
vn -2.796462 2.601851 -1.651854
v 0.000000 0.022597 -0.031240
vn 2.703503 -1.488551 -4.527607
v 0.123032 -0.005644 -0.062099
vn 1.859835 -5.899848 -0.287664
v 0.138304 -0.011840 -0.013318
vn -0.433786 0.725264 6.148571
v 0.101174 0.004068 0.052846
vn -0.147560 5.252635 -3.234513
v 0.108787 0.009163 -0.058306
vn 0.263244 3.246012 -4.787818
v 0.111810 0.005486 -0.063149
vn 1.283468 -5.950210 -0.839399
v 0.084279 -0.017375 -0.004009
vn 1.506304 -6.029628 -0.468425
v 0.109555 -0.016531 0.025170
vn -0.369969 2.957525 5.277322
v 0.101108 0.009084 0.051511
vn 0.426705 0.016104 6.238384
v 0.086296 -0.020430 0.051590
vn -0.274544 -0.038617 6.267807
v 0.086651 -0.010844 0.051485
vn 0.030156 0.189873 -5.832983
v 0.110677 0.000028 -0.064910
vn 1.268377 -5.993501 -0.884619
v 0.097320 -0.017008 0.009631
vn 4.122156 -4.283527 -0.930449
v 0.100437 -0.021195 0.029065
vn 3.378531 -5.131318 -0.353776
v 0.144915 -0.009107 -0.008445
vn -2.544439 2.719173 1.282032
v 0.000002 0.024396 0.027841
vn 0.390472 6.145662 -1.197182
v 0.080709 0.014641 -0.043266
vn 2.592383 0.611818 -4.890952
v 0.122467 -0.000549 -0.062784
vn 2.069571 -4.866310 -3.065217
v 0.080846 -0.023391 0.010566
vn 0.612798 6.238737 -0.303712
v 0.079864 0.020550 0.006944
vn 2.611233 -4.885083 -2.199386
v 0.098492 -0.019577 0.020925
vn 4.520063 -1.578696 -3.203308
v 0.135129 -0.007398 -0.047871
vn 4.890345 -3.374230 -0.751970
v 0.147716 -0.006417 -0.010206
vn 0.310989 4.558465 3.751360
v 0.113372 0.012604 0.049106
vn 0.270984 -1.683126 5.751427
v 0.123184 -0.004707 0.053790
vn 0.830192 5.673735 -2.100348
v 0.119068 0.011595 -0.052483
vn 1.930998 3.546084 -3.907911
v 0.121531 0.007086 -0.059862
vn 0.372145 5.902261 1.778147
v 0.101542 0.017138 0.040344
vn 0.780156 6.126289 -0.903804
v 0.120237 0.012919 -0.044920
vn 4.787801 -2.372852 2.613054
v 0.097724 -0.021527 0.046299
vn 4.219182 -3.750668 0.628399
v 0.099811 -0.021052 0.040208
vn 4.882095 -2.401670 -1.861287
v 0.140923 -0.006013 -0.037510
vn -2.697137 3.094951 0.185608
v 0.000001 0.028130 0.007192
vn 3.483958 2.941081 -3.111770
v 0.130414 0.008064 -0.051585
vn 5.515316 0.263057 -0.702032
v 0.150145 -0.000077 -0.010238
vn 1.768336 -1.115366 5.262158
v 0.136214 -0.003627 0.052693
vn 0.207845 1.335896 5.825959
v 0.123935 0.003848 0.054058
vn 0.767092 6.186476 0.409578
v 0.107308 0.018036 0.029744
vn 5.426225 0.871492 -2.268570
v 0.142411 0.001753 -0.035845
vn 1.827544 -5.696701 1.026000
v 0.134827 -0.012545 0.039163
vn 1.787661 -5.959708 0.520918
v 0.110918 -0.016521 0.037028
vn 3.563593 -4.592555 0.676341
v 0.146286 -0.008796 0.028517
vn 2.483468 5.163782 -1.675345
v 0.130664 0.010455 -0.046646
vn 5.287681 -2.234894 1.099820
v 0.148932 -0.005394 0.028326
vn 1.411541 2.733260 4.656983
v 0.134101 0.007281 0.051829
vn 2.978325 -3.065122 3.065917
v 0.139006 -0.007101 0.049710
vn 1.148997 -4.486453 3.508148
v 0.132308 -0.009657 0.049647
vn 0.798860 -3.573509 4.905789
v 0.106701 -0.012146 0.050557
vn 0.928288 6.176415 -0.447068
v 0.124162 0.014600 -0.021919
vn 4.185040 3.576883 -1.784036
v 0.139712 0.007276 -0.036763
vn 5.865855 -0.490416 -0.070393
v 0.150732 -0.001101 0.018512
vn 1.286257 5.421960 2.443554
v 0.133731 0.011397 0.046151
vn 4.128987 0.020450 3.608295
v 0.141692 0.000179 0.049545
vn 1.674483 -5.342353 2.652828
v 0.109407 -0.014964 0.045888
vn 5.267626 2.817250 0.236286
v 0.148967 0.006929 0.023238
vn 1.947380 5.612030 1.194781
v 0.138721 0.011975 0.039975
vn 3.006138 3.114897 3.545714
v 0.139192 0.007671 0.048867
vn 2.065724 5.811622 -0.591170
v 0.135817 0.012388 -0.019373
vn 5.826878 0.666106 1.211762
v 0.149829 0.002436 0.028246
vn 4.072811 3.004949 1.688796
v 0.144898 0.008825 0.039753
vn 4.176319 3.947142 -0.718901
v 0.145937 0.008127 -0.012551
vn 3.499153 4.936267 0.069920
v 0.146519 0.009685 0.021249
vn 1.814658 5.933733 -0.114739
v 0.138262 0.013055 0.010409
vn 0.414946 1.357018 0.763947
v 0.097110 -0.017509 0.049402
vn 1.652648 -2.757823 4.297407
v 0.084909 -0.052442 0.049493
vn -0.516461 -1.918002 5.274532
v 0.080239 -0.049885 0.051071
vn -2.328639 -3.766673 3.054516
v 0.077199 -0.053181 0.047931
vn 1.165586 -4.610265 1.488968
v 0.084620 -0.056116 0.045271
vn 4.053604 -2.761099 1.111696
v 0.090783 -0.051671 0.044354
vn 2.115326 -0.857419 5.717683
v 0.089021 -0.037924 0.050445
vn -0.018943 -4.944501 -1.318020
v 0.079913 -0.056888 0.033997
vn -3.233513 -4.365146 0.075563
v 0.073499 -0.054652 0.037300
vn -3.462007 -1.520153 4.623642
v 0.063806 -0.032639 0.048536
vn 5.507306 -1.664645 1.456593
v 0.096065 -0.035387 0.044426
vn -0.044059 -0.032122 6.198036
v 0.078246 -0.031290 0.052473
vn 2.993992 -3.605058 -2.609524
v 0.085504 -0.053426 0.031244
vn 3.994755 -1.136970 4.364548
v 0.093941 -0.033710 0.048471
vn -0.466236 -0.575871 6.199943
v 0.077802 -0.040171 0.051851
vn -2.529773 -1.712090 5.332942
v 0.072291 -0.040978 0.050526
vn -1.620630 -4.012139 -3.552192
v 0.077544 -0.054457 0.030960
vn -4.376106 -4.314029 1.049228
v 0.058687 -0.035438 0.034854
vn 4.656022 -2.372415 -3.069500
v 0.092619 -0.035913 0.027450
vn 1.508625 -0.544427 5.946346
v 0.088360 -0.032446 0.051340
vn -1.969509 -0.274727 5.718852
v 0.068898 -0.031285 0.051344
vn -4.447946 -3.198224 2.955338
v 0.067924 -0.041896 0.046082
vn 0.838279 -3.145464 -4.828636
v 0.082526 -0.051986 0.028785
vn -3.563021 -5.014725 -0.906825
v 0.058619 -0.035350 0.028021
vn 5.742314 -2.101814 -1.206719
v 0.095032 -0.035650 0.034591
vn -2.112575 -5.033558 -2.851223
v 0.061190 -0.035599 0.024214
vn -0.719064 -2.435379 -5.745697
v 0.079115 -0.044345 0.025975
vn 1.670491 -2.178487 -5.353176
v 0.085632 -0.042191 0.025265
vn 5.660004 -2.402415 -1.235313
v 0.095993 -0.031943 0.033353
vn -4.489840 -2.957844 3.010126
v 0.059673 -0.032558 0.043700
vn 5.692057 -1.286862 1.764247
v 0.096880 -0.032104 0.044269
vn -0.033512 -3.666012 -4.875578
v 0.076201 -0.037041 0.023238
vn 4.810020 -2.743195 -2.759298
v 0.093902 -0.031983 0.026536
vn 2.687877 -2.869832 -4.727181
v 0.088447 -0.036135 0.023973
# 221 vertices, 0 vertices normals


usemtl material_0
f 4//4 8//8 2//2
f 5//5 2//2 8//8
f 4//4 9//9 8//8
f 16//16 17//17 18//18
f 7//7 15//15 14//14
f 17//17 16//16 11//11
f 14//14 15//15 11//11
f 11//11 10//10 19//19
f 9//9 10//10 8//8
f 18//18 8//8 16//16
f 12//12 19//19 10//10
f 6//6 7//7 1//1
f 19//19 13//13 14//14
f 10//10 9//9 12//12
f 14//14 13//13 3//3
f 14//14 3//3 1//1
f 9//9 13//13 12//12
f 19//19 12//12 13//13
f 7//7 18//18 15//15
f 15//15 17//17 11//11
f 7//7 8//8 18//18
f 14//14 11//11 19//19
f 15//15 18//18 17//17
f 25//25 24//24 22//22
f 26//26 25//25 22//22
f 27//27 24//24 25//25
f 26//26 31//31 25//25
f 35//35 39//39 30//30
f 39//39 35//35 42//42
f 29//29 25//25 42//42
f 38//38 25//25 37//37
f 29//29 35//35 30//30
f 31//31 32//32 33//33
f 42//42 35//35 29//29
f 23//23 21//21 32//32
f 40//40 33//33 43//43
f 38//38 42//42 25//25
f 20//20 28//28 34//34
f 36//36 44//44 43//43
f 34//34 36//36 32//32
f 33//33 32//32 43//43
f 32//32 36//36 43//43
f 30//30 39//39 44//44
f 40//40 44//44 38//38
f 44//44 40//40 43//43
f 36//36 34//34 44//44
f 28//28 29//29 34//34
f 38//38 37//37 40//40
f 29//29 30//30 34//34
f 41//41 31//31 40//40
f 31//31 33//33 40//40
f 42//42 38//38 39//39
f 41//41 37//37 25//25
f 61//61 58//58 64//64
f 62//62 59//59 63//63
f 60//60 61//61 64//64
f 57//57 47//47 56//56
f 55//55 59//59 54//54
f 64//64 51//51 60//60
f 57//57 52//52 49//49
f 57//57 59//59 55//55
f 48//48 54//54 51//51
f 62//62 63//63 60//60
f 54//54 48//48 46//46
f 54//54 46//46 45//45
f 51//51 54//54 60//60
f 57//57 55//55 52//52
f 54//54 45//45 53//53
f 64//64 58//58 51//51
f 62//62 54//54 59//59
f 56//56 58//58 57//57
f 51//51 58//58 56//56
f 63//63 57//57 61//61
f 63//63 59//59 57//57
f 70//70 69//69 67//67
f 71//71 70//70 67//67
f 72//72 69//69 70//70
f 71//71 75//75 70//70
f 80//80 82//82 83//83
f 85//85 86//86 84//84
f 86//86 85//85 83//83
f 81//81 80//80 75//75
f 85//85 70//70 75//75
f 77//77 86//86 78//78
f 84//84 77//77 74//74
f 84//84 86//86 77//77
f 80//80 81//81 82//82
f 84//84 74//74 70//70
f 84//84 70//70 85//85
f 78//78 65//65 74//74
f 78//78 68//68 66//66
f 74//74 77//77 78//78
f 83//83 79//79 78//78
f 78//78 76//76 68//68
f 83//83 82//82 79//79
f 78//78 79//79 76//76
f 144//144 89//89 157//157
f 105//105 91//91 87//87
f 88//88 87//87 91//91
f 128//128 112//112 118//118
f 89//89 123//123 140//140
f 118//118 135//135 128//128
f 112//112 103//103 118//118
f 157//157 162//162 144//144
f 89//89 125//125 114//114
f 87//87 90//90 92//92
f 89//89 140//140 157//157
f 89//89 114//114 104//104
f 98//98 131//131 117//117
f 115//115 114//114 125//125
f 89//89 104//104 95//95
f 92//92 105//105 87//87
f 89//89 95//95 90//90
f 140//140 148//148 152//152
f 89//89 90//90 88//88
f 92//92 98//98 105//105
f 95//95 100//100 94//94
f 118//118 103//103 119//119
f 103//103 106//106 119//119
f 106//106 103//103 113//113
f 89//89 88//88 93//93
f 140//140 123//123 133//133
f 129//129 125//125 141//141
f 98//98 117//117 105//105
f 92//92 94//94 98//98
f 115//115 107//107 104//104
f 164//164 127//127 166//166
f 123//123 128//128 133//133
f 100//100 95//95 107//107
f 89//89 93//93 103//103
f 95//95 104//104 107//107
f 93//93 91//91 99//99
f 90//90 94//94 92//92
f 104//104 114//114 115//115
f 89//89 103//103 112//112
f 89//89 112//112 123//123
f 93//93 88//88 91//91
f 90//90 87//87 88//88
f 186//186 184//184 179//179
f 176//176 181//181 180//180
f 187//187 180//180 186//186
f 169//169 181//181 176//176
f 167//167 182//182 185//185
f 171//171 170//170 160//160
f 116//116 107//107 136//136
f 169//169 177//177 181//181
f 169//169 160//160 177//177
f 161//161 160//160 169//169
f 161//161 149//149 160//160
f 129//129 130//130 115//115
f 175//175 179//179 183//183
f 175//175 183//183 168//168
f 141//141 150//150 129//129
f 144//144 173//173 153//153
f 141//141 144//144 153//153
f 162//162 173//173 144//144
f 126//126 142//142 146//146
f 142//142 158//158 146//146
f 175//175 168//168 147//147
f 173//173 187//187 182//182
f 149//149 171//171 160//160
f 164//164 166//166 170//170
f 183//183 177//177 168//168
f 158//158 167//167 174//174
f 152//152 180//180 162//162
f 152//152 176//176 180//180
f 153//153 173//173 167//167
f 137//137 98//98 132//132
f 98//98 108//108 132//132
f 165//165 108//108 127//127
f 108//108 122//122 127//127
f 176//176 148//148 169//169
f 146//146 156//156 122//122
f 169//169 133//133 161//161
f 184//184 177//177 183//183
f 122//122 156//156 139//139
f 96//96 121//121 101//101
f 146//146 163//163 156//156
f 135//135 172//172 149//149
f 137//137 131//131 98//98
f 172//172 171//171 149//149
f 122//122 139//139 127//127
f 146//146 158//158 163//163
f 166//166 147//147 168//168
f 116//116 121//121 96//96
f 166//166 139//139 147//147
f 101//101 108//108 98//98
f 158//158 174//174 163//163
f 171//171 164//164 170//170
f 156//156 159//159 147//147
f 151//151 150//150 158//158
f 171//171 178//178 164//164
f 156//156 163//163 159//159
f 178//178 165//165 164//164
f 187//187 162//162 180//180
f 151//151 158//158 142//142
f 107//107 116//116 100//100
f 174//174 159//159 163//163
f 174//174 185//185 159//159
f 136//136 142//142 116//116
f 126//126 121//121 116//116
f 167//167 173//173 182//182
f 187//187 186//186 185//185
f 136//136 130//130 142//142
f 157//157 140//140 152//152
f 129//129 151//151 130//130
f 167//167 185//185 174//174
f 121//121 122//122 101//101
f 182//182 187//187 185//185
f 175//175 159//159 185//185
f 148//148 133//133 169//169
f 184//184 186//186 180//180
f 151//151 129//129 150//150
f 121//121 146//146 122//122
f 135//135 149//149 128//128
f 184//184 181//181 177//177
f 180//180 181//181 184//184
f 195//195 200//200 192//192
f 121//121 126//126 146//146
f 115//115 136//136 107//107
f 170//170 166//166 168//168
f 185//185 186//186 179//179
f 172//172 178//178 171//171
f 150//150 141//141 153//153
f 106//106 113//113 120//120
f 119//119 120//120 124//124
f 119//119 106//106 120//120
f 137//137 145//145 143//143
f 137//137 138//138 145//145
f 138//138 137//137 132//132
f 97//97 102//102 91//91
f 91//91 102//102 99//99
f 119//119 124//124 118//118
f 172//172 135//135 134//134
f 110//110 105//105 117//117
f 105//105 111//111 97//97
f 105//105 110//110 111//111
f 105//105 97//97 91//91
f 154//154 165//165 178//178
f 109//109 120//120 113//113
f 102//102 109//109 99//99
f 188//188 154//154 178//178
f 138//138 132//132 165//165
f 135//135 124//124 134//134
f 138//138 165//165 155//155
f 165//165 154//154 155//155
f 143//143 110//110 131//131
f 117//117 131//131 110//110
f 131//131 137//137 143//143
f 189//189 190//190 191//191
f 192//192 189//189 191//191
f 204//204 195//195 196//196
f 195//195 192//192 196//196
f 210//210 200//200 195//195
f 197//197 203//203 208//208
f 202//202 199//199 208//208
f 202//202 208//208 190//190
f 190//190 199//199 202//202
f 221//221 220//220 206//206
f 209//209 217//217 196//196
f 209//209 196//196 191//191
f 199//199 190//190 194//194
f 213//213 204//204 211//211
f 204//204 196//196 211//211
f 207//207 194//194 201//201
f 196//196 217//217 205//205
f 216//216 198//198 212//212
f 198//198 193//193 212//212
f 197//197 191//191 203//203
f 191//191 197//197 209//209
f 200//200 215//215 221//221
f 193//193 206//206 212//212
f 193//193 198//198 201//201
f 189//189 193//193 201//201
f 219//219 210//210 214//214
f 203//203 191//191 190//190
f 213//213 210//210 204//204
f 203//203 190//190 208//208
f 192//192 193//193 189//189
f 124//124 208//208 199//199
f 111//111 110//110 219//219
f 111//111 219//219 213//213
f 138//138 155//155 198//198
f 97//97 213//213 211//211
f 213//213 97//97 111//111
f 211//211 205//205 102//102
f 138//138 220//220 145//145
f 217//217 109//109 102//102
f 138//138 216//216 220//220
f 188//188 218//218 154//154
f 218//218 155//155 154//154
f 201//201 188//188 207//207
f 218//218 188//188 201//201
f 197//197 120//120 109//109
f 138//138 198//198 216//216
f 220//220 221//221 145//145
f 145//145 221//221 143//143
f 120//120 197//197 124//124
f 205//205 217//217 102//102
f 221//221 110//110 143//143
f 217//217 209//209 197//197
f 206//206 220//220 212//212
f 216//216 212//212 220//220
f 221//221 215//215 219//219
f 219//219 214//214 213//213
f 97//97 211//211 102//102
f 134//134 124//124 199//199
f 207//207 134//134 199//199
f 94//94 100//100 96//96
f 123//123 112//112 128//128
f 90//90 95//95 94//94
f 93//93 99//99 113//113
f 141//141 89//89 144//144
f 133//133 128//128 161//161
f 162//162 187//187 173//173
f 150//150 153//153 167//167
f 127//127 164//164 165//165
f 108//108 165//165 132//132
f 184//184 183//183 179//179
f 161//161 128//128 149//149
f 98//98 96//96 101//101
f 136//136 115//115 130//130
f 152//152 148//148 176//176
f 177//177 160//160 170//170
f 113//113 99//99 109//109
f 178//178 134//134 188//188
f 134//134 178//178 172//172
f 124//124 135//135 118//118
f 194//194 207//207 199//199
f 196//196 205//205 211//211
f 189//189 201//201 194//194
f 200//200 221//221 206//206
f 200//200 210//210 215//215
f 210//210 213//213 214//214
f 210//210 219//219 215//215
f 193//193 200//200 206//206
f 189//189 194//194 190//190
f 124//124 197//197 208//208
f 110//110 221//221 219//219
f 198//198 155//155 218//218
f 201//201 198//198 218//218
f 197//197 109//109 217//217
f 207//207 188//188 134//134
f 16//16 10//10 11//11
f 10//10 16//16 8//8
f 7//7 14//14 1//1
f 21//21 34//34 32//32
f 21//21 20//20 34//34
f 34//34 30//30 44//44
f 44//44 39//39 38//38
f 37//37 41//41 40//40
f 31//31 41//41 25//25
f 47//47 50//50 56//56
f 47//47 57//57 49//49
f 63//63 61//61 60//60
f 54//54 62//62 60//60
f 57//57 58//58 61//61
f 85//85 80//80 83//83
f 80//80 85//85 75//75
f 86//86 83//83 78//78
f 65//65 73//73 74//74
f 65//65 78//78 66//66
f 129//129 115//115 125//125
f 103//103 93//93 113//113
f 148//148 140//140 133//133
f 125//125 89//89 141//141
f 94//94 96//96 98//98
f 127//127 139//139 166//166
f 159//159 175//175 147//147
f 177//177 170//170 168//168
f 156//156 147//147 139//139
f 100//100 116//116 96//96
f 150//150 167//167 158//158
f 142//142 126//126 116//116
f 130//130 151//151 142//142
f 162//162 157//157 152//152
f 122//122 108//108 101//101
f 179//179 175//175 185//185
f 200//200 193//193 192//192
f 192//192 191//191 196//196
f 204//204 210//210 195//195
# 381 faces, 0 coords texture

# End of File
