####
#
# OBJ File Generated by Meshlab
#
####
# Object pinky_dist_col.obj
#
# Vertices: 64
# Faces: 124
#
####
mtllib ./pinky_dist_col.obj.mtl

vn 4.937448 -0.259946 -3.497824
v 0.006533 -0.009468 -0.005657
vn 5.500680 0.662452 -1.865265
v 0.007312 -0.003627 -0.004378
vn 6.186948 -0.339306 -0.092312
v 0.007721 -0.010495 -0.000403
vn 5.766758 0.673698 1.176112
v 0.007749 -0.004456 0.002780
vn 2.392173 0.915495 -4.561015
v 0.004230 0.001198 -0.007961
vn 2.451328 0.890664 4.382168
v 0.004255 0.001061 0.007931
vn 4.357548 -1.142758 -4.013886
v 0.005527 -0.016635 -0.005767
vn 2.971335 -0.854799 -5.136079
v 0.004767 -0.013940 -0.006937
vn 3.683139 -1.761835 -3.803206
v 0.004964 -0.021350 -0.004862
vn 5.787315 -0.769164 -1.849260
v 0.006970 -0.014905 -0.003657
vn 5.574971 -2.059364 -0.524644
v 0.005933 -0.021754 -0.001916
vn 4.239683 -3.459183 -1.798011
v 0.004651 -0.023650 -0.003265
vn 4.641206 -3.406667 1.197617
v 0.005252 -0.022965 -0.000702
vn 6.141810 -0.977444 -0.178945
v 0.007112 -0.016392 -0.000887
vn 1.041694 -0.797030 -5.991529
v 0.002634 -0.012911 -0.007763
vn 5.727408 -1.404685 1.494243
v 0.006728 -0.017271 0.002635
vn 4.327870 -2.653042 3.000577
v 0.005558 -0.019359 0.003615
vn 5.361962 -0.215005 2.717079
v 0.006976 -0.008899 0.004976
vn 4.849948 -1.129017 3.391626
v 0.006078 -0.014778 0.005376
vn 3.221049 -0.496545 4.986904
v 0.005049 -0.011423 0.007034
vn 2.892551 -1.837041 4.937564
v 0.004599 -0.015991 0.006317
vn -2.260345 1.459759 -3.928121
v -0.004236 0.002138 -0.007928
vn -0.690608 -0.722353 -6.024352
v -0.001501 -0.012540 -0.007973
vn -3.174755 -0.902968 -4.800559
v -0.005014 -0.014397 -0.006727
vn 1.741240 -3.215979 -4.099718
v 0.002435 -0.024372 -0.004790
vn 2.270508 -4.858355 -0.232552
v 0.002757 -0.025510 -0.002434
vn -0.142960 -5.318643 -1.259621
v -0.000212 -0.026014 -0.003101
vn -2.332049 -4.750924 -1.351305
v -0.002708 -0.025338 -0.003135
vn -0.128945 -3.356011 -4.484850
v 0.000004 -0.024792 -0.004897
vn -0.658131 -5.203871 2.084744
v -0.000787 -0.025631 -0.000438
vn -4.348014 -3.425429 -1.742585
v -0.004656 -0.023643 -0.003266
vn -3.811274 -3.900862 1.446645
v -0.004718 -0.023720 -0.000563
vn -4.214740 -1.587151 -3.645624
v -0.005235 -0.020440 -0.004913
vn -5.519105 -2.140244 -0.402428
v -0.005959 -0.021716 -0.001853
vn -5.632005 -0.833073 -2.138039
v -0.006895 -0.015076 -0.003877
vn -6.128484 -1.029783 -0.132388
v -0.007104 -0.016438 -0.000875
vn 2.308703 -4.356648 3.059640
v 0.003161 -0.023769 0.001394
vn -5.543187 -1.737370 1.760616
v -0.006383 -0.018414 0.002505
vn -3.816480 -3.265280 2.885410
v -0.005040 -0.021256 0.002528
vn -0.844740 -4.402489 3.893644
v -0.001160 -0.023420 0.002571
vn -6.031246 -0.557824 0.983000
v -0.007629 -0.011298 0.002313
vn -3.493612 -2.629702 4.001413
v -0.004904 -0.018716 0.004763
vn -0.688636 -3.642260 4.713465
v -0.001092 -0.020943 0.004860
vn 1.988526 -3.358446 4.576418
v 0.003194 -0.020072 0.004897
vn -4.245687 -1.269832 3.754935
v -0.005806 -0.014985 0.005698
vn -1.704324 -2.189897 5.376121
v -0.002962 -0.017224 0.006533
vn 0.526672 -2.483477 5.534379
v 0.001002 -0.018014 0.006580
vn -5.318949 -0.155438 2.958707
v -0.006975 -0.008745 0.004974
vn -3.309592 -0.544857 4.925693
v -0.005110 -0.011482 0.006999
vn -1.261940 -1.026918 5.847759
v -0.002478 -0.013651 0.007670
vn 0.736631 -1.013638 5.920792
v 0.001597 -0.013821 0.007843
vn -5.499528 0.679856 -1.871168
v -0.007278 -0.003461 -0.004421
vn -4.941396 -0.251500 -3.477761
v -0.006548 -0.009460 -0.005639
vn -2.445104 0.942473 4.336227
v -0.004255 0.001073 0.007930
vn -6.129527 -0.301938 -0.950508
v -0.007504 -0.011227 -0.002511
vn -5.777603 0.692500 1.131348
v -0.007774 -0.004504 0.002708
vn -2.360034 -2.630252 -4.366437
v -0.003604 -0.023290 -0.004906
vn -2.391466 2.589949 2.872317
v -0.004266 0.005179 0.006231
vn -2.392622 3.241420 -1.779410
v -0.004263 0.007071 -0.003958
vn 2.509673 2.438717 -3.410795
v 0.004250 0.004300 -0.006746
vn -2.398359 3.601661 0.640316
v -0.004263 0.007967 0.001484
vn 2.432588 3.408613 -1.494334
v 0.004260 0.007288 -0.003545
vn 2.398004 3.550381 0.852830
v 0.004262 0.007866 0.001950
vn 2.392574 2.465788 3.053154
v 0.004242 0.004767 0.006552
# 64 vertices, 0 vertices normals


usemtl material_0
f 7//7 10//10 9//9
f 10//10 11//11 9//9
f 12//12 9//9 11//11
f 13//13 12//12 11//11
f 16//16 3//3 4//4
f 18//18 16//16 4//4
f 19//19 16//16 18//18
f 20//20 19//19 18//18
f 17//17 16//16 19//19
f 30//30 27//27 26//26
f 28//28 57//57 29//29
f 30//30 28//28 27//27
f 30//30 32//32 28//28
f 34//34 33//33 31//31
f 32//32 31//31 28//28
f 35//35 33//33 34//34
f 36//36 35//35 34//34
f 37//37 30//30 26//26
f 13//13 37//37 26//26
f 36//36 34//34 38//38
f 37//37 40//40 30//30
f 17//17 37//37 13//13
f 43//43 40//40 37//37
f 44//44 43//43 37//37
f 44//44 37//37 17//17
f 41//41 38//38 45//45
f 47//47 43//43 44//44
f 21//21 44//44 17//17
f 21//21 47//47 44//44
f 51//51 47//47 21//21
f 20//20 51//51 21//21
f 53//53 24//24 35//35
f 56//56 41//41 48//48
f 60//60 22//22 59//59
f 5//5 22//22 60//60
f 60//60 59//59 62//62
f 62//62 59//59 61//61
f 62//62 61//61 63//63
f 63//63 61//61 58//58
f 63//63 58//58 64//64
f 64//64 58//58 54//54
f 64//64 54//54 6//6
f 42//42 43//43 46//46
f 15//15 8//8 25//25
f 21//21 17//17 19//19
f 2//2 63//63 4//4
f 25//25 9//9 12//12
f 21//21 19//19 20//20
f 53//53 35//35 52//52
f 35//35 55//55 52//52
f 23//23 22//22 5//5
f 34//34 31//31 32//32
f 4//4 63//63 64//64
f 8//8 15//15 5//5
f 25//25 26//26 27//27
f 15//15 23//23 5//5
f 61//61 52//52 56//56
f 58//58 61//61 56//56
f 11//11 14//14 16//16
f 3//3 2//2 4//4
f 36//36 55//55 35//35
f 1//1 5//5 2//2
f 23//23 24//24 22//22
f 45//45 48//48 41//41
f 6//6 54//54 51//51
f 57//57 33//33 24//24
f 38//38 42//42 45//45
f 14//14 3//3 16//16
f 27//27 28//28 29//29
f 38//38 34//34 39//39
f 10//10 1//1 2//2
f 39//39 32//32 40//40
f 54//54 50//50 51//51
f 23//23 29//29 57//57
f 45//45 50//50 49//49
f 60//60 62//62 2//2
f 23//23 15//15 29//29
f 42//42 39//39 43//43
f 45//45 42//42 46//46
f 20//20 18//18 6//6
f 18//18 4//4 6//6
f 8//8 5//5 1//1
f 4//4 64//64 6//6
f 50//50 46//46 47//47
f 11//11 10//10 14//14
f 15//15 25//25 29//29
f 53//53 52//52 22//22
f 25//25 8//8 9//9
f 56//56 48//48 54//54
f 8//8 7//7 9//9
f 48//48 49//49 54//54
f 7//7 1//1 10//10
f 22//22 24//24 53//53
f 7//7 8//8 1//1
f 33//33 35//35 24//24
f 5//5 60//60 2//2
f 51//51 20//20 6//6
f 62//62 63//63 2//2
f 52//52 61//61 59//59
f 24//24 23//23 57//57
f 41//41 56//56 55//55
f 57//57 31//31 33//33
f 49//49 50//50 54//54
f 52//52 55//55 56//56
f 38//38 41//41 36//36
f 46//46 43//43 47//47
f 31//31 57//57 28//28
f 38//38 39//39 42//42
f 16//16 17//17 11//11
f 45//45 46//46 50//50
f 10//10 2//2 3//3
f 12//12 26//26 25//25
f 14//14 10//10 3//3
f 59//59 22//22 52//52
f 58//58 56//56 54//54
f 45//45 49//49 48//48
f 36//36 41//41 55//55
f 26//26 12//12 13//13
f 29//29 25//25 27//27
f 34//34 32//32 39//39
f 32//32 30//30 40//40
f 39//39 40//40 43//43
f 51//51 50//50 47//47
f 17//17 13//13 11//11
# 124 faces, 0 coords texture

# End of File
