####
#
# OBJ File Generated by Meshlab
#
####
# Object ring_dist_col.obj
#
# Vertices: 64
# Faces: 124
#
####
mtllib ./ring_dist_col.obj.mtl

vn 5.315172 2.067806 0.708795
v 0.008279 0.004449 -0.004142
vn 4.783023 3.563053 -0.249523
v 0.007566 0.005592 -0.012026
vn 6.046631 1.316131 -0.361697
v 0.008378 0.003092 -0.013364
vn 5.676635 -1.188919 0.795451
v 0.008816 -0.002745 -0.004875
vn 2.199959 4.430441 1.255582
v 0.004675 0.007957 0.001428
vn 3.952963 4.284058 -0.844843
v 0.006448 0.006259 -0.017308
vn 5.782263 1.732598 -1.040608
v 0.007600 0.003357 -0.019643
vn 5.366873 1.854623 -1.788891
v 0.006443 0.003550 -0.024750
vn 4.593969 1.527841 -3.312555
v 0.005413 0.003318 -0.027132
vn 5.600468 -0.880371 -1.901511
v 0.007273 -0.001005 -0.023193
vn 4.070835 -1.159878 -3.741956
v 0.005379 0.000619 -0.027426
vn 6.120932 -0.213301 -0.669901
v 0.008593 -0.000268 -0.015592
vn 4.347996 -3.093048 -2.746307
v 0.006301 -0.003047 -0.023504
vn 5.196292 -2.693535 -0.155039
v 0.008248 -0.004993 -0.010896
vn 4.404173 -3.371823 -1.532405
v 0.006818 -0.005262 -0.019201
vn 3.456400 -4.685347 -0.705768
v 0.006401 -0.006751 -0.015518
vn 1.324927 5.820582 -0.625114
v 0.003694 0.007801 -0.015748
vn -1.390676 5.803221 -0.649510
v -0.003815 0.007746 -0.015850
vn -3.983768 4.280349 -0.824140
v -0.006524 0.006225 -0.017057
vn -3.649724 3.550839 -2.260076
v -0.005429 0.004732 -0.025751
vn -2.275636 4.448878 -2.673137
v -0.003876 0.005002 -0.027097
vn -5.393924 1.900524 -1.906049
v -0.006431 0.003524 -0.024798
vn -2.018992 2.819796 -4.376758
v -0.002538 0.003930 -0.029188
vn 0.153219 4.670698 -3.159560
v -0.000003 0.005033 -0.028622
vn 2.839704 4.162699 -2.190464
v 0.004993 0.004973 -0.026188
vn 2.599267 1.808733 -4.452142
v 0.003564 0.003334 -0.028887
vn 0.998132 1.635250 -5.096191
v 0.001213 0.003356 -0.029810
vn -5.796351 1.711421 -0.845875
v -0.007949 0.003515 -0.017421
vn -4.361080 -0.345441 -3.504644
v -0.005678 0.001242 -0.027233
vn -5.747729 -0.362870 -1.816139
v -0.007220 0.000461 -0.023600
vn -3.480081 0.760084 -4.218113
v -0.003890 0.002277 -0.028877
vn -1.187807 -0.090881 -5.605265
v -0.001714 0.002238 -0.029875
vn -0.108737 -2.329432 -5.404481
v -0.000300 0.000432 -0.029575
vn 1.708589 -2.075838 -5.144627
v 0.002259 0.000427 -0.029223
vn -2.506954 -2.605620 -4.796808
v -0.003372 -0.000001 -0.028498
vn -5.059658 -2.710679 -1.420074
v -0.007280 -0.004466 -0.019439
vn -3.755183 -3.091756 -3.062018
v -0.005773 -0.003133 -0.024341
vn -0.758052 -4.140562 -4.206828
v -0.001326 -0.003204 -0.026828
vn 2.137498 -3.903122 -3.918336
v 0.003691 -0.003250 -0.025939
vn -6.069712 -0.921461 -0.696662
v -0.008331 -0.002585 -0.015828
vn -3.065552 -4.538312 -2.183525
v -0.005593 -0.005662 -0.020968
vn -0.637714 -5.092939 -3.100109
v -0.001233 -0.005803 -0.023520
vn 1.910159 -4.934663 -2.750547
v 0.003639 -0.005794 -0.022559
vn -3.657103 -4.564216 -0.787043
v -0.006354 -0.006755 -0.015732
vn -2.047496 -5.564102 -1.118522
v -0.004696 -0.007363 -0.016965
vn -0.426932 -5.837484 -1.707707
v -0.001097 -0.007453 -0.019588
vn 1.499799 -5.665220 -1.499099
v 0.003383 -0.007343 -0.018742
vn -5.089235 -3.073029 -0.130186
v -0.008007 -0.005274 -0.010748
vn -0.380757 -6.202790 -0.404653
v -0.001369 -0.007983 -0.015366
vn 0.946535 -6.096514 -0.343195
v 0.002873 -0.007952 -0.014400
vn -4.867147 3.379556 -0.149827
v -0.007751 0.005487 -0.009589
vn -2.213239 4.492442 1.195398
v -0.004675 0.007947 0.001377
vn -6.142159 0.708839 -0.371890
v -0.008579 0.001926 -0.013566
vn -5.424226 1.945928 0.790407
v -0.008319 0.004252 -0.004061
vn -6.006473 -0.369425 0.968568
v -0.008793 -0.001997 -0.004737
vn -5.649402 -1.807291 0.515210
v -0.008706 -0.003425 -0.005632
vn 2.347613 -4.395458 1.108496
v 0.004749 -0.007876 0.001435
vn -2.334155 -4.358266 1.167876
v -0.004747 -0.007877 0.001442
vn -2.316767 -2.568047 2.861391
v -0.004762 -0.005714 0.005782
vn -2.303420 2.566413 2.903524
v -0.004751 0.005659 0.005829
vn 2.299651 2.358980 2.994994
v 0.004759 0.005287 0.006177
vn -2.306540 -0.008265 3.671112
v -0.004763 -0.000025 0.008126
vn 2.307095 -0.246925 3.660479
v 0.004761 -0.000575 0.008106
vn 2.322411 -2.766752 2.759130
v 0.004754 -0.006063 0.005408
# 64 vertices, 0 vertices normals


usemtl material_0
f 12//12 3//3 4//4
f 10//10 8//8 7//7
f 11//11 8//8 10//10
f 11//11 9//9 8//8
f 12//12 7//7 3//3
f 14//14 12//12 4//4
f 15//15 10//10 14//14
f 16//16 15//15 14//14
f 23//23 21//21 24//24
f 26//26 24//24 25//25
f 27//27 24//24 26//26
f 9//9 25//25 8//8
f 23//23 31//31 29//29
f 20//20 23//23 29//29
f 23//23 32//32 31//31
f 33//33 32//32 27//27
f 23//23 27//27 32//32
f 34//34 27//27 26//26
f 34//34 33//33 27//27
f 11//11 26//26 9//9
f 11//11 34//34 26//26
f 64//64 63//63 59//59
f 35//35 31//31 32//32
f 35//35 29//29 31//31
f 33//33 35//35 32//32
f 37//37 29//29 35//35
f 38//38 35//35 33//33
f 38//38 33//33 34//34
f 39//39 38//38 34//34
f 39//39 34//34 11//11
f 13//13 39//39 11//11
f 42//42 38//38 39//39
f 43//43 42//42 39//39
f 43//43 39//39 13//13
f 15//15 43//43 13//13
f 46//46 42//42 43//43
f 47//47 46//46 43//43
f 47//47 43//43 15//15
f 16//16 47//47 15//15
f 48//48 36//36 44//44
f 50//50 46//46 47//47
f 50//50 49//49 46//46
f 50//50 47//47 16//16
f 28//28 51//51 19//19
f 40//40 53//53 30//30
f 55//55 53//53 56//56
f 5//5 52//52 60//60
f 5//5 60//60 61//61
f 61//61 60//60 62//62
f 61//61 62//62 63//63
f 48//48 44//44 58//58
f 53//53 55//55 54//54
f 36//36 30//30 37//37
f 40//40 56//56 53//53
f 41//41 36//36 37//37
f 49//49 50//50 58//58
f 30//30 53//53 28//28
f 54//54 60//60 52//52
f 18//18 20//20 19//19
f 20//20 22//22 19//19
f 54//54 62//62 60//60
f 55//55 62//62 54//54
f 36//36 48//48 40//40
f 62//62 55//55 59//59
f 41//41 46//46 45//45
f 51//51 53//53 54//54
f 5//5 61//61 1//1
f 8//8 6//6 7//7
f 30//30 36//36 40//40
f 41//41 45//45 36//36
f 2//2 1//1 3//3
f 45//45 58//58 44//44
f 57//57 14//14 4//4
f 45//45 49//49 58//58
f 21//21 20//20 18//18
f 40//40 48//48 56//56
f 10//10 7//7 12//12
f 57//57 64//64 58//58
f 6//6 5//5 2//2
f 5//5 1//1 2//2
f 25//25 6//6 8//8
f 37//37 42//42 41//41
f 51//51 54//54 52//52
f 45//45 46//46 49//49
f 22//22 29//29 30//30
f 57//57 16//16 14//14
f 41//41 42//42 46//46
f 37//37 38//38 42//42
f 61//61 63//63 1//1
f 6//6 17//17 5//5
f 52//52 5//5 17//17
f 58//58 50//50 57//57
f 18//18 19//19 52//52
f 19//19 51//51 52//52
f 17//17 6//6 25//25
f 28//28 53//53 51//51
f 10//10 12//12 14//14
f 57//57 50//50 16//16
f 7//7 2//2 3//3
f 25//25 24//24 17//17
f 58//58 59//59 56//56
f 7//7 6//6 2//2
f 19//19 22//22 28//28
f 56//56 48//48 58//58
f 24//24 18//18 17//17
f 63//63 64//64 4//4
f 22//22 30//30 28//28
f 37//37 35//35 38//38
f 13//13 10//10 15//15
f 64//64 57//57 4//4
f 11//11 10//10 13//13
f 63//63 4//4 1//1
f 23//23 20//20 21//21
f 3//3 1//1 4//4
f 29//29 22//22 20//20
f 26//26 25//25 9//9
f 17//17 18//18 52//52
f 27//27 23//23 24//24
f 24//24 21//21 18//18
f 63//63 62//62 59//59
f 30//30 29//29 37//37
f 55//55 56//56 59//59
f 45//45 44//44 36//36
f 64//64 59//59 58//58
# 124 faces, 0 coords texture

# End of File
