####
#
# OBJ File Generated by Meshlab
#
####
# Object thumbtip_col.obj
#
# Vertices: 29
# Faces: 52
#
####
vn 0.000000 0.000000 0.000000
v 0.000000 0.000000 0.000000 0.000000 0.000000 0.000000
vn -4.544172 1.989496 2.358983
v -0.003873 0.006408 0.043993 0.800000 0.800000 0.800000
vn -2.338680 -5.156157 0.455342
v -0.006478 -0.008396 0.029340 0.800000 0.800000 0.800000
vn -1.348408 4.688233 2.003141
v -0.001079 0.008490 0.044876 0.800000 0.800000 0.800000
vn 2.255202 1.788008 -2.161345
v 0.006403 0.001787 -0.009350 0.800000 0.800000 0.800000
vn -4.570459 -2.746953 -0.325860
v -0.009685 -0.007193 0.009769 0.800000 0.800000 0.800000
vn -1.862321 -5.014062 -1.241099
v -0.007422 -0.008511 0.007204 0.800000 0.800000 0.800000
vn 1.330760 -4.635061 2.000216
v 0.005159 -0.008260 0.045252 0.800000 0.800000 0.800000
vn -2.772241 4.429898 0.683401
v -0.006798 0.008415 0.030091 0.800000 0.800000 0.800000
vn -1.874192 1.776614 4.135409
v -0.001489 0.006610 0.046775 0.800000 0.800000 0.800000
vn -5.455728 1.827327 0.769472
v -0.009223 0.005977 0.025525 0.800000 0.800000 0.800000
vn 4.610236 1.295276 1.985421
v 0.007359 0.006098 0.045242 0.800000 0.800000 0.800000
vn 1.453072 -1.728033 -1.693424
v 0.006377 -0.004575 -0.009495 0.800000 0.800000 0.800000
vn 2.185108 4.302705 -1.459536
v 0.005892 0.008282 0.005832 0.800000 0.800000 0.800000
vn -5.069451 -2.328545 0.390339
v -0.009792 -0.006477 0.019038 0.800000 0.800000 0.800000
vn 2.038501 -1.563675 4.293017
v 0.005898 -0.006434 0.046717 0.800000 0.800000 0.800000
vn -3.469421 -2.019167 2.994614
v -0.002586 -0.006679 0.045988 0.800000 0.800000 0.800000
vn 2.046937 3.790915 1.746691
v 0.005976 0.008218 0.045192 0.800000 0.800000 0.800000
vn 1.570337 1.619211 4.742847
v 0.005412 0.006358 0.046869 0.800000 0.800000 0.800000
vn -2.425608 4.608443 -0.814469
v -0.008300 0.008368 0.007979 0.800000 0.800000 0.800000
vn 4.839239 2.102954 -1.106800
v 0.007397 0.006459 0.005803 0.800000 0.800000 0.800000
vn -1.189378 -2.163003 4.568156
v -0.001116 -0.006782 0.046779 0.800000 0.800000 0.800000
vn -4.853231 -2.276700 1.434713
v -0.007384 -0.006496 0.033771 0.800000 0.800000 0.800000
vn 4.140489 -2.156007 1.428134
v 0.007281 -0.006900 0.044904 0.800000 0.800000 0.800000
vn -1.324369 -5.101238 1.700455
v -0.000888 -0.008390 0.044727 0.800000 0.800000 0.800000
vn -0.890991 0.147079 -1.380133
v -0.008171 0.001253 -0.012442 0.800000 0.800000 0.800000
vn -5.333775 2.094446 -0.096755
v -0.009940 0.006525 0.010647 0.800000 0.800000 0.800000
vn 2.146990 -4.736833 -0.783352
v 0.005922 -0.008354 0.005990 0.800000 0.800000 0.800000
vn 4.813247 0.208201 -0.156446
v 0.007472 -0.006156 0.005839 0.800000 0.800000 0.800000
# 29 vertices, 0 vertices normals

f 8//8 24//24 16//16
f 11//11 27//27 15//15
f 12//12 16//16 24//24
f 27//27 6//6 15//15
f 17//17 22//22 10//10
f 17//17 2//2 23//23
f 9//9 14//14 20//20
f 13//13 21//21 24//24
f 19//19 18//18 10//10
f 24//24 8//8 28//28
f 9//9 11//11 2//2
f 29//29 13//13 24//24
f 16//16 12//12 19//19
f 22//22 8//8 16//16
f 22//22 25//25 8//8
f 5//5 21//21 13//13
f 11//11 9//9 27//27
f 21//21 14//14 18//18
f 9//9 20//20 27//27
f 19//19 12//12 18//18
f 3//3 28//28 8//8
f 22//22 19//19 10//10
f 25//25 3//3 8//8
f 4//4 18//18 14//14
f 21//21 18//18 12//12
f 7//7 28//28 3//3
f 15//15 23//23 11//11
f 13//13 26//26 5//5
f 26//26 21//21 5//5
f 3//3 6//6 7//7
f 3//3 15//15 6//6
f 29//29 28//28 13//13
f 6//6 27//27 26//26
f 27//27 20//20 26//26
f 2//2 10//10 4//4
f 20//20 14//14 26//26
f 14//14 21//21 26//26
f 13//13 28//28 26//26
f 17//17 23//23 3//3
f 22//22 16//16 19//19
f 28//28 7//7 26//26
f 7//7 6//6 26//26
f 29//29 24//24 28//28
f 22//22 17//17 25//25
f 21//21 12//12 24//24
f 10//10 18//18 4//4
f 23//23 15//15 3//3
f 2//2 17//17 10//10
f 14//14 9//9 4//4
f 2//2 4//4 9//9
f 25//25 17//17 3//3
f 11//11 23//23 2//2
# 52 faces, 0 coords texture

# End of File
